<svg width="454" height="480" viewBox="0 0 454 480" fill="none" xmlns="http://www.w3.org/2000/svg">
<path d="M307.722 215.57C308.388 215.841 310.741 213.486 311.116 213.486C311.491 213.486 311.887 213.195 311.804 212.57C311.804 212.57 320.446 189.651 312.074 178.233C304.285 167.523 267.319 139.958 261.342 144.271C260.905 144.584 257.614 146.146 257.531 146.834C256.427 156.877 267.944 180.171 271.359 184.108C274.233 187.567 299.62 212.34 307.722 215.57ZM275.42 180.733C272.921 177.754 266.257 161.752 267.09 154.21C267.923 146.667 303.036 172.628 309.117 181.129C315.198 189.63 305.285 203.694 305.285 203.694C306.014 208.632 277.92 183.692 275.42 180.733Z" fill="#606362"/>
<path d="M308.513 214.653C308.513 214.653 317.156 191.734 308.784 180.316C300.412 168.899 258.385 137.833 257.281 147.876C256.177 157.918 264.653 182.171 268.089 186.213C271.526 190.255 309.492 221.279 308.513 214.653ZM272.067 182.754C269.568 179.775 262.925 163.773 263.737 156.252C264.549 148.73 299.683 174.649 305.764 183.15C311.845 191.651 301.932 205.715 301.932 205.715C302.661 210.674 274.566 185.734 272.067 182.754Z" fill="#141817"/>
<path d="M241.203 420.632L310.908 387.879L284.792 353.896L214.379 381.191L241.203 420.632Z" fill="#4B6182"/>
<path d="M12.9699 271.013L82.6748 238.26L56.5797 204.277L7.70093 250.865L12.9699 271.013Z" fill="#060A09"/>
<path d="M381.404 280.514C381.721 281.061 382.167 281.523 382.703 281.858C383.239 282.193 383.849 282.392 384.48 282.438C385.11 282.483 385.742 282.373 386.321 282.117C386.899 281.862 387.406 281.469 387.798 280.972L405.854 262.991C410.894 257.97 412.935 249.219 411.519 238.718L380.842 115.227L374.99 111.56L404.584 230.905C406.104 241.635 406.854 253.386 401.689 258.449L383.758 275.993C382.196 277.534 380.196 278.764 381.487 280.514H381.404Z" fill="#3D4140"/>
<path d="M402.938 259.72C408.103 254.636 408.666 244.698 405.812 232.176L376.239 112.831L380.967 115.998L380.842 115.227L374.99 111.56L404.584 230.905C406.104 241.635 406.854 253.386 401.689 258.449L381.987 277.659C381.05 278.576 380.759 279.493 381.342 280.264L402.938 259.72Z" fill="#242928"/>
<path d="M411.602 238.718L380.842 115.227L374.99 111.56V112.039L378.78 111.893L408.749 235.072C412.123 252.469 408.082 257.199 403.043 262.158L384.965 280.139C384.237 280.868 383.07 281.972 383.07 281.972C383.856 282.402 384.771 282.532 385.645 282.336C386.518 282.141 387.291 281.634 387.819 280.91L405.875 262.929C410.977 257.97 413.31 251.261 411.602 238.718Z" fill="#606362"/>
<path d="M378.197 335.999L397.607 370.231L410.394 392.817L419.932 409.61C419.932 409.61 433.823 401.484 442.841 396.296L445.444 394.775C445.492 394.787 445.542 394.787 445.59 394.775C450.422 391.421 453.379 385.024 453.379 376.023C453.37 373.467 453.147 370.916 452.713 368.398C451.116 359.711 447.818 351.426 443.008 344.02C438.103 335.966 431.367 329.185 423.348 324.227C415.996 320.059 409.207 319.143 403.98 321.185C403.147 321.726 402.085 322.393 400.918 323.081C392.671 327.956 378.197 335.999 378.197 335.999Z" fill="#4B6182"/>
<path d="M442.945 344.041L397.607 370.231L410.394 392.817L452.65 368.418C451.054 359.732 447.756 351.447 442.945 344.041Z" fill="#4B6182"/>
<path d="M453.317 376.044C453.317 384.941 450.36 391.379 445.528 394.796H445.403C445.111 395.004 444.82 395.171 444.507 395.359L442.633 396.442L442.779 396.317C447.444 392.962 450.297 386.649 450.297 377.919C450.297 358.897 436.864 335.707 420.287 326.143C412.873 321.851 406.104 321.018 400.856 323.122C400.544 323.226 400.252 323.372 399.96 323.497C400.314 323.289 400.627 323.06 400.877 322.893C401.812 322.217 402.826 321.657 403.897 321.226C409.124 319.143 415.892 320.018 423.286 324.268C439.863 333.832 453.317 357.126 453.317 376.044Z" fill="#2C3C55"/>
<path d="M417.496 327.623C408.582 322.476 400.564 322.31 395.066 326.227L394.15 326.852C399.502 324.289 406.646 324.956 414.476 329.477C431.137 339.061 444.487 362.23 444.487 381.274C444.487 390.108 441.571 396.442 436.802 399.797L438.718 398.692C444.132 395.609 447.506 388.921 447.506 379.42C447.506 360.397 434.073 337.207 417.496 327.623Z" fill="#2C3C55"/>
<path d="M412.06 330.79C403.147 325.643 395.129 325.477 389.631 329.394L388.714 330.019C394.067 327.456 401.21 328.102 409.041 332.644C425.701 342.208 439.051 365.397 439.051 384.42C439.051 393.254 436.135 399.609 431.366 402.943L433.282 401.859C438.697 398.755 442.071 392.088 442.071 382.566C442.071 363.543 428.638 340.457 412.06 330.79Z" fill="#2C3C55"/>
<path d="M406.625 333.957C397.711 328.81 389.693 328.644 384.195 332.54L383.279 333.165C388.631 330.602 395.774 331.269 403.605 335.811C420.266 345.375 433.615 368.564 433.615 387.587C433.615 396.421 430.7 402.755 425.931 406.11L427.847 405.005C433.261 401.922 436.635 395.254 436.635 385.733C436.635 366.71 423.182 343.52 406.625 333.957Z" fill="#2C3C55"/>
<path d="M420.287 409.409C431.935 402.597 431.82 380.718 420.03 360.542C408.241 340.366 389.241 329.532 377.594 336.344C365.946 343.156 366.061 365.035 377.851 385.211C389.64 405.387 408.64 416.221 420.287 409.409Z" fill="#4B6182"/>
<path d="M424.743 387.795C424.743 404.151 413.185 410.714 398.94 402.505C384.695 394.296 373.074 374.336 373.074 357.959C373.074 341.583 384.632 335.04 398.898 343.229C413.164 351.417 424.743 371.419 424.743 387.795Z" fill="#2C3C55"/>
<path d="M413.435 397.681C421.339 393.059 421.257 378.206 413.252 364.507C405.247 350.807 392.351 343.449 384.447 348.072C376.543 352.695 376.624 367.548 384.629 381.247C392.634 394.946 405.531 402.304 413.435 397.681Z" fill="#2C3C55"/>
<path d="M417.85 381.545C417.85 392.421 410.186 396.796 400.71 391.338C391.234 385.879 383.57 372.586 383.57 361.751C383.57 350.917 391.255 346.521 400.71 351.979C410.165 357.438 417.85 370.69 417.85 381.545Z" fill="#9EA2A5"/>
<path d="M416.08 382.774C416.08 393.65 408.395 398.025 398.94 392.546C389.485 387.066 381.8 373.794 381.8 362.98C381.8 352.167 389.464 347.729 398.94 353.208C408.416 358.688 416.08 371.898 416.08 382.774Z" fill="#D6D8D9"/>
<path d="M413.435 381.253C413.435 381.586 413.435 381.941 413.435 382.274C413.391 384.064 412.95 385.822 412.143 387.42C409.853 391.796 404.833 392.858 399.002 389.504C394.774 386.782 391.249 383.097 388.715 378.752C386.182 374.407 384.711 369.524 384.424 364.501C384.424 359.543 386.298 356.167 389.318 354.896C389.43 354.834 389.549 354.785 389.672 354.75C392.017 353.98 394.568 354.144 396.795 355.209C397.508 355.508 398.204 355.849 398.877 356.23C405.389 360.486 410.156 366.941 412.31 374.419C412.761 375.893 413.068 377.407 413.226 378.94C413.337 379.707 413.406 380.479 413.435 381.253Z" fill="#9EA2A4"/>
<path d="M413.435 381.253C413.435 381.586 413.435 381.941 413.435 382.274C413.392 384.064 412.95 385.822 412.144 387.42L411.873 387.545L411.102 387.795C410.797 387.89 410.483 387.953 410.165 387.983C409.811 388.004 409.457 388.004 409.103 387.983C408.46 388.009 407.816 387.953 407.187 387.816C406.145 387.611 405.131 387.282 404.167 386.837L403.48 386.504C403.18 386.367 402.888 386.214 402.605 386.045C401.363 385.316 400.192 384.472 399.106 383.524L398.024 382.524C397.378 381.899 396.732 381.232 396.128 380.44C394.719 378.803 393.464 377.038 392.38 375.169C391.827 374.232 391.326 373.265 390.88 372.273C390.412 371.308 390.008 370.312 389.672 369.293C389.354 368.427 389.083 367.543 388.86 366.647C388.673 365.856 388.506 365.085 388.402 364.314C388.347 364.053 388.312 363.788 388.298 363.522C388.243 363.163 388.209 362.801 388.194 362.439C388.194 361.98 388.194 361.522 388.194 361.043C388.184 360.248 388.24 359.453 388.36 358.667C388.347 358.494 388.347 358.32 388.36 358.147C388.39 357.929 388.432 357.713 388.485 357.501C388.508 357.352 388.542 357.206 388.589 357.063L388.839 356.23C388.994 355.752 389.196 355.291 389.443 354.855C389.555 354.792 389.674 354.743 389.797 354.709C392.142 353.938 394.693 354.102 396.92 355.167C397.634 355.466 398.329 355.807 399.002 356.188C405.515 360.444 410.282 366.899 412.435 374.377C412.886 375.851 413.193 377.365 413.352 378.899C413.422 379.681 413.449 380.467 413.435 381.253Z" fill="#7B8184"/>
<path d="M410.228 372.773C410.279 373.489 410.179 374.207 409.935 374.882C409.691 375.557 409.308 376.173 408.811 376.69C407.502 377.679 406.108 378.55 404.646 379.295L395.17 363.043C396.294 362.479 397.373 361.832 398.398 361.105C399.169 360.582 400.084 360.315 401.015 360.341C401.946 360.367 402.844 360.686 403.584 361.251C405.515 362.518 407.122 364.221 408.276 366.222C409.429 368.223 410.098 370.467 410.228 372.773Z" fill="#9EA2A5"/>
<path d="M396.815 355.209C396.791 355.659 396.662 356.097 396.438 356.488C396.214 356.879 395.901 357.211 395.524 357.459C393.921 358.376 391.484 357.167 389.693 354.75C392.037 353.98 394.589 354.144 396.815 355.209ZM392.65 363.772C392.561 362.319 392.168 360.901 391.497 359.609C390.827 358.317 389.893 357.18 388.756 356.271C388.236 357.829 387.982 359.463 388.006 361.105C388.026 363.025 388.278 364.934 388.756 366.793C390.942 367.648 392.629 366.439 392.629 363.772H392.65ZM412.352 375.148C412.383 376.468 412.71 377.764 413.31 378.94C413.151 377.407 412.844 375.893 412.393 374.419C412.352 374.648 412.331 374.898 412.331 375.148H412.352ZM395.982 380.586C397.274 379.253 397.128 376.253 395.503 373.44C393.879 370.627 391.338 368.981 389.505 369.439C390.965 373.52 393.16 377.298 395.982 380.586ZM409.415 381.482C407.791 382.399 407.645 385.253 408.957 388.066C409.311 388.087 409.665 388.087 410.019 388.066C410.337 388.036 410.651 387.973 410.956 387.879L411.727 387.629L411.998 387.504C412.804 385.905 413.245 384.147 413.289 382.357C412.797 381.859 412.173 381.511 411.49 381.356C410.808 381.201 410.095 381.245 409.436 381.482H409.415ZM407.041 387.879C406.816 386.44 406.292 385.064 405.503 383.84C404.714 382.617 403.677 381.572 402.459 380.774C400.148 379.44 398.294 380.274 397.878 382.587C399.258 383.94 400.796 385.123 402.459 386.108C403.884 386.95 405.44 387.548 407.062 387.879H407.041Z" fill="#1F282E"/>
<path d="M392.213 365.71C391.707 365.726 391.202 365.634 390.734 365.439C390.255 363.58 390.004 361.67 389.985 359.751C389.982 359.054 390.031 358.357 390.131 357.667C389.713 357.176 389.245 356.729 388.735 356.334C388.215 357.891 387.962 359.526 387.985 361.168C388.006 363.087 388.257 364.997 388.735 366.856C389.037 367.016 389.369 367.113 389.709 367.142C390.05 367.17 390.393 367.13 390.718 367.023C391.043 366.916 391.342 366.745 391.599 366.519C391.856 366.293 392.065 366.018 392.213 365.71Z" fill="#52595E"/>
<path d="M390.505 355.688C391.153 356.509 392.019 357.13 393.004 357.48C393.397 357.671 393.828 357.771 394.264 357.771C394.701 357.771 395.132 357.671 395.524 357.48C395.944 357.237 396.273 356.864 396.462 356.417C395.682 356.377 394.92 356.17 394.227 355.81C393.533 355.451 392.925 354.947 392.442 354.334C391.505 354.311 390.572 354.467 389.693 354.792L390.505 355.688Z" fill="#52595E"/>
<path d="M412.373 374.419C412.373 374.648 412.373 374.898 412.373 375.148C412.404 376.468 412.731 377.764 413.331 378.94C413.158 377.406 412.837 375.892 412.373 374.419Z" fill="#52595E"/>
<path d="M404.459 384.754C402.806 383.77 401.275 382.595 399.898 381.253C399.956 380.868 400.075 380.496 400.252 380.149C399.628 380.195 399.044 380.468 398.61 380.918C398.176 381.368 397.922 381.962 397.898 382.587C399.278 383.941 400.817 385.123 402.48 386.108C403.899 386.948 405.447 387.546 407.062 387.879C406.95 387.166 406.761 386.468 406.5 385.795C405.796 385.495 405.114 385.147 404.459 384.754Z" fill="#52595E"/>
<path d="M392.317 370.065C391.504 369.5 390.502 369.275 389.526 369.439C390.985 373.52 393.181 377.298 396.003 380.586C396.641 379.803 396.947 378.801 396.857 377.794C395.016 375.425 393.49 372.827 392.317 370.065Z" fill="#52595E"/>
<path d="M412.019 386.649C411.665 386.681 411.31 386.681 410.957 386.649C410.493 385.814 410.211 384.891 410.129 383.94C410.046 382.988 410.165 382.03 410.478 381.128C410.112 381.138 409.754 381.238 409.436 381.42C409.066 381.662 408.757 381.988 408.537 382.372C408.316 382.755 408.189 383.186 408.166 383.628C407.998 384.528 408.107 385.458 408.478 386.295C408.624 386.876 408.826 387.441 409.082 387.983C409.436 388.003 409.791 388.003 410.144 387.983C410.462 387.953 410.776 387.89 411.081 387.795L411.852 387.545L412.123 387.42C412.269 387.149 412.394 386.858 412.519 386.566L412.019 386.649Z" fill="#52595E"/>
<path d="M406.625 374.982C406.625 379.149 403.626 380.92 399.94 378.795C397.999 377.534 396.382 375.835 395.221 373.833C394.059 371.831 393.386 369.583 393.254 367.273C393.254 363.105 396.253 361.334 399.94 363.46C401.88 364.72 403.497 366.42 404.659 368.421C405.82 370.423 406.494 372.671 406.625 374.982Z" fill="#D6D8D9"/>
<path d="M338.273 434.529L320.384 425.466V378.253L345.438 392.713L338.273 434.529Z" fill="#2C3C55"/>
<path d="M338.273 434.529L416.35 390.275L423.515 348.458L345.438 392.713L338.273 434.529Z" fill="#4B6182"/>
<path d="M259.03 404.464L278.628 438.967L281.647 444.301L300.807 478.055L323.716 464.741L326.34 463.241H326.465C331.297 459.886 334.254 453.469 334.254 444.489C334.245 442.039 334.043 439.594 333.65 437.175C332.089 428.479 328.834 420.175 324.07 412.736C319.151 404.57 312.354 397.698 304.244 392.692C296.85 388.525 290.103 387.608 284.834 389.65L281.793 391.546C273.504 396.463 259.03 404.464 259.03 404.464Z" fill="#2C3C55"/>
<path opacity="0.2" d="M275.524 440.759L281.647 444.301L301.453 455.719L333.504 437.196C331.943 428.5 328.688 420.196 323.924 412.756L278.565 438.967L275.524 440.759Z" fill="#7183A5"/>
<path d="M334.171 444.509C334.171 453.406 331.213 459.823 326.382 463.261C326.382 463.261 326.382 463.261 326.257 463.261C325.975 463.457 325.683 463.638 325.382 463.803L323.487 464.886H323.633C328.298 461.511 331.151 455.198 331.151 446.468C331.151 427.466 317.718 404.276 301.14 394.692C293.726 390.421 286.958 389.587 281.71 391.692C281.403 391.795 281.103 391.92 280.814 392.067L281.731 391.442C282.672 390.78 283.685 390.228 284.75 389.796C289.978 387.712 296.767 388.566 304.139 392.838C320.738 402.276 334.171 425.466 334.171 444.509Z" fill="#4B6182"/>
<path d="M298.35 396.088C289.436 390.942 281.439 390.775 275.941 394.692L275.004 395.317C280.356 392.754 287.5 393.421 295.33 397.942C311.991 407.506 325.341 430.696 325.341 449.718C325.341 458.552 322.425 464.907 317.656 468.241L319.572 467.157C325.007 464.053 328.36 457.386 328.36 447.864C328.36 428.841 314.927 405.672 298.35 396.088Z" fill="#4B6182"/>
<path d="M292.914 399.255C284.001 394.108 275.983 393.942 270.505 397.838L269.568 398.484C274.92 395.9 282.064 396.567 289.894 401.109C306.555 410.673 319.905 433.862 319.905 452.885C319.905 461.719 316.989 468.053 312.22 471.408L314.136 470.324C319.572 467.22 322.925 460.553 322.925 451.031C322.925 432.008 309.492 408.818 292.914 399.255Z" fill="#4B6182"/>
<path d="M287.479 402.401C278.565 397.255 270.547 397.088 265.049 401.005L264.133 401.63C269.485 399.067 276.628 399.734 284.459 404.255C301.12 413.84 314.469 437.009 314.469 456.052C314.469 464.866 311.554 471.22 306.784 474.575L308.7 473.471C314.115 470.366 317.489 463.699 317.489 454.198C317.489 435.154 304.056 411.985 287.479 402.401Z" fill="#4B6182"/>
<path d="M309.804 458.656C309.804 477.7 296.371 485.347 279.794 475.783C263.216 466.22 249.783 443.03 249.783 424.007C249.783 404.984 263.216 397.317 279.794 406.881C296.371 416.444 309.804 439.634 309.804 458.656Z" fill="#4B6182"/>
<path d="M305.597 456.24C305.597 472.616 294.039 479.159 279.794 470.97C265.549 462.782 253.969 442.78 253.969 426.424C253.969 410.068 265.528 403.505 279.794 411.694C294.06 419.882 305.597 439.884 305.597 456.24Z" fill="#2C3C55"/>
<path d="M300.182 453.094C300.182 466.011 291.061 471.22 279.815 464.72C268.568 458.219 259.426 442.488 259.426 429.57C259.426 416.652 268.548 411.444 279.815 417.944C291.081 424.445 300.182 440.176 300.182 453.094Z" fill="#4B6182"/>
<path d="M298.704 450.01C298.704 460.886 291.04 465.261 281.564 459.782C272.088 454.302 264.424 441.03 264.424 430.216C264.424 419.403 272.109 414.965 281.564 420.444C291.019 425.924 298.704 439.155 298.704 450.01Z" fill="#4B6182"/>
<path d="M296.934 451.239C296.934 462.094 289.249 466.47 279.794 461.011C270.339 455.552 262.654 442.259 262.654 431.425C262.654 420.59 270.318 416.194 279.794 421.653C289.27 427.112 296.934 440.467 296.934 451.239Z" fill="#7183A5"/>
<path d="M277.69 423.674C277.659 424.125 277.525 424.562 277.297 424.952C277.07 425.343 276.755 425.675 276.378 425.924C274.775 426.841 272.338 425.632 270.547 423.195C272.903 422.442 275.456 422.613 277.69 423.674ZM273.525 432.237C273.436 430.784 273.043 429.366 272.372 428.074C271.702 426.782 270.768 425.645 269.631 424.736C269.113 426.287 268.859 427.914 268.881 429.549C268.899 431.469 269.15 433.379 269.631 435.237C271.797 436.113 273.483 434.883 273.483 432.237H273.525ZM293.227 443.613C293.26 444.933 293.587 446.228 294.185 447.405C294.028 445.872 293.721 444.357 293.268 442.884C293.206 443.113 293.185 443.363 293.185 443.613H293.227ZM276.899 449.051C278.19 447.718 278.044 444.718 276.42 441.905C274.796 439.092 272.255 437.446 270.443 437.904C271.874 441.985 274.049 445.764 276.857 449.051H276.899ZM290.332 449.926C288.707 450.864 288.562 453.698 289.874 456.531C290.227 456.562 290.582 456.562 290.936 456.531C291.253 456.51 291.567 456.454 291.873 456.365L292.643 456.135L292.914 456.01C293.721 454.405 294.162 452.64 294.205 450.843C293.707 450.334 293.074 449.978 292.381 449.815C291.688 449.653 290.962 449.691 290.29 449.926H290.332ZM287.958 456.344C287.733 454.905 287.209 453.529 286.42 452.305C285.63 451.082 284.594 450.037 283.376 449.239C281.064 447.905 279.211 448.739 278.794 451.052C280.169 452.405 281.708 453.581 283.376 454.552C284.777 455.402 286.312 456.008 287.916 456.344H287.958Z" fill="#2C3C55"/>
<path d="M293.227 442.884C293.227 443.113 293.227 443.363 293.227 443.613C293.26 444.933 293.587 446.229 294.185 447.406C294.014 445.871 293.693 444.356 293.227 442.884Z" fill="#52595E"/>
<path d="M285.333 453.218C283.675 452.234 282.138 451.059 280.752 449.718C280.803 449.332 280.923 448.958 281.106 448.614C280.484 448.664 279.902 448.939 279.469 449.388C279.036 449.837 278.781 450.428 278.752 451.052C280.127 452.405 281.667 453.581 283.334 454.552C284.748 455.407 286.298 456.013 287.916 456.344C287.81 455.63 287.621 454.931 287.354 454.26C286.657 453.96 285.982 453.612 285.333 453.218Z" fill="#A7B6D1"/>
<path d="M273.108 438.509C272.296 437.961 271.305 437.744 270.339 437.905C271.783 441.988 273.972 445.768 276.795 449.052C277.114 448.666 277.354 448.22 277.501 447.741C277.648 447.262 277.698 446.758 277.649 446.26C275.807 443.883 274.281 441.278 273.108 438.509Z" fill="#A7B6D1"/>
<path d="M292.873 455.052C292.519 455.074 292.164 455.074 291.81 455.052C291.352 454.215 291.073 453.292 290.99 452.342C290.908 451.391 291.024 450.434 291.331 449.531C290.969 449.544 290.613 449.637 290.29 449.802C289.925 450.054 289.621 450.385 289.401 450.771C289.181 451.157 289.051 451.588 289.02 452.031C288.828 452.928 288.901 453.862 289.228 454.719C289.38 455.298 289.582 455.862 289.832 456.406C290.185 456.437 290.541 456.437 290.894 456.406C291.212 456.385 291.526 456.329 291.831 456.24L292.602 456.011L292.873 455.886C293.018 455.615 293.143 455.323 293.268 455.031L292.873 455.052Z" fill="#A7B6D1"/>
<path d="M103.709 310.413C103.709 319.309 100.773 325.727 95.9203 329.164H95.7953L93.1712 330.685C84.216 335.873 70.2625 343.978 70.2625 343.978L28.6104 270.409C28.6104 270.409 43.1886 262.387 51.2691 257.491C52.4146 256.782 53.4767 256.136 54.3097 255.595C59.5371 253.511 66.3264 254.365 73.6988 258.637C90.2764 268.2 103.709 291.369 103.709 310.413Z" fill="#2C3C55"/>
<path d="M103.709 310.413C103.709 319.309 100.773 325.727 95.9202 329.164H95.7953C95.5133 329.36 95.2213 329.541 94.9206 329.706L93.0254 330.79H93.1712C97.8362 327.435 100.689 321.101 100.689 312.392C100.689 293.369 87.2566 270.179 70.679 260.595C63.265 256.324 56.4965 255.49 51.2483 257.595C50.9412 257.698 50.6419 257.824 50.3528 257.97L51.29 257.345C52.221 256.679 53.2277 256.127 54.2889 255.699C59.5163 253.615 66.3056 254.47 73.678 258.741C90.2764 268.2 103.709 291.369 103.709 310.413Z" fill="#242726"/>
<path d="M67.8885 261.991C58.975 256.845 50.9777 256.678 45.4796 260.595L44.5425 261.22C49.8948 258.658 57.0381 259.324 64.8687 263.846C81.5296 273.43 94.8791 296.599 94.8791 315.622C94.8791 324.456 91.9635 330.811 87.2151 334.165C87.9649 333.707 88.6105 333.352 89.1103 333.061C94.5459 329.956 97.8989 323.289 97.8989 313.788C97.8989 294.744 84.4661 271.576 67.8885 261.991Z" fill="#242726"/>
<path d="M62.4527 265.158C53.5392 260.012 45.5419 259.845 40.0439 263.762L39.1067 264.388C44.459 261.804 51.6023 262.471 59.433 267.013C76.0938 276.576 89.4433 299.766 89.4433 318.789C89.4433 327.623 86.5277 333.957 81.7585 337.311L83.5912 336.29C89.0268 333.186 92.3798 326.519 92.3798 316.997C92.4631 297.912 79.0303 274.722 62.4527 265.158Z" fill="#4B6182"/>
<path d="M57.0172 268.304C48.1036 263.158 40.0856 263.012 34.6083 266.908L33.6086 267.533C38.9609 264.971 46.1043 265.637 53.9349 270.159C70.5958 279.743 83.9453 302.933 83.9453 321.955C83.9453 330.79 81.0296 337.124 76.2605 340.478L78.1765 339.374C83.6121 336.29 86.9651 329.602 86.9651 320.101C87.0276 301.078 73.5947 277.951 57.0172 268.304Z" fill="#4B6182"/>
<path d="M70.6783 343.79C82.3258 336.978 82.2108 315.1 70.4213 294.923C58.6318 274.747 39.6323 263.913 27.9848 270.725C16.3372 277.537 16.4523 299.416 28.2418 319.592C40.0313 339.768 59.0308 350.602 70.6783 343.79Z" fill="#4B6182"/>
<path d="M67.7039 338.679C77.7229 332.819 77.6194 313.992 67.4727 296.627C57.3259 279.262 40.9783 269.936 30.9593 275.795C20.9402 281.655 21.0437 300.482 31.1904 317.847C41.3372 335.212 57.6848 344.539 67.7039 338.679Z" fill="#2C3C55"/>
<path d="M69.7002 319.018C69.7002 331.936 60.5784 337.124 49.3323 330.623C38.0863 324.122 28.9436 308.392 28.9436 295.474C28.9436 282.556 38.0654 277.347 49.3323 283.848C60.5993 290.348 69.7002 306.1 69.7002 319.018Z" fill="#4B6182"/>
<path d="M68.2424 315.913C68.2424 326.789 60.5784 331.165 51.1025 325.685C41.6267 320.205 33.9626 306.933 33.9626 296.12C33.9626 285.306 41.6475 280.868 51.1025 286.348C60.5576 291.828 68.2424 305.037 68.2424 315.913Z" fill="#4B6182"/>
<path d="M66.4721 317.142C66.4721 327.998 58.7873 332.373 49.3323 326.914C39.8772 321.455 32.1924 308.162 32.1924 297.349C32.1924 286.535 39.8564 282.097 49.3323 287.556C58.8081 293.015 66.4721 306.266 66.4721 317.142Z" fill="#7183A5"/>
<path d="M63.8274 315.622C63.8274 315.955 63.8274 316.309 63.8274 316.622C63.7837 318.418 63.3427 320.183 62.5362 321.789C60.2661 326.164 55.2262 327.206 49.3949 323.872C45.1665 321.15 41.6416 317.466 39.1079 313.121C36.5743 308.775 35.1039 303.892 34.8167 298.87C34.8167 293.911 36.7118 290.536 39.7108 289.265L40.0856 289.098C42.4345 288.347 44.9811 288.518 47.2082 289.577C47.9259 289.867 48.6219 290.209 49.2908 290.598C55.8251 294.84 60.6097 301.299 62.7653 308.788C63.218 310.261 63.525 311.775 63.6816 313.309C63.7716 314.077 63.8203 314.849 63.8274 315.622Z" fill="#7183A5"/>
<path d="M47.229 289.577C47.198 290.028 47.0635 290.466 46.8359 290.856C46.6084 291.246 46.2939 291.579 45.917 291.828C44.3134 292.744 41.8767 291.536 40.1065 289.098C42.4553 288.347 45.0019 288.518 47.229 289.577ZM43.0638 298.141C42.9771 296.689 42.5877 295.272 41.9205 293.98C41.2534 292.688 40.3233 291.551 39.1902 290.64C38.6608 292.195 38.407 293.831 38.4404 295.474C38.4512 297.394 38.7031 299.305 39.1902 301.162C41.3352 302.016 43.0221 300.87 43.0221 298.141H43.0638ZM62.7653 309.517C62.7967 310.837 63.1241 312.133 63.7233 313.309C63.5531 311.774 63.2322 310.26 62.7653 308.788C62.7653 309.017 62.7653 309.204 62.7653 309.517ZM46.4376 314.955C47.7289 313.621 47.5831 310.621 45.9586 307.808C44.3342 304.996 41.7934 303.35 39.9815 303.808C41.4131 307.888 43.588 311.668 46.396 314.955H46.4376ZM59.8704 315.83C58.246 316.768 58.1002 319.601 59.4123 322.435C59.766 322.456 60.1207 322.456 60.4744 322.435C60.7977 322.394 61.1178 322.332 61.4324 322.247L62.203 322.018L62.4737 321.893C63.2803 320.287 63.7212 318.523 63.7649 316.726C63.2626 316.216 62.6251 315.861 61.9277 315.703C61.2302 315.544 60.5019 315.588 59.8288 315.83H59.8704ZM57.4963 322.247C57.2714 320.808 56.7475 319.433 55.9583 318.209C55.1691 316.985 54.1322 315.941 52.9145 315.142C50.6028 313.809 48.7493 314.642 48.3328 316.955C49.717 318.304 51.2548 319.486 52.9145 320.476C54.3204 321.312 55.8543 321.91 57.4546 322.247H57.4963Z" fill="#2C3C55"/>
<path d="M42.6055 300.078C42.0992 300.091 41.5958 299.999 41.1269 299.807C40.6492 297.949 40.3974 296.039 40.3771 294.119C40.3846 293.423 40.4333 292.727 40.5229 292.036C40.1067 291.55 39.6465 291.104 39.1484 290.702C38.619 292.258 38.3653 293.894 38.3987 295.536C38.4094 297.456 38.6613 299.367 39.1484 301.224C39.4497 301.381 39.7793 301.475 40.1177 301.502C40.4561 301.529 40.7965 301.488 41.1188 301.381C41.4411 301.275 41.7387 301.104 41.994 300.88C42.2494 300.657 42.4573 300.384 42.6055 300.078Z" fill="#A7B6D1"/>
<path d="M40.8978 290.057C41.5452 290.878 42.4116 291.499 43.397 291.848C43.7894 292.04 44.2203 292.14 44.6569 292.14C45.0936 292.14 45.5245 292.04 45.9169 291.848C46.3378 291.601 46.6724 291.23 46.8749 290.786C46.0928 290.743 45.3285 290.535 44.6323 290.176C43.936 289.817 43.3234 289.315 42.8347 288.702C41.9064 288.683 40.9822 288.831 40.1064 289.14C40.3499 289.462 40.6143 289.769 40.8978 290.057Z" fill="#52595E"/>
<path d="M62.7651 308.787C62.7651 309.017 62.7651 309.267 62.7651 309.517C62.7965 310.836 63.1239 312.132 63.7231 313.309C63.5529 311.774 63.232 310.259 62.7651 308.787Z" fill="#52595E"/>
<path d="M54.872 319.122C53.2092 318.145 51.6707 316.969 50.2903 315.622C50.3417 315.236 50.4615 314.862 50.6444 314.518C50.0227 314.568 49.4407 314.843 49.0074 315.292C48.5741 315.74 48.3194 316.332 48.291 316.955C49.6752 318.304 51.213 319.486 52.8727 320.477C54.2915 321.317 55.8398 321.915 57.4545 322.247C57.352 321.533 57.1632 320.833 56.8922 320.164C56.1997 319.855 55.5253 319.507 54.872 319.122Z" fill="#A7B6D1"/>
<path d="M42.7098 304.433C41.9051 303.867 40.9095 303.643 39.9399 303.808C41.3841 307.891 43.5732 311.671 46.396 314.955C46.7157 314.569 46.9557 314.124 47.1023 313.644C47.2489 313.165 47.299 312.662 47.2499 312.163C45.4131 309.791 43.8874 307.193 42.7098 304.433Z" fill="#A7B6D1"/>
<path d="M62.4319 321.018C62.0712 321.039 61.7096 321.039 61.3489 321.018C60.8905 320.181 60.6112 319.258 60.5288 318.308C60.4463 317.357 60.5625 316.4 60.8699 315.497C60.5073 315.51 60.152 315.603 59.8286 315.767C59.4632 316.02 59.1592 316.351 58.9393 316.737C58.7193 317.123 58.5891 317.554 58.5583 317.997C58.3668 318.894 58.4391 319.828 58.7665 320.685C58.9153 321.265 59.1175 321.83 59.3705 322.372C59.7242 322.394 60.0789 322.394 60.4326 322.372C60.7559 322.332 61.076 322.269 61.3906 322.185L62.1612 321.956L62.4319 321.831C62.5777 321.56 62.7026 321.268 62.8276 320.976L62.4319 321.018Z" fill="#A7B6D1"/>
<path d="M175.351 135.687C175.351 135.687 158.065 125.269 156.608 145.021L155.108 164.69L184.265 167.523L213.421 190.88L240.495 242.114L313.386 284.264L310.596 229.53L238.204 173.774L210.797 151.793L175.351 135.687Z" fill="#1E7B68"/>
<path d="M387.402 232.009L395.17 249.448L384.466 295.849L381.175 281.264L388.173 252.345L377.968 226.571L379.53 223.508L387.402 232.009Z" fill="#1E7B68"/>
<path d="M126.41 150.855L168.208 175.149L168.916 175.753L199.551 202.277L277.128 301.578L310.45 281.681L307.472 226.946L235.101 171.107L210.839 151.647L172.248 133.103C172.248 133.103 163.626 129.082 146.257 138.396C142.467 140.438 126.41 150.855 126.41 150.855Z" fill="#5CBFB1"/>
<path d="M146.194 138.354C142.467 140.437 126.41 150.855 126.41 150.855L168.208 175.149L168.916 175.753L210.776 151.668L172.185 133.124C172.185 133.124 163.563 129.124 146.194 138.354Z" fill="#74C58F"/>
<path d="M157.087 153.439L192.22 43.2197H197.177L162.418 153.439C162.4 153.672 162.319 153.897 162.183 154.087C162.047 154.278 161.862 154.429 161.648 154.522C161.061 154.822 160.411 154.979 159.752 154.979C159.094 154.979 158.444 154.822 157.857 154.522C157.644 154.422 157.46 154.267 157.325 154.073C157.19 153.879 157.108 153.653 157.087 153.418V153.439Z" fill="url(#paint0_linear_62_3442)"/>
<path d="M139.28 153.043C139.28 153.043 122.015 142.625 120.537 162.377L118.996 182.108L148.152 184.942L177.309 208.298L204.383 259.533L277.274 301.683L274.296 246.948L202.133 191.068L174.726 169.086L139.28 153.043Z" fill="#22C55E"/>
<path d="M80.0925 250.469H81.8211C82.5708 249.615 109.686 249.636 110.436 250.469H112.248V257.741C112.136 259.157 111.644 260.517 110.822 261.676C110.001 262.835 108.882 263.75 107.583 264.325C104.062 266.125 100.165 267.063 96.2119 267.063C92.2585 267.063 88.3614 266.125 84.8409 264.325C83.5425 263.751 82.4192 262.843 81.5852 261.694C80.7512 260.545 80.2362 259.195 80.0925 257.783V250.469Z" fill="url(#paint1_linear_62_3442)"/>
<path d="M73.2823 215.653C73.9904 222.904 76.0938 234.78 77.8432 243.885L78.3222 243.74L79.9883 253.282C80.1299 254.696 80.6441 256.046 81.4784 257.196C82.3126 258.345 83.4371 259.252 84.7367 259.824C86.0803 260.596 87.5144 261.198 89.006 261.616C95.1647 263.375 101.76 262.751 107.479 259.866C108.769 259.297 109.882 258.391 110.703 257.244C111.524 256.097 112.021 254.75 112.144 253.345L116.205 244.719L113.831 242.927C115.101 234.864 120.391 226.404 119.662 215.237C117.163 176.212 111.082 167.961 111.082 167.961C111.082 167.961 100.96 165.044 92.0675 163.544C85.3198 162.419 79.2594 162.086 78.947 164.503C79.0511 164.44 72.0119 202.611 73.2823 215.653ZM79.5302 243.677C82.6242 243.642 85.7179 243.774 88.7978 244.073C86.3851 244.509 84.0156 245.157 81.7169 246.011L79.5302 243.677Z" fill="#9CD5AE"/>
<path d="M73.2823 215.653C73.9904 222.904 76.0938 234.78 77.8432 243.885L78.3222 243.739L79.9883 253.282C80.1299 254.695 80.6441 256.046 81.4784 257.195C82.3126 258.345 83.4371 259.252 84.7367 259.824C86.0803 260.596 87.5144 261.198 89.006 261.616C89.2559 241.468 89.6933 211.278 90.2348 196.13C91.1095 172.211 93.5461 164.877 93.5461 164.877C93.0463 164.377 92.5673 163.877 92.0675 163.419C85.3198 162.294 79.2594 161.96 78.947 164.377C79.0511 164.44 72.0119 202.61 73.2823 215.653Z" fill="#9CD5AE"/>
<path d="M110.499 225.342C109.587 237.285 107.911 249.158 105.48 260.887C106.199 260.601 106.895 260.259 107.562 259.866C108.852 259.297 109.966 258.391 110.786 257.244C111.607 256.097 112.105 254.75 112.227 253.345L113.081 251.532L116.288 244.719L114.393 243.281L113.914 242.927C114.189 241.256 114.578 239.606 115.08 237.989C117.163 231.363 120.328 224.175 119.745 215.258C117.246 176.233 111.165 167.982 111.165 167.982C111.165 167.982 110.103 167.669 108.353 167.211C106.604 166.753 104.751 166.273 102.439 165.711L101.772 166.148C108.718 185.069 111.689 205.22 110.499 225.342Z" fill="#D4DDCD"/>
<path d="M114.414 243.219C113.997 246.177 113.539 248.927 113.102 251.553L116.309 244.739L114.414 243.219Z" fill="#76959F"/>
<path d="M115.101 237.906C117.184 231.28 120.349 224.092 119.766 215.174C117.267 176.149 111.186 167.899 111.186 167.899C111.186 167.899 110.124 167.586 108.374 167.128C109.27 169.628 110.082 172.17 110.832 174.712C111.373 176.608 111.873 178.504 112.352 180.421C112.623 181.504 112.769 182.692 113.143 183.733C113.31 184.171 113.539 184.796 113.143 185.15C112.748 185.505 111.665 185.379 111.061 185.63C111.936 191.651 113.664 197.568 114.476 203.631C114.788 205.49 114.851 207.382 114.664 209.257C114.371 210.207 114.371 211.223 114.664 212.174C116.58 211.757 116.746 211.59 116.746 213.549C116.746 214.778 116.746 216.008 116.746 217.258C116.746 219.737 116.58 222.216 116.392 224.696C116.08 229.405 115.622 233.822 115.101 237.906Z" fill="#AEC59E"/>
<path d="M89.8392 186.65C97.4144 195.248 102.46 205.777 104.417 217.07C106.917 234.676 103.376 257.199 94.2335 256.657C89.3133 256.582 84.4732 255.4 80.0717 253.199L77.3435 198.777L89.8392 186.65Z" fill="#C5D2BC"/>
<path d="M107.791 252.949C109.203 253.635 110.763 253.957 112.331 253.886C114.872 253.678 112.331 249.344 115.809 247.261C119.974 244.76 123.661 234.072 124.848 230.217L125.243 228.842C125.368 227.613 125.806 224.675 125.806 224.675C124.764 221.021 122.662 217.758 119.766 215.299C119.766 215.299 113.872 217.737 112.248 220.591C111.974 221.104 111.731 221.633 111.519 222.175C108.583 229.78 106.083 252.115 107.791 252.949Z" fill="#A6BC96"/>
<path d="M111.519 222.05C115.684 225.779 119.725 229.134 124.848 230.113L125.243 228.738C125.368 227.509 125.806 224.571 125.806 224.571C124.764 220.917 122.662 217.654 119.766 215.195C119.766 215.195 113.872 217.633 112.248 220.487C111.975 220.993 111.731 221.515 111.519 222.05Z" fill="#C5D2BC"/>
<path d="M71.304 211.84C71.6372 213.757 72.0537 216.549 72.5119 219.737C74.053 230.155 75.2817 246.219 77.2811 249.365C78.4029 251.115 79.9992 252.51 81.8836 253.386C83.0712 254.045 84.3847 254.446 85.738 254.561C87.0912 254.675 88.4534 254.502 89.735 254.053C96.2536 252.574 108.354 242.177 100.148 210.299C98.9445 205.448 97.3137 200.714 95.2748 196.151C86.9444 177.962 76.927 177.066 76.927 177.066L75.5941 178.4C74.3698 179.445 73.2911 180.651 72.3869 181.983C69.9503 185.067 70.0752 204.611 71.304 211.84Z" fill="#74C58F"/>
<path d="M72.5117 219.716C74.0528 230.134 75.2608 246.219 77.2809 249.365C77.5718 249.821 77.8991 250.253 78.2597 250.657C79.2653 251.808 80.4994 252.738 81.8835 253.386C83.071 254.046 84.3846 254.446 85.7378 254.561C87.091 254.676 88.4533 254.503 89.7349 254.053C90.239 253.939 90.7334 253.786 91.2135 253.595C91.9416 253.294 92.6391 252.925 93.2962 252.49C97.0032 250.178 101.023 245.26 102.376 236.343C103.355 229.926 102.959 221.404 100.085 210.278C98.8818 205.427 97.251 200.693 95.2121 196.131C94.3145 197.336 93.2956 198.446 92.1715 199.443C91.6717 199.881 91.1511 200.319 90.5679 200.756C88.1902 202.54 85.5847 203.997 82.8206 205.09C77.6974 207.111 75.8855 211.986 72.5117 219.716Z" fill="#2A5921"/>
<path d="M78.2598 250.657C79.2654 251.808 80.4994 252.738 81.8835 253.386C83.071 254.045 84.3846 254.446 85.7379 254.56C87.0911 254.675 88.4533 254.502 89.7349 254.053C93.9001 253.094 100.585 248.344 102.418 236.343C96.191 242.052 89.1935 248.406 78.2598 250.657Z" fill="#99B487"/>
<path d="M79.1762 165.44C87.1526 161.565 113.706 163.357 113.393 171.941C113.393 171.941 112.831 173.378 109.228 175.212C97.878 181.212 90.7764 176.816 83.9246 172.878C77.0728 168.94 79.1762 165.44 79.1762 165.44Z" fill="#22C55E"/>
<path d="M78.4472 158.669L79.6135 159.377C80.7798 158.106 82.6958 159.231 85.4865 158.127C93.3796 154.981 104.771 153.96 108.395 158.648C109.906 160.458 110.969 162.6 111.498 164.898L113.581 164.086L113.893 170.086C113.878 170.859 113.658 171.613 113.255 172.272C112.853 172.931 112.282 173.471 111.602 173.837C104.147 178.004 92.4007 175.92 84.9866 171.753C81.2796 169.67 78.239 167.92 78.1765 165.503L78.4472 158.669Z" fill="#4B6182"/>
<path d="M85.4865 152.376C93.3796 149.23 104.771 148.209 108.395 152.897C113.685 159.627 115.226 165.669 111.165 167.899C103.709 172.066 92.2966 170.107 84.8825 165.815C77.4684 161.523 74.9693 156.564 85.4865 152.376Z" fill="#2C3C55"/>
<path d="M80.0717 159.189C79.9467 160.856 82.2792 162.627 85.5698 164.523C89.846 167.025 94.695 168.382 99.6482 168.461C102.221 168.485 104.782 168.127 107.25 167.398C108.286 167.067 109.29 166.642 110.249 166.127C110.56 165.971 110.83 165.744 111.04 165.466C111.249 165.188 111.392 164.865 111.457 164.523C111.915 162.231 110.207 158.273 106.854 154.105C105.646 152.564 102.689 151.668 98.8985 151.668C94.5534 151.736 90.2564 152.59 86.2154 154.189C85.3011 154.548 84.4107 154.966 83.5497 155.439C81.5087 156.668 80.1758 157.981 80.0717 159.189Z" fill="#343639"/>
<path d="M80.0717 159.189C79.9467 160.856 82.2792 162.627 85.5698 164.523C89.846 167.025 94.695 168.382 99.6482 168.461C102.221 168.485 104.782 168.127 107.25 167.399C101.752 165.753 96.6909 165.794 92.3591 164.586C90.2052 163.986 88.2516 162.819 86.7021 161.206C85.1526 159.594 84.064 157.595 83.5497 155.418C81.5087 156.668 80.1758 157.981 80.0717 159.189Z" fill="#1B1D21"/>
<path d="M98.7319 152.085C101.079 152.024 103.405 152.547 105.5 153.606C107.074 154.973 108.344 156.655 109.228 158.544L108.208 166.878L107.25 167.294C105.449 166.78 103.62 166.37 101.773 166.065C98.1696 165.44 97.3157 165.648 96.566 165.148C95.8163 164.648 94.4834 152.647 94.4834 152.647L98.7319 152.085Z" fill="#3C3E41"/>
<path d="M77.3435 249.365C78.4654 251.115 80.0617 252.51 81.9461 253.386C82.0012 253.376 82.0576 253.376 82.1127 253.386C93.1922 258.533 93.0256 251.657 92.5258 240.176C92.0259 228.696 91.9635 207.527 85.2783 195.693C78.5931 183.858 72.4286 181.962 72.4286 181.962C70.0128 185.067 70.1377 202.569 71.3664 211.84C72.2828 219.091 74.657 245.24 77.3435 249.365Z" fill="#549CA1"/>
<path d="M91.3386 240.781C90.818 229.3 90.7763 208.132 84.0912 196.297C81.2737 191.085 76.7627 186.991 71.304 184.692C71.4763 183.721 71.8372 182.794 72.3661 181.962C72.3661 181.962 78.6139 183.858 85.2158 195.693C91.8176 207.527 91.9426 228.675 92.4633 240.176C92.7965 247.781 93.088 253.574 89.3602 254.949C90.9429 252.407 91.5677 246.302 91.3386 240.781Z" fill="#91C45E"/>
<path d="M112.331 253.782C114.872 253.574 115.893 251.699 117.767 248.573C121.298 242.671 123.798 236.21 125.16 229.467C125.654 227.877 125.873 226.214 125.806 224.55C123.723 223.217 118.475 227.238 117.225 231.467C114.705 240.052 111.748 249.573 112.331 253.782Z" fill="#81A36A"/>
<path d="M70.4709 200.006C70.4709 200.006 74.3863 209.132 79.6344 213.257C84.8826 217.383 90.9222 229.03 90.9222 229.03L91.3803 242.885C91.3803 242.885 84.7368 229.738 79.6344 225.342C76.1694 222.299 73.4296 218.519 71.6164 214.278C70.9012 209.553 70.5184 204.784 70.4709 200.006Z" fill="#62AB43"/>
<path d="M89.631 228.217C89.631 228.217 84.9034 219.154 79.6344 215.049C74.3654 210.944 70.471 202.444 70.471 202.444C70.4813 202.554 70.4813 202.666 70.471 202.777C70.4169 201.854 70.4169 200.929 70.471 200.006C70.471 200.006 74.3863 209.132 79.6344 213.257C84.8826 217.383 90.7972 228.113 90.7972 228.113L90.9222 230.488L89.631 228.217Z" fill="#75757E"/>
<path d="M115.788 236.28C117.277 237.172 119.053 237.456 120.745 237.072C121.553 236.659 122.427 236.391 123.327 236.28C122.411 239.012 121.326 241.684 120.079 244.281C117.725 245.364 116.809 245.615 115.788 244.948L113.706 243.614L115.788 236.28Z" fill="#37561B"/>
<path d="M74.157 179.775C77.0518 180.566 83.4871 185.067 90.1306 199.693C90.2764 200.048 90.443 200.402 90.6096 200.756C92.5389 204.94 94.0122 209.32 95.0039 213.82C99.6273 236.739 96.5242 248.052 91.2135 253.594C91.9416 253.294 92.6391 252.924 93.2962 252.49C98.4819 246.844 101.314 235.551 96.8158 213.049C95.801 208.349 94.2424 203.783 92.1715 199.443L91.9425 198.902C83.612 180.712 75.0317 178.795 75.0317 178.795L74.157 179.775Z" fill="#2C3C55"/>
<path d="M117.225 231.467C118.475 227.3 123.744 223.133 125.806 224.55V224.883C123.515 224.279 118.85 228.05 117.704 231.988C115.289 240.197 112.477 249.261 112.748 253.699H112.331C111.748 249.573 114.705 240.052 117.225 231.467Z" fill="#62AB43"/>
<path d="M114.102 181.817C114.467 181.826 114.83 181.874 115.185 181.962C115.124 183.113 115.411 184.256 116.009 185.241C116.607 186.226 117.488 187.008 118.538 187.484C122.703 189.963 123.369 203.381 121.328 204.944C119.895 206.468 118.965 208.395 118.662 210.465C118.662 210.465 114.997 213.424 114.497 212.549C113.997 211.674 115.018 209.174 115.018 209.174C116.279 207.753 117.376 206.194 118.288 204.527C118.725 202.089 118.704 193.443 116.205 190.88C113.706 188.317 110.29 185.171 110.124 183.796C109.957 182.421 114.102 181.817 114.102 181.817Z" fill="#62AB43"/>
<path d="M117.163 190.922C119.724 193.484 119.745 202.131 119.245 204.59C119.125 204.961 118.949 205.312 118.725 205.631C117.788 207.069 115.976 209.215 115.976 209.215C115.976 209.215 114.893 211.778 115.455 212.59C116.017 213.403 119.62 210.507 119.62 210.507C119.922 208.437 120.853 206.509 122.286 204.985C123.89 203.402 123.744 194.109 121.203 189.63C120.803 188.787 120.185 188.068 119.412 187.546C115.247 185.067 114.976 182.025 114.976 182.025C114.976 182.025 110.436 182.337 110.603 183.713C110.769 185.088 114.226 188.255 116.85 190.817L117.163 190.922Z" fill="#D4DDCD"/>
<path d="M117.163 190.922C119.725 193.484 119.745 202.131 119.246 204.59C119.125 204.961 118.949 205.312 118.725 205.631H118.954C119.995 205.402 121.307 205.277 122.432 204.923C124.036 203.34 123.89 194.047 121.349 189.567L118.808 190.234C118.183 190.401 117.538 190.588 116.913 190.818L117.163 190.922Z" fill="#37561B"/>
<path d="M118.683 189.088C118.017 189.63 117.1 189.192 116.601 188.755C116.101 188.317 114.997 186.859 116.288 186.546C117.142 186.338 119.849 187.859 118.912 188.942L118.683 189.088Z" fill="#91C45E"/>
<path d="M96.2743 252.24C96.2348 252.368 96.186 252.494 96.1285 252.615C95.8161 253.136 95.3371 253.053 94.8164 253.053C94.2958 253.053 93.4836 252.865 93.3794 252.407C93.3407 251.808 93.486 251.212 93.796 250.698C94.1708 249.927 94.5249 249.136 94.8998 248.365C95.0664 248.031 95.1913 247.115 95.712 247.281C96.2326 247.448 96.3784 248.615 96.3992 249.073C96.441 249.871 96.441 250.671 96.3992 251.469C96.39 251.73 96.348 251.989 96.2743 252.24Z" fill="#2B2B2B"/>
<path d="M114.393 221.508C115.684 219.258 119.6 217.341 121.224 216.508L121.745 217.112C119.297 218.117 117.147 219.73 115.497 221.8C115.206 222.297 114.962 222.82 114.768 223.362C111.977 230.592 109.645 250.448 110.749 253.74C110.395 253.74 109.999 253.615 109.603 253.511C108.458 250.448 110.79 230.342 113.602 223.071C113.825 222.53 114.089 222.008 114.393 221.508Z" fill="#75757E"/>
<path d="M108.687 253.699C108.705 252.447 109.153 251.241 109.957 250.282C110.492 251.315 110.831 252.438 110.957 253.595C111.04 253.951 111.04 254.322 110.957 254.678C110.957 254.678 110.957 254.824 110.832 254.866C110.757 254.887 110.678 254.887 110.603 254.866C110.222 254.88 109.842 254.831 109.478 254.72C109.352 254.701 109.232 254.656 109.124 254.588C109.016 254.519 108.924 254.43 108.853 254.324C108.741 254.135 108.683 253.919 108.687 253.699Z" fill="#2B2B2B"/>
<mask id="mask0_62_3442" style="mask-type:luminance" maskUnits="userSpaceOnUse" x="72" y="113" width="53" height="56">
<path d="M80.0717 159.189C79.9467 160.856 82.2793 162.627 85.5698 164.523C89.846 167.025 94.695 168.382 99.6482 168.461C102.221 168.485 104.782 168.127 107.25 167.399C108.286 167.068 109.29 166.642 110.249 166.128C110.56 165.971 110.83 165.744 111.04 165.466C111.249 165.188 111.392 164.865 111.457 164.523C111.915 162.231 126.868 118.331 123.536 114.102C122.328 112.56 85.3824 116.518 81.5504 116.518C77.7184 116.518 71.3664 120.561 73.2199 136.062C74.532 147.709 78.0099 152.73 77.2394 153.21C75.011 154.46 80.1758 157.981 80.0717 159.189Z" fill="white"/>
</mask>
<g mask="url(#mask0_62_3442)">
<path d="M96.8992 178.691L86.9027 122.873L84.8201 123.269L94.6292 179.087C94.6641 179.186 94.7219 179.276 94.7979 179.348C94.8739 179.42 94.966 179.474 95.0665 179.504C95.3478 179.588 95.6448 179.605 95.9339 179.554C96.223 179.504 96.4964 179.387 96.7326 179.212C96.8185 179.151 96.8882 179.07 96.9354 178.975C96.9826 178.881 97.0059 178.776 97.0033 178.67L96.8992 178.691Z" fill="#A7B6D1"/>
<path d="M86.0489 130.874L85.6741 128.124C85.7087 128.211 85.7621 128.29 85.8304 128.355C85.8988 128.42 85.9805 128.469 86.0698 128.499C86.3336 128.575 86.6113 128.59 86.8819 128.543C87.1525 128.496 87.4089 128.389 87.6317 128.228C87.7089 128.174 87.772 128.103 87.8155 128.019C87.859 127.936 87.8817 127.843 87.8816 127.749L88.3606 130.499C88.3755 130.596 88.3617 130.695 88.321 130.783C88.2803 130.872 88.2144 130.947 88.1316 130.999C87.9133 131.169 87.6567 131.282 87.3844 131.33C87.112 131.377 86.8322 131.356 86.5696 131.27C86.4743 131.247 86.3861 131.201 86.3134 131.136C86.2406 131.07 86.1854 130.987 86.1531 130.895L86.0489 130.874Z" fill="url(#paint2_linear_62_3442)"/>
<path d="M86.861 123.457C86.5957 123.654 86.2874 123.785 85.9615 123.839C85.6356 123.893 85.3014 123.869 84.9866 123.769C84.4035 123.561 84.3202 123.081 84.7784 122.686C85.0436 122.489 85.3519 122.357 85.6778 122.303C86.0038 122.249 86.3379 122.273 86.6527 122.373C87.2359 122.581 87.3192 123.061 86.861 123.457Z" fill="#CECED1"/>
<path d="M84.6326 124.082C84.9123 124.201 85.2134 124.263 85.5177 124.263C85.822 124.263 86.1231 124.201 86.4028 124.082C87.3192 123.727 87.3816 123.498 87.3816 123.498C90.3161 124.141 93.2965 124.552 96.2952 124.728C101.023 124.978 100.46 121.144 100.086 119.06C99.7107 116.977 99.0651 115.81 95.0873 115.435C91.1095 115.06 84.5285 117.518 84.1744 118.852C84.0914 120.608 84.2455 122.367 84.6326 124.082Z" fill="#9CD5AE"/>
<path d="M99.5859 119.602C99.1902 117.519 98.5862 116.164 94.5876 115.977C90.9056 115.949 87.2925 116.976 84.1746 118.935C84.5286 117.685 91.0888 115.123 95.0874 115.518C99.086 115.914 99.69 117.06 100.086 119.144C100.377 120.665 101.189 122.457 99.3359 124.04C100.669 122.332 99.8358 121.04 99.5859 119.602Z" fill="#74C58F"/>
<path d="M84.6328 124.082C84.9125 124.201 85.2136 124.263 85.5179 124.263C85.8222 124.263 86.1233 124.201 86.403 124.082C86.1817 122.985 85.8611 121.911 85.445 120.873C84.9244 119.852 84.1746 121.436 84.6328 124.082Z" fill="#D5D5D5"/>
<path d="M86.1531 120.102L87.3818 123.582L86.8403 123.977L86.1531 120.102Z" fill="#868686"/>
<path d="M91.7136 116.643C91.8385 116.643 97.2741 115.685 98.3154 118.727C99.3567 121.769 98.0655 123.269 96.9825 123.373C95.8996 123.477 88.423 123.04 87.7566 122.061C87.0796 120.955 86.4609 119.814 85.9031 118.644C87.6604 117.539 89.6488 116.854 91.7136 116.643Z" fill="#74C58F"/>
<path d="M95.4207 180.546L98.1698 127.186H95.9414L93.0674 180.525C93.0765 180.63 93.1117 180.73 93.17 180.818C93.2282 180.905 93.3075 180.976 93.4006 181.025C93.6617 181.158 93.9508 181.228 94.244 181.228C94.5373 181.228 94.8264 181.158 95.0875 181.025C95.1893 180.989 95.2788 180.925 95.3453 180.84C95.4118 180.755 95.4524 180.653 95.4624 180.546H95.4207Z" fill="url(#paint3_linear_62_3442)"/>
<path d="M95.5247 134.812L95.6496 132.02C95.6644 132.112 95.7003 132.2 95.7545 132.275C95.8087 132.351 95.8797 132.414 95.962 132.458C96.2078 132.58 96.4787 132.644 96.7534 132.644C97.0281 132.644 97.2991 132.58 97.5448 132.458C97.6285 132.418 97.7021 132.36 97.7599 132.288C97.8177 132.216 97.8581 132.131 97.878 132.041L97.7531 134.833C97.7421 134.932 97.703 135.026 97.6402 135.104C97.5774 135.181 97.4937 135.239 97.399 135.27C97.1548 135.398 96.8832 135.465 96.6076 135.465C96.332 135.465 96.0605 135.398 95.8162 135.27C95.7286 135.23 95.6545 135.166 95.6028 135.084C95.5511 135.003 95.5239 134.908 95.5247 134.812Z" fill="url(#paint4_linear_62_3442)"/>
<path d="M97.9406 127.728C97.6391 127.862 97.31 127.922 96.9805 127.904C96.651 127.886 96.3305 127.79 96.0455 127.624C95.9273 127.591 95.8232 127.52 95.7491 127.422C95.6749 127.324 95.6348 127.205 95.6348 127.082C95.6348 126.959 95.6749 126.84 95.7491 126.742C95.8232 126.644 95.9273 126.573 96.0455 126.54C96.3388 126.39 96.6636 126.312 96.993 126.312C97.3225 126.312 97.6473 126.39 97.9406 126.54C98.5029 126.957 98.4821 127.457 97.9406 127.728Z" fill="#CECED1"/>
<path d="M95.6289 127.936C95.868 128.125 96.1419 128.264 96.435 128.346C96.728 128.428 97.0344 128.452 97.3366 128.415C98.3154 128.27 98.4196 128.061 98.4196 128.061C101.111 129.328 103.896 130.387 106.75 131.228C111.29 132.52 111.623 128.665 111.686 126.54C111.748 124.415 111.415 123.144 107.521 121.894C103.626 120.644 96.7535 121.686 96.1495 122.832C95.7406 124.501 95.5654 126.219 95.6289 127.936Z" fill="#22C55E"/>
<path d="M111.186 126.853C111.186 124.769 110.978 123.29 107.021 122.206C103.443 121.367 99.6996 121.57 96.2329 122.79C96.8577 121.665 103.834 120.706 107.625 121.873C111.415 123.04 111.79 124.394 111.79 126.519C111.79 128.061 112.123 129.999 109.999 131.124C111.665 129.707 111.144 128.249 111.186 126.853Z" fill="#E4E4E4"/>
<path d="M95.6289 127.936C95.868 128.125 96.1419 128.264 96.435 128.346C96.7281 128.428 97.0345 128.452 97.3366 128.415C97.3621 127.293 97.2854 126.17 97.1076 125.061C96.8576 123.769 95.7539 125.165 95.6289 127.936Z" fill="#D5D5D5"/>
<path d="M98.0031 124.311L98.4196 127.978L97.8157 128.249L98.0031 124.311Z" fill="#868686"/>
<path d="M97.3781 177.399L78.3431 127.395L76.2605 128.186L95.1081 178.191C95.1551 178.286 95.226 178.366 95.3136 178.424C95.4013 178.483 95.5028 178.517 95.6079 178.525C95.9006 178.555 96.1965 178.517 96.4714 178.412C96.7464 178.307 96.9928 178.138 97.1907 177.92C97.2713 177.849 97.3298 177.756 97.3594 177.653C97.3889 177.55 97.3882 177.44 97.3573 177.337L97.3781 177.399Z" fill="#A7B6D1"/>
<path d="M79.0306 135.5L78.0518 132.874C78.0939 132.956 78.1562 133.026 78.2327 133.077C78.3092 133.128 78.3975 133.159 78.4891 133.166C78.7623 133.193 79.0381 133.157 79.2947 133.059C79.5514 132.961 79.7818 132.805 79.9678 132.603C80.0375 132.538 80.0895 132.456 80.1186 132.365C80.1478 132.273 80.1532 132.176 80.1344 132.083L81.134 134.687C81.1632 134.785 81.1651 134.889 81.1394 134.989C81.1137 135.088 81.0614 135.178 80.9882 135.25C80.7985 135.447 80.5676 135.599 80.3119 135.697C80.0563 135.794 79.7823 135.833 79.5096 135.812C79.4102 135.804 79.3144 135.771 79.2308 135.716C79.1472 135.662 79.0784 135.587 79.0306 135.5Z" fill="url(#paint5_linear_62_3442)"/>
<path d="M78.4056 128.04C78.1861 128.287 77.9112 128.478 77.6034 128.598C77.2956 128.717 76.9638 128.762 76.6354 128.728C76.0314 128.728 75.844 128.165 76.2188 127.707C76.4404 127.457 76.7188 127.264 77.0305 127.145C77.3422 127.025 77.6781 126.982 78.0099 127.019C78.6139 127.124 78.7805 127.582 78.4056 128.04Z" fill="#CECED1"/>
<path d="M76.3439 129.082C76.6371 129.162 76.9436 129.181 77.2444 129.138C77.5453 129.095 77.8342 128.991 78.0933 128.832C78.9264 128.311 78.9472 128.082 78.9472 128.082C81.9551 128.141 84.963 127.967 87.944 127.561C92.6299 126.936 91.3595 123.269 90.5681 121.311C89.7767 119.352 88.9645 118.331 84.9659 118.706C80.9673 119.081 75.0319 122.873 74.9277 124.144C75.1737 125.847 75.6501 127.508 76.3439 129.082Z" fill="#22C55E"/>
<path d="M90.1724 121.915C89.3811 119.831 88.548 118.706 84.5702 119.289C80.9559 119.97 77.6107 121.669 74.9277 124.186C74.9277 122.894 80.9881 119.123 84.9659 118.748C88.9437 118.373 89.7767 119.373 90.5681 121.352C91.1513 122.79 92.2759 124.394 90.7764 126.29C91.7552 124.311 90.6931 123.206 90.1724 121.915Z" fill="#74C58F"/>
<path d="M77.0938 124.894L78.9473 128.082L78.4891 128.561L77.0938 124.894Z" fill="#E6F5EB"/>
<path d="M90.7556 177.274L78.1766 134.187L76.094 134.812L88.5896 178.024C88.6325 178.121 88.6987 178.207 88.7822 178.272C88.8658 178.337 88.9641 178.381 89.0686 178.399C89.358 178.453 89.6558 178.437 89.938 178.354C90.2202 178.271 90.4789 178.122 90.6931 177.92C90.7738 177.853 90.8354 177.765 90.8719 177.667C90.9084 177.568 90.9186 177.461 90.9013 177.358L90.7556 177.274Z" fill="#A7B6D1"/>
<path d="M78.1766 142.146L77.406 139.458C77.4487 139.543 77.5103 139.618 77.5861 139.676C77.6619 139.733 77.7499 139.773 77.8434 139.792C78.1133 139.835 78.3897 139.819 78.6525 139.743C78.9154 139.668 79.1582 139.535 79.3637 139.354C79.4311 139.291 79.4831 139.213 79.5156 139.126C79.5481 139.039 79.5602 138.946 79.5511 138.854L80.3217 141.542C80.3449 141.636 80.3416 141.734 80.3122 141.826C80.2828 141.918 80.2284 142 80.155 142.063C79.9516 142.253 79.7055 142.392 79.4375 142.468C79.1694 142.544 78.8871 142.555 78.6139 142.5C78.5192 142.485 78.4298 142.446 78.3535 142.388C78.2772 142.33 78.2165 142.254 78.1766 142.167V142.146Z" fill="url(#paint6_linear_62_3442)"/>
<path d="M78.1767 134.687C77.9346 134.913 77.6421 135.079 77.3233 135.169C77.0046 135.26 76.6688 135.273 76.3439 135.208C76.2214 135.204 76.1034 135.161 76.0065 135.086C75.9096 135.011 75.8388 134.907 75.8042 134.789C75.7696 134.672 75.773 134.546 75.8138 134.431C75.8546 134.315 75.9308 134.215 76.0316 134.145C76.2736 133.919 76.5661 133.753 76.8849 133.663C77.2036 133.572 77.5394 133.559 77.8643 133.624C77.9868 133.628 78.1049 133.671 78.2018 133.746C78.2986 133.821 78.3694 133.925 78.404 134.043C78.4386 134.16 78.4352 134.286 78.3944 134.402C78.3536 134.517 78.2774 134.617 78.1767 134.687Z" fill="#CECED1"/>
<path d="M76.0314 135.541C76.3188 135.641 76.6231 135.683 76.9269 135.666C77.2307 135.648 77.5279 135.57 77.8016 135.437C78.6763 134.978 78.718 134.749 78.718 134.749C81.7056 135.07 84.714 135.154 87.7149 134.999C92.4424 134.77 91.4844 131.02 90.8596 128.978C90.2348 126.936 89.5059 125.853 85.5073 125.894C81.5087 125.936 75.24 129.207 75.0942 130.478C75.1779 132.2 75.4931 133.903 76.0314 135.541Z" fill="#22C55E"/>
<path d="M90.4225 129.561C89.7977 127.478 89.0688 126.228 85.0702 126.478C81.3931 126.872 77.9077 128.319 75.032 130.645C75.2402 129.374 81.4881 126.124 85.445 126.061C89.402 125.999 90.1725 127.103 90.7973 129.145C91.2555 130.624 92.2552 132.312 90.5891 134.083C91.797 132.103 90.839 130.874 90.4225 129.561Z" fill="#74C58F"/>
<path d="M77.1353 131.437L78.718 134.749L78.2182 135.208L77.1353 131.437Z" fill="#E6F5EB"/>
<path d="M93.2963 172.816L85.9447 128.457L83.8621 128.811L91.0471 173.191C91.0471 173.385 91.1929 173.531 91.4844 173.628C91.7642 173.715 92.0602 173.736 92.3493 173.689C92.6383 173.642 92.9126 173.528 93.1505 173.357C93.237 173.298 93.3059 173.216 93.3499 173.121C93.3939 173.025 93.4113 172.92 93.4004 172.816H93.2963Z" fill="#7183A5"/>
<path d="M85.0075 136.437L84.5493 133.687C84.581 133.774 84.6337 133.852 84.7027 133.913C84.7718 133.975 84.855 134.019 84.945 134.041C85.206 134.13 85.4848 134.154 85.7571 134.11C86.0294 134.067 86.2869 133.957 86.507 133.791C86.5814 133.739 86.6427 133.671 86.686 133.591C86.7294 133.512 86.7537 133.423 86.7569 133.333L87.2151 136.083C87.2206 136.181 87.2004 136.278 87.1566 136.366C87.1127 136.454 87.0468 136.529 86.9652 136.583C86.7451 136.749 86.4876 136.859 86.2153 136.902C85.943 136.946 85.6641 136.922 85.4032 136.833C85.1533 136.833 85.0283 136.604 85.0075 136.437Z" fill="#03314B"/>
<path d="M85.8822 129.02C85.617 129.217 85.3087 129.348 84.9828 129.402C84.6569 129.456 84.3227 129.432 84.0079 129.332C83.4248 129.103 83.3623 128.624 83.8205 128.249C84.0833 128.055 84.388 127.926 84.71 127.871C85.032 127.817 85.3622 127.839 85.674 127.936C85.7942 127.953 85.9061 128.007 85.994 128.091C86.0819 128.175 86.1415 128.284 86.1644 128.403C86.1874 128.523 86.1725 128.646 86.1219 128.757C86.0713 128.867 85.9875 128.959 85.8822 129.02Z" fill="#CECED1"/>
<path d="M83.5913 129.624C83.8719 129.74 84.1727 129.8 84.4764 129.8C84.7802 129.8 85.0809 129.74 85.3615 129.624C86.2779 129.29 86.3404 129.061 86.3404 129.061C89.2747 129.72 92.2542 130.159 95.2539 130.374C99.9606 130.686 99.4191 126.853 99.1067 124.769C98.7943 122.686 98.1696 121.686 94.1918 121.165C90.214 120.644 83.633 123.248 83.2581 124.477C83.138 126.2 83.25 127.931 83.5913 129.624Z" fill="#74C58F"/>
<path d="M98.6487 125.394C98.2738 123.311 97.6907 121.936 93.6921 121.686C90.0234 121.629 86.4135 122.611 83.2791 124.519C83.6539 123.269 90.235 120.79 94.2336 121.227C98.2322 121.665 98.8153 122.811 99.1902 124.915C99.4609 126.436 100.231 128.228 98.378 129.791C99.7108 128.061 98.8986 126.749 98.6487 125.394Z" fill="#9CD5AE"/>
<path d="M83.5914 129.624C83.872 129.74 84.1727 129.8 84.4765 129.8C84.7802 129.8 85.081 129.74 85.3616 129.624C85.1497 128.523 84.8431 127.443 84.4453 126.394C83.9871 125.394 83.2165 126.978 83.5914 129.624Z" fill="#D5D5D5"/>
<path d="M85.2366 125.665L86.4028 129.165L85.8613 129.54L85.2366 125.665Z" fill="#868686"/>
</g>
<path d="M19.301 216.195L57.6002 238.364L61.1406 240.448L92.3798 267.534L169.957 366.814L203.279 346.938L200.28 292.203L127.888 236.364L103.647 216.904L100.231 215.258L65.0559 198.36C65.0559 198.36 56.4131 194.318 39.0442 203.632C35.3788 205.694 19.301 216.195 19.301 216.195Z" fill="#22C55E"/>
<path d="M19.3013 216.195L57.6004 238.364L67.2846 234.197L100.252 215.32L65.077 198.422C65.077 198.422 56.4342 194.38 39.0652 203.694C35.379 205.694 19.3013 216.195 19.3013 216.195Z" fill="#74C58F"/>
<path d="M58.4751 213.591L90.3182 210.528L83.3831 207.194L56.6216 210.382L58.4751 213.591Z" fill="#9CD5AE"/>
<path d="M96.0244 240.281L127.847 237.218L120.912 233.884L94.1709 237.072L96.0244 240.281Z" fill="#74C58F"/>
<path d="M54.8513 212.153L89.9849 101.934H94.9415L60.1828 212.153C60.1618 212.388 60.0796 212.614 59.9445 212.808C59.8093 213.001 59.6258 213.156 59.4122 213.257C58.8255 213.557 58.176 213.713 57.5171 213.713C56.8582 213.713 56.2086 213.557 55.6219 213.257C55.4083 213.156 55.2249 213.001 55.0897 212.808C54.9545 212.614 54.8723 212.388 54.8513 212.153Z" fill="url(#paint7_linear_62_3442)"/>
<path d="M92.4631 238.364L92.713 87.9324H98.7943L99.0234 238.343C98.9923 238.629 98.8878 238.902 98.7199 239.136C98.552 239.37 98.3265 239.556 98.0653 239.677C97.3455 240.041 96.55 240.231 95.7432 240.231C94.9365 240.231 94.141 240.041 93.4211 239.677C93.1575 239.559 92.9298 239.374 92.7614 239.14C92.593 238.905 92.4901 238.63 92.4631 238.343V238.364Z" fill="url(#paint8_linear_62_3442)"/>
<path d="M235.788 99.4336H235.976C239.87 97.5792 250.908 107.768 250.908 107.768C250.908 107.768 257.156 148.751 260.8 160.065C264.445 171.378 261.696 178.275 259.238 177.962L115.726 260.575L91.7134 182.567C91.7134 182.567 124.431 157.919 137.531 156.148C145.861 155.022 163.418 162.898 170.852 159.023C179.183 154.606 183.619 133.312 189.721 126.04C198.239 115.852 235.788 99.4336 235.788 99.4336Z" fill="#03314B"/>
<path d="M107.687 201.36C103.522 198.756 99.1483 196.214 95.0455 193.339L91.7134 182.567C91.7134 182.567 124.431 157.918 137.531 156.147C145.861 155.022 163.418 162.898 170.852 159.023C179.183 154.606 183.619 133.312 189.721 126.04C198.28 115.852 235.83 99.4334 235.83 99.4334H236.017C239.308 97.8707 247.659 104.788 250.179 106.997C249.631 106.894 249.065 106.96 248.555 107.184L248.367 107.288C248.367 107.288 210.88 123.707 202.279 133.895C196.156 141.167 191.866 162.46 183.39 166.857C175.997 170.732 158.398 162.877 150.068 163.981C136.968 165.752 104.251 190.422 104.251 190.422L107.687 201.36Z" fill="#075D8D"/>
<path d="M107.396 190.172C107.396 190.172 89.0686 173.503 91.297 187.046C93.5254 200.589 113.831 268.825 113.831 268.825C113.831 268.825 113.269 260.074 115.726 260.366C118.184 260.658 120.87 253.761 117.288 242.469C113.706 231.176 107.396 190.172 107.396 190.172Z" fill="#054468"/>
<path d="M168.041 329.894L170.04 366.877L313.553 284.264V246.24L311.658 235.572L310.596 229.53L170.998 310.017L170.019 316.58L168.041 329.894Z" fill="#9CD5AE"/>
<path d="M184.473 332.123C184.473 336.811 187.784 338.707 191.887 336.29C194.036 334.893 195.825 333.008 197.11 330.788C198.394 328.569 199.138 326.079 199.28 323.518C199.28 318.83 195.969 316.934 191.887 319.351C189.734 320.747 187.941 322.63 186.652 324.85C185.364 327.069 184.617 329.561 184.473 332.123Z" fill="#74C58F"/>
<path d="M184.181 329.873C184.181 334.561 187.493 336.457 191.595 334.04C193.742 332.64 195.53 330.754 196.814 328.536C198.098 326.317 198.843 323.828 198.989 321.268C198.989 316.559 195.677 314.663 191.595 317.101C189.441 318.495 187.647 320.379 186.359 322.598C185.07 324.818 184.324 327.31 184.181 329.873Z" fill="#74C58F"/>
<path d="M184.952 330.394C184.952 335.103 188.263 336.978 192.366 334.561C194.515 333.163 196.304 331.278 197.589 329.059C198.873 326.84 199.617 324.349 199.759 321.789C199.759 317.08 196.448 315.205 192.366 317.622C190.212 319.016 188.418 320.9 187.129 323.119C185.841 325.339 185.095 327.831 184.952 330.394Z" fill="#C3E5CD"/>
<path d="M186.097 329.727C186.086 329.88 186.086 330.033 186.097 330.186C186.109 330.466 186.144 330.745 186.201 331.019C186.259 331.51 186.415 331.985 186.66 332.415C186.722 332.576 186.814 332.725 186.93 332.852C187.351 333.465 187.98 333.902 188.7 334.082C188.977 334.114 189.257 334.114 189.533 334.082C190.529 334.045 191.497 333.75 192.345 333.228C193.76 332.338 194.984 331.176 195.948 329.81C196.689 328.798 197.291 327.691 197.739 326.519C198.104 325.659 198.356 324.755 198.489 323.831C198.518 323.366 198.518 322.9 198.489 322.435C198.511 322.144 198.511 321.851 198.489 321.56C198.443 320.887 198.251 320.233 197.926 319.643C197.603 319.035 197.081 318.557 196.448 318.289H196.323C195.308 317.947 194.2 318.022 193.241 318.497C192.932 318.621 192.633 318.768 192.345 318.934C190.645 319.972 189.216 321.4 188.18 323.102C187.545 324.069 187.034 325.112 186.66 326.206C186.66 326.414 186.535 326.602 186.451 326.789C186.278 327.432 186.153 328.087 186.076 328.748C186.061 329.074 186.067 329.402 186.097 329.727Z" fill="#22C55E"/>
<path opacity="0.3" d="M186.743 326.206L197.989 319.726C197.666 319.118 197.144 318.64 196.51 318.372L188.305 323.122C187.657 324.081 187.132 325.117 186.743 326.206Z" fill="#DDF6DE"/>
<path opacity="0.3" d="M186.097 329.727C186.086 329.88 186.086 330.033 186.097 330.186C186.109 330.466 186.144 330.745 186.201 331.019L198.489 323.914C198.518 323.45 198.518 322.983 198.489 322.518C198.511 322.227 198.511 321.935 198.489 321.643L186.097 328.811C186.077 329.116 186.077 329.422 186.097 329.727Z" fill="#DDF6DE"/>
<path opacity="0.3" d="M186.951 332.852C187.371 333.465 188.001 333.902 188.721 334.082L195.969 329.915C196.71 328.902 197.312 327.795 197.76 326.623L186.951 332.852Z" fill="#DDF6DE"/>
<path d="M284.792 271.471C284.792 276.18 288.124 278.055 292.206 275.638C294.355 274.241 296.144 272.356 297.429 270.137C298.714 267.918 299.457 265.427 299.599 262.866C299.599 258.178 296.288 256.282 292.206 258.699C290.057 260.098 288.266 261.983 286.978 264.202C285.69 266.42 284.941 268.91 284.792 271.471Z" fill="#22C55E"/>
<path d="M284.5 269.221C284.5 273.909 287.833 275.805 291.915 273.388C294.064 271.986 295.853 270.097 297.138 267.875C298.422 265.652 299.166 263.159 299.308 260.595C299.308 255.907 295.996 254.011 291.915 256.428C289.76 257.827 287.966 259.714 286.678 261.937C285.389 264.16 284.644 266.656 284.5 269.221Z" fill="#74C58F"/>
<path d="M285.271 269.742C285.271 274.43 288.582 276.326 292.685 273.909C294.832 272.535 296.628 270.677 297.93 268.485C299.232 266.293 300.003 263.826 300.182 261.283C300.182 256.574 296.871 254.699 292.789 257.116C290.635 258.484 288.832 260.339 287.526 262.533C286.22 264.726 285.448 267.195 285.271 269.742Z" fill="#C3E5CD"/>
<path d="M286.417 269.075C286.406 269.228 286.406 269.381 286.417 269.534C286.394 269.811 286.394 270.09 286.417 270.367C286.486 270.856 286.641 271.328 286.875 271.763C286.945 271.914 287.036 272.054 287.146 272.18C287.567 272.804 288.205 273.249 288.937 273.43C289.213 273.462 289.493 273.462 289.77 273.43C290.758 273.392 291.72 273.097 292.56 272.575C293.978 271.689 295.203 270.527 296.163 269.158C296.911 268.147 297.52 267.04 297.975 265.866C298.321 265.002 298.566 264.1 298.704 263.179C298.785 262.718 298.827 262.251 298.829 261.783C298.852 261.485 298.852 261.185 298.829 260.887C298.774 260.213 298.575 259.56 298.246 258.97C297.918 258.366 297.397 257.89 296.767 257.616H296.642C295.628 257.274 294.519 257.349 293.56 257.824C293.248 257.94 292.948 258.086 292.664 258.262C290.959 259.292 289.529 260.722 288.499 262.429C287.877 263.403 287.367 264.444 286.979 265.533C286.979 265.741 286.854 265.929 286.792 266.117C286.604 266.75 286.472 267.398 286.396 268.054C286.378 268.395 286.385 268.736 286.417 269.075Z" fill="#22C55E"/>
<path opacity="0.3" d="M287.062 265.554L298.308 259.054C297.98 258.45 297.459 257.973 296.829 257.699L288.624 262.471C287.988 263.436 287.464 264.471 287.062 265.554Z" fill="#DDF6DE"/>
<path opacity="0.3" d="M286.417 269.075C286.406 269.228 286.406 269.381 286.417 269.534C286.394 269.811 286.394 270.09 286.417 270.367L298.704 263.262C298.785 262.801 298.827 262.334 298.829 261.866C298.852 261.568 298.852 261.269 298.829 260.97L286.333 268.159C286.341 268.466 286.369 268.772 286.417 269.075Z" fill="#DDF6DE"/>
<path opacity="0.3" d="M287.27 272.18C287.692 272.804 288.33 273.249 289.061 273.43L296.288 269.263C297.036 268.251 297.645 267.144 298.1 265.971L287.27 272.18Z" fill="#DDF6DE"/>
<path d="M170.02 316.58L170.04 317.08L311.658 235.572L310.596 229.53L170.998 310.017L170.02 316.58Z" fill="#A7B6D1"/>
<path d="M169.353 356.271L312.616 274.055L370.762 317.309L229.249 393.525L169.353 356.271Z" fill="#2C3C55"/>
<path d="M120.016 257.741L160.127 298.787L173.747 310.954L315.844 226.509L316.489 222.904C317.004 220.356 316.947 217.726 316.32 215.203C315.693 212.681 314.513 210.329 312.866 208.319C311.865 207.133 310.701 206.095 309.408 205.236L263.82 176.066C262.826 175.352 261.648 174.94 260.426 174.878C260.204 174.857 259.981 174.857 259.759 174.878C258.991 175.014 258.296 175.421 257.801 176.024L120.016 257.741Z" fill="#054468"/>
<path d="M160.127 298.787L173.747 310.954L315.844 226.509L316.489 222.904C317.004 220.356 316.947 217.726 316.32 215.203C315.693 212.681 314.513 210.329 312.866 208.319L160.127 298.787Z" fill="#9CD5AE"/>
<path d="M173.747 311.038L118.183 265.971V262.012C118.183 257.532 121.453 255.886 125.327 258.387L167.812 288.39C168.505 288.842 169.16 289.35 169.77 289.911C171.969 292.021 173.583 294.667 174.452 297.589C175.32 300.511 175.415 303.609 174.726 306.579L173.747 311.038Z" fill="#054468"/>
<path d="M31.8384 218.299C31.8384 218.299 14.5528 207.882 13.0949 227.634L11.5955 247.302L40.752 250.136L69.9085 273.492L96.9824 324.726L169.978 366.876L167.895 329.894L170.852 310.017L94.5457 256.324L67.2844 234.343L31.8384 218.299Z" fill="#22C55E"/>
<path d="M170.04 317.08L155.087 302.329L148.777 300.912L113.831 268.825L155.087 295.911L171.873 309.517L170.998 310.017L170.04 317.08Z" fill="#4B6182"/>
<path d="M75.5525 262.47L168.041 329.894L169.353 356.271L101.127 314.08L75.5525 262.47Z" fill="#74C58F"/>
<path d="M227.833 241.677L224.105 241.614L214.983 247.969L214.379 250.865L227.833 241.677Z" fill="#2C3C55"/>
<path d="M242.828 229.134L222.543 244.677L198.281 260.512L200.613 261.158L224.646 247.344L242.723 231.321L242.828 229.134Z" fill="#4B6182"/>
<path d="M201.759 265.096C197.468 264.075 195.511 260.7 196.469 255.866C198.281 246.302 210.505 233.509 223.709 227.384C229.832 224.529 235.351 223.488 239.246 224.404C243.536 225.425 245.493 228.801 244.535 233.634C242.723 243.219 230.499 255.991 217.295 262.137L215.691 262.846C210.214 265.137 205.32 265.95 201.759 265.096ZM223.438 229.821C212.192 235.051 201.779 246.011 200.217 254.261C199.426 258.429 201.05 261.283 204.674 262.137C207.923 262.929 212.484 262.137 217.566 259.679C228.812 254.47 239.225 243.49 240.787 235.26C241.578 231.092 239.954 228.238 236.33 227.363C232.376 226.802 228.345 227.456 224.771 229.238C224.334 229.405 223.876 229.613 223.438 229.821Z" fill="#2C3C55"/>
<path d="M239.787 225.863C235.893 224.925 230.394 225.988 224.251 228.821C211.047 234.968 198.822 247.74 197.01 257.324C196.662 258.825 196.662 260.386 197.01 261.887C196.067 260.012 195.823 257.862 196.323 255.824C198.135 246.261 210.36 233.468 223.564 227.342C229.686 224.488 235.205 223.446 239.1 224.363C240.313 224.581 241.44 225.133 242.357 225.958C243.273 226.782 243.941 227.846 244.286 229.03C243.797 228.218 243.145 227.517 242.37 226.972C241.596 226.426 240.716 226.049 239.787 225.863Z" fill="#4B6182"/>
<path d="M241.391 236.739C239.829 245.073 229.416 255.949 218.17 261.179C213.088 263.554 208.527 264.408 205.278 263.637C204.218 263.445 203.236 262.949 202.452 262.209C201.668 261.47 201.116 260.518 200.863 259.47C201.284 260.144 201.84 260.724 202.496 261.172C203.152 261.62 203.894 261.927 204.674 262.074C207.923 262.866 212.484 262.074 217.566 259.616C228.812 254.407 239.225 243.427 240.787 235.197C241.071 233.949 241.071 232.653 240.787 231.405C241.652 233.043 241.868 234.948 241.391 236.739Z" fill="#4B6182"/>
<path d="M248.159 291.39L247.722 293.89L219.856 247.99L220.502 245.177L248.159 291.39Z" fill="#4B6182"/>
<path d="M251.679 289.161L248.159 291.39L220.502 245.177L224.022 242.948L251.679 289.161Z" fill="#2C3C55"/>
<path d="M234.018 294.703L254.282 282.243L279.669 274.513H286.604L334.795 245.615L344.813 243.26L240.974 303.266L234.018 294.703Z" fill="#424544"/>
<path d="M234.018 294.703L229.249 314.663L240.308 368.523L249.554 312.851L234.018 294.703Z" fill="#141817"/>
<path d="M379.53 223.508L384.695 229.926L384.466 229.113C384.466 229.113 424.368 268.242 434.198 280.764C440.446 288.848 442.425 303.87 442.966 313.517C443.277 319.492 441.261 325.354 437.343 329.873C423.827 345.583 385.861 382.482 314.677 401.505C310.36 402.653 305.79 402.405 301.623 400.795C297.455 399.186 293.904 396.298 291.477 392.546L236.017 306.204L379.53 223.508Z" fill="#22C55E"/>
<path d="M362.473 233.322C362.473 233.322 385.549 295.828 397.024 324.768C397.024 324.768 385.84 334.186 360.953 346.646C360.953 346.646 354.143 329.269 270.401 282.681L362.473 233.322Z" fill="#9CD5AE"/>
<g style="mix-blend-mode:multiply">
<path d="M263.487 301.433C263.487 301.433 269.485 301.058 279.794 306.433C290.103 311.809 296.705 309.433 299.308 308.058C301.911 306.683 306.472 304.183 306.472 304.183L310.408 303.245C310.408 303.245 339.711 295.411 353.789 289.827C362.524 286.324 370.832 281.837 378.551 276.451L379.988 280.264C386.768 278.395 393.436 276.141 399.96 273.513C405.084 270.971 416.746 261.616 416.746 261.616L379.53 223.508L270.401 282.681V286.681L240.974 303.35L263.487 301.433Z" fill="#74C58F"/>
</g>
<path d="M277.274 380.44L284.813 392.192L292.081 403.547C292.816 404.677 293.652 405.737 294.58 406.714C294.934 407.026 295.247 407.36 295.559 407.672C298.586 410.457 302.355 412.302 306.41 412.985C309.361 413.498 312.388 413.363 315.282 412.589C386.486 393.567 427.368 353.709 440.863 338.02C444.775 333.496 446.796 327.639 446.507 321.664C446.028 313.33 441.154 305.933 436.573 297.516C435.511 300.703 434.282 301.412 432.033 304.016C417.059 321.435 374.948 362.355 295.976 383.462C292.821 384.299 289.526 384.462 286.304 383.942C283.081 383.421 280.005 382.228 277.274 380.44Z" fill="#2A2E2D"/>
<path d="M298.954 373.294C377.926 352.188 420.037 311.246 435.011 293.828C437.26 291.244 434.802 300.995 435.865 297.807C440.446 306.142 445.528 309.017 446.007 317.434C446.34 323.414 444.841 326.248 440.925 330.769C427.409 346.479 386.153 385.941 314.948 404.964C310.635 406.078 306.08 405.801 301.933 404.174C297.786 402.547 294.258 399.651 291.852 395.9L280.335 370.273C283.058 372.046 286.12 373.23 289.326 373.75C292.532 374.271 295.811 374.115 298.954 373.294Z" fill="#606362"/>
<path d="M270.401 282.681C270.401 282.681 349.54 317.642 360.953 346.645C353.935 337.165 316.531 304.329 270.401 286.681V282.681Z" fill="#74C58F"/>
<path d="M276.67 369.356L291.498 392.545C293.922 396.317 297.483 399.219 301.665 400.83C305.848 402.441 310.435 402.677 314.761 401.505C335.713 396 355.975 388.136 375.156 378.065C387.287 371.636 398.852 364.192 409.728 355.813C419.827 348.118 429.133 339.436 437.51 329.893C441.422 325.362 443.436 319.496 443.133 313.517C442.654 305.183 441.175 292.556 436.573 284.139C435.495 287.363 433.805 290.349 431.595 292.931C421.188 304.795 409.503 315.471 396.753 324.768C385.538 333.044 373.702 340.441 361.349 346.895C340.413 357.828 318.317 366.376 295.476 372.377C292.306 373.236 288.99 373.411 285.748 372.89C282.506 372.369 279.411 371.164 276.67 369.356Z" fill="#74C58F"/>
<path d="M361.245 346.895C365.202 350.542 370.575 364.585 374.99 378.149C385.995 372.536 396.453 365.909 406.229 358.355C405.542 344.02 397.024 324.852 397.024 324.852H396.607C385.403 333.097 373.58 340.467 361.245 346.895Z" fill="#9CD5AE"/>
<path d="M301.682 400.88C301.682 400.88 300.516 375.877 290.686 363.376C280.856 350.875 240.953 311.746 240.953 311.746L247.201 333.811L240.953 382.857L270.297 384.087L301.682 400.88Z" fill="#22C55E"/>
<path d="M278.794 363.376C271.443 354.021 251.2 326.644 241.432 313.371L240.953 311.663C240.953 311.663 280.856 350.875 290.686 363.376C300.516 375.878 301.682 400.88 301.682 400.88L289.186 394.213C288.083 385.837 285.396 371.856 278.794 363.376Z" fill="#74C58F"/>
<g style="mix-blend-mode:multiply">
<path d="M271.026 341.874C272.359 339.395 278.503 335.624 278.503 335.624L281.314 307.079C283.847 308.304 286.55 309.14 289.332 309.559C288.832 316.83 287.062 339.041 283.605 339.666C279.44 340.416 276.524 347.583 276.524 347.583C276.524 347.583 272.671 355.355 273.546 355.376C274.421 355.396 251.095 372.856 251.095 372.856L247.951 369.335L268.506 350.833C269.037 347.769 269.882 344.767 271.026 341.874Z" fill="#B89884"/>
</g>
<path d="M243.89 314.621L251.658 332.081L236.018 406.526L237.663 363.876L244.66 334.957L234.456 309.183L236.018 306.12L243.89 314.621Z" fill="#2A2E2D"/>
<path d="M13.3866 224.967C13.3866 224.967 56.8506 248.49 70.8457 267.179C84.8409 285.869 94.0877 316.851 99.1484 320.122C104.209 323.393 227.291 399.922 227.291 399.922L227.791 398.192C229.142 393.455 231.577 389.097 234.904 385.464C238.23 381.831 242.357 379.023 246.956 377.262C251.555 375.501 256.501 374.836 261.402 375.319C266.303 375.802 271.024 377.42 275.191 380.045C283.492 385.218 290.963 391.617 297.35 399.026C295.684 397.796 298.163 400.172 295.497 400.172L281.668 389.525C280.169 388.441 281.96 396.525 280.419 395.65C270.006 389.608 260.113 388.608 252.72 392.817C245.327 397.026 241.245 405.985 241.245 417.986C241.245 418.84 241.245 419.715 241.245 420.59L90.8596 333.728L89.0269 332.248C89.0269 331.561 89.0269 330.852 89.0269 330.165C89.0269 318.164 84.8617 304.516 77.5517 291.744C70.2418 278.972 60.3077 268.617 49.853 262.575C39.3983 256.532 29.5476 255.532 22.1543 259.741C17.8691 262.308 14.6191 266.297 12.97 271.013L11.5747 269.867L0.286947 264.012C0.286947 264.012 -0.879312 220.383 13.3866 224.967Z" fill="#606362"/>
<path d="M0.286849 264.012L11.5954 269.888L12.9908 271.013C14.6235 266.292 17.8782 262.305 22.1751 259.762C29.5683 255.595 39.4191 256.532 49.8738 262.574C60.3285 268.617 70.1792 278.972 77.5725 291.744C84.9657 304.516 89.0476 318.184 89.0476 330.185C89.0476 330.894 89.0476 331.623 89.0476 332.269L90.8803 333.769L241.266 420.632C241.266 419.757 241.266 418.902 241.266 418.048C241.266 406.026 245.431 397.088 252.741 392.858C260.051 388.629 270.172 389.316 280.439 395.692C285.596 398.842 290.399 402.538 294.768 406.714C295.122 407.026 295.434 407.36 295.747 407.672C298.773 410.456 302.542 412.302 306.597 412.985V412.506C299.879 405.24 292.663 398.452 285 392.191C279.565 387.774 274.358 383.857 269.464 380.69C265.923 378.355 261.884 376.885 257.671 376.397C253.458 375.91 249.189 376.42 245.209 377.886C241.23 379.352 237.65 381.732 234.758 384.836C231.866 387.94 229.744 391.68 228.562 395.754L227.374 399.921C227.374 399.921 104.355 323.414 99.2732 320.143C94.1917 316.871 84.9865 285.889 70.9914 267.2C56.9963 248.511 13.5114 225.008 13.5114 225.008C-0.879415 220.383 0.286849 264.012 0.286849 264.012Z" fill="#2C3C55"/>
<path d="M228.458 395.754L227.25 399.922C227.25 399.922 104.209 323.393 99.1483 320.122C96.441 318.372 92.5256 308.621 87.2983 297.099L86.6527 295.64C82.3728 285.636 77.0759 276.099 70.8457 267.179C56.8506 248.427 13.3865 224.967 13.3865 224.967C11.4296 224.948 9.48892 225.324 7.68018 226.071C7.68018 226.071 14.3653 219.07 18.0932 220.258C18.0932 220.258 61.5573 243.781 75.5524 262.47C89.5475 281.16 98.7735 312.142 103.855 315.413C108.458 318.393 211.234 382.336 229.249 393.525C228.942 394.252 228.678 394.996 228.458 395.754Z" fill="#4B6182"/>
<path d="M299.829 206.444C301.59 207.064 303.17 208.109 304.431 209.486C305.026 210.027 305.497 210.691 305.81 211.432C306.123 212.174 306.271 212.974 306.243 213.778C306.243 214.612 305.785 217.508 305.785 217.508C305.628 216.184 305.233 214.899 304.619 213.716C303.681 212.195 298.787 207.111 299.829 206.444Z" fill="#9C774F"/>
<g style="mix-blend-mode:screen">
<path d="M396.545 232.863L377.239 243.927L340.21 265.283L320.592 276.576L283.522 297.912L280.627 299.599C275.129 302.766 267.298 299.891 265.653 294.14L251.679 245.531C250.795 242.447 251.003 239.151 252.266 236.202C253.53 233.253 255.772 230.83 258.614 229.342L287.125 212.924L324.174 191.589L343.792 180.296L374.448 162.607C376.346 161.538 378.536 161.107 380.696 161.377C382.637 161.525 384.493 162.236 386.036 163.425C387.579 164.613 388.741 166.226 389.381 168.065L403.376 216.695C404.258 219.765 404.061 223.045 402.818 225.988C401.575 228.93 399.361 231.357 396.545 232.863Z" fill="#689694"/>
</g>
<path d="M403.48 216.674L389.506 168.086C388.705 165.937 387.217 164.113 385.274 162.896C383.331 161.68 381.041 161.138 378.759 161.356C380.166 161.823 381.442 162.616 382.484 163.669C383.526 164.723 384.305 166.008 384.757 167.419L398.752 216.028C399.601 219.099 399.376 222.367 398.115 225.292C396.854 228.217 394.632 230.624 391.817 232.113L275.962 298.787C274.681 299.506 273.26 299.939 271.797 300.058C273.244 300.61 274.795 300.842 276.34 300.738C277.886 300.633 279.391 300.195 280.752 299.453L396.586 232.78C399.401 231.286 401.619 228.874 402.873 225.944C404.127 223.014 404.341 219.743 403.48 216.674Z" fill="#075D8D"/>
<path d="M265.736 294.14L251.762 245.531C250.883 242.447 251.092 239.153 252.355 236.204C253.618 233.256 255.858 230.833 258.697 229.342L374.532 162.669C375.806 161.934 377.23 161.5 378.697 161.398C377.25 160.84 375.699 160.605 374.152 160.709C372.606 160.814 371.1 161.255 369.742 162.002L253.907 228.676C251.068 230.166 248.828 232.589 247.565 235.538C246.302 238.486 246.093 241.78 246.972 244.865L260.946 293.474C261.729 295.635 263.212 297.472 265.16 298.691C267.108 299.911 269.407 300.443 271.692 300.203C270.296 299.726 269.031 298.93 267.997 297.877C266.963 296.825 266.189 295.545 265.736 294.14Z" fill="#8CBAC8"/>
<g style="mix-blend-mode:screen">
<path d="M324.258 191.588L320.655 276.576L283.605 297.932L287.208 212.924L324.258 191.588Z" fill="#165E6A"/>
</g>
<g style="mix-blend-mode:screen">
<path d="M380.801 161.377L377.239 243.927L340.21 265.283L343.917 180.296L374.573 162.606C376.465 161.542 378.647 161.111 380.801 161.377Z" fill="#165E6A"/>
</g>
<path d="M242.411 370.481C242.726 371.03 243.17 371.493 243.706 371.83C244.241 372.168 244.85 372.369 245.481 372.416C246.112 372.463 246.744 372.355 247.324 372.101C247.903 371.848 248.412 371.456 248.805 370.96L266.861 352.958C271.901 347.937 273.942 339.207 272.526 328.706L231.894 165.565L226.042 161.898L265.486 320.872C267.027 331.623 267.777 343.353 262.592 348.416L244.66 365.981C243.119 367.502 241.12 368.731 242.411 370.481Z" fill="#3D4140"/>
<path d="M263.841 349.687C269.006 344.624 269.568 334.665 266.736 322.143L227.291 163.169L232.019 166.357V165.565L226.167 161.898L265.611 320.872C267.152 331.623 267.902 343.353 262.716 348.416L243.015 367.647C242.078 368.564 241.786 369.46 242.369 370.231L263.841 349.687Z" fill="#242928"/>
<path d="M272.526 328.706L231.894 165.565L226.042 161.898V162.377L229.811 162.231L269.672 325.06C273.046 342.437 268.985 347.166 263.945 352.146L246.035 370.189C245.306 370.919 244.14 372.023 244.14 372.023C244.926 372.449 245.84 372.575 246.712 372.38C247.585 372.185 248.358 371.681 248.888 370.96L266.861 352.959C271.901 347.937 274.233 341.249 272.526 328.706Z" fill="#606362"/>
<path d="M58.6001 84.182L65.0978 88.0157L222.96 181.087L232.102 191.359L243.182 203.86L386.673 121.248C386.552 120.637 386.378 120.037 386.153 119.456C384.737 114.539 384.07 110.664 380.571 105.851C375.719 98.9959 365.472 90.2242 340.169 73.7018C299.287 46.8658 231.79 12.3624 212.713 2.92394L208.548 0.840397C207.784 0.41566 206.934 0.168851 206.061 0.118346C205.189 0.0678421 204.316 0.214945 203.508 0.548703L203.237 0.69455C203.13 0.739594 203.031 0.803054 202.946 0.882069L58.6001 84.182Z" fill="#22C55E"/>
<path d="M362.952 103.08C365.306 101.975 365.035 99.7252 362.328 98.0375C311.845 65.4301 262.696 37.8024 215.025 12.4248C213.596 11.7619 212.05 11.391 210.477 11.3337C208.903 11.2765 207.334 11.5341 205.861 12.0915C203.487 13.2583 203.779 15.2585 206.423 16.5919C254.032 41.8861 303.327 69.3888 353.831 102.017C355.183 102.845 356.699 103.369 358.275 103.553C359.85 103.736 361.446 103.575 362.952 103.08Z" fill="#C3E5CD"/>
<path d="M343.209 112.477C345.563 111.331 345.292 109.039 342.584 107.372C291.581 75.4104 242.807 47.4493 195.052 22.1759C193.616 21.5223 192.062 21.1651 190.484 21.1257C188.906 21.0863 187.336 21.3656 185.868 21.9467C183.473 23.1552 183.786 25.1762 186.41 26.5097C234.206 51.6997 283.022 79.5983 334.067 111.497C335.422 112.33 336.946 112.85 338.527 113.019C340.109 113.188 341.708 113.003 343.209 112.477Z" fill="#C3E5CD"/>
<path d="M323.403 122.248C325.778 121.061 325.486 118.748 322.8 117.081C271.692 85.2238 222.834 57.4085 174.934 32.3019C173.488 31.6483 171.922 31.2999 170.334 31.2784C168.747 31.2569 167.172 31.5627 165.708 32.1768C163.293 33.4061 163.626 35.4688 166.25 36.7815C214.15 61.7839 263.049 89.5784 314.115 121.373C315.493 122.221 317.047 122.741 318.657 122.893C320.268 123.044 321.892 122.824 323.403 122.248Z" fill="#C3E5CD"/>
<path d="M303.536 132.416C305.91 131.187 305.618 128.832 302.932 127.165C251.72 95.4124 202.758 67.743 154.796 42.803C153.331 42.164 151.75 41.8342 150.151 41.8342C148.553 41.8342 146.972 42.164 145.507 42.803C143.091 44.074 143.425 46.1784 146.049 47.4701C194.074 72.3268 243.077 99.9545 294.351 131.666C295.722 132.488 297.263 132.983 298.856 133.113C300.449 133.243 302.05 133.004 303.536 132.416Z" fill="#C3E5CD"/>
<path d="M283.522 142.979C285.896 141.708 285.604 139.333 282.918 137.666C231.581 106.017 182.494 78.473 134.386 53.6997C132.917 53.0498 131.328 52.7141 129.721 52.7141C128.114 52.7141 126.525 53.0498 125.056 53.6997C122.619 55.0332 122.973 57.1584 125.597 58.4502C173.747 83.161 222.897 110.643 274.296 142.25C275.67 143.084 277.22 143.585 278.822 143.711C280.424 143.838 282.034 143.587 283.522 142.979Z" fill="#C3E5CD"/>
<path d="M263.57 153.96C265.965 152.647 265.653 150.23 262.987 148.563C211.505 116.998 162.272 89.5991 114.018 64.9925C112.533 64.3575 110.93 64.0441 109.314 64.0729C107.699 64.1016 106.108 64.4718 104.646 65.1592C102.189 66.5343 102.439 68.7012 105.167 69.9721C153.484 94.5162 202.779 121.873 254.344 153.314C255.722 154.142 257.276 154.633 258.88 154.745C260.483 154.857 262.091 154.588 263.57 153.96Z" fill="#C3E5CD"/>
<path d="M243.452 165.44C245.847 164.044 245.535 161.606 242.89 159.96C191.22 128.415 141.904 101.142 93.4211 76.6812C91.9181 76.0565 90.2993 75.7594 88.6726 75.8097C87.0458 75.86 85.4485 76.2565 83.9869 76.9729C81.5294 78.3897 81.7585 80.5982 84.5076 81.8484C132.991 106.247 182.39 133.458 234.185 164.898C235.574 165.722 237.14 166.201 238.753 166.295C240.365 166.389 241.976 166.096 243.452 165.44Z" fill="#C3E5CD"/>
<path d="M362.973 101.434C365.306 100.329 365.056 98.0791 362.328 96.3915C311.866 63.8049 262.696 36.2605 215.046 10.9664C213.617 10.3034 212.071 9.93249 210.497 9.87525C208.924 9.818 207.355 10.0756 205.882 10.633C203.508 11.7789 203.8 13.7791 206.465 15.1126C254.157 40.4276 302.869 68.4095 353.831 100.371C355.187 101.2 356.707 101.724 358.285 101.907C359.864 102.091 361.463 101.929 362.973 101.434Z" fill="#74C58F"/>
<path d="M343.23 110.809C345.583 109.664 345.313 107.392 342.605 105.705C291.581 73.8058 242.828 45.9072 195.094 20.6964C193.655 20.0376 192.097 19.6775 190.515 19.6381C188.933 19.5988 187.359 19.8808 185.889 20.4672C183.515 21.6548 183.806 23.6759 186.451 25.0093C234.351 50.1368 283.022 77.9937 334.087 109.83C335.445 110.659 336.968 111.176 338.549 111.345C340.13 111.515 341.728 111.332 343.23 110.809Z" fill="#74C58F"/>
<path d="M323.424 120.561C325.778 119.373 325.507 117.06 322.82 115.393C271.713 83.5986 222.855 55.8458 174.955 30.8017C173.505 30.1503 171.937 29.8014 170.347 29.7764C168.757 29.7513 167.179 30.0505 165.708 30.6559C163.313 31.8851 163.626 33.9478 166.271 35.2605C214.171 60.2629 263.05 87.9324 314.136 119.685C315.514 120.533 317.068 121.053 318.678 121.205C320.289 121.357 321.913 121.136 323.424 120.561Z" fill="#74C58F"/>
<path d="M303.556 130.707C305.931 129.478 305.639 127.124 302.952 125.457C251.741 93.7662 202.8 66.1593 154.837 41.261C153.372 40.622 151.791 40.2922 150.193 40.2922C148.595 40.2922 147.014 40.622 145.549 41.261C143.133 42.532 143.466 44.6364 146.09 45.9282C194.115 70.7223 243.119 98.2875 294.372 130.02C295.748 130.831 297.292 131.315 298.884 131.435C300.477 131.554 302.075 131.305 303.556 130.707Z" fill="#74C58F"/>
<path d="M283.626 141.25C286 139.958 285.708 137.583 283.022 135.937C231.686 104.351 182.619 76.848 134.511 52.1372C133.042 51.4873 131.453 51.1516 129.846 51.1516C128.239 51.1516 126.65 51.4873 125.181 52.1372C122.765 53.4707 123.098 55.5959 125.723 56.8877C173.872 81.536 223.022 108.976 274.421 140.5C275.794 141.325 277.339 141.822 278.936 141.952C280.532 142.082 282.137 141.842 283.626 141.25Z" fill="#74C58F"/>
<path d="M263.591 152.189C265.986 150.876 265.674 148.459 263.008 146.813C211.526 115.31 162.314 87.9533 114.06 63.4717C112.574 62.838 110.971 62.5253 109.356 62.5541C107.741 62.5828 106.151 62.9523 104.688 63.6384C102.252 65.0135 102.481 67.1595 105.209 68.4513C153.525 92.9329 202.8 120.227 254.365 151.793C255.763 152.581 257.327 153.028 258.931 153.097C260.534 153.166 262.131 152.855 263.591 152.189Z" fill="#74C58F"/>
<path d="M243.494 163.565C245.889 162.19 245.577 159.731 242.911 158.106C191.262 126.686 141.904 99.4751 93.4838 75.0768C91.9813 74.4528 90.3638 74.1543 88.7377 74.201C87.1115 74.2477 85.5138 74.6385 84.0496 75.3477C81.5713 76.7854 81.8212 78.9731 84.5494 80.2232C133.033 104.559 182.432 131.728 234.226 163.106C235.624 163.912 237.194 164.373 238.805 164.453C240.416 164.533 242.023 164.228 243.494 163.565Z" fill="#74C58F"/>
<path d="M231.998 191.297L243.078 203.798L386.569 121.186C386.448 120.574 386.274 119.975 386.049 119.394C384.632 114.477 383.966 110.601 380.467 105.788L231.998 191.297Z" fill="#74C58F"/>
<path d="M58.6001 84.182L65.0978 88.0157L212.713 2.92394L208.548 0.840397C207.784 0.41566 206.934 0.168851 206.061 0.118346C205.189 0.0678421 204.316 0.214945 203.508 0.548703L203.237 0.69455C203.13 0.739594 203.031 0.803054 202.946 0.882069L58.6001 84.182Z" fill="#74C58F"/>
<path d="M243.057 203.694C243.057 203.694 234.455 190.317 147.402 141.187C57.6212 90.6825 54.4348 94.7662 54.4348 94.7662C54.4348 94.7662 55.6219 79.2022 64.8479 83.5151C74.0738 87.828 151.547 126.749 196.531 156.147C241.516 185.546 238.933 190.442 243.057 203.694Z" fill="#9CD5AE"/>
<path d="M303.348 384.003C303.386 385.736 303.553 387.463 303.848 389.17C304.129 391.097 304.712 392.968 305.576 394.713C306.014 395.421 307.347 395.65 309.117 395.588C314.876 394.941 320.56 393.741 326.09 392.004C330.852 390.507 335.37 388.325 339.502 385.524C343.292 382.712 345.854 379.128 343.792 374.982C343.124 373.563 342.159 372.304 340.962 371.29C339.766 370.277 338.366 369.532 336.857 369.106C333.256 368.244 329.484 368.432 325.986 369.648C325.986 369.648 307.888 374.565 305.264 376.898C303.848 378.19 303.327 380.982 303.348 384.003Z" fill="#2C3C55"/>
<path d="M418.392 328.331C419.162 335.79 422.703 335.915 425.743 334.582C427.453 333.741 429.02 332.637 430.387 331.31C430.387 331.31 440.634 320.559 440.363 316.226C440.092 311.892 437.968 296.619 435.469 296.307C434.886 296.307 433.532 297.349 431.97 298.89L431.762 299.078C428.346 302.495 424.015 307.787 424.015 307.787C424.015 307.787 417.038 314.705 418.392 328.331Z" fill="#2C3C55"/>
<path d="M303.431 385.92C303.535 387.024 303.66 388.129 303.848 389.17C308.973 388.403 314.034 387.254 318.988 385.733C318.988 385.733 341.168 379.003 336.857 369.064C335.873 368.78 334.86 368.605 333.837 368.543C331.176 368.386 328.51 368.747 325.986 369.606C325.986 369.606 307.888 374.523 305.264 376.857C303.556 378.461 303.161 382.128 303.431 385.92Z" fill="#E6F5EB"/>
<path d="M418.391 328.331C420.2 327.488 421.855 326.347 423.285 324.956C423.285 324.956 433.511 314.225 433.261 309.892C432.957 306.242 432.456 302.611 431.762 299.016C430.908 299.87 429.991 300.849 429.096 301.828C426.451 304.745 424.014 307.725 424.014 307.725C420.282 312.122 418.244 317.708 418.266 323.476C418.203 325.096 418.245 326.717 418.391 328.331Z" fill="#E6F5EB"/>
<path d="M303.431 385.92C307.477 385.136 311.481 384.149 315.427 382.961C315.427 382.961 334.296 377.253 333.837 368.585C331.176 368.428 328.51 368.789 325.986 369.648C325.986 369.648 307.888 374.565 305.264 376.898C303.556 378.461 303.161 382.128 303.431 385.92Z" fill="#C3E5CD"/>
<path d="M418.267 323.56C419.162 322.831 419.724 322.268 419.724 322.268C419.724 322.268 429.95 311.538 429.7 307.204C429.7 306.058 429.429 304.12 429.096 301.912C426.451 304.829 424.014 307.808 424.014 307.808C420.283 312.205 418.244 317.792 418.267 323.56Z" fill="#C3E5CD"/>
<path d="M153.9 299.037C154.567 299.308 156.92 296.953 157.295 296.953C157.67 296.953 158.065 296.661 157.982 296.036C157.982 296.036 166.625 273.117 158.253 261.7C150.464 250.99 113.497 223.425 107.52 227.738C107.083 228.05 103.772 229.592 103.709 230.301C102.605 240.343 114.122 263.637 117.538 267.575C120.412 271.013 145.799 295.807 153.9 299.037ZM121.599 264.2C119.1 261.22 112.435 245.198 113.268 237.676C114.101 230.155 149.214 256.074 155.295 264.596C161.377 273.117 151.463 287.161 151.463 287.161C152.192 292.099 124.098 267.159 121.599 264.2Z" fill="#4B6182"/>
<path d="M154.629 298.12C154.629 298.12 163.272 275.201 154.9 263.783C146.528 252.365 104.501 221.3 103.397 231.342C102.293 241.385 110.769 265.637 114.206 269.679C117.642 273.721 155.67 304.745 154.629 298.12ZM118.246 266.221C115.747 263.241 109.103 247.24 109.916 239.697C110.728 232.155 145.861 258.116 151.943 266.617C158.024 275.117 148.152 289.181 148.152 289.181C148.839 294.14 120.745 269.2 118.246 266.221Z" fill="#2C3C55"/>
<g style="mix-blend-mode:multiply">
<path d="M303.348 384.003C303.386 385.736 303.553 387.463 303.848 389.171C304.129 391.097 304.712 392.968 305.576 394.713C306.014 395.421 307.347 395.65 309.117 395.588C309.847 393.058 310.445 390.492 310.908 387.9C314.886 372.44 336.857 369.148 336.857 369.148C333.256 368.286 329.484 368.474 325.986 369.689C325.986 369.689 307.888 374.607 305.264 376.94C303.848 378.19 303.327 380.982 303.348 384.003Z" fill="#03314B"/>
</g>
<g style="mix-blend-mode:multiply">
<path d="M418.392 328.331C419.162 335.79 422.703 335.915 425.743 334.582L423.286 325.018C423.286 325.018 420.224 317.08 426.618 307.829C428.769 305.085 430.567 302.082 431.97 298.891L431.762 299.078C428.346 302.495 424.015 307.787 424.015 307.787C424.015 307.787 417.038 314.705 418.392 328.331Z" fill="#03314B"/>
</g>
<path d="M28.5896 216.799L65.785 236.322L125.535 279.576L67.2845 234.343L28.5896 216.799Z" fill="#9CD5AE"/>
<path d="M274.421 357.751C274.421 357.751 283.709 365.272 288.645 383.774C290.561 390.983 289.645 391.171 289.645 391.171L288.562 390.462C286.98 378.455 282.083 367.127 274.421 357.751Z" fill="#9CD5AE"/>
<defs>
<linearGradient id="paint0_linear_62_3442" x1="179.183" y1="99.4545" x2="173.705" y2="97.6641" gradientUnits="userSpaceOnUse">
<stop stop-color="#A3A3A3"/>
<stop offset="0.12" stop-color="#919191"/>
<stop offset="0.26" stop-color="#808080"/>
<stop offset="0.37" stop-color="#7A7A7A"/>
<stop offset="0.38" stop-color="#616161"/>
<stop offset="0.6" stop-color="#5B5B5B"/>
<stop offset="0.61" stop-color="#3C3C3C"/>
<stop offset="0.79" stop-color="#333333"/>
<stop offset="1" stop-color="#2E2E2E"/>
</linearGradient>
<linearGradient id="paint1_linear_62_3442" x1="112.269" y1="258.428" x2="80.0925" y2="258.428" gradientUnits="userSpaceOnUse">
<stop stop-color="#1F1F1F"/>
<stop offset="0.21" stop-color="#242424"/>
<stop offset="0.39" stop-color="#434343"/>
<stop offset="0.4" stop-color="#4C4C4C"/>
<stop offset="0.62" stop-color="#525252"/>
<stop offset="0.63" stop-color="#6B6B6B"/>
<stop offset="0.74" stop-color="#717171"/>
<stop offset="0.88" stop-color="#828282"/>
<stop offset="1" stop-color="#949494"/>
</linearGradient>
<linearGradient id="paint2_linear_62_3442" x1="90.8635" y1="125.842" x2="88.6592" y2="126.224" gradientUnits="userSpaceOnUse">
<stop stop-color="#424242"/>
<stop offset="0.21" stop-color="#474747"/>
<stop offset="0.39" stop-color="#666666"/>
<stop offset="0.4" stop-color="#6F6F6F"/>
<stop offset="0.62" stop-color="#757575"/>
<stop offset="0.63" stop-color="#8E8E8E"/>
<stop offset="0.74" stop-color="#949494"/>
<stop offset="0.88" stop-color="#A5A5A5"/>
<stop offset="1" stop-color="#B7B7B7"/>
</linearGradient>
<linearGradient id="paint3_linear_62_3442" x1="94.3073" y1="154.116" x2="96.8035" y2="154.237" gradientUnits="userSpaceOnUse">
<stop stop-color="#FAFAFA"/>
<stop offset="0.12" stop-color="#E8E8E8"/>
<stop offset="0.26" stop-color="#D7D7D7"/>
<stop offset="0.37" stop-color="#D1D1D1"/>
<stop offset="0.38" stop-color="#B8B8B8"/>
<stop offset="0.6" stop-color="#B2B2B2"/>
<stop offset="0.61" stop-color="#939393"/>
<stop offset="0.79" stop-color="#8A8A8A"/>
<stop offset="1" stop-color="#858585"/>
</linearGradient>
<linearGradient id="paint4_linear_62_3442" x1="96.5826" y1="133.043" x2="94.3334" y2="132.931" gradientUnits="userSpaceOnUse">
<stop stop-color="#424242"/>
<stop offset="0.21" stop-color="#474747"/>
<stop offset="0.39" stop-color="#666666"/>
<stop offset="0.4" stop-color="#6F6F6F"/>
<stop offset="0.62" stop-color="#757575"/>
<stop offset="0.63" stop-color="#8E8E8E"/>
<stop offset="0.74" stop-color="#949494"/>
<stop offset="0.88" stop-color="#A5A5A5"/>
<stop offset="1" stop-color="#B7B7B7"/>
</linearGradient>
<linearGradient id="paint5_linear_62_3442" x1="83.8593" y1="134.347" x2="81.7867" y2="135.149" gradientUnits="userSpaceOnUse">
<stop stop-color="#424242"/>
<stop offset="0.21" stop-color="#474747"/>
<stop offset="0.39" stop-color="#666666"/>
<stop offset="0.4" stop-color="#6F6F6F"/>
<stop offset="0.62" stop-color="#757575"/>
<stop offset="0.63" stop-color="#8E8E8E"/>
<stop offset="0.74" stop-color="#949494"/>
<stop offset="0.88" stop-color="#A5A5A5"/>
<stop offset="1" stop-color="#B7B7B7"/>
</linearGradient>
<linearGradient id="paint6_linear_62_3442" x1="80.8973" y1="141.781" x2="78.7579" y2="142.405" gradientUnits="userSpaceOnUse">
<stop stop-color="#424242"/>
<stop offset="0.21" stop-color="#474747"/>
<stop offset="0.39" stop-color="#666666"/>
<stop offset="0.4" stop-color="#6F6F6F"/>
<stop offset="0.62" stop-color="#757575"/>
<stop offset="0.63" stop-color="#8E8E8E"/>
<stop offset="0.74" stop-color="#949494"/>
<stop offset="0.88" stop-color="#A5A5A5"/>
<stop offset="1" stop-color="#B7B7B7"/>
</linearGradient>
<linearGradient id="paint7_linear_62_3442" x1="76.9478" y1="158.168" x2="71.4701" y2="156.399" gradientUnits="userSpaceOnUse">
<stop stop-color="#A3A3A3"/>
<stop offset="0.12" stop-color="#919191"/>
<stop offset="0.26" stop-color="#808080"/>
<stop offset="0.37" stop-color="#7A7A7A"/>
<stop offset="0.38" stop-color="#616161"/>
<stop offset="0.6" stop-color="#5B5B5B"/>
<stop offset="0.61" stop-color="#3C3C3C"/>
<stop offset="0.79" stop-color="#333333"/>
<stop offset="1" stop-color="#2E2E2E"/>
</linearGradient>
<linearGradient id="paint8_linear_62_3442" x1="99.0234" y1="164.107" x2="92.4631" y2="164.107" gradientUnits="userSpaceOnUse">
<stop stop-color="#A3A3A3"/>
<stop offset="0.12" stop-color="#919191"/>
<stop offset="0.26" stop-color="#808080"/>
<stop offset="0.37" stop-color="#7A7A7A"/>
<stop offset="0.38" stop-color="#616161"/>
<stop offset="0.6" stop-color="#5B5B5B"/>
<stop offset="0.61" stop-color="#3C3C3C"/>
<stop offset="0.79" stop-color="#333333"/>
<stop offset="1" stop-color="#2E2E2E"/>
</linearGradient>
</defs>
</svg>
