<svg width="558" height="335" viewBox="0 0 558 335" fill="none" xmlns="http://www.w3.org/2000/svg">
<g style="mix-blend-mode:multiply">
<path d="M557.008 101.72C554.613 79.6133 448.712 18.0447 422.93 4.0641C406.581 -4.83262 384.047 6.46017 339.438 20.5032C294.828 34.5463 193.655 15.5861 184.533 30.6084C175.412 45.6307 136.842 102.511 136.842 102.511C136.842 102.511 11.5311 120.534 1.68032 139.244C-8.17042 157.954 51.4547 170.247 51.4547 170.247L52.496 193.333C52.496 193.333 86.6299 199.584 107.164 208.334C127.699 217.085 254.905 286.592 262.944 298.156C268.949 307.636 274.179 317.586 278.584 327.909C278.584 327.909 284.165 336.639 318.341 333.764C352.517 330.888 357.223 326.054 357.223 326.054C357.223 326.054 346.914 326.054 396.793 326.054C446.671 326.054 505.089 295.572 513.711 287.613C529.684 272.737 556.945 255.256 534.099 204.021C523.103 179.602 559.403 123.868 557.008 101.72ZM368.99 56.0901C355.294 54.431 342.025 50.2415 329.858 43.7347L318.258 32.6919C318.258 32.6919 404.29 5.0017 412.267 9.14794L434.051 20.5032C434.051 20.5032 391.17 58.632 368.99 56.0901ZM519.937 162.663C516.793 163.08 494.946 157.1 490.219 157.371C485.491 157.642 471.329 149.412 471.329 149.412C471.329 149.412 496.946 142.682 497.57 128.389C498.195 114.096 497.799 103.386 497.799 103.386L539.077 91.9478C539.077 91.9478 541.742 89.8643 543.034 98.9277C544.325 107.991 523.082 162.246 519.937 162.663Z" fill="#A7B6D1"/>
</g>
</svg>
