<svg width="272" height="281" viewBox="0 0 272 281" fill="none" xmlns="http://www.w3.org/2000/svg">
<path d="M129.801 9.47956L100.284 254.677C99.8441 258.347 102.381 261.648 105.926 262.007L228.857 275.497C236.386 275.96 240.51 272.116 240.974 268.213L271.961 7.52261C272.425 3.63188 268.729 0.111694 261.165 0.111694L137.122 2.71709C133.531 2.78657 130.241 5.82042 129.801 9.47956Z" fill="#7183A5"/>
<path d="M124.275 9.06269L94.5965 255.487C94.1563 259.181 96.6932 262.493 100.261 262.852L227.698 275.531C231.695 275.925 235.355 273.042 235.819 269.105L266.98 7.07101C267.444 3.1687 264.513 0.0190528 260.47 0.0885301L131.619 2.26549C128.017 2.32339 124.715 5.38039 124.275 9.06269Z" fill="#97A6B7"/>
<path d="M126.685 22.6454L99.1838 251.133C98.7668 254.584 101.153 257.676 104.489 258L224.339 269.649C228.057 270.008 231.452 267.31 231.892 263.651L260.69 21.5917C261.119 17.9557 258.396 15.0145 254.643 15.0493L133.566 16.3346C130.195 16.3809 127.102 19.2179 126.685 22.6454Z" fill="#D8DEE8"/>
<path d="M190.953 8.88994C190.791 10.199 191.741 11.2531 193.062 11.2415C194.382 11.2299 195.587 10.141 195.738 8.83202C195.9 7.51143 194.95 6.46886 193.629 6.48044C192.309 6.49203 191.116 7.58093 190.953 8.88994Z" fill="#4B6182"/>
<path opacity="0.1" d="M147.409 176.028C171.944 130.683 208.596 117.112 219.636 70.3764C225.602 45.1099 221.536 20.9317 214.689 0.864366L260.47 0.0885341C264.513 0.0190568 267.444 3.15712 266.98 7.07101L235.819 269.105C235.355 273.03 231.695 275.925 227.698 275.531L127.519 265.561C126.777 224.929 136.473 196.235 147.409 176.028Z" fill="#DFEEFF"/>
<path d="M92.4418 126.688C92.4418 126.688 91.5498 123.341 92.187 122.496C92.8241 121.639 96.6816 118.223 96.3109 119.335C95.9402 120.446 95.3842 121.188 95.3842 121.188C95.3842 121.188 97.4693 122.149 96.1256 123.596C94.7934 125.044 94.3416 125.379 94.2721 126.676C94.191 127.985 93.3338 128.436 92.4418 126.688Z" fill="#FFC1B5"/>
<path d="M55.3378 270.946C55.3378 270.946 54.8629 273.842 54.9208 274.861C54.9787 275.892 66.4007 276.414 66.5165 275.649C66.6324 274.873 64.6283 273.657 63.215 273.217C61.8018 272.788 57.6778 271.63 57.6778 271.63L55.3378 270.946Z" fill="#22C55E"/>
<path d="M58.1064 268.063L57.7473 271.654C57.7473 271.654 56.4151 272.534 55.2567 271.851L54.6775 267.935L58.1064 268.063Z" fill="#FFC1B5"/>
<path d="M34.9614 275.636C34.9614 275.636 34.4864 278.532 34.5443 279.551C34.6022 280.582 46.0242 281.103 46.1401 280.339C46.2559 279.563 44.2518 278.346 42.8386 277.906C41.4253 277.478 37.3014 276.319 37.3014 276.319L34.9614 275.636Z" fill="#22C55E"/>
<path d="M37.7299 272.753L37.3708 276.344C37.3708 276.344 36.0386 277.224 34.8802 276.541L34.301 272.625L37.7299 272.753Z" fill="#FFC1B5"/>
<path d="M56.0329 174.234C57.3535 176.908 58.6741 179.583 59.9947 182.258C61.0604 197.52 61.5817 214.125 61.2458 231.877C60.9909 245.089 60.2843 257.595 59.2765 269.336C57.4925 269.255 55.697 269.174 53.913 269.093C51.3298 263.964 48.2716 256.182 47.9935 246.583C47.7039 236.566 50.739 235.235 50.542 225.647C50.2872 213.222 45.0743 209.899 42.3057 194.949C41.24 189.229 40.5333 181.76 41.379 172.705C46.2559 173.215 51.1444 173.724 56.0329 174.234Z" fill="#054468"/>
<path opacity="0.3" d="M41.3558 172.705C43.997 172.983 46.6382 173.261 49.2794 173.527C54.0289 181.795 55.3611 190.41 54.527 194.22C53.3454 199.604 50.2293 201.33 50.3915 206.737C50.5652 212.087 53.7161 213.477 55.7202 219.788C57.1103 224.153 56.7396 228.171 55.9519 236.022C54.3648 251.84 50.5421 256.68 53.7393 261.868C54.6544 263.338 56.2878 265.098 59.4966 266.442C59.4155 267.414 59.346 268.387 59.2533 269.348C57.4694 269.267 55.6738 269.186 53.8899 269.105C51.3066 263.975 48.2484 256.194 47.9704 246.594C47.6808 236.578 50.7158 235.246 50.5189 225.658C50.264 213.234 45.0512 209.91 42.2826 194.961C41.2284 189.241 40.5102 181.772 41.3558 172.705Z" fill="url(#paint0_linear_62_3224)"/>
<path d="M48.9318 179.051C46.4528 192.552 44.2634 207.015 42.5606 222.347C40.4986 240.851 39.3981 258.301 38.9695 274.513C37.0002 274.57 35.0425 274.628 33.0732 274.675C25.335 259.367 24.86 248.991 25.9721 242.229C26.4007 239.623 27.5707 234.517 27.8371 226.886C28.0225 221.571 27.6865 217.518 27.2579 212.655C26.3312 201.99 25.1959 199.662 25.0338 191.499C24.8832 183.845 24.8484 179.966 27.0378 177.707C32.8067 171.756 47.7966 178.53 48.9318 179.051Z" fill="#03314B"/>
<path d="M91.4109 126.178C92.7199 126.086 94.0289 125.993 95.3264 125.9C98.4078 138.348 96.1952 150.426 89.2447 154.861C78.3788 161.797 58.176 148.724 53.8088 134.492C51.8858 128.24 52.326 119.231 56.1604 117.471C57.2261 116.984 58.8827 116.903 62.4622 118.918C73.1659 124.928 73.4439 136.276 78.8885 137.237C81.3096 137.677 85.2134 136.137 91.4109 126.178Z" fill="#22C55E"/>
<path d="M61.5005 185.002C63.3772 181.876 61.014 178.865 60.4811 172.96C59.8672 166.255 62.4504 165.144 65.0105 154.027C66.7134 146.639 68.3352 139.541 66.3891 131.25C65.4507 127.267 63.8753 120.528 58.2917 117.262C55.4073 115.583 51.4687 115.745 43.7189 116.15C34.1272 116.648 29.3314 116.903 25.7519 118.791C25.2306 119.068 14.3531 124.986 13.6001 134.62C12.8356 144.439 23.5277 145.748 24.9526 158.844C25.5897 164.715 24.4545 173.759 23.7131 179.618C23.0064 185.246 22.5083 186.682 23.6204 188.395C26.2963 192.506 34.4979 191.337 50.8895 188.986C57.3187 188.06 60.0873 187.33 61.5005 185.002Z" fill="#22C55E"/>
<path opacity="0.2" d="M36.5483 156.737C35.8533 159.284 33.3627 161.195 31.625 167.402C31.2543 168.745 28.5784 178.286 32.0421 180.625C34.0461 181.98 35.8417 179.41 40.6954 179.074C49.1055 178.495 53.1136 185.558 58.6045 183.625C59.5544 183.289 60.8171 182.571 62.0682 180.938C62.323 182.42 62.2767 183.694 61.489 185.003C60.0873 187.33 57.3187 188.06 50.8895 188.986C34.4979 191.325 26.2963 192.495 23.6204 188.395C22.5083 186.693 22.9949 185.246 23.7131 179.618C24.4545 173.759 25.5897 164.715 24.9526 158.844C23.5277 145.759 12.8356 144.439 13.6001 134.62C13.8086 131.991 14.7701 129.664 16.0559 127.626C29.621 133.115 38.7261 148.724 36.5483 156.737Z" fill="#E6F5EB"/>
<path d="M19.4154 176.04L22.1261 177.778C22.6126 177.21 23.7363 176.075 25.5087 175.693C27.4896 175.252 29.7716 175.878 29.8296 176.515C29.8759 177.025 28.4858 177.535 28.2657 177.616C26.5397 178.253 25.2538 177.72 24.5472 178.415C24.3039 178.658 23.9911 179.122 23.2845 179.539C23.0992 179.654 22.9022 179.747 22.798 179.793C21.6396 180.245 19.6587 178.23 19.4849 178.056L19.4154 176.04Z" fill="#FFC1B5"/>
<path d="M27.4316 140.456C29.3894 135.755 30.7563 128.564 27.6517 117.876C7.21731 125.924 -3.19684 145.007 0.86919 160.13C4.22859 172.601 16.4267 178.669 19.149 179.942C19.7861 178.506 20.4116 177.059 21.0488 175.623C17.8979 172.115 14.3416 166.915 14.8397 160.998C15.5463 152.777 23.4583 149.974 27.4316 140.456Z" fill="#22C55E"/>
<path d="M43.2093 106.482C43.2093 106.482 43.0471 110.06 41.935 112.735C40.9272 115.155 35.6564 116.672 34.5907 117.216C33.5249 117.76 36.5947 119.335 39.6761 119.648C42.7575 119.96 51.573 119.254 53.16 118.084C54.7471 116.915 51.8858 117.007 49.6848 116.197C47.4838 115.386 46.2096 111.09 46.6034 109.133C46.9857 107.165 43.2093 106.482 43.2093 106.482Z" fill="#FFCEC0"/>
<path d="M48.0862 105.185C49.6848 103.61 49.9049 103.425 50.0903 102.88C50.7853 100.703 49.094 97.7158 46.8815 96.9747C46.7656 96.94 45.2828 96.4652 44.7036 97.1021C44.2171 97.6463 44.9353 98.4106 44.5878 99.4643C44.275 100.449 43.4178 100.53 41.8192 101.827C40.5102 102.892 39.6993 103.563 39.5024 104.49C39.1201 106.412 41.4485 109.203 43.5105 109.133C44.2634 109.122 44.472 108.74 48.0862 105.185Z" fill="#2C3C55"/>
<path d="M43.7305 109.448C43.7305 109.448 45.4334 111.371 48.0282 110.734C50.3451 110.166 49.7543 104.838 48.063 103.992C47.4954 103.714 46.4644 103.737 45.6882 104.108C45.2364 104.328 45.109 104.56 44.3445 104.907C43.6494 105.231 43.4293 105.185 43.244 105.405C43.0123 105.683 42.908 106.286 43.6378 107.745C43.105 107.375 42.5373 107.293 42.1898 107.537C42.1319 107.571 41.9929 107.71 41.935 107.896C41.7149 108.556 42.3983 109.216 43.7305 109.448Z" fill="#FFC1B5"/>
<path d="M237.788 37.3517L238.39 40.5824L226.065 40.6171L119.074 40.8719C116.317 40.8834 113.791 43.153 113.409 45.9553L87.8661 216.58C87.4838 219.405 91.8858 223.713 94.6197 223.922L142.091 227.569V227.511L213.091 232.954L213.264 233.023C216.3 233.255 219.08 231.055 219.474 228.079V228.09L243.395 45.909C243.777 42.9562 240.835 37.3517 237.788 37.3517Z" fill="#075D8D"/>
<path d="M217.052 224.535C216.659 227.523 213.878 229.746 210.843 229.514L92.0827 220.401C89.3489 220.193 87.4491 217.726 87.8198 214.913L111.034 42.4698C111.417 39.6676 113.942 37.398 116.687 37.3864L236.12 37.0622C239.167 37.0506 241.333 39.4476 240.939 42.4004L217.052 224.535Z" fill="#03314B"/>
<path d="M218.628 129.698C218.431 131.181 217.052 132.281 215.546 132.223L111.023 128.413C109.644 128.367 108.671 127.232 108.857 125.819L110.907 110.592C111.092 109.18 112.355 108.23 113.733 108.265L218.35 111.171C219.856 111.218 220.933 112.283 220.736 113.753L218.628 129.698Z" fill="white"/>
<path d="M214.585 160.639C214.388 162.121 213.01 163.383 211.504 163.314L107.049 158.161C105.671 158.092 104.709 156.772 104.906 155.359L106.98 139.842C107.165 138.43 108.439 137.225 109.818 137.272L214.33 141.487C215.836 141.544 216.902 142.911 216.716 144.393L214.585 160.639Z" fill="white"/>
<path opacity="0.1" d="M220.759 113.684C220.516 113.603 220.25 113.557 219.96 113.557L115.344 110.65C113.965 110.615 112.703 111.565 112.517 112.978L110.455 128.205C110.455 128.239 110.444 128.286 110.444 128.32C109.378 128.019 108.706 127.012 108.857 125.808L110.919 110.581C111.104 109.168 112.367 108.218 113.745 108.253L218.362 111.16C219.844 111.206 220.91 112.236 220.759 113.684Z" fill="url(#paint1_linear_62_3224)"/>
<path opacity="0.1" d="M216.728 144.034C216.473 143.93 216.207 143.872 215.917 143.86L111.405 139.645C110.027 139.587 108.752 140.803 108.567 142.216L106.493 157.733C106.482 157.837 106.47 157.929 106.47 158.022C105.405 157.675 104.733 156.54 104.895 155.336L106.968 139.819C107.154 138.406 108.428 137.19 109.806 137.248L214.319 141.463C215.72 141.533 216.728 142.691 216.728 144.034Z" fill="url(#paint2_linear_62_3224)"/>
<path d="M186.806 185.709C187.119 183.37 185.463 181.216 183.111 181.089L129.048 177.985C126.812 177.858 124.738 179.745 124.437 182.015L122.202 198.828C121.9 201.11 123.453 203.287 125.688 203.437L179.728 207.131C182.08 207.293 184.235 205.313 184.547 202.974L186.806 185.709Z" fill="#22C55E"/>
<path d="M190.884 72.4492C190.177 77.8221 187.409 82.674 183.482 86.2405C179.253 90.0849 173.67 92.424 167.878 92.3197C162.109 92.204 157.255 89.6912 154.139 85.7541C151.266 82.1297 149.853 77.3011 150.559 72.0092C152.031 61.0202 162.132 52.1271 173.218 52.1618C184.42 52.185 192.367 61.2634 190.884 72.4492Z" fill="#22C55E"/>
<path d="M180.099 66.3352C179.462 71.1523 175.013 75.0083 170.183 74.9504C165.375 74.8925 162.005 70.967 162.642 66.1962C163.279 61.4139 167.681 57.5579 172.488 57.581C177.33 57.6042 180.748 61.5181 180.099 66.3352Z" fill="white"/>
<path d="M183.482 86.2405C179.253 90.0849 173.67 92.424 167.878 92.3197C162.109 92.2039 157.255 89.6912 154.139 85.7541C157.707 80.7865 163.592 77.4863 169.835 77.5674C176.126 77.6369 181.188 81.1223 183.482 86.2405Z" fill="white"/>
<path opacity="0.2" d="M240.962 42.3886L217.052 224.535C216.659 227.523 213.705 229.734 210.67 229.503L139.334 224.026C135.94 220.563 133.16 216.395 131.168 211.404C130.195 208.949 129.476 206.309 129.001 203.53C127.681 195.841 128.19 187.098 130.125 178.518C131.608 171.918 133.936 165.387 136.925 159.504C139.311 154.803 142.115 150.495 145.242 146.883C147.501 144.277 149.934 141.753 152.506 139.275C155.61 136.287 158.9 133.358 162.306 130.463C170.229 123.712 178.709 117.123 186.563 110.152C204.681 94.0798 219.381 76.1315 215.836 50.5059C215.72 49.6953 214.62 43.5234 213.207 37.1084L235.958 37.0505C239.004 37.0389 241.344 39.4358 240.962 42.3886Z" fill="#4B6182"/>
<defs>
<linearGradient id="paint0_linear_62_3224" x1="63.019" y1="220.01" x2="44.0047" y2="221.535" gradientUnits="userSpaceOnUse">
<stop stop-color="#311944"/>
<stop offset="1" stop-color="#893976"/>
</linearGradient>
<linearGradient id="paint1_linear_62_3224" x1="108.832" y1="118.287" x2="220.771" y2="118.287" gradientUnits="userSpaceOnUse">
<stop offset="0.003597" stop-color="#F36F56"/>
<stop offset="1" stop-color="#FFC444"/>
</linearGradient>
<linearGradient id="paint2_linear_62_3224" x1="104.875" y1="147.644" x2="216.727" y2="147.644" gradientUnits="userSpaceOnUse">
<stop offset="0.003597" stop-color="#F36F56"/>
<stop offset="1" stop-color="#FFC444"/>
</linearGradient>
</defs>
</svg>
