<svg width="311" height="275" viewBox="0 0 311 275" fill="none" xmlns="http://www.w3.org/2000/svg">
<path d="M162.687 33.3593C105.134 47.2303 109.009 85.1391 55.6358 129.387C2.26241 173.635 12.6368 185.742 32.4888 205.385C62.4807 235.292 143.787 264.296 218.691 250.405C290.8 236.869 303.214 183.153 295.789 124.778C288.364 66.4025 242.904 14.1101 162.687 33.3593Z" fill="#F5F8FD"/>
<path d="M185.921 225.324C176.205 232.126 165.208 232.851 154.3 231.063C153.128 230.875 151.956 230.656 150.784 230.408C145.717 229.336 140.7 227.806 135.872 226.168C122.511 221.63 106.885 214.52 107.501 197.579C107.799 189.456 115.706 187.162 116.62 180.102C117.743 171.393 104.063 164.958 98.0532 161.492C88.5761 156.041 80.6685 152.198 81.5924 139.298C82.2579 130.093 88.6655 124.473 93.2749 117.154C99.6129 107.055 94.7054 98.4753 90.8907 88.7239C86.0429 76.3111 94.7452 62.3294 104.938 55.6364C106.13 54.8519 107.501 54.0476 109.001 53.2731C117.365 48.9435 129.664 45.5473 136.667 52.0119C150.406 64.7027 132.932 82.309 129.842 94.9302C126.952 106.727 135.753 114.82 144.366 121.414C166.003 137.988 195.08 150.281 200.325 180.112C203.176 196.318 200.176 215.364 185.921 225.324Z" fill="#22C55E"/>
<path opacity="0.3" d="M185.921 225.324C176.205 232.126 165.208 232.851 154.3 231.063C160.827 225.076 179.424 204.619 161.205 179.615C154.678 170.658 145.191 165.345 134.79 162.039C128.531 160.053 120.981 157.232 118.13 150.778C114.872 143.419 118.547 135.098 120.246 127.819C122.124 119.736 122.938 111.414 118.786 103.848C111.405 90.3723 101.163 67.8506 108.991 53.2631C117.355 48.9335 129.654 45.5374 136.657 52.002C150.406 64.7027 132.932 82.309 129.842 94.9303C126.952 106.727 135.753 114.82 144.366 121.414C166.003 137.988 195.08 150.281 200.325 180.112C203.176 196.318 200.176 215.364 185.921 225.324Z" fill="#E6F5EB"/>
<path d="M152.562 228.045C150.615 229.514 148.121 230.905 145.469 232.047C144.038 232.662 142.558 233.218 141.098 233.675C139.131 234.291 137.184 234.738 135.406 234.966C126.286 236.098 91.5664 238.819 100.378 220.577C101.222 218.839 103.706 216.575 103.259 214.47C102.474 210.776 94.6261 209.257 91.7551 208.482C65.9661 201.521 94.8545 177.281 82.7647 169.029C70.6848 160.777 64.1581 149.169 70.4166 130.093C73.9035 119.468 85.0694 116.042 93.0068 117.492C99.3249 118.644 103.587 122.894 100.269 129.06C92.7882 142.983 100.785 152.267 109.637 164.203C118.478 176.139 154.827 176.507 161.016 203.577C163.033 212.415 159.754 222.643 152.562 228.045Z" fill="#075D8D"/>
<path opacity="0.3" d="M152.562 228.045C150.615 229.514 148.121 230.905 145.469 232.047C149.512 220.309 145.399 213.954 125.034 209.386C102.593 204.361 102.981 193.915 103.756 178.831C104.53 163.747 88.6656 167.619 81.7018 145.565C77.0029 130.679 86.4006 121.732 93.0068 117.492C99.3249 118.644 103.587 122.894 100.269 129.061C92.7883 142.983 100.785 152.267 109.637 164.203C118.478 176.14 154.827 176.507 161.016 203.577C163.033 212.415 159.754 222.643 152.562 228.045Z" fill="#0B76B1"/>
<path d="M256.642 70.3928C252.003 71.495 245.585 73.0143 244.194 70.7105C242.734 68.2876 247.711 63.0643 246.648 62.1011C245.804 61.3364 242.923 64.8616 239.198 64.2559C237.181 63.9282 234.817 62.3791 234.509 60.4427C234.042 57.5232 238.562 55.9245 238.115 52.7269C237.906 51.2473 236.664 49.6088 235.194 49.3308C232.055 48.7449 230.684 54.9215 225.647 55.9543C222.478 56.6097 218.723 55.0506 216.746 52.6078C213.468 48.5463 216.24 43.4025 213.657 41.764C211.571 40.4433 208.988 43.3032 204.498 44.3458C197.534 45.9645 189.189 42.4392 184.59 37.0968C178.381 29.8974 178.103 18.3784 182.533 11.3677C192.428 -4.30221 228.657 -1.90905 237.777 12.2216C240.678 16.7101 244.81 28.5469 246.698 38.9736C247.234 41.9229 247.761 45.7261 250.811 48.2385C254.735 51.4559 258.529 49.0031 263.675 52.012C267.907 54.4846 271.762 59.8965 270.54 63.8488C269.467 67.3442 264.877 68.4365 256.642 70.3928Z" fill="#2C3C55"/>
<path d="M206.236 88.2174C206.385 89.1012 193.461 103.788 191.345 110.848L216.061 118.346C216.061 118.346 231.359 107.105 236.237 107.105L206.236 88.2174Z" fill="#FFCEC0"/>
<path d="M206.365 86.1023C205.938 86.1122 201.239 93.55 200.901 95.4367C200.901 95.4367 221.306 105.754 225.339 112.08L239.943 106.112C239.943 106.122 215.604 85.854 206.365 86.1023Z" fill="#22C55E"/>
<path d="M189.368 113.867C189.368 113.867 193.053 104.761 195.348 103.272C197.633 101.782 211.124 106.578 219.568 116.101L215.524 119.448L189.368 113.867Z" fill="#22C55E"/>
<path d="M157.688 40.7317C157.688 40.7317 151.638 38.9635 148.042 39.8476C144.446 40.7317 145.757 45.222 146.393 46.5829C147.029 47.9439 155.82 44.9637 155.82 44.9637L157.688 40.7317Z" fill="url(#paint0_linear_62_3376)"/>
<path d="M292.703 87.9096C292.415 85.1093 292.544 82.8452 292.733 81.2663C293.011 78.9327 293.428 77.9397 294.183 77.6517C294.769 77.4233 295.375 77.6915 295.564 77.7709C297.61 78.6745 298.147 82.2196 297.968 84.4738C297.749 87.1649 296.398 89.1211 295.564 90.1241C294.61 89.3892 293.657 88.6445 292.703 87.9096Z" fill="url(#paint1_linear_62_3376)"/>
<path d="M156.973 38.4969C155.89 41.2774 154.807 44.0579 153.724 46.8383C157.569 49.6585 163.38 53.0348 170.871 53.9384C178.748 54.8917 181.043 52.2205 187.222 54.2959C193.938 56.56 193.461 60.4824 202.61 65.5965C209.842 69.6381 213.766 69.221 214.124 71.634C214.591 74.7819 208.124 77.0559 199.352 87.2046C196.044 91.0377 195.557 92.3385 195.925 93.3812C197.077 96.678 205.412 93.2918 214.114 96.9858C225.767 101.931 228.33 115.466 234.012 114.304C235.174 114.066 235.452 113.43 239.327 108.991C242.903 104.9 245.963 101.673 248.079 99.4883C251.049 100.859 254.755 102.944 258.49 106.132C266.616 113.083 267.43 118.961 275.179 122.536C277.673 123.688 281.606 125.495 285.193 123.976C287.388 123.043 289.524 120.828 293.21 106.995C294.948 100.481 296.081 94.9501 296.806 90.9681C294.978 89.5978 293.14 88.2373 291.312 86.867C289.097 89.28 286.117 93.1528 284.279 98.525C282.312 104.275 283.007 107.78 281.02 108.644C278.557 109.706 275.219 105.307 267.311 97.7604C256.523 87.4727 254.456 87.7805 247.562 79.9953C241.194 72.8157 241.423 70.8098 237.27 65.9341C234.847 63.0841 227.376 55.0903 192.12 45.8056C183.497 43.5415 171.536 40.761 156.973 38.4969Z" fill="#22C55E"/>
<path opacity="0.2" d="M213.359 88.0686C212.395 81.3557 230.207 75.914 229.035 70.2339C228.419 67.2251 223.104 67.1853 214.283 63.8885C198.17 57.8609 199.739 51.9425 188.037 48.7946C175.381 45.3985 169.251 51.158 160.072 45.5375C158.344 44.475 156.883 43.2436 155.641 41.9527C155.006 43.5813 154.37 45.2197 153.734 46.8483C157.579 49.6684 163.39 53.0447 170.88 53.9484C178.758 54.9017 181.053 52.2304 187.232 54.3059C193.948 56.5699 193.471 60.4924 202.62 65.6064C209.852 69.648 213.776 69.231 214.134 71.644C214.601 74.7919 208.133 77.0659 199.362 87.2146C196.054 91.0476 195.567 92.3485 195.934 93.3911C197.087 96.688 205.421 93.3018 214.124 96.9958C225.776 101.941 228.339 115.476 234.022 114.314C234.131 114.294 234.22 114.264 234.32 114.235C234.191 109.677 233.148 104.642 229.909 100.422C223.76 92.4379 214.054 92.9344 213.359 88.0686Z" fill="#E6F5EB"/>
<path opacity="0.3" d="M282.908 121.166C278.209 120.987 276.917 114.88 266.437 106.072C262.255 102.567 253.274 94.9501 248.903 97.671C248.496 97.9193 247.433 98.6839 246.757 100.859C247.234 100.362 247.671 99.9053 248.079 99.4883C251.049 100.859 254.754 102.944 258.49 106.132C266.616 113.083 267.43 118.961 275.179 122.536C277.672 123.688 281.606 125.495 285.193 123.976C286.702 123.331 288.193 122.07 290.189 116.797C287.209 120.371 284.775 121.235 282.908 121.166Z" fill="url(#paint2_linear_62_3376)"/>
<path d="M254.913 68.1486C254.913 68.1486 245.983 74.9011 239.943 69.4991C239.943 69.4991 237.847 79.4094 250.771 86.1024C250.771 86.1024 245.933 81.6238 256.533 74.9209L254.913 68.1486Z" fill="#FFCEC0"/>
<path d="M266.328 62.6969C266.328 62.6969 266.089 72.3987 262.255 77.1652C261.718 77.8404 260.814 78.1185 260 77.8603C257.923 77.2049 254.019 75.2883 253.125 69.9558C253.125 69.9558 251.059 67.1059 251.357 65.8646C251.655 64.6233 253.86 65.0702 254.576 66.6391C255.291 68.2081 256.255 65.4277 255.937 64.9014C255.619 64.3751 258.46 58.973 266.328 62.6969Z" fill="#FFC1B5"/>
<path d="M191.116 112.765C173.523 119.537 171.278 125.317 170.871 127.511C170.791 127.918 170.394 130.282 170.046 133.34C169.371 139.249 169.718 140.43 169.013 142.466C167.801 145.981 165.198 146.994 162.049 149.715C152.959 157.56 155.751 165.425 147.506 171.155C143.621 173.856 140.343 173.955 137.75 174.68C129.654 176.934 119.928 187.519 113.213 224.758C114.872 226.644 116.531 228.531 118.19 230.418C126.793 211.124 137.393 199.595 145.31 192.703C161.403 178.692 174.079 177.142 189.567 161.304C200.007 150.619 205.879 139.428 209.127 131.98C203.127 125.565 197.117 119.16 191.116 112.765Z" fill="#054468"/>
<path d="M197.643 119.726C185.345 121.484 181.063 125.575 179.444 129.051C176.94 134.443 180.834 138.385 179.791 149.288C179.583 151.433 178.609 161.622 172.927 168.841C164.513 179.536 151.966 175.812 141.704 181.7C134.8 185.663 127.677 194.709 125.392 216.615C132.247 205.315 139.508 197.748 145.32 192.693C161.413 178.682 174.089 177.133 189.577 161.294C200.017 150.609 205.888 139.418 209.137 131.97C205.302 127.889 201.478 123.807 197.643 119.726Z" fill="#054468"/>
<path d="M187.769 114.115C182.374 116.886 177.179 123.192 177.636 129.974C178.063 136.21 183.179 141.275 188.047 143.578C196.58 147.62 202.074 142.119 219.588 142.029C229.76 141.98 238.999 143.777 239.148 145.862C239.297 147.848 231.042 147.689 226.104 154.263C224.237 156.756 223.68 159.109 222.329 168.672C221.604 173.816 220.76 180.31 219.925 187.877C220.998 189.079 222.081 190.28 223.154 191.472C232.999 180.39 247.751 162.773 258.41 144.988C259.99 142.357 262.056 138.752 260.993 135.019C258.927 127.76 247.314 128.008 224.147 121.384C201.786 114.989 195.825 109.975 187.769 114.115Z" fill="#03314B"/>
<path opacity="0.2" d="M236.237 135.058L243.271 131.185C221.127 123.231 196.252 120.54 181.182 119.637C179.394 121.931 178.093 124.622 177.725 127.472C206.941 126.965 236.237 135.058 236.237 135.058Z" fill="#E6F5EB"/>
<path opacity="0.2" d="M231.131 138.315L234.3 136.776C211.372 130.351 187.59 131.136 177.914 131.871C178.778 135.694 181.341 138.971 184.331 141.284C203.027 135.346 231.131 138.315 231.131 138.315Z" fill="#E6F5EB"/>
<path d="M112.369 220.766C112.369 220.766 109.786 222.355 108.782 222.315C107.779 222.275 104.173 221.62 104.62 225.056C105.067 228.492 107.928 243.049 109.428 246.574C110.928 250.1 111.971 251.122 115.726 250.517C117.296 250.259 114.723 246.396 115.12 244.271C115.518 242.146 120.018 228.879 120.018 228.879C120.018 228.879 116.213 224.589 115.865 223.219C115.528 221.858 114.753 219.217 112.369 220.766Z" fill="#22C55E"/>
<path d="M110.848 240.289V229.098C110.848 227.271 110.421 225.473 109.617 223.845L108.862 222.326C108.842 222.326 108.812 222.326 108.782 222.326C107.779 222.286 102.762 220.3 103.785 225.444C104.461 228.84 107.6 243.983 109.1 247.509C110.6 251.034 112.478 251.411 116.233 250.805C116.898 250.696 116.302 249.653 116.024 248.651L114.067 247.062C112.031 245.403 110.848 242.921 110.848 240.289Z" fill="#22C55E"/>
<path d="M217.303 184.332C217.303 184.332 214.879 185.821 213.935 185.792C212.991 185.752 209.614 185.136 210.031 188.363C210.448 191.591 213.131 205.225 214.541 208.542C215.952 211.848 216.925 212.802 220.442 212.236C221.912 211.997 219.498 208.373 219.876 206.377C220.253 204.381 224.465 191.938 224.465 191.938C224.465 191.938 220.899 187.917 220.571 186.636C220.263 185.355 219.538 182.882 217.303 184.332Z" fill="#22C55E"/>
<path d="M215.882 202.644V192.148C215.882 190.44 215.485 188.751 214.73 187.222L214.025 185.792C214.005 185.792 213.975 185.792 213.955 185.792C213.011 185.752 208.303 183.896 209.276 188.712C209.912 191.899 212.852 206.09 214.263 209.396C215.674 212.703 217.432 213.061 220.949 212.485C221.575 212.385 221.018 211.402 220.75 210.469L218.912 208.979C216.985 207.44 215.882 205.106 215.882 202.644Z" fill="#22C55E"/>
<path d="M215.316 81.3462C215.316 81.9125 214.859 82.3794 214.283 82.3794H137.422C136.856 82.3794 136.389 81.9224 136.389 81.3462C136.389 80.78 136.846 80.3131 137.422 80.3131H214.283C214.859 80.323 215.316 80.78 215.316 81.3462Z" fill="#9CD5AE"/>
<path d="M215.316 95.0698C215.316 95.636 214.859 96.1029 214.283 96.1029H137.422C136.856 96.1029 136.389 95.6459 136.389 95.0698C136.389 94.5035 136.846 94.0366 137.422 94.0366H214.283C214.859 94.0366 215.316 94.5035 215.316 95.0698Z" fill="#9CD5AE"/>
<path d="M230.763 88.208C230.763 88.7742 230.306 89.2411 229.73 89.2411H152.87C152.304 89.2411 151.837 88.7842 151.837 88.208C151.837 87.6417 152.294 87.1748 152.87 87.1748H229.73C230.296 87.1748 230.763 87.6417 230.763 88.208Z" fill="#9CD5AE"/>
<path d="M250.354 161.265C250.354 161.831 249.996 162.298 249.559 162.298H189.944C189.507 162.298 189.149 161.841 189.149 161.265C189.149 160.698 189.507 160.231 189.944 160.231H249.549C249.996 160.241 250.354 160.698 250.354 161.265Z" fill="#9CD5AE"/>
<path d="M250.354 174.988C250.354 175.554 249.996 176.021 249.559 176.021H189.944C189.507 176.021 189.149 175.564 189.149 174.988C189.149 174.422 189.507 173.955 189.944 173.955H249.549C249.996 173.955 250.354 174.422 250.354 174.988Z" fill="#9CD5AE"/>
<path d="M262.324 168.126C262.324 168.692 261.967 169.159 261.529 169.159H201.925C201.488 169.159 201.13 168.702 201.13 168.126C201.13 167.56 201.488 167.093 201.925 167.093H261.529C261.967 167.103 262.324 167.56 262.324 168.126Z" fill="#9CD5AE"/>
<path d="M118.557 224.033C118.557 224.788 117.941 225.404 117.186 225.404H89.3907C88.6357 225.404 88.0198 224.788 88.0198 224.033C88.0198 223.278 88.6357 222.663 89.3907 222.663H117.186C117.941 222.663 118.557 223.278 118.557 224.033Z" fill="#9CD5AE"/>
<path d="M127.478 216.834C127.478 217.589 126.862 218.205 126.107 218.205H98.3116C97.5566 218.205 96.9407 217.589 96.9407 216.834C96.9407 216.079 97.5566 215.463 98.3116 215.463H126.107C126.862 215.463 127.478 216.079 127.478 216.834Z" fill="#9CD5AE"/>
<defs>
<linearGradient id="paint0_linear_62_3376" x1="151.457" y1="49.7847" x2="149.398" y2="130.765" gradientUnits="userSpaceOnUse">
<stop stop-color="#FFC444"/>
<stop offset="0.9964" stop-color="#F36F56"/>
</linearGradient>
<linearGradient id="paint1_linear_62_3376" x1="296.046" y1="53.3989" x2="293.986" y2="134.472" gradientUnits="userSpaceOnUse">
<stop stop-color="#FFC444"/>
<stop offset="0.9964" stop-color="#F36F56"/>
</linearGradient>
<linearGradient id="paint2_linear_62_3376" x1="246.756" y1="110.828" x2="290.186" y2="110.828" gradientUnits="userSpaceOnUse">
<stop offset="0.00359712" stop-color="#E38DDD"/>
<stop offset="1" stop-color="#9571F6"/>
</linearGradient>
</defs>
</svg>
