<svg width="230" height="252" viewBox="0 0 230 252" fill="none" xmlns="http://www.w3.org/2000/svg">
<path d="M117.921 225.324C108.205 232.126 97.208 232.851 86.3003 231.063C85.1281 230.875 83.9558 230.656 82.7836 230.408C77.7172 229.336 72.7005 227.806 67.8725 226.168C54.5111 221.63 38.8847 214.52 39.5006 197.579C39.7986 189.456 47.7062 187.162 48.6201 180.102C49.7427 171.393 36.0634 164.958 30.0532 161.492C20.5761 156.041 12.6685 152.198 13.5924 139.298C14.2579 130.093 20.6655 124.473 25.2749 117.154C31.6129 107.055 26.7054 98.4753 22.8907 88.7239C18.0429 76.3111 26.7452 62.3294 36.9376 55.6364C38.1297 54.8519 39.5006 54.0476 41.0006 53.2731C49.3652 48.9435 61.6636 45.5473 68.6672 52.0119C82.4061 64.7027 64.932 82.309 61.8425 94.9302C58.9516 106.727 67.7533 114.82 76.3662 121.414C98.0027 137.988 127.08 150.281 132.325 180.112C135.176 196.318 132.176 215.364 117.921 225.324Z" fill="#22C55E"/>
<path opacity="0.3" d="M117.921 225.324C108.205 232.126 97.208 232.851 86.3003 231.063C92.8271 225.076 111.424 204.619 93.2046 179.615C86.6778 170.658 77.1907 165.345 66.7897 162.039C60.5312 160.053 52.9812 157.232 50.1301 150.778C46.8717 143.419 50.5474 135.098 52.2461 127.819C54.1237 119.736 54.9383 111.414 50.7858 103.848C43.4047 90.3723 33.1626 67.8506 40.9907 53.2631C49.3553 48.9335 61.6537 45.5374 68.6573 52.002C82.4062 64.7027 64.932 82.309 61.8425 94.9303C58.9517 106.727 67.7533 114.82 76.3662 121.414C98.0027 137.988 127.08 150.281 132.325 180.112C135.176 196.318 132.176 215.364 117.921 225.324Z" fill="#E6F5EB"/>
<path d="M84.5619 228.045C82.6149 229.514 80.1214 230.905 77.469 232.047C76.0385 232.662 74.5583 233.218 73.098 233.675C71.131 234.291 69.1839 234.738 67.4057 234.966C58.2862 236.098 23.5664 238.819 32.3779 220.577C33.2223 218.839 35.7059 216.575 35.2588 214.47C34.474 210.776 26.6261 209.257 23.7551 208.482C-2.03392 201.521 26.8545 177.281 14.7647 169.029C2.6848 160.777 -3.84193 149.169 2.41658 130.093C5.90346 119.468 17.0694 116.042 25.0068 117.492C31.3249 118.644 35.5867 122.894 32.2687 129.06C24.7882 142.983 32.7852 152.267 41.6365 164.203C50.4779 176.139 86.8269 176.507 93.0159 203.577C95.0325 212.415 91.7543 222.643 84.5619 228.045Z" fill="#075D8D"/>
<path opacity="0.3" d="M84.562 228.045C82.6149 229.514 80.1214 230.905 77.469 232.047C81.5122 220.309 77.3994 213.954 57.0345 209.386C34.5933 204.361 34.9807 193.915 35.7555 178.831C36.5304 163.747 20.6656 167.619 13.7018 145.565C9.00292 130.679 18.4006 121.732 25.0068 117.492C31.3249 118.644 35.5867 122.894 32.2687 129.061C24.7883 142.983 32.7852 152.267 41.6366 164.203C50.4779 176.14 86.8269 176.507 93.0159 203.577C95.0325 212.415 91.7543 222.643 84.562 228.045Z" fill="#0B76B1"/>
<path d="M188.642 70.3928C184.003 71.495 177.585 73.0143 176.194 70.7105C174.734 68.2876 179.711 63.0643 178.648 62.1011C177.804 61.3364 174.923 64.8616 171.198 64.2559C169.181 63.9282 166.817 62.3791 166.509 60.4427C166.042 57.5232 170.562 55.9245 170.115 52.7269C169.906 51.2473 168.664 49.6088 167.194 49.3308C164.055 48.7449 162.684 54.9215 157.647 55.9543C154.478 56.6097 150.723 55.0506 148.746 52.6078C145.468 48.5463 148.24 43.4025 145.657 41.764C143.571 40.4433 140.988 43.3032 136.498 44.3458C129.534 45.9645 121.189 42.4392 116.59 37.0968C110.381 29.8974 110.103 18.3784 114.533 11.3677C124.428 -4.30221 160.657 -1.90905 169.777 12.2216C172.678 16.7101 176.81 28.5469 178.698 38.9736C179.234 41.9229 179.761 45.7261 182.811 48.2385C186.735 51.4559 190.529 49.0031 195.675 52.012C199.907 54.4846 203.762 59.8965 202.54 63.8488C201.467 67.3442 196.877 68.4365 188.642 70.3928Z" fill="#2C3C55"/>
<path d="M138.236 88.2174C138.385 89.1012 125.461 103.788 123.345 110.848L148.061 118.346C148.061 118.346 163.359 107.105 168.237 107.105L138.236 88.2174Z" fill="#FFCEC0"/>
<path d="M138.365 86.1023C137.938 86.1122 133.239 93.55 132.901 95.4367C132.901 95.4367 153.306 105.754 157.339 112.08L171.943 106.112C171.943 106.122 147.604 85.854 138.365 86.1023Z" fill="#22C55E"/>
<path d="M121.368 113.867C121.368 113.867 125.053 104.761 127.348 103.272C129.633 101.782 143.124 106.578 151.568 116.101L147.524 119.448L121.368 113.867Z" fill="#22C55E"/>
<path d="M89.6881 40.7317C89.6881 40.7317 83.6382 38.9635 80.042 39.8476C76.4459 40.7317 77.7572 45.222 78.3929 46.5829C79.0287 47.9439 87.8204 44.9637 87.8204 44.9637L89.6881 40.7317Z" fill="url(#paint0_linear_62_3378)"/>
<path d="M224.703 87.9096C224.415 85.1093 224.544 82.8452 224.733 81.2663C225.011 78.9327 225.428 77.9397 226.183 77.6517C226.769 77.4233 227.375 77.6915 227.564 77.7709C229.61 78.6745 230.147 82.2196 229.968 84.4738C229.749 87.1649 228.398 89.1211 227.564 90.1241C226.61 89.3892 225.657 88.6445 224.703 87.9096Z" fill="url(#paint1_linear_62_3378)"/>
<path d="M88.9728 38.4969C87.89 41.2774 86.8072 44.0579 85.7244 46.8383C89.5689 49.6585 95.3803 53.0348 102.871 53.9384C110.748 54.8917 113.043 52.2205 119.222 54.2959C125.938 56.56 125.461 60.4824 134.61 65.5965C141.842 69.6381 145.766 69.221 146.124 71.634C146.591 74.7819 140.124 77.0559 131.352 87.2046C128.044 91.0377 127.557 92.3385 127.925 93.3812C129.077 96.678 137.412 93.2918 146.114 96.9858C157.767 101.931 160.33 115.466 166.012 114.304C167.174 114.066 167.452 113.43 171.327 108.991C174.903 104.9 177.963 101.673 180.079 99.4883C183.049 100.859 186.755 102.944 190.49 106.132C198.616 113.083 199.43 118.961 207.179 122.536C209.673 123.688 213.606 125.495 217.193 123.976C219.388 123.043 221.524 120.828 225.21 106.995C226.948 100.481 228.081 94.9501 228.806 90.9681C226.978 89.5978 225.14 88.2373 223.312 86.867C221.097 89.28 218.117 93.1528 216.279 98.525C214.312 104.275 215.007 107.78 213.02 108.644C210.557 109.706 207.219 105.307 199.311 97.7604C188.523 87.4727 186.456 87.7805 179.562 79.9953C173.194 72.8157 173.423 70.8098 169.27 65.9341C166.847 63.0841 159.376 55.0903 124.12 45.8056C115.497 43.5415 103.536 40.761 88.9728 38.4969Z" fill="#22C55E"/>
<path opacity="0.2" d="M145.359 88.0686C144.395 81.3557 162.207 75.914 161.035 70.2339C160.419 67.2251 155.104 67.1853 146.283 63.8885C130.17 57.8609 131.739 51.9425 120.037 48.7946C107.381 45.3985 101.251 51.158 92.0721 45.5375C90.3436 44.475 88.8833 43.2436 87.6415 41.9527C87.0057 43.5813 86.3699 45.2197 85.7341 46.8483C89.5786 49.6684 95.3901 53.0447 102.88 53.9484C110.758 54.9017 113.053 52.2304 119.232 54.3059C125.948 56.5699 125.471 60.4924 134.62 65.6064C141.852 69.648 145.776 69.231 146.134 71.644C146.601 74.7919 140.133 77.0659 131.362 87.2146C128.054 91.0476 127.567 92.3485 127.934 93.3911C129.087 96.688 137.421 93.3018 146.124 96.9958C157.776 101.941 160.339 115.476 166.022 114.314C166.131 114.294 166.22 114.264 166.32 114.235C166.191 109.677 165.148 104.642 161.909 100.422C155.76 92.4379 146.054 92.9344 145.359 88.0686Z" fill="#E6F5EB"/>
<path opacity="0.3" d="M214.908 121.166C210.209 120.987 208.917 114.88 198.437 106.072C194.255 102.567 185.274 94.9501 180.903 97.671C180.496 97.9193 179.433 98.6839 178.757 100.859C179.234 100.362 179.671 99.9053 180.079 99.4883C183.049 100.859 186.754 102.944 190.49 106.132C198.616 113.083 199.43 118.961 207.179 122.536C209.672 123.688 213.606 125.495 217.193 123.976C218.702 123.331 220.193 122.07 222.189 116.797C219.209 120.371 216.775 121.235 214.908 121.166Z" fill="url(#paint2_linear_62_3378)"/>
<path d="M186.913 68.1486C186.913 68.1486 177.983 74.9011 171.943 69.4991C171.943 69.4991 169.847 79.4094 182.771 86.1024C182.771 86.1024 177.933 81.6238 188.533 74.9209L186.913 68.1486Z" fill="#FFCEC0"/>
<path d="M198.328 62.6969C198.328 62.6969 198.089 72.3987 194.255 77.1652C193.718 77.8404 192.814 78.1185 192 77.8603C189.923 77.2049 186.019 75.2883 185.125 69.9558C185.125 69.9558 183.059 67.1059 183.357 65.8646C183.655 64.6233 185.86 65.0702 186.576 66.6391C187.291 68.2081 188.255 65.4277 187.937 64.9014C187.619 64.3751 190.46 58.973 198.328 62.6969Z" fill="#FFC1B5"/>
<path d="M123.116 112.765C105.523 119.537 103.278 125.317 102.871 127.511C102.791 127.918 102.394 130.282 102.046 133.34C101.371 139.249 101.718 140.43 101.013 142.466C99.801 145.981 97.1982 146.994 94.0491 149.715C84.9594 157.56 87.7509 165.425 79.5055 171.155C75.6213 173.856 72.343 173.955 69.7502 174.68C61.6539 176.934 51.9284 187.519 45.2129 224.758C46.8719 226.644 48.5309 228.531 50.1899 230.418C58.7929 211.124 69.3926 199.595 77.3101 192.703C93.4034 178.692 106.079 177.142 121.567 161.304C132.007 150.619 137.879 139.428 141.127 131.98C135.127 125.565 129.117 119.16 123.116 112.765Z" fill="#054468"/>
<path d="M129.643 119.726C117.345 121.484 113.063 125.575 111.444 129.051C108.94 134.443 112.834 138.385 111.791 149.288C111.583 151.433 110.609 161.622 104.927 168.841C96.5127 179.536 83.9659 175.812 73.7039 181.7C66.7997 185.663 59.6769 194.709 57.3921 216.615C64.2466 205.315 71.5085 197.748 77.32 192.693C93.4133 178.682 106.089 177.133 121.577 161.294C132.017 150.609 137.888 139.418 141.137 131.97C137.302 127.889 133.478 123.807 129.643 119.726Z" fill="#054468"/>
<path d="M119.769 114.115C114.374 116.886 109.179 123.192 109.636 129.974C110.063 136.21 115.179 141.275 120.047 143.578C128.58 147.62 134.074 142.119 151.588 142.029C161.76 141.98 170.999 143.777 171.148 145.862C171.297 147.848 163.042 147.689 158.104 154.263C156.237 156.756 155.68 159.109 154.329 168.672C153.604 173.816 152.76 180.31 151.925 187.877C152.998 189.079 154.081 190.28 155.154 191.472C164.999 180.39 179.751 162.773 190.41 144.988C191.99 142.357 194.056 138.752 192.993 135.019C190.927 127.76 179.314 128.008 156.147 121.384C133.786 114.989 127.825 109.975 119.769 114.115Z" fill="#03314B"/>
<path opacity="0.2" d="M168.237 135.058L175.271 131.185C153.127 123.231 128.252 120.54 113.182 119.637C111.394 121.931 110.093 124.622 109.725 127.472C138.941 126.965 168.237 135.058 168.237 135.058Z" fill="#E6F5EB"/>
<path opacity="0.2" d="M163.131 138.315L166.3 136.776C143.372 130.351 119.59 131.136 109.914 131.871C110.778 135.694 113.341 138.971 116.331 141.284C135.027 135.346 163.131 138.315 163.131 138.315Z" fill="#E6F5EB"/>
<path d="M44.3686 220.766C44.3686 220.766 41.7857 222.355 40.7824 222.315C39.779 222.275 36.1729 221.62 36.62 225.056C37.067 228.492 39.928 243.049 41.4281 246.574C42.9281 250.1 43.9712 251.122 47.7263 250.517C49.2959 250.259 46.723 246.396 47.1203 244.271C47.5177 242.146 52.0179 228.879 52.0179 228.879C52.0179 228.879 48.2131 224.589 47.8654 223.219C47.5276 221.858 46.7528 219.217 44.3686 220.766Z" fill="#22C55E"/>
<path d="M42.8485 240.289V229.098C42.8485 227.271 42.4213 225.473 41.6166 223.845L40.8616 222.326C40.8418 222.326 40.812 222.326 40.7822 222.326C39.7788 222.286 34.7621 220.3 35.7853 225.444C36.4608 228.84 39.6 243.983 41.1001 247.509C42.6001 251.034 44.4777 251.411 48.2328 250.805C48.8984 250.696 48.3023 249.653 48.0242 248.651L46.0671 247.062C44.0306 245.403 42.8485 242.921 42.8485 240.289Z" fill="#22C55E"/>
<path d="M149.303 184.332C149.303 184.332 146.879 185.821 145.935 185.792C144.991 185.752 141.614 185.136 142.031 188.363C142.448 191.591 145.131 205.225 146.541 208.542C147.952 211.848 148.925 212.802 152.442 212.236C153.912 211.997 151.498 208.373 151.876 206.377C152.253 204.381 156.465 191.938 156.465 191.938C156.465 191.938 152.899 187.917 152.571 186.636C152.263 185.355 151.538 182.882 149.303 184.332Z" fill="#22C55E"/>
<path d="M147.882 202.644V192.148C147.882 190.44 147.485 188.751 146.73 187.222L146.025 185.792C146.005 185.792 145.975 185.792 145.955 185.792C145.011 185.752 140.303 183.896 141.276 188.712C141.912 191.899 144.852 206.09 146.263 209.396C147.674 212.703 149.432 213.061 152.949 212.485C153.575 212.385 153.018 211.402 152.75 210.469L150.912 208.979C148.985 207.44 147.882 205.106 147.882 202.644Z" fill="#22C55E"/>
<path d="M147.316 81.3462C147.316 81.9125 146.859 82.3794 146.283 82.3794H69.4223C68.8561 82.3794 68.3892 81.9224 68.3892 81.3462C68.3892 80.78 68.8461 80.3131 69.4223 80.3131H146.283C146.859 80.323 147.316 80.78 147.316 81.3462Z" fill="#9CD5AE"/>
<path d="M147.316 95.0698C147.316 95.636 146.859 96.1029 146.283 96.1029H69.4223C68.8561 96.1029 68.3892 95.6459 68.3892 95.0698C68.3892 94.5035 68.8461 94.0366 69.4223 94.0366H146.283C146.859 94.0366 147.316 94.5035 147.316 95.0698Z" fill="#9CD5AE"/>
<path d="M162.763 88.208C162.763 88.7742 162.306 89.2411 161.73 89.2411H84.8698C84.3036 89.2411 83.8367 88.7842 83.8367 88.208C83.8367 87.6417 84.2936 87.1748 84.8698 87.1748H161.73C162.296 87.1748 162.763 87.6417 162.763 88.208Z" fill="#9CD5AE"/>
<path d="M182.354 161.265C182.354 161.831 181.996 162.298 181.559 162.298H121.944C121.507 162.298 121.149 161.841 121.149 161.265C121.149 160.698 121.507 160.231 121.944 160.231H181.549C181.996 160.241 182.354 160.698 182.354 161.265Z" fill="#9CD5AE"/>
<path d="M182.354 174.988C182.354 175.554 181.996 176.021 181.559 176.021H121.944C121.507 176.021 121.149 175.564 121.149 174.988C121.149 174.422 121.507 173.955 121.944 173.955H181.549C181.996 173.955 182.354 174.422 182.354 174.988Z" fill="#9CD5AE"/>
<path d="M194.324 168.126C194.324 168.692 193.967 169.159 193.529 169.159H133.925C133.488 169.159 133.13 168.702 133.13 168.126C133.13 167.56 133.488 167.093 133.925 167.093H193.529C193.967 167.103 194.324 167.56 194.324 168.126Z" fill="#9CD5AE"/>
<path d="M50.5573 224.033C50.5573 224.788 49.9414 225.404 49.1864 225.404H21.3907C20.6357 225.404 20.0198 224.788 20.0198 224.033C20.0198 223.278 20.6357 222.663 21.3907 222.663H49.1864C49.9414 222.663 50.5573 223.278 50.5573 224.033Z" fill="#9CD5AE"/>
<path d="M59.4782 216.834C59.4782 217.589 58.8623 218.205 58.1073 218.205H30.3116C29.5566 218.205 28.9407 217.589 28.9407 216.834C28.9407 216.079 29.5566 215.463 30.3116 215.463H58.1073C58.8623 215.463 59.4782 216.079 59.4782 216.834Z" fill="#9CD5AE"/>
<defs>
<linearGradient id="paint0_linear_62_3378" x1="83.4568" y1="49.7847" x2="81.3979" y2="130.765" gradientUnits="userSpaceOnUse">
<stop stop-color="#FFC444"/>
<stop offset="0.9964" stop-color="#F36F56"/>
</linearGradient>
<linearGradient id="paint1_linear_62_3378" x1="228.046" y1="53.3989" x2="225.986" y2="134.472" gradientUnits="userSpaceOnUse">
<stop stop-color="#FFC444"/>
<stop offset="0.9964" stop-color="#F36F56"/>
</linearGradient>
<linearGradient id="paint2_linear_62_3378" x1="178.756" y1="110.828" x2="222.186" y2="110.828" gradientUnits="userSpaceOnUse">
<stop offset="0.00359712" stop-color="#E38DDD"/>
<stop offset="1" stop-color="#9571F6"/>
</linearGradient>
</defs>
</svg>
