<svg width="235" height="233" viewBox="0 0 235 233" fill="none" xmlns="http://www.w3.org/2000/svg">
<path d="M216.676 108.662C216.795 164.312 187.207 209.731 134.499 211.224C133.687 211.245 120.229 211.224 119.418 211.224C65.5846 211.354 21.8345 165.653 21.7046 109.137C21.5748 52.6221 65.1194 6.70478 118.963 6.57501C120.218 6.57501 132.043 6.69397 133.287 6.73723C185.389 8.67298 216.557 53.4656 216.676 108.662Z" fill="#2C3C55"/>
<path d="M137.42 212.133C191.26 212.133 234.905 166.32 234.905 109.808C234.905 53.296 191.26 7.48383 137.42 7.48383C83.5797 7.48383 39.9338 53.296 39.9338 109.808C39.9338 166.32 83.5797 212.133 137.42 212.133Z" fill="#97A6B7"/>
<path d="M137.42 209.558C189.903 209.558 232.45 164.899 232.45 109.808C232.45 54.7171 189.903 10.0573 137.42 10.0573C84.936 10.0573 42.3896 54.7171 42.3896 109.808C42.3896 164.899 84.936 209.558 137.42 209.558Z" fill="#97A6B7"/>
<path d="M137.42 206.541C188.32 206.541 229.583 163.232 229.583 109.808C229.583 56.3835 188.32 13.0745 137.42 13.0745C86.5194 13.0745 45.2566 56.3835 45.2566 109.808C45.2566 163.232 86.5194 206.541 137.42 206.541Z" fill="#4B6182"/>
<path d="M135.451 204.476C185.257 204.476 225.634 162.092 225.634 109.808C225.634 57.5242 185.257 15.14 135.451 15.14C85.6437 15.14 45.2673 57.5242 45.2673 109.808C45.2673 162.092 85.6437 204.476 135.451 204.476Z" fill="url(#paint0_linear_62_3267)"/>
<path d="M144.971 107.104L213.669 133.729C215.908 126.202 217.109 118.2 217.109 109.905C217.109 67.1889 185.151 32.3022 144.971 30.1501V107.104Z" fill="#22C55E"/>
<g opacity="0.54">
<path opacity="0.2" d="M112.808 107.667C105.678 84.5783 131.459 67.9136 127.391 40.9969C125.595 29.1229 118.617 19.39 110.027 11.5822C69.436 24.0294 39.8257 63.4365 39.9339 110.046C40.0637 166.561 83.803 212.262 137.647 212.132C150.845 212.1 163.427 209.31 174.895 204.292C173.229 171.633 163.211 153.184 152.555 142.067C136.132 124.937 118.238 125.272 112.808 107.667Z" fill="#A7B6D1"/>
</g>
<path d="M135.191 117.313C138.358 117.313 140.925 114.616 140.925 111.289C140.925 107.963 138.358 105.266 135.191 105.266C132.024 105.266 129.457 107.963 129.457 111.289C129.457 114.616 132.024 117.313 135.191 117.313Z" fill="#0B76B1"/>
<path d="M135.202 63.3282C133.2 63.3282 131.578 65.0261 131.578 67.1349V107.71C131.578 109.808 133.2 111.517 135.202 111.517C137.203 111.517 138.826 109.819 138.826 107.71V67.124C138.815 65.0261 137.192 63.3282 135.202 63.3282Z" fill="#0B76B1"/>
<path d="M136.132 110.727L71.2101 91.6507C70.0634 91.3047 68.8084 91.9319 68.3973 93.0674C67.9862 94.2029 68.592 95.4033 69.728 95.7493L134.65 114.826C135.797 115.172 137.052 114.545 137.463 113.409C137.874 112.274 137.279 111.073 136.132 110.727Z" fill="#0B76B1"/>
<path d="M90.9865 169.643C94.0266 167.956 93.1394 158.385 89.0068 151.648C83.1431 142.099 70.2799 137.536 67.651 140.38C64.9572 143.289 72.7141 154.222 73.9798 155.995C78.5561 162.452 87.384 171.644 90.9865 169.643Z" fill="#22C55E"/>
<path d="M122.836 225.218C122.339 225.899 122.339 227.068 122.891 227.576C123.431 228.085 124.113 227.587 126.179 227.414C128.397 227.241 129.025 227.695 130.485 227.111C131.069 226.873 132.097 226.354 132.032 225.921C131.989 225.618 131.426 225.521 129.533 225.11C126.85 224.525 126.861 224.482 126.298 224.45C124.903 224.396 123.496 224.32 122.836 225.218Z" fill="#22C55E"/>
<path d="M123.854 221.465L125.368 225.025C125.304 225.23 124.254 226.009 123.237 225.706L121.203 222.309L123.854 221.465Z" fill="#FFC1B5"/>
<path d="M109.194 229.998C108.696 230.679 108.696 231.848 109.248 232.356C109.789 232.865 110.471 232.367 112.537 232.194C114.755 232.021 115.382 232.475 116.843 231.891C117.427 231.653 118.455 231.134 118.39 230.701C118.347 230.398 117.784 230.301 115.891 229.89C113.208 229.305 113.219 229.262 112.656 229.23C111.26 229.165 109.854 229.089 109.194 229.998Z" fill="#22C55E"/>
<path d="M110.211 226.245L111.726 229.805C111.661 230.01 110.612 230.789 109.595 230.486L107.561 227.089L110.211 226.245Z" fill="#FFC1B5"/>
<path d="M43.2228 141.007C46.7604 139.807 52.1589 138.401 58.8014 138.401C66.2879 138.401 72.303 138.401 76.4573 141.937C86.5401 150.523 75.2564 171.092 81.0335 186.319C81.661 187.984 83.511 193.272 81.9098 198.982C81.6177 200.031 81.0119 200.939 79.9625 202.486C73.8609 211.537 56.3781 214.522 48.5238 206.671C44.3695 202.518 40.9833 201.048 40.8751 196.311C40.4857 177.635 43.3851 158.991 43.2228 141.007Z" fill="#22C55E"/>
<path opacity="0.2" d="M47.2148 163.836C45.7867 159.932 47.2689 155.455 44.0882 153.508C42.9198 152.794 41.4701 152.492 39.8906 152.524C40.0745 166.258 40.345 179.971 40.6804 194.31C40.7886 199.047 41.3836 199.274 45.9707 203.427C51.2934 208.228 60.4567 209.807 68.3109 208.228C58.0117 201.902 50.6659 195.349 51.7261 189.725C52.9486 183.183 64.9355 181.247 64.4595 176.597C63.951 171.655 50.3305 172.368 47.2148 163.836Z" fill="#E6F5EB"/>
<path d="M46.5008 141.429C43.0389 139.093 34.6978 144.987 30.0783 150.167C27.9254 152.578 20.4498 160.97 22.3106 172.238C22.6135 174.077 24.0091 182.663 31.3657 186.87C37.9542 190.634 46.8362 189.671 53.9656 184.329C54.9393 183.464 55.9129 182.599 56.8866 181.733C57.8494 180.695 58.8015 179.668 59.7643 178.63C58.2605 177.375 55.6966 175.569 52.1048 174.412C46.6306 172.649 43.028 175.266 41.719 173.536C40.107 171.417 45.0187 167.459 46.3061 158.461C46.6414 156.05 50.363 144.035 46.5008 141.429Z" fill="#22C55E"/>
<path d="M53.5437 202.183C52.0832 209.829 55.9671 206.357 64.0701 201.199C72.606 195.76 91.6466 187.205 101.07 194.624C108.091 200.161 104.694 210.499 115.685 220.265C117.622 221.984 119.407 223.141 120.51 223.801C122.198 222.871 123.886 221.952 125.563 221.022C125.812 216.901 126.277 201.069 114.917 188.19C112.169 185.075 106.944 179.095 98.9166 177.202C77.2147 172.087 54.8852 195.132 53.5437 202.183Z" fill="#054468"/>
<path d="M44.4453 196.203C43.4392 200.615 45.3 205.352 48.0479 208.12C54.1279 214.263 66.0391 212.24 73.2442 208.931C82.0181 204.908 83.4461 199.166 87.1785 200.128C92.9772 201.621 90.5215 215.755 101.794 225.769C103.731 227.488 105.516 228.646 106.619 229.305C108.307 228.375 109.995 227.456 111.672 226.526C111.964 216.955 110.157 209.526 108.621 204.811C106.847 199.415 105.256 194.57 100.831 190.223C95.3357 184.826 88.7797 183.431 85.0256 182.685C69.144 179.549 47.0526 184.751 44.4453 196.203Z" fill="#03314B"/>
<path d="M93.8861 181.701L52.1807 181.074L63.2697 186.429L93.9943 184.417L93.8861 181.701Z" fill="#7183A5"/>
<path d="M50.7092 182.188C50.7092 182.966 51.1961 183.669 51.9317 183.929L65.2602 189.152L65.3251 185.529L52.1914 181.074C51.4449 180.868 50.7092 181.42 50.7092 182.188Z" fill="url(#paint1_linear_62_3267)"/>
<path d="M56.6594 180.512C56.3998 180.458 57.9036 177.462 59.0828 177.808C60.262 178.154 66.0283 181.497 66.5584 182.871C67.0777 184.245 67.0777 184.245 67.0777 184.245C67.0777 184.245 64.557 184.44 62.9991 183.92C61.4521 183.401 58.7366 180.978 56.6594 180.512Z" fill="#FFC1B5"/>
<path d="M66.4176 160.127L63.4749 186.881C63.3776 187.8 64.665 189.184 65.5954 189.13L108.718 186.481C109.432 186.448 110.016 185.929 110.135 185.226L115.545 159.38C115.707 158.44 114.019 157.466 113.056 157.499L67.8673 158.764C67.1316 158.807 66.5041 159.38 66.4176 160.127Z" fill="url(#paint2_linear_62_3267)"/>
<path d="M67.4021 160.906L64.4595 187.66C64.3621 188.579 65.1086 189.38 66.039 189.336L109.713 187.271C110.427 187.238 111.012 186.719 111.131 186.016L115.588 160.062C115.75 159.121 115.014 158.267 114.052 158.299L68.8626 159.565C68.1161 159.586 67.4887 160.159 67.4021 160.906Z" fill="#7183A5"/>
<path opacity="0.3" d="M93.053 181.009C89.2449 179.398 90.5864 176.316 86.0859 172.477C80.1465 167.416 74.0881 169.611 71.9677 165.685C71.3078 164.463 70.994 162.56 72.1408 159.478L68.8736 159.564C68.1163 159.586 67.4997 160.159 67.4131 160.905L64.4705 187.66C64.3731 188.579 65.1196 189.379 66.05 189.336L109.724 187.271C110.438 187.238 111.023 186.719 111.142 186.016L111.758 182.437C110.438 181.701 108.848 181.031 106.998 180.652C100.583 179.354 97.4454 182.869 93.053 181.009Z" fill="#A7B6D1"/>
<path d="M59.5048 128.181C59.5265 130.961 59.2236 133.156 58.9206 134.659C58.5853 136.389 58.3473 136.833 58.0335 137.19C57.5683 137.73 56.8651 138.195 52.8839 139.179C50.7202 139.72 50.4389 139.698 50.3956 139.915C50.1576 140.964 56.0645 144.532 62.1662 143.667C65.8986 143.137 69.2956 141.007 69.0901 139.893C68.8845 138.768 65.1521 139.374 64.0378 137.341C63.2697 135.924 64.1352 133.913 65.1521 132.247C64.1676 130.398 60.5001 130.041 59.5048 128.181Z" fill="#FFCEC0"/>
<path d="M67.3378 131.707C68.4845 130.798 69.0471 128.83 68.398 127.327C67.8354 126.029 66.548 125.532 65.7691 125.229C63.5296 124.364 60.3706 124.569 58.8019 126.429C57.8715 127.532 58.4882 130.485 58.5748 131.004C58.6613 131.599 59.0399 131.89 59.3212 132.388C59.7107 133.08 60.3165 134.183 61.301 136.022C61.5174 135.611 61.8203 135.113 62.2314 134.594C62.3937 134.389 63.0103 133.621 63.8109 133.037C65.3904 131.901 66.2559 132.572 67.3378 131.707Z" fill="#2C3C55"/>
<path d="M59.667 134.28C59.667 134.28 60.5325 137.168 63.605 137.752C66.3529 138.282 68.3327 132.323 66.9371 130.582C66.4719 129.998 65.3684 129.522 64.3623 129.544C63.7673 129.555 63.5184 129.738 62.5448 129.738C61.6468 129.738 61.4304 129.587 61.1275 129.728C60.7381 129.911 60.3378 130.506 60.4027 132.42C60.024 131.761 59.4507 131.404 58.9638 131.49C58.8881 131.501 58.6717 131.588 58.5094 131.75C57.9577 132.345 58.3688 133.394 59.667 134.28Z" fill="#FFC1B5"/>
<path d="M61.106 129.338C61.2142 129.468 60.6841 129.858 60.4785 130.528C60.0674 131.847 61.0086 133.805 62.3501 134.302C63.1399 134.594 63.4969 134.162 64.8816 134.367C65.7363 134.497 66.4071 134.789 66.8182 134.994C66.8614 136.573 66.0825 137.925 64.9249 138.347C63.6808 138.801 62.4475 138.011 61.9282 137.676C61.582 137.449 60.4785 136.746 60.1323 135.47C59.7753 134.14 60.5975 133.621 60.0458 132.637C59.7645 132.139 59.3101 131.847 59.0288 130.95C58.9531 130.712 58.9098 130.506 58.8882 130.366C59.7861 129.825 60.9545 129.144 61.106 129.338Z" fill="#2C3C55"/>
<path d="M65.6932 135.286C65.6932 135.286 65.0332 135.438 64.0378 135.124C63.9945 135.113 63.9296 135.113 63.9187 135.135C63.8755 135.221 64.4056 135.827 65.044 135.806C65.4984 135.795 65.9312 135.481 65.8988 135.362C65.8988 135.308 65.8014 135.286 65.6932 135.286Z" fill="white"/>
<path d="M85.945 15.3994C85.945 12.5877 83.5433 10.3059 80.5899 10.2951L5.80134 9.97068C2.64233 9.95987 0.0134277 12.3066 0.0134277 15.2264V72.1742C0.0134277 75.0833 2.63155 77.3867 5.79057 77.311L7.49987 77.2677L7.57562 77.138L80.525 74.5642C83.4784 74.4885 85.945 73.1151 85.945 70.3034V15.3994ZM20.1035 22.4071C17.3664 22.4071 15.1378 20.3524 15.1378 17.811C15.1378 15.2697 17.3664 13.215 20.1035 13.2258C22.8405 13.2366 25.0476 15.2913 25.0476 17.8218C25.0476 20.3524 22.8405 22.4071 20.1035 22.4071ZM43.7636 22.3854C41.0806 22.3854 38.8953 20.3524 38.8953 17.8326C38.8953 15.3129 41.0806 13.2798 43.7636 13.2907C46.4466 13.3015 48.6103 15.3345 48.6103 17.8434C48.6103 20.3524 46.4466 22.3854 43.7636 22.3854ZM66.9693 22.3638C64.3404 22.3638 62.1984 20.3524 62.1984 17.8543C62.1984 15.3562 64.3404 13.3447 66.9693 13.3555C69.5982 13.3664 71.7187 15.3778 71.7187 17.8651C71.7187 20.3524 69.5982 22.3638 66.9693 22.3638Z" fill="url(#paint3_linear_62_3267)"/>
<path d="M87.5571 25.5216V15.3454C87.5571 12.5445 85.2203 10.3167 82.2668 10.2951L7.65139 9.97067C6.32071 9.95986 5.0766 10.36 4.10293 11.0629C2.77225 12.0254 1.90674 13.4853 1.90674 15.1723V28.2792L87.5571 25.5216ZM68.6463 13.3663C71.2643 13.3772 73.3956 15.3886 73.3956 17.8759C73.3956 20.3523 71.2752 22.3638 68.6463 22.3638C66.0174 22.3638 63.8753 20.3523 63.8753 17.8651C63.8753 15.367 66.0174 13.3555 68.6463 13.3663ZM45.4838 13.2906C48.156 13.3015 50.3305 15.3345 50.3305 17.8434C50.3305 20.3523 48.1668 22.3746 45.4838 22.3854C42.8008 22.3854 40.6155 20.3523 40.6155 17.8326C40.6155 15.3129 42.8008 13.2906 45.4838 13.2906ZM21.8453 13.2258C24.5716 13.2366 26.7894 15.2913 26.7894 17.8218C26.7894 20.3523 24.5824 22.4071 21.8453 22.4071C19.1082 22.4071 16.8796 20.3523 16.8796 17.811C16.8904 15.2697 19.1082 13.2149 21.8453 13.2258Z" fill="#22C55E"/>
<path d="M1.90674 25.3053V72.131C1.90674 75.04 4.37336 77.3435 7.53237 77.2678L82.2235 75.4834C85.177 75.4077 87.5571 73.0826 87.5571 70.2818V25.1215L1.90674 25.3053Z" fill="white"/>
<path d="M56.8865 33.0051C56.8865 32.3454 56.3888 31.8156 55.6856 31.8156L48.2641 31.8588C47.5609 31.8588 46.6738 32.4103 46.6738 33.07V39.764C46.6738 40.4237 47.5934 40.9536 48.2966 40.9536L55.5126 40.8887C56.2158 40.8779 56.8865 40.3372 56.8865 39.6775V33.0051Z" fill="#BFC8D6"/>
<path d="M69.9553 32.9295C69.9553 32.2698 69.3711 31.7399 68.6787 31.7507L61.6791 31.7832C60.9759 31.7832 60.4458 32.3239 60.4458 32.9835V39.6451C60.4458 40.3048 60.9651 40.8347 61.6683 40.8239L68.7003 40.759C69.3927 40.7482 69.9553 40.2075 69.9553 39.5586V32.9295Z" fill="#BFC8D6"/>
<path d="M83.1322 32.8645C83.1322 32.2157 82.5264 31.6858 81.834 31.6858L74.8344 31.7182C74.142 31.7182 73.5361 32.2589 73.5361 32.9078V39.5261C73.5361 40.1858 74.1095 40.7157 74.8019 40.7049L81.8231 40.64C82.5155 40.6292 83.1322 40.0993 83.1322 39.4504V32.8645Z" fill="#BFC8D6"/>
<path d="M56.8865 45.2035C56.8865 44.5438 56.3888 44.0139 55.6856 44.0248L48.2641 44.1005C47.5609 44.1113 46.6738 44.652 46.6738 45.3225V52.0165C46.6738 52.6762 47.5934 53.2061 48.2966 53.1952L55.5126 53.0979C56.2158 53.0871 56.8865 52.5464 56.8865 51.8867V45.2035Z" fill="#BFC8D6"/>
<path d="M69.9553 45.0738C69.9553 44.4141 69.3711 43.895 68.6787 43.895L61.6791 43.9707C60.9759 43.9815 60.4458 44.5222 60.4458 45.1819V51.8435C60.4458 52.5032 60.9651 53.0331 61.6683 53.0222L68.7003 52.9249C69.3927 52.9141 69.9553 52.3734 69.9553 51.7137V45.0738Z" fill="#22C55E"/>
<path d="M83.1322 44.9332C83.1322 44.2844 82.5264 43.7545 81.834 43.7653L74.8344 43.8302C74.142 43.841 73.5361 44.3709 73.5361 45.0306V51.6489C73.5361 52.3086 74.1095 52.8276 74.8019 52.8276L81.8231 52.7303C82.5155 52.7195 83.1322 52.1896 83.1322 51.5299V44.9332Z" fill="#BFC8D6"/>
<path d="M16.8146 45.6469C16.8146 44.9764 16.1763 44.4357 15.4515 44.4357L8.13814 44.5006C7.40248 44.5114 6.86157 45.0521 6.86157 45.7334V52.5464C6.86157 53.2169 7.38086 53.7684 8.1057 53.7576L15.4839 53.6603C16.2088 53.6495 16.8146 53.0979 16.8146 52.4275V45.6469Z" fill="#BFC8D6"/>
<path d="M30.3053 45.4847C30.3053 44.8143 29.786 44.2844 29.0612 44.2844L21.6721 44.3601C20.9473 44.3709 20.2549 44.9224 20.2549 45.5929V52.3626C20.2549 53.0331 20.9689 53.5738 21.6938 53.563L28.9855 53.4548C29.6995 53.444 30.2945 52.8925 30.2945 52.222V45.4847H30.3053Z" fill="#BFC8D6"/>
<path d="M43.5363 45.3658C43.5363 44.7062 42.9954 44.1655 42.2814 44.1655L34.8923 44.2412C34.1783 44.252 33.4102 44.7927 33.4102 45.4632V52.2005C33.4102 52.8709 34.1999 53.4008 34.9139 53.39L42.184 53.2927C42.898 53.2819 43.5363 52.7412 43.5363 52.0815V45.3658Z" fill="#BFC8D6"/>
<path d="M56.8865 57.4129C56.8865 56.7532 56.3888 56.2233 55.6856 56.2341L48.2641 56.3423C47.5609 56.3531 46.6738 56.9046 46.6738 57.5643V64.2583C46.6738 64.918 47.5934 65.4478 48.2966 65.437L55.5126 65.2964C56.2158 65.2856 56.8865 64.7341 56.8865 64.0744V57.4129Z" fill="#BFC8D6"/>
<path d="M69.9553 57.2074C69.9553 56.5477 69.3711 56.0286 68.6787 56.0394L61.6791 56.1476C60.9759 56.1584 60.4458 56.6991 60.4458 57.3588V64.0203C60.4458 64.68 60.9651 65.1991 61.6683 65.1883L68.7003 65.0477C69.3927 65.0369 69.9553 64.4853 69.9553 63.8365V57.2074Z" fill="#BFC8D6"/>
<path d="M16.8146 58.0509C16.8146 57.3804 16.1763 56.8397 15.4515 56.8505L8.13814 56.9586C7.40248 56.9695 6.86157 57.521 6.86157 58.1915V65.0044C6.86157 65.6749 7.38086 66.2156 8.1057 66.2048L15.4839 66.0642C16.2088 66.0534 16.8146 65.5019 16.8146 64.8206V58.0509Z" fill="#BFC8D6"/>
<path d="M30.3053 57.8346C30.3053 57.1641 29.786 56.6342 29.0612 56.6451L21.6721 56.7532C20.9473 56.764 20.2549 57.3155 20.2549 57.986V64.7557C20.2549 65.4262 20.9689 65.9561 21.6938 65.9453L28.9855 65.8047C29.6995 65.7939 30.2945 65.2424 30.2945 64.5719V57.8346H30.3053Z" fill="#BFC8D6"/>
<path d="M43.5363 57.6399C43.5363 56.9803 42.9954 56.4395 42.2814 56.4504L34.8923 56.5585C34.1783 56.5693 33.4102 57.1208 33.4102 57.7805V64.5178C33.4102 65.1883 34.1999 65.7182 34.9139 65.6965L42.184 65.5668C42.898 65.556 43.5363 65.0044 43.5363 64.3448V57.6399Z" fill="#BFC8D6"/>
<path d="M21.3907 0.908348C16.7928 0.875906 12.9955 4.67171 12.6277 9.99232L16.5008 10.0139C16.8145 6.82374 18.9241 4.39054 21.3907 4.40135C24.0521 4.42298 26.3023 7.35364 26.3023 10.8142C26.3023 14.2856 24.0521 17.1946 21.3907 17.1946C20.0059 17.1946 18.7293 16.3944 17.8206 15.1399C17.2905 15.8645 16.3926 17.519 17.2472 19.5089C18.4805 20.255 19.8977 20.6876 21.3907 20.6876C26.2158 20.6876 30.1213 16.2754 30.1213 10.8358C30.1213 5.39626 26.2049 0.951605 21.3907 0.908348Z" fill="#BFC8D6"/>
<path d="M44.9861 1.09225C40.4748 1.05981 36.7533 4.82316 36.3962 10.0897L40.1936 10.1113C40.5073 6.95357 42.5736 4.54199 44.9861 4.55281C47.5934 4.57444 49.8004 7.47265 49.8004 10.9008C49.8004 14.3289 47.5934 17.2271 44.9861 17.2163C43.623 17.2163 42.3789 16.4269 41.4918 15.1832C40.9725 15.897 40.0853 17.5407 40.9292 19.5089C42.1409 20.2551 43.5256 20.6769 44.9861 20.6769C49.7138 20.6769 53.5436 16.3079 53.5436 10.9224C53.5436 5.5369 49.7138 1.13551 44.9861 1.09225Z" fill="#BFC8D6"/>
<path d="M68.2027 1.29788C63.7888 1.26544 60.1321 4.98554 59.7859 10.2088L63.5075 10.2196C63.8104 7.09432 65.8443 4.70437 68.2027 4.71518C70.7667 4.73681 72.9196 7.60259 72.9196 10.9983C72.9196 14.3939 70.7667 17.2597 68.2027 17.2489C66.872 17.2489 65.6495 16.4595 64.7732 15.2374C64.2647 15.9512 63.3993 17.5733 64.2215 19.5199C65.4115 20.2553 66.7638 20.6662 68.2027 20.6662C72.833 20.6662 76.5871 16.3405 76.5871 11.0091C76.5871 5.68846 72.833 1.33032 68.2027 1.29788Z" fill="#BFC8D6"/>
<path opacity="0.2" d="M87.5571 68.4325V70.2817C87.5571 73.0826 85.2203 75.4185 82.2668 75.4942L7.57569 77.2677C4.4275 77.3434 1.90674 75.04 1.90674 72.1309V15.1723C1.90674 13.4961 2.75059 11.9929 4.08127 11.0413C6.98064 11.9497 10.713 14.664 12.6279 22.3205C16.0141 35.8491 18.9351 41.5915 32.0904 40.9318C40.5613 40.5101 47.0849 40.7047 51.1635 44.2302C53.3597 46.1227 54.8526 48.9884 55.5667 53.2276C55.9778 55.7149 57.8494 57.2614 60.5107 58.3752C63.118 59.4675 66.5258 60.1379 70.0635 60.8625C76.5979 62.2035 83.9328 63.7175 87.5571 68.4325Z" fill="#BFC8D6"/>
<path d="M63.7888 51.2516C63.7131 51.2624 63.6481 51.2408 63.5832 51.2083L61.8954 50.1804C61.7439 50.083 61.7006 49.8775 61.8196 49.7152C61.9278 49.5529 62.155 49.4988 62.3065 49.5961L63.7347 50.4725L67.8246 45.7227C67.9544 45.5712 68.1708 45.5387 68.3115 45.6577C68.4521 45.7659 68.463 45.9823 68.3331 46.1338L64.0377 51.1326C63.9728 51.1975 63.8862 51.2408 63.7888 51.2516Z" fill="white"/>
<defs>
<linearGradient id="paint0_linear_62_3267" x1="23.2797" y1="412.016" x2="198.942" y2="-61.6244" gradientUnits="userSpaceOnUse">
<stop offset="0.00359712" stop-color="#EBEFF2"/>
<stop offset="1" stop-color="white"/>
</linearGradient>
<linearGradient id="paint1_linear_62_3267" x1="59.2315" y1="186.641" x2="56.7906" y2="182.851" gradientUnits="userSpaceOnUse">
<stop stop-color="#444B8C"/>
<stop offset="0.9964" stop-color="#26264F"/>
</linearGradient>
<linearGradient id="paint2_linear_62_3267" x1="93.8401" y1="179.353" x2="84.0093" y2="165.388" gradientUnits="userSpaceOnUse">
<stop stop-color="#444B8C"/>
<stop offset="0.9964" stop-color="#26264F"/>
</linearGradient>
<linearGradient id="paint3_linear_62_3267" x1="0.00712053" y1="43.6421" x2="85.9451" y2="43.6421" gradientUnits="userSpaceOnUse">
<stop stop-color="#311944"/>
<stop offset="1" stop-color="#893976"/>
</linearGradient>
</defs>
</svg>
