<svg width="387" height="470" viewBox="0 0 387 470" fill="none" xmlns="http://www.w3.org/2000/svg">
<path d="M210.168 171.41C270.994 199.719 258.186 240.965 307.555 302.084C356.925 363.203 342.684 374.327 316.223 391.701C276.196 418.203 179.364 432.202 99.2671 399.982C22.1944 368.783 20.4519 306.326 41.7946 243.139C63.1372 179.952 125.37 132.047 210.168 171.41Z" fill="#F5F8FD"/>
<path d="M191.456 9.96509L220.289 249.484C220.719 253.07 218.241 256.294 214.778 256.645L94.6938 269.822C87.3385 270.275 83.31 266.52 82.8573 262.708L52.5873 8.05346C52.1347 4.25282 55.7444 0.814148 63.1337 0.814148L184.304 3.35922C187.812 3.42709 191.026 6.39068 191.456 9.96509Z" fill="#7183A5"/>
<path d="M196.854 9.55805L225.845 250.276C226.275 253.885 223.797 257.12 220.312 257.471L95.8254 269.857C91.9214 270.241 88.3456 267.425 87.893 263.579L57.4532 7.61248C57.0006 3.80053 59.8635 0.723821 63.8128 0.79169L189.68 2.91824C193.199 2.9748 196.424 5.96101 196.854 9.55805Z" fill="#97A6B7"/>
<path d="M194.5 22.8262L221.364 246.023C221.772 249.394 219.441 252.414 216.182 252.731L99.1073 264.11C95.4749 264.461 92.1593 261.825 91.7293 258.251L63.5979 21.7969C63.1793 18.2451 65.8385 15.372 69.5048 15.4059L187.779 16.6615C191.072 16.7068 194.093 19.4781 194.5 22.8262Z" fill="#D8DEE8"/>
<path d="M131.72 9.3892C131.878 10.6679 130.95 11.6977 129.66 11.6863C128.37 11.675 127.193 10.6113 127.046 9.33262C126.888 8.04261 127.816 7.02418 129.106 7.03549C130.396 7.04681 131.561 8.1105 131.72 9.3892Z" fill="#4B6182"/>
<path opacity="0.1" d="M174.256 172.658C150.289 128.362 114.485 115.105 103.701 69.4521C97.8736 44.7705 101.845 21.1523 108.533 1.54956L63.8127 0.791694C59.8635 0.723825 57.0005 3.78923 57.4532 7.61249L87.893 263.579C88.3456 267.413 91.9214 270.241 95.8254 269.857L193.685 260.117C194.41 220.426 184.938 192.396 174.256 172.658Z" fill="#DFEEFF"/>
<path opacity="0.1" d="M130.297 89.0562L110.743 133.461C110.156 134.817 109.922 136.3 110.063 137.771C110.204 139.242 110.715 140.654 111.549 141.874C112.382 143.095 113.512 144.084 114.831 144.75C116.151 145.417 117.618 145.738 119.095 145.685L168.602 143.782C170.177 143.722 171.707 143.239 173.03 142.382C174.353 141.525 175.421 140.327 176.119 138.914C176.818 137.502 177.122 135.927 177 134.356C176.877 132.785 176.333 131.276 175.424 129.988L145.459 87.5214C144.564 86.2571 143.349 85.2531 141.938 84.6117C140.528 83.9703 138.972 83.7146 137.431 83.8707C135.889 84.0267 134.416 84.589 133.163 85.5C131.909 86.411 130.92 87.6382 130.297 89.0562Z" fill="#7183A5"/>
<path d="M135.865 86.9063L116.456 129.345C115.869 130.635 115.619 132.053 115.729 133.466C115.84 134.879 116.308 136.24 117.088 137.423C117.869 138.606 118.937 139.572 120.193 140.23C121.449 140.888 122.851 141.216 124.268 141.185L171.3 140.165C172.794 140.127 174.25 139.69 175.517 138.899C176.784 138.109 177.818 136.995 178.509 135.671C179.201 134.347 179.526 132.863 179.451 131.372C179.375 129.88 178.903 128.436 178.081 127.189L150.497 85.7507C149.671 84.5013 148.525 83.496 147.178 82.8393C145.832 82.1826 144.334 81.8984 142.84 82.0164C141.347 82.1344 139.912 82.6502 138.685 83.5101C137.459 84.3701 136.485 85.5428 135.865 86.9063Z" fill="#22C55E"/>
<path d="M124.794 137.586C123.932 137.593 123.083 137.382 122.325 136.973C121.567 136.564 120.924 135.97 120.457 135.247C119.968 134.543 119.668 133.725 119.586 132.872C119.503 132.019 119.641 131.159 119.987 130.374L139.442 87.8212C139.781 87.0774 140.324 86.4451 141.008 85.9981C141.692 85.5512 142.49 85.308 143.307 85.2969C144.169 85.2919 145.018 85.5045 145.776 85.915C146.534 86.3255 147.176 86.9206 147.642 87.6451L175.338 129.147C175.828 129.85 176.129 130.668 176.213 131.521C176.297 132.374 176.161 133.235 175.817 134.02C175.477 134.762 174.934 135.393 174.25 135.838C173.566 136.284 172.77 136.526 171.954 136.536L124.794 137.586Z" fill="#DFEEFF"/>
<path d="M143.172 99.245L146.166 99.176C147.127 99.1866 148.051 99.5519 148.759 100.202C149.467 100.852 149.909 101.741 150.001 102.697L150.367 106.756C150.382 106.905 150.388 107.055 150.386 107.205L150.119 119.74C150.12 120.588 149.787 121.401 149.192 122.004C148.596 122.607 147.786 122.951 146.939 122.96C146.053 122.954 145.195 122.645 144.509 122.085C143.823 121.524 143.35 120.745 143.168 119.878L140.468 107.452C140.435 107.306 140.41 107.159 140.396 107.011L139.997 102.938C139.933 102.481 139.966 102.017 140.096 101.574C140.225 101.132 140.448 100.723 140.748 100.373C141.049 100.024 141.42 99.7421 141.838 99.5476C142.256 99.3531 142.711 99.2499 143.172 99.245ZM146.927 126.368L147.744 126.351C148.606 126.351 149.438 126.674 150.074 127.256C150.71 127.838 151.105 128.638 151.18 129.497C151.234 129.9 151.202 130.311 151.086 130.701C150.971 131.091 150.774 131.452 150.509 131.761C150.245 132.07 149.918 132.32 149.55 132.494C149.182 132.669 148.782 132.763 148.375 132.773L147.559 132.789C146.697 132.79 145.867 132.469 145.23 131.888C144.594 131.307 144.198 130.509 144.121 129.652C144.068 129.248 144.1 128.837 144.215 128.447C144.331 128.056 144.527 127.694 144.792 127.384C145.057 127.075 145.384 126.824 145.752 126.649C146.119 126.474 146.52 126.378 146.927 126.368Z" fill="#22C55E"/>
<path d="M120.111 173.127L117.127 169.679C117.127 169.679 114.944 166.39 116.879 162.084C118.815 157.792 120.926 159.159 120.926 159.159L120.096 162.229C120.096 162.229 119.543 164.208 121.275 166.856C122.76 169.999 122.891 172.327 122.891 172.327L120.111 173.127Z" fill="#FFC1B5"/>
<path d="M252.945 195.49L256.802 192.478L258.854 186.644C258.854 186.644 263.148 188.71 260.324 194.152C258.65 195.912 254.662 198.444 252.843 201.063C251.038 203.696 252.945 195.49 252.945 195.49Z" fill="#FFC1B5"/>
<path d="M213.179 237.248C213.179 237.248 231.46 226.35 235.958 222.858C240.645 219.206 254.4 201.79 255.535 200.059C256.671 198.327 252.828 194.413 252.828 194.413C252.828 194.413 230.82 218.086 206.061 208.803C209.409 218.129 213.179 237.248 213.179 237.248Z" fill="#22C55E"/>
<path d="M207.08 381.392C207.08 381.392 209.03 387.576 208.201 390.195C210.777 390.34 212.451 390.122 212.451 390.122C212.451 390.122 211.621 387.299 211.519 385.932C211.388 384.084 211.621 381.116 211.621 381.116L207.08 381.392Z" fill="#FFC1B5"/>
<path d="M168.93 393.905C169.076 394.109 169.323 394.517 169.294 395.041C169.279 395.332 169.207 395.565 169.105 395.768C168.624 396.816 167.969 396.904 167.198 397.995C166.718 398.665 166.79 398.869 166.383 399.16C165.844 399.538 165.218 399.509 164.694 399.48C163.792 399.422 162.496 399.291 160.866 398.985C161.812 397.937 162.802 396.889 163.85 395.827C164.316 395.361 164.767 394.91 165.233 394.458L167.824 393.789C168.188 393.832 168.566 393.876 168.93 393.905Z" fill="#74C58F"/>
<path d="M167.736 381.509C167.736 381.509 165.742 388.929 167.416 391.17C168.828 393.396 166.616 391.723 166.616 391.723L163.675 393.934L161.798 396.684C161.798 396.684 163.865 389.438 163.675 386.485C163.486 383.531 163.428 381.552 163.428 381.552L167.736 381.509Z" fill="#FFC1B5"/>
<path d="M187.343 206.839C179.73 205.908 167.111 203.391 153.559 195.665C138.713 187.197 129.703 176.459 125.089 170.057C122.731 171.017 120.373 171.978 118.015 172.923C124.521 191.082 133.516 200.452 140.765 205.675C146.704 209.953 153.588 212.979 160.968 221.447C166.266 227.529 169.367 233.611 171.172 237.844C176.557 227.514 181.943 217.169 187.343 206.839Z" fill="#22C55E"/>
<path d="M171.506 255.479C171.506 255.479 166.019 259.713 164.621 278.686C163.224 297.659 159.92 354.112 159.92 354.112L161.652 383.895C161.652 383.895 165.699 384.332 168.464 383.72C171.725 372.779 177.081 354.272 176.353 338.413C176.804 321.273 185.974 300.409 185.974 300.409C185.974 300.409 190.88 322.582 194.693 333.757C198.507 344.945 204.78 379.559 205.406 382.062C210.762 382.949 213.179 381.698 213.179 381.698C213.179 381.698 212.422 344.887 210.18 330.818C207.939 316.748 213.382 268.355 208.652 258.476C196.804 252.7 171.506 255.479 171.506 255.479Z" fill="url(#paint0_linear_62_3335)"/>
<path d="M171.506 255.479C171.506 255.479 166.019 259.713 164.621 278.686C163.224 297.659 159.92 354.112 159.92 354.112L161.652 383.895C161.652 383.895 165.684 384.332 168.464 383.72C171.725 372.779 177.081 354.272 176.353 338.413C176.804 321.273 185.974 300.409 185.974 300.409C185.974 300.409 190.88 322.582 194.693 333.757C198.507 344.945 204.78 379.559 205.406 382.062C210.762 382.949 213.179 381.698 213.179 381.698C213.179 381.698 212.422 344.887 210.18 330.818C207.939 316.748 213.382 268.355 208.652 258.476C196.804 252.7 171.506 255.479 171.506 255.479Z" fill="#054468"/>
<path d="M207.4 392.436C207.4 392.436 206.803 392.392 206.803 393.163C206.803 393.935 206.279 396.555 209.307 396.904C212.32 397.254 212.815 396.948 212.917 396.948C213.019 396.948 212.305 394.357 212.305 394.357L211.432 393.047L208.841 392.581L207.4 392.436Z" fill="#74C58F"/>
<path d="M213.921 395.578C213.907 394.938 213.615 393.905 213.324 393.061C212.873 391.824 213.353 391.402 212.917 390.268C212.771 389.875 212.626 389.511 212.276 389.118C212.204 389.031 211.418 388.202 210.195 388.143C209.962 388.129 209.584 388.129 209.176 388.303C208.681 388.522 208.419 388.871 208.201 389.191C207.851 389.686 207.91 389.846 207.313 391.301C207.269 391.417 207.167 391.664 207.065 392.028C206.993 392.305 206.964 392.523 206.934 392.683C207.735 392.741 210.777 393.09 211.388 393.614C212 394.138 212.262 394.953 212.204 395.738C212.145 396.539 212.509 396.931 212.917 396.931C213.266 396.96 214.023 396.349 213.921 395.578Z" fill="#22C55E"/>
<path d="M166.718 390.05C167.402 390.108 167.853 390.69 168.144 392.028C168.42 393.367 170.153 394.647 168.057 394.225C165.961 393.789 164.214 396.67 163.37 397.717C162.54 398.765 160.43 399.609 160.561 398.518C160.692 397.441 161.623 397.004 161.958 395.913C162.293 394.836 165.16 389.919 166.718 390.05Z" fill="#22C55E"/>
<path d="M201.156 321.549C202.539 324.154 204.533 328.911 203.951 349.616C203.878 351.944 203.528 363.278 205.028 370.524C205.435 372.517 205.945 375.165 207.604 377.755C208.608 379.312 209.642 380.81 210.69 382.294C212.378 382.105 213.164 381.698 213.164 381.698C213.164 381.698 212.407 344.887 210.166 330.817C207.924 316.748 213.368 268.355 208.637 258.476C196.789 252.7 171.506 255.464 171.506 255.464C171.506 255.464 166.019 259.698 164.622 278.671C164.287 283.283 163.821 290.136 163.341 297.833C165.087 299.186 167.678 300.772 171.026 301.281C179.395 302.533 183.748 295.651 188.274 297.746C191.942 299.434 190.254 304.453 195.814 314.085C198.478 318.683 199.322 318.086 201.156 321.549Z" fill="#03314B"/>
<path d="M199.424 207.625C194.882 207.159 183.383 205.035 177.576 210.054C175.465 211.873 173.85 213.677 172.569 215.656C168.799 221.505 168.173 227.252 167.969 229.246C165.553 251.405 154.942 263.525 160.895 274.903C169.861 292.028 209.438 294.152 218.491 280.766C225.362 270.625 211.097 256.876 219.554 242.908C223.79 235.924 225.696 227.732 229.554 220.516C229.655 220.341 230.034 219.774 229.816 219.192C229 216.98 219.83 218.624 217.298 215.132C212.829 208.963 203.994 208.105 199.424 207.625Z" fill="#22C55E"/>
<path d="M196.542 200.364C197.109 197.571 199.482 195.927 199.991 195.577C202.146 194.108 202.568 193.977 203.281 193.89L204.242 193.817C204.242 193.817 204.3 193.817 204.343 193.831C204.897 193.904 206.527 194.69 206.818 194.923C207.735 195.679 206.672 200.481 203.266 206.286C203.106 206.795 202.961 207.29 202.801 207.799C207.822 208.92 208.972 209.589 208.943 209.996C208.87 210.782 204.373 211.189 200.413 210.826C195.421 210.36 190.268 208.556 190.414 207.61C190.472 207.174 191.709 206.708 197.037 206.723C197.444 206.228 197.852 205.733 198.259 205.238C197.968 204.787 196.12 202.416 196.542 200.364Z" fill="#FFC1B5"/>
<path d="M203.426 191.911C202.582 193.089 202.044 195.185 202.16 195.839C202.291 196.61 202.509 196.698 202.451 197.192C202.262 198.575 199.686 198.982 199.788 199.695C199.846 200.204 201.17 200.117 201.36 200.757C201.563 201.455 200.079 201.936 199.322 203.623C199.205 203.885 198.507 205.471 199.176 206.49C199.817 207.435 201.403 207.334 203.179 207.246C205.144 207.13 206.585 206.664 207.022 206.519C208.361 206.053 209.787 205.544 211.039 204.22C211.083 204.176 211.126 204.133 211.184 204.06C212.815 202.227 213.091 199.797 213.164 199.186C213.848 193.584 216.57 190.849 215.085 189.03C213.048 186.557 205.653 188.797 203.426 191.911Z" fill="#2C3C55"/>
<path d="M200.661 199.608C201.432 199.215 201.927 200.219 201.52 201.02C201.112 201.835 199.89 202.271 199.22 201.718C198.55 201.165 199.613 200.132 200.661 199.608Z" fill="#FAA08E"/>
<path opacity="0.2" d="M204.518 260.659C201.17 262.899 198.303 262.012 193.485 266.056C189.555 269.359 188.405 271.469 186.935 273.957C181.87 282.57 167.853 277.274 159.512 271.207C159.804 272.458 160.24 273.681 160.881 274.903C169.847 292.028 209.423 294.152 218.477 280.766C225.347 270.625 211.083 256.876 219.539 242.908C222.043 238.79 223.731 234.251 225.493 229.726C229.83 227.034 234.08 224.299 235.943 222.844C237.355 221.738 239.597 219.381 242.071 216.587C239.087 218.886 234.284 222.102 227.749 224.24C220.107 226.743 218.943 224.895 215.871 226.947C206.119 233.392 214.692 253.835 204.518 260.659Z" fill="#E6F5EB"/>
<defs>
<linearGradient id="paint0_linear_62_3335" x1="161.697" y1="318.342" x2="217.541" y2="322.459" gradientUnits="userSpaceOnUse">
<stop stop-color="#311944"/>
<stop offset="1" stop-color="#893976"/>
</linearGradient>
</defs>
</svg>
