<svg width="325" height="259" viewBox="0 0 325 259" fill="none" xmlns="http://www.w3.org/2000/svg">
<path d="M162.687 16.692C105.134 30.5631 109.009 68.4718 55.6358 112.72C2.26241 156.968 12.6368 169.075 32.4888 188.718C62.4807 218.624 143.787 247.629 218.691 233.738C290.8 220.202 303.214 166.486 295.789 108.111C288.364 49.7352 242.904 -2.55721 162.687 16.692Z" fill="#F5F8FD"/>
<path d="M306.676 119.662C306.795 175.312 277.207 220.731 224.499 222.224C223.687 222.245 210.229 222.224 209.418 222.224C155.585 222.354 111.834 176.653 111.705 120.137C111.575 63.6221 155.119 17.7048 208.963 17.575C210.218 17.575 222.043 17.694 223.287 17.7372C275.389 19.673 306.557 64.4656 306.676 119.662Z" fill="#2C3C55"/>
<path d="M227.42 223.133C281.26 223.133 324.905 177.32 324.905 120.808C324.905 64.296 281.26 18.4838 227.42 18.4838C173.58 18.4838 129.934 64.296 129.934 120.808C129.934 177.32 173.58 223.133 227.42 223.133Z" fill="#97A6B7"/>
<path d="M227.42 220.558C279.903 220.558 322.45 175.899 322.45 120.808C322.45 65.7171 279.903 21.0573 227.42 21.0573C174.936 21.0573 132.39 65.7171 132.39 120.808C132.39 175.899 174.936 220.558 227.42 220.558Z" fill="#97A6B7"/>
<path d="M227.42 217.541C278.32 217.541 319.583 174.232 319.583 120.808C319.583 67.3835 278.32 24.0745 227.42 24.0745C176.519 24.0745 135.257 67.3835 135.257 120.808C135.257 174.232 176.519 217.541 227.42 217.541Z" fill="#4B6182"/>
<path d="M225.451 215.476C275.257 215.476 315.634 173.092 315.634 120.808C315.634 68.5242 275.257 26.14 225.451 26.14C175.644 26.14 135.267 68.5242 135.267 120.808C135.267 173.092 175.644 215.476 225.451 215.476Z" fill="url(#paint0_linear_62_3265)"/>
<path d="M234.971 118.104L303.669 144.729C305.908 137.202 307.109 129.2 307.109 120.905C307.109 78.1889 275.151 43.3022 234.971 41.1501V118.104Z" fill="#22C55E"/>
<g opacity="0.54">
<path opacity="0.2" d="M202.808 118.667C195.678 95.5783 221.459 78.9136 217.391 51.9969C215.595 40.1229 208.617 30.39 200.027 22.5822C159.436 35.0294 129.826 74.4365 129.934 121.046C130.064 177.561 173.803 223.262 227.647 223.132C240.845 223.1 253.427 220.31 264.895 215.292C263.229 182.633 253.211 164.184 242.555 153.067C226.132 135.937 208.238 136.272 202.808 118.667Z" fill="#A7B6D1"/>
</g>
<path d="M225.191 128.313C228.358 128.313 230.925 125.616 230.925 122.289C230.925 118.963 228.358 116.266 225.191 116.266C222.024 116.266 219.457 118.963 219.457 122.289C219.457 125.616 222.024 128.313 225.191 128.313Z" fill="#0B76B1"/>
<path d="M225.202 74.3282C223.2 74.3282 221.578 76.0261 221.578 78.1349V118.71C221.578 120.808 223.2 122.517 225.202 122.517C227.203 122.517 228.826 120.819 228.826 118.71V78.124C228.815 76.0261 227.192 74.3282 225.202 74.3282Z" fill="#0B76B1"/>
<path d="M226.132 121.727L161.21 102.651C160.063 102.305 158.808 102.932 158.397 104.067C157.986 105.203 158.592 106.403 159.728 106.749L224.65 125.826C225.797 126.172 227.052 125.545 227.463 124.409C227.874 123.274 227.279 122.073 226.132 121.727Z" fill="#0B76B1"/>
<path d="M180.987 180.643C184.027 178.956 183.139 169.385 179.007 162.648C173.143 153.099 160.28 148.536 157.651 151.38C154.957 154.289 162.714 165.222 163.98 166.995C168.556 173.452 177.384 182.644 180.987 180.643Z" fill="#22C55E"/>
<path d="M212.836 236.218C212.339 236.899 212.339 238.068 212.891 238.576C213.431 239.085 214.113 238.587 216.179 238.414C218.397 238.241 219.025 238.695 220.485 238.111C221.069 237.873 222.097 237.354 222.032 236.921C221.989 236.618 221.426 236.521 219.533 236.11C216.85 235.525 216.861 235.482 216.298 235.45C214.903 235.396 213.496 235.32 212.836 236.218Z" fill="#22C55E"/>
<path d="M213.854 232.465L215.368 236.025C215.304 236.23 214.254 237.009 213.237 236.706L211.203 233.309L213.854 232.465Z" fill="#FFC1B5"/>
<path d="M199.194 240.998C198.696 241.679 198.696 242.848 199.248 243.356C199.789 243.865 200.471 243.367 202.537 243.194C204.755 243.021 205.382 243.475 206.843 242.891C207.427 242.653 208.455 242.134 208.39 241.701C208.347 241.398 207.784 241.301 205.891 240.89C203.208 240.305 203.219 240.262 202.656 240.23C201.26 240.165 199.854 240.089 199.194 240.998Z" fill="#22C55E"/>
<path d="M200.211 237.245L201.726 240.805C201.661 241.01 200.612 241.789 199.595 241.486L197.561 238.089L200.211 237.245Z" fill="#FFC1B5"/>
<path d="M133.223 152.007C136.76 150.807 142.159 149.401 148.801 149.401C156.288 149.401 162.303 149.401 166.457 152.937C176.54 161.523 165.256 182.092 171.034 197.319C171.661 198.984 173.511 204.272 171.91 209.982C171.618 211.031 171.012 211.939 169.963 213.486C163.861 222.537 146.378 225.522 138.524 217.671C134.37 213.518 130.983 212.048 130.875 207.311C130.486 188.635 133.385 169.991 133.223 152.007Z" fill="#22C55E"/>
<path opacity="0.2" d="M137.215 174.836C135.787 170.932 137.269 166.455 134.088 164.508C132.92 163.794 131.47 163.492 129.891 163.524C130.075 177.258 130.345 190.971 130.68 205.31C130.789 210.047 131.384 210.274 135.971 214.427C141.293 219.228 150.457 220.807 158.311 219.228C148.012 212.902 140.666 206.349 141.726 200.725C142.949 194.183 154.936 192.247 154.46 187.597C153.951 182.655 140.331 183.368 137.215 174.836Z" fill="#E6F5EB"/>
<path d="M136.501 152.429C133.039 150.093 124.698 155.987 120.078 161.167C117.925 163.578 110.45 171.97 112.311 183.238C112.613 185.077 114.009 193.663 121.366 197.87C127.954 201.634 136.836 200.671 143.966 195.329C144.939 194.464 145.913 193.599 146.887 192.733C147.849 191.695 148.801 190.668 149.764 189.63C148.261 188.375 145.697 186.569 142.105 185.412C136.631 183.649 133.028 186.266 131.719 184.536C130.107 182.417 135.019 178.459 136.306 169.461C136.641 167.05 140.363 155.035 136.501 152.429Z" fill="#22C55E"/>
<path d="M143.544 213.183C142.083 220.829 145.967 217.357 154.07 212.199C162.606 206.76 181.647 198.205 191.07 205.624C198.091 211.161 194.694 221.499 205.685 231.265C207.622 232.984 209.407 234.141 210.51 234.801C212.198 233.871 213.886 232.952 215.563 232.022C215.812 227.901 216.277 212.069 204.917 199.19C202.169 196.075 196.944 190.095 188.917 188.202C167.215 183.087 144.885 206.132 143.544 213.183Z" fill="#054468"/>
<path d="M134.445 207.203C133.439 211.615 135.3 216.352 138.048 219.12C144.128 225.263 156.039 223.24 163.244 219.931C172.018 215.908 173.446 210.166 177.179 211.128C182.977 212.621 180.521 226.755 191.794 236.769C193.731 238.488 195.516 239.646 196.619 240.305C198.307 239.375 199.995 238.456 201.672 237.526C201.964 227.955 200.157 220.526 198.621 215.811C196.847 210.415 195.256 205.57 190.831 201.223C185.336 195.826 178.78 194.431 175.026 193.685C159.144 190.549 137.053 195.751 134.445 207.203Z" fill="#03314B"/>
<path d="M183.886 192.701L142.181 192.074L153.27 197.429L183.994 195.417L183.886 192.701Z" fill="#7183A5"/>
<path d="M140.709 193.188C140.709 193.966 141.196 194.669 141.932 194.929L155.26 200.152L155.325 196.529L142.191 192.074C141.445 191.868 140.709 192.42 140.709 193.188Z" fill="url(#paint1_linear_62_3265)"/>
<path d="M146.659 191.512C146.4 191.458 147.904 188.462 149.083 188.808C150.262 189.154 156.028 192.497 156.558 193.871C157.078 195.245 157.078 195.245 157.078 195.245C157.078 195.245 154.557 195.44 152.999 194.92C151.452 194.401 148.737 191.978 146.659 191.512Z" fill="#FFC1B5"/>
<path d="M156.418 171.127L153.475 197.881C153.378 198.8 154.665 200.184 155.595 200.13L198.718 197.481C199.432 197.448 200.016 196.929 200.135 196.226L205.545 170.38C205.707 169.44 204.019 168.466 203.056 168.499L157.867 169.764C157.132 169.807 156.504 170.38 156.418 171.127Z" fill="url(#paint2_linear_62_3265)"/>
<path d="M157.402 171.906L154.459 198.66C154.362 199.579 155.109 200.38 156.039 200.336L199.713 198.271C200.427 198.238 201.012 197.719 201.131 197.016L205.588 171.062C205.75 170.121 205.014 169.267 204.052 169.299L158.863 170.565C158.116 170.586 157.489 171.159 157.402 171.906Z" fill="#7183A5"/>
<path opacity="0.3" d="M183.053 192.009C179.245 190.398 180.586 187.316 176.086 183.477C170.147 178.416 164.088 180.611 161.968 176.685C161.308 175.463 160.994 173.56 162.141 170.478L158.874 170.564C158.116 170.586 157.5 171.159 157.413 171.905L154.47 198.66C154.373 199.579 155.12 200.379 156.05 200.336L199.724 198.271C200.438 198.238 201.023 197.719 201.142 197.016L201.758 193.437C200.438 192.701 198.848 192.031 196.998 191.652C190.583 190.354 187.445 193.869 183.053 192.009Z" fill="#A7B6D1"/>
<path d="M149.505 139.181C149.526 141.961 149.224 144.156 148.921 145.659C148.585 147.389 148.347 147.833 148.034 148.19C147.568 148.73 146.865 149.195 142.884 150.179C140.72 150.72 140.439 150.698 140.396 150.915C140.158 151.964 146.065 155.532 152.166 154.667C155.899 154.137 159.296 152.007 159.09 150.893C158.885 149.768 155.152 150.374 154.038 148.341C153.27 146.924 154.135 144.913 155.152 143.247C154.168 141.398 150.5 141.041 149.505 139.181Z" fill="#FFCEC0"/>
<path d="M157.338 142.707C158.485 141.798 159.047 139.83 158.398 138.327C157.835 137.029 156.548 136.532 155.769 136.229C153.53 135.364 150.371 135.569 148.802 137.429C147.872 138.532 148.488 141.485 148.575 142.004C148.661 142.599 149.04 142.89 149.321 143.388C149.711 144.08 150.317 145.183 151.301 147.022C151.517 146.611 151.82 146.113 152.231 145.594C152.394 145.389 153.01 144.621 153.811 144.037C155.39 142.901 156.256 143.572 157.338 142.707Z" fill="#2C3C55"/>
<path d="M149.667 145.28C149.667 145.28 150.533 148.168 153.605 148.752C156.353 149.282 158.333 143.323 156.937 141.582C156.472 140.998 155.368 140.522 154.362 140.544C153.767 140.555 153.518 140.738 152.545 140.738C151.647 140.738 151.43 140.587 151.128 140.728C150.738 140.911 150.338 141.506 150.403 143.42C150.024 142.761 149.451 142.404 148.964 142.49C148.888 142.501 148.672 142.588 148.509 142.75C147.958 143.345 148.369 144.394 149.667 145.28Z" fill="#FFC1B5"/>
<path d="M151.106 140.338C151.214 140.468 150.684 140.858 150.479 141.528C150.067 142.847 151.009 144.805 152.35 145.302C153.14 145.594 153.497 145.162 154.882 145.367C155.736 145.497 156.407 145.789 156.818 145.994C156.861 147.573 156.083 148.925 154.925 149.347C153.681 149.801 152.447 149.011 151.928 148.676C151.582 148.449 150.479 147.746 150.132 146.47C149.775 145.14 150.598 144.621 150.046 143.637C149.764 143.139 149.31 142.847 149.029 141.95C148.953 141.712 148.91 141.506 148.888 141.366C149.786 140.825 150.955 140.144 151.106 140.338Z" fill="#2C3C55"/>
<path d="M155.693 146.286C155.693 146.286 155.033 146.438 154.038 146.124C153.994 146.113 153.93 146.113 153.919 146.135C153.875 146.221 154.406 146.827 155.044 146.806C155.498 146.795 155.931 146.481 155.899 146.362C155.899 146.308 155.801 146.286 155.693 146.286Z" fill="white"/>
<path d="M175.945 26.3994C175.945 23.5877 173.543 21.3059 170.59 21.2951L95.8013 20.9707C92.6423 20.9599 90.0134 23.3066 90.0134 26.2264V83.1742C90.0134 86.0833 92.6316 88.3867 95.7906 88.311L97.4999 88.2677L97.5756 88.138L170.525 85.5642C173.478 85.4885 175.945 84.1151 175.945 81.3034V26.3994ZM110.103 33.4071C107.366 33.4071 105.138 31.3524 105.138 28.811C105.138 26.2697 107.366 24.215 110.103 24.2258C112.841 24.2366 115.048 26.2913 115.048 28.8218C115.048 31.3524 112.841 33.4071 110.103 33.4071ZM133.764 33.3854C131.081 33.3854 128.895 31.3524 128.895 28.8326C128.895 26.3129 131.081 24.2798 133.764 24.2907C136.447 24.3015 138.61 26.3345 138.61 28.8434C138.61 31.3524 136.447 33.3854 133.764 33.3854ZM156.969 33.3638C154.34 33.3638 152.198 31.3524 152.198 28.8543C152.198 26.3562 154.34 24.3447 156.969 24.3555C159.598 24.3664 161.719 26.3778 161.719 28.8651C161.719 31.3524 159.598 33.3638 156.969 33.3638Z" fill="url(#paint3_linear_62_3265)"/>
<path d="M177.557 36.5216V26.3454C177.557 23.5445 175.22 21.3167 172.267 21.2951L97.6514 20.9707C96.3207 20.9599 95.0766 21.36 94.1029 22.0629C92.7723 23.0254 91.9067 24.4853 91.9067 26.1723V39.2792L177.557 36.5216ZM158.646 24.3663C161.264 24.3772 163.396 26.3886 163.396 28.8759C163.396 31.3523 161.275 33.3638 158.646 33.3638C156.017 33.3638 153.875 31.3523 153.875 28.8651C153.875 26.367 156.017 24.3555 158.646 24.3663ZM135.484 24.2906C138.156 24.3015 140.33 26.3345 140.33 28.8434C140.33 31.3523 138.167 33.3746 135.484 33.3854C132.801 33.3854 130.615 31.3523 130.615 28.8326C130.615 26.3129 132.801 24.2906 135.484 24.2906ZM111.845 24.2258C114.572 24.2366 116.789 26.2913 116.789 28.8218C116.789 31.3523 114.582 33.4071 111.845 33.4071C109.108 33.4071 106.88 31.3523 106.88 28.811C106.89 26.2697 109.108 24.2149 111.845 24.2258Z" fill="#22C55E"/>
<path d="M91.9067 36.3053V83.131C91.9067 86.04 94.3734 88.3435 97.5324 88.2678L172.224 86.4834C175.177 86.4077 177.557 84.0826 177.557 81.2818V36.1215L91.9067 36.3053Z" fill="white"/>
<path d="M146.887 44.0051C146.887 43.3454 146.389 42.8156 145.686 42.8156L138.264 42.8588C137.561 42.8588 136.674 43.4103 136.674 44.07V50.764C136.674 51.4237 137.593 51.9536 138.297 51.9536L145.513 51.8887C146.216 51.8779 146.887 51.3372 146.887 50.6775V44.0051Z" fill="#BFC8D6"/>
<path d="M159.955 43.9295C159.955 43.2698 159.371 42.7399 158.679 42.7507L151.679 42.7832C150.976 42.7832 150.446 43.3239 150.446 43.9835V50.6451C150.446 51.3048 150.965 51.8347 151.668 51.8239L158.7 51.759C159.393 51.7482 159.955 51.2075 159.955 50.5586V43.9295Z" fill="#BFC8D6"/>
<path d="M173.132 43.8645C173.132 43.2157 172.526 42.6858 171.834 42.6858L164.834 42.7182C164.142 42.7182 163.536 43.2589 163.536 43.9078V50.5261C163.536 51.1858 164.11 51.7157 164.802 51.7049L171.823 51.64C172.516 51.6292 173.132 51.0993 173.132 50.4504V43.8645Z" fill="#BFC8D6"/>
<path d="M146.887 56.2035C146.887 55.5438 146.389 55.0139 145.686 55.0248L138.264 55.1005C137.561 55.1113 136.674 55.652 136.674 56.3225V63.0165C136.674 63.6762 137.593 64.2061 138.297 64.1952L145.513 64.0979C146.216 64.0871 146.887 63.5464 146.887 62.8867V56.2035Z" fill="#BFC8D6"/>
<path d="M159.955 56.0738C159.955 55.4141 159.371 54.895 158.679 54.895L151.679 54.9707C150.976 54.9815 150.446 55.5222 150.446 56.1819V62.8435C150.446 63.5032 150.965 64.0331 151.668 64.0222L158.7 63.9249C159.393 63.9141 159.955 63.3734 159.955 62.7137V56.0738Z" fill="#22C55E"/>
<path d="M173.132 55.9332C173.132 55.2844 172.526 54.7545 171.834 54.7653L164.834 54.8302C164.142 54.841 163.536 55.3709 163.536 56.0306V62.6489C163.536 63.3086 164.11 63.8276 164.802 63.8276L171.823 63.7303C172.516 63.7195 173.132 63.1896 173.132 62.5299V55.9332Z" fill="#BFC8D6"/>
<path d="M106.815 56.6469C106.815 55.9764 106.176 55.4357 105.451 55.4357L98.1381 55.5006C97.4025 55.5114 96.8616 56.0521 96.8616 56.7334V63.5464C96.8616 64.2169 97.3809 64.7684 98.1057 64.7576L105.484 64.6603C106.209 64.6495 106.815 64.0979 106.815 63.4275V56.6469Z" fill="#BFC8D6"/>
<path d="M120.305 56.4847C120.305 55.8143 119.786 55.2844 119.061 55.2844L111.672 55.3601C110.947 55.3709 110.255 55.9224 110.255 56.5929V63.3626C110.255 64.0331 110.969 64.5738 111.694 64.563L118.985 64.4548C119.699 64.444 120.295 63.8925 120.295 63.222V56.4847H120.305Z" fill="#BFC8D6"/>
<path d="M133.536 56.3658C133.536 55.7062 132.995 55.1655 132.281 55.1655L124.892 55.2412C124.178 55.252 123.41 55.7927 123.41 56.4632V63.2005C123.41 63.8709 124.2 64.4008 124.914 64.39L132.184 64.2927C132.898 64.2819 133.536 63.7412 133.536 63.0815V56.3658Z" fill="#BFC8D6"/>
<path d="M146.887 68.4129C146.887 67.7532 146.389 67.2233 145.686 67.2341L138.264 67.3423C137.561 67.3531 136.674 67.9046 136.674 68.5643V75.2583C136.674 75.918 137.593 76.4478 138.297 76.437L145.513 76.2964C146.216 76.2856 146.887 75.7341 146.887 75.0744V68.4129Z" fill="#BFC8D6"/>
<path d="M159.955 68.2074C159.955 67.5477 159.371 67.0286 158.679 67.0394L151.679 67.1476C150.976 67.1584 150.446 67.6991 150.446 68.3588V75.0203C150.446 75.68 150.965 76.1991 151.668 76.1883L158.7 76.0477C159.393 76.0369 159.955 75.4853 159.955 74.8365V68.2074Z" fill="#BFC8D6"/>
<path d="M106.815 69.0509C106.815 68.3804 106.176 67.8397 105.451 67.8505L98.1381 67.9586C97.4025 67.9695 96.8616 68.521 96.8616 69.1915V76.0044C96.8616 76.6749 97.3809 77.2156 98.1057 77.2048L105.484 77.0642C106.209 77.0534 106.815 76.5019 106.815 75.8206V69.0509Z" fill="#BFC8D6"/>
<path d="M120.305 68.8346C120.305 68.1641 119.786 67.6342 119.061 67.6451L111.672 67.7532C110.947 67.764 110.255 68.3155 110.255 68.986V75.7557C110.255 76.4262 110.969 76.9561 111.694 76.9453L118.985 76.8047C119.699 76.7939 120.295 76.2424 120.295 75.5719V68.8346H120.305Z" fill="#BFC8D6"/>
<path d="M133.536 68.6399C133.536 67.9803 132.995 67.4395 132.281 67.4504L124.892 67.5585C124.178 67.5693 123.41 68.1208 123.41 68.7805V75.5178C123.41 76.1883 124.2 76.7182 124.914 76.6965L132.184 76.5668C132.898 76.556 133.536 76.0044 133.536 75.3448V68.6399Z" fill="#BFC8D6"/>
<path d="M111.391 11.9083C106.793 11.8759 102.996 15.6717 102.628 20.9923L106.501 21.0139C106.814 17.8237 108.924 15.3905 111.391 15.4014C114.052 15.423 116.302 18.3536 116.302 21.8142C116.302 25.2856 114.052 28.1946 111.391 28.1946C110.006 28.1946 108.729 27.3944 107.821 26.1399C107.29 26.8645 106.393 28.519 107.247 30.5089C108.481 31.255 109.898 31.6876 111.391 31.6876C116.216 31.6876 120.121 27.2754 120.121 21.8358C120.121 16.3963 116.205 11.9516 111.391 11.9083Z" fill="#BFC8D6"/>
<path d="M134.986 12.0922C130.475 12.0598 126.753 15.8232 126.396 21.0897L130.194 21.1113C130.507 17.9536 132.574 15.542 134.986 15.5528C137.593 15.5744 139.8 18.4727 139.8 21.9008C139.8 25.3289 137.593 28.2271 134.986 28.2163C133.623 28.2163 132.379 27.4269 131.492 26.1832C130.972 26.897 130.085 28.5407 130.929 30.5089C132.141 31.2551 133.526 31.6769 134.986 31.6769C139.714 31.6769 143.544 27.3079 143.544 21.9224C143.544 16.5369 139.714 12.1355 134.986 12.0922Z" fill="#BFC8D6"/>
<path d="M158.203 12.2979C153.789 12.2654 150.132 15.9855 149.786 21.2088L153.507 21.2196C153.81 18.0943 155.844 15.7044 158.203 15.7152C160.767 15.7368 162.92 18.6026 162.92 21.9983C162.92 25.3939 160.767 28.2597 158.203 28.2489C156.872 28.2489 155.65 27.4595 154.773 26.2374C154.265 26.9512 153.399 28.5733 154.221 30.5199C155.412 31.2553 156.764 31.6662 158.203 31.6662C162.833 31.6662 166.587 27.3405 166.587 22.0091C166.587 16.6885 162.833 12.3303 158.203 12.2979Z" fill="#BFC8D6"/>
<path opacity="0.2" d="M177.557 79.4325V81.2817C177.557 84.0826 175.22 86.4185 172.267 86.4942L97.5757 88.2677C94.4275 88.3434 91.9067 86.04 91.9067 83.1309V26.1723C91.9067 24.4961 92.7506 22.9929 94.0813 22.0413C96.9806 22.9497 100.713 25.664 102.628 33.3205C106.014 46.8491 108.935 52.5915 122.09 51.9318C130.561 51.5101 137.085 51.7047 141.164 55.2302C143.36 57.1227 144.853 59.9884 145.567 64.2276C145.978 66.7149 147.849 68.2614 150.511 69.3752C153.118 70.4675 156.526 71.1379 160.063 71.8625C166.598 73.2035 173.933 74.7175 177.557 79.4325Z" fill="#BFC8D6"/>
<path d="M153.789 62.2516C153.713 62.2624 153.648 62.2408 153.583 62.2083L151.895 61.1804C151.744 61.083 151.701 60.8775 151.82 60.7152C151.928 60.5529 152.155 60.4988 152.307 60.5961L153.735 61.4725L157.825 56.7227C157.954 56.5712 158.171 56.5387 158.311 56.6577C158.452 56.7659 158.463 56.9823 158.333 57.1338L154.038 62.1326C153.973 62.1975 153.886 62.2408 153.789 62.2516Z" fill="white"/>
<defs>
<linearGradient id="paint0_linear_62_3265" x1="113.28" y1="423.016" x2="288.942" y2="-50.6244" gradientUnits="userSpaceOnUse">
<stop offset="0.00359712" stop-color="#EBEFF2"/>
<stop offset="1" stop-color="white"/>
</linearGradient>
<linearGradient id="paint1_linear_62_3265" x1="149.231" y1="197.641" x2="146.791" y2="193.851" gradientUnits="userSpaceOnUse">
<stop stop-color="#444B8C"/>
<stop offset="0.9964" stop-color="#26264F"/>
</linearGradient>
<linearGradient id="paint2_linear_62_3265" x1="183.84" y1="190.353" x2="174.009" y2="176.388" gradientUnits="userSpaceOnUse">
<stop stop-color="#444B8C"/>
<stop offset="0.9964" stop-color="#26264F"/>
</linearGradient>
<linearGradient id="paint3_linear_62_3265" x1="90.0071" y1="54.6421" x2="175.945" y2="54.6421" gradientUnits="userSpaceOnUse">
<stop stop-color="#311944"/>
<stop offset="1" stop-color="#893976"/>
</linearGradient>
</defs>
</svg>
