<svg width="210" height="400" viewBox="0 0 210 400" fill="none" xmlns="http://www.w3.org/2000/svg">
<path d="M139.456 9.96509L168.289 249.484C168.719 253.07 166.241 256.294 162.778 256.645L42.6938 269.822C35.3385 270.275 31.31 266.52 30.8573 262.708L0.587296 8.05346C0.134659 4.25282 3.74445 0.814148 11.1337 0.814148L132.304 3.35922C135.812 3.42709 139.026 6.39068 139.456 9.96509Z" fill="#7183A5"/>
<path d="M144.854 9.55805L173.845 250.276C174.275 253.885 171.797 257.12 168.312 257.471L43.8254 269.857C39.9214 270.241 36.3456 267.425 35.893 263.579L5.4532 7.61248C5.00056 3.80053 7.86351 0.723821 11.8128 0.79169L137.68 2.91824C141.199 2.9748 144.424 5.96101 144.854 9.55805Z" fill="#97A6B7"/>
<path d="M142.5 22.8262L169.364 246.023C169.772 249.394 167.441 252.414 164.182 252.731L47.1073 264.11C43.4749 264.461 40.1593 261.825 39.7293 258.251L11.5979 21.7969C11.1793 18.2451 13.8385 15.372 17.5048 15.4059L135.779 16.6615C139.072 16.7068 142.093 19.4781 142.5 22.8262Z" fill="#D8DEE8"/>
<path d="M79.7196 9.3892C79.878 10.6679 78.9501 11.6977 77.6601 11.6863C76.3701 11.675 75.1932 10.6113 75.0461 9.33262C74.8877 8.04261 75.8156 7.02418 77.1056 7.03549C78.3956 7.04681 79.5611 8.1105 79.7196 9.3892Z" fill="#4B6182"/>
<path opacity="0.1" d="M122.256 172.658C98.2889 128.362 62.4854 115.105 51.7013 69.4521C45.8736 44.7705 49.8455 21.1523 56.5332 1.54956L11.8127 0.791694C7.86349 0.723825 5.00055 3.78923 5.45319 7.61249L35.893 263.579C36.3456 267.413 39.9214 270.241 43.8254 269.857L141.685 260.117C142.41 220.426 132.938 192.396 122.256 172.658Z" fill="#DFEEFF"/>
<path opacity="0.1" d="M78.2966 89.0562L58.7433 133.461C58.1561 134.817 57.9221 136.3 58.0629 137.771C58.2037 139.242 58.7149 140.654 59.5487 141.874C60.3825 143.095 61.5119 144.084 62.8315 144.75C64.1511 145.417 65.618 145.738 67.0954 145.685L116.602 143.782C118.177 143.722 119.707 143.239 121.03 142.382C122.353 141.525 123.421 140.327 124.119 138.914C124.818 137.502 125.122 135.927 125 134.356C124.877 132.785 124.333 131.276 123.424 129.988L93.4595 87.5214C92.564 86.2571 91.349 85.2531 89.9384 84.6117C88.5279 83.9703 86.9723 83.7146 85.4305 83.8707C83.8888 84.0267 82.416 84.589 81.1627 85.5C79.9094 86.411 78.9204 87.6382 78.2966 89.0562Z" fill="#7183A5"/>
<path d="M83.8652 86.9063L64.456 129.345C63.8689 130.635 63.6189 132.053 63.7295 133.466C63.84 134.879 64.3075 136.24 65.0882 137.423C65.8688 138.606 66.937 139.572 68.1928 140.23C69.4486 140.888 70.8509 141.216 72.2684 141.185L119.3 140.165C120.794 140.127 122.25 139.69 123.517 138.899C124.784 138.109 125.818 136.995 126.509 135.671C127.201 134.347 127.526 132.863 127.451 131.372C127.375 129.88 126.903 128.436 126.081 127.189L98.4968 85.7507C97.6706 84.5013 96.5247 83.496 95.1782 82.8393C93.8317 82.1826 92.3338 81.8984 90.8402 82.0164C89.3466 82.1344 87.9119 82.6502 86.6853 83.5101C85.4586 84.3701 84.4849 85.5428 83.8652 86.9063Z" fill="#22C55E"/>
<path d="M72.7939 137.586C71.9324 137.593 71.0831 137.382 70.3249 136.973C69.5667 136.564 68.9243 135.97 68.4573 135.247C67.9682 134.543 67.668 133.725 67.5856 132.872C67.5033 132.019 67.6414 131.159 67.9869 130.374L87.4422 87.8212C87.7805 87.0774 88.3236 86.4451 89.0079 85.9981C89.6922 85.5512 90.4895 85.308 91.3069 85.2969C92.1688 85.2919 93.018 85.5045 93.7758 85.915C94.5337 86.3255 95.1755 86.9206 95.642 87.6451L123.338 129.147C123.828 129.85 124.129 130.668 124.213 131.521C124.297 132.374 124.161 133.235 123.817 134.02C123.477 134.762 122.934 135.393 122.25 135.838C121.566 136.284 120.77 136.526 119.954 136.536L72.7939 137.586Z" fill="#DFEEFF"/>
<path d="M91.1717 99.245L94.1662 99.176C95.1274 99.1866 96.0507 99.5519 96.7587 100.202C97.4667 100.852 97.9093 101.741 98.0014 102.697L98.3674 106.756C98.382 106.905 98.3883 107.055 98.386 107.205L98.1189 119.74C98.1205 120.588 97.7873 121.401 97.1917 122.004C96.5961 122.607 95.7864 122.951 94.9388 122.96C94.0527 122.954 93.1952 122.645 92.509 122.085C91.8229 121.524 91.3496 120.745 91.1677 119.878L88.4684 107.452C88.4347 107.306 88.4105 107.159 88.3959 107.011L87.9973 102.938C87.9328 102.481 87.9665 102.017 88.096 101.574C88.2255 101.132 88.4478 100.723 88.7483 100.373C89.0487 100.024 89.4203 99.7421 89.8382 99.5476C90.2561 99.3531 90.7107 99.2499 91.1717 99.245ZM94.9275 126.368L95.7438 126.351C96.6065 126.351 97.438 126.674 98.0742 127.256C98.7103 127.838 99.105 128.638 99.1801 129.497C99.2337 129.9 99.2017 130.311 99.0861 130.701C98.9706 131.091 98.7741 131.452 98.5094 131.761C98.2448 132.07 97.9179 132.32 97.5502 132.494C97.1824 132.669 96.7821 132.763 96.3752 132.773L95.5589 132.789C94.6973 132.79 93.8666 132.469 93.2303 131.888C92.594 131.307 92.1983 130.509 92.1211 129.652C92.0676 129.248 92.0997 128.837 92.2153 128.447C92.3308 128.056 92.5274 127.694 92.792 127.384C93.0567 127.075 93.3836 126.824 93.7516 126.649C94.1195 126.474 94.5201 126.378 94.9275 126.368Z" fill="#22C55E"/>
<path d="M68.1108 173.127L65.1269 169.679C65.1269 169.679 62.9436 166.39 64.8795 162.084C66.8154 157.792 68.9259 159.159 68.9259 159.159L68.0962 162.229C68.0962 162.229 67.5431 164.208 69.2752 166.856C70.7599 169.999 70.8909 172.327 70.8909 172.327L68.1108 173.127Z" fill="#FFC1B5"/>
<path d="M200.945 195.49L204.802 192.478L206.854 186.644C206.854 186.644 211.148 188.71 208.324 194.152C206.65 195.912 202.662 198.444 200.843 201.063C199.038 203.696 200.945 195.49 200.945 195.49Z" fill="#FFC1B5"/>
<path d="M161.179 237.248C161.179 237.248 179.46 226.35 183.958 222.858C188.645 219.206 202.4 201.79 203.535 200.059C204.671 198.327 200.828 194.413 200.828 194.413C200.828 194.413 178.82 218.086 154.061 208.803C157.409 218.129 161.179 237.248 161.179 237.248Z" fill="#22C55E"/>
<path d="M155.08 381.392C155.08 381.392 157.03 387.576 156.201 390.195C158.777 390.34 160.451 390.122 160.451 390.122C160.451 390.122 159.621 387.299 159.519 385.932C159.388 384.084 159.621 381.116 159.621 381.116L155.08 381.392Z" fill="#FFC1B5"/>
<path d="M116.93 393.905C117.076 394.109 117.323 394.517 117.294 395.041C117.279 395.332 117.207 395.565 117.105 395.768C116.624 396.816 115.969 396.904 115.198 397.995C114.718 398.665 114.79 398.869 114.383 399.16C113.844 399.538 113.218 399.509 112.694 399.48C111.792 399.422 110.496 399.291 108.866 398.985C109.812 397.937 110.802 396.889 111.85 395.827C112.316 395.361 112.767 394.91 113.233 394.458L115.824 393.789C116.188 393.832 116.566 393.876 116.93 393.905Z" fill="#74C58F"/>
<path d="M115.736 381.509C115.736 381.509 113.742 388.929 115.416 391.17C116.828 393.396 114.616 391.723 114.616 391.723L111.675 393.934L109.798 396.684C109.798 396.684 111.865 389.438 111.675 386.485C111.486 383.531 111.428 381.552 111.428 381.552L115.736 381.509Z" fill="#FFC1B5"/>
<path d="M135.343 206.839C127.73 205.908 115.111 203.391 101.559 195.665C86.7127 187.197 77.7029 176.459 73.0888 170.057C70.7308 171.017 68.3728 171.978 66.0148 172.923C72.5211 191.082 81.5164 200.452 88.765 205.675C94.7037 209.953 101.588 212.979 108.968 221.447C114.266 227.529 117.367 233.611 119.172 237.844C124.557 227.514 129.943 217.169 135.343 206.839Z" fill="#22C55E"/>
<path d="M119.506 255.479C119.506 255.479 114.019 259.713 112.621 278.686C111.224 297.659 107.92 354.112 107.92 354.112L109.652 383.895C109.652 383.895 113.699 384.332 116.464 383.72C119.725 372.779 125.081 354.272 124.353 338.413C124.804 321.273 133.974 300.409 133.974 300.409C133.974 300.409 138.88 322.582 142.693 333.757C146.507 344.945 152.78 379.559 153.406 382.062C158.762 382.949 161.179 381.698 161.179 381.698C161.179 381.698 160.422 344.887 158.18 330.818C155.939 316.748 161.382 268.355 156.652 258.476C144.804 252.7 119.506 255.479 119.506 255.479Z" fill="url(#paint0_linear_62_3338)"/>
<path d="M119.506 255.479C119.506 255.479 114.019 259.713 112.621 278.686C111.224 297.659 107.92 354.112 107.92 354.112L109.652 383.895C109.652 383.895 113.684 384.332 116.464 383.72C119.725 372.779 125.081 354.272 124.353 338.413C124.804 321.273 133.974 300.409 133.974 300.409C133.974 300.409 138.88 322.582 142.693 333.757C146.507 344.945 152.78 379.559 153.406 382.062C158.762 382.949 161.179 381.698 161.179 381.698C161.179 381.698 160.422 344.887 158.18 330.818C155.939 316.748 161.382 268.355 156.652 258.476C144.804 252.7 119.506 255.479 119.506 255.479Z" fill="#054468"/>
<path d="M155.4 392.436C155.4 392.436 154.803 392.392 154.803 393.163C154.803 393.935 154.279 396.555 157.307 396.904C160.32 397.254 160.815 396.948 160.917 396.948C161.019 396.948 160.305 394.357 160.305 394.357L159.432 393.047L156.841 392.581L155.4 392.436Z" fill="#74C58F"/>
<path d="M161.921 395.578C161.907 394.938 161.615 393.905 161.324 393.061C160.873 391.824 161.353 391.402 160.917 390.268C160.771 389.875 160.626 389.511 160.276 389.118C160.204 389.031 159.418 388.202 158.195 388.143C157.962 388.129 157.584 388.129 157.176 388.303C156.681 388.522 156.419 388.871 156.201 389.191C155.851 389.686 155.91 389.846 155.313 391.301C155.269 391.417 155.167 391.664 155.065 392.028C154.993 392.305 154.964 392.523 154.934 392.683C155.735 392.741 158.777 393.09 159.388 393.614C160 394.138 160.262 394.953 160.204 395.738C160.145 396.539 160.509 396.931 160.917 396.931C161.266 396.96 162.023 396.349 161.921 395.578Z" fill="#22C55E"/>
<path d="M114.718 390.05C115.402 390.108 115.853 390.69 116.144 392.028C116.42 393.367 118.153 394.647 116.057 394.225C113.961 393.789 112.214 396.67 111.37 397.717C110.54 398.765 108.43 399.609 108.561 398.518C108.692 397.441 109.623 397.004 109.958 395.913C110.293 394.836 113.16 389.919 114.718 390.05Z" fill="#22C55E"/>
<path d="M149.156 321.549C150.539 324.154 152.533 328.911 151.951 349.616C151.878 351.944 151.528 363.278 153.028 370.524C153.435 372.517 153.945 375.165 155.604 377.755C156.608 379.312 157.642 380.81 158.69 382.294C160.378 382.105 161.164 381.698 161.164 381.698C161.164 381.698 160.407 344.887 158.166 330.817C155.924 316.748 161.368 268.355 156.637 258.476C144.789 252.7 119.506 255.464 119.506 255.464C119.506 255.464 114.019 259.698 112.622 278.671C112.287 283.283 111.821 290.136 111.341 297.833C113.087 299.186 115.678 300.772 119.026 301.281C127.395 302.533 131.748 295.651 136.274 297.746C139.942 299.434 138.254 304.453 143.814 314.085C146.478 318.683 147.322 318.086 149.156 321.549Z" fill="#03314B"/>
<path d="M147.424 207.625C142.882 207.159 131.383 205.035 125.576 210.054C123.465 211.873 121.85 213.677 120.569 215.656C116.799 221.505 116.173 227.252 115.969 229.246C113.553 251.405 102.942 263.525 108.895 274.903C117.861 292.028 157.438 294.152 166.491 280.766C173.362 270.625 159.097 256.876 167.554 242.908C171.79 235.924 173.696 227.732 177.554 220.516C177.655 220.341 178.034 219.774 177.816 219.192C177 216.98 167.83 218.624 165.298 215.132C160.829 208.963 151.994 208.105 147.424 207.625Z" fill="#22C55E"/>
<path d="M144.542 200.364C145.109 197.571 147.482 195.927 147.991 195.577C150.146 194.108 150.568 193.977 151.281 193.89L152.242 193.817C152.242 193.817 152.3 193.817 152.343 193.831C152.897 193.904 154.527 194.69 154.818 194.923C155.735 195.679 154.672 200.481 151.266 206.286C151.106 206.795 150.961 207.29 150.801 207.799C155.822 208.92 156.972 209.589 156.943 209.996C156.87 210.782 152.373 211.189 148.413 210.826C143.421 210.36 138.268 208.556 138.414 207.61C138.472 207.174 139.709 206.708 145.037 206.723C145.444 206.228 145.852 205.733 146.259 205.238C145.968 204.787 144.12 202.416 144.542 200.364Z" fill="#FFC1B5"/>
<path d="M151.426 191.911C150.582 193.089 150.044 195.185 150.16 195.839C150.291 196.61 150.509 196.698 150.451 197.192C150.262 198.575 147.686 198.982 147.788 199.695C147.846 200.204 149.17 200.117 149.36 200.757C149.563 201.455 148.079 201.936 147.322 203.623C147.205 203.885 146.507 205.471 147.176 206.49C147.817 207.435 149.403 207.334 151.179 207.246C153.144 207.13 154.585 206.664 155.022 206.519C156.361 206.053 157.787 205.544 159.039 204.22C159.083 204.176 159.126 204.133 159.184 204.06C160.815 202.227 161.091 199.797 161.164 199.186C161.848 193.584 164.57 190.849 163.085 189.03C161.048 186.557 153.653 188.797 151.426 191.911Z" fill="#2C3C55"/>
<path d="M148.661 199.608C149.432 199.215 149.927 200.219 149.52 201.02C149.112 201.835 147.89 202.271 147.22 201.718C146.55 201.165 147.613 200.132 148.661 199.608Z" fill="#FAA08E"/>
<path opacity="0.2" d="M152.518 260.659C149.17 262.899 146.303 262.012 141.485 266.056C137.555 269.359 136.405 271.469 134.935 273.957C129.87 282.57 115.853 277.274 107.512 271.207C107.804 272.458 108.24 273.681 108.881 274.903C117.847 292.028 157.423 294.152 166.477 280.766C173.347 270.625 159.083 256.876 167.539 242.908C170.043 238.79 171.731 234.251 173.493 229.726C177.83 227.034 182.08 224.299 183.943 222.844C185.355 221.738 187.597 219.381 190.071 216.587C187.087 218.886 182.284 222.102 175.749 224.24C168.107 226.743 166.943 224.895 163.871 226.947C154.119 233.392 162.692 253.835 152.518 260.659Z" fill="#E6F5EB"/>
<defs>
<linearGradient id="paint0_linear_62_3338" x1="109.697" y1="318.342" x2="165.541" y2="322.459" gradientUnits="userSpaceOnUse">
<stop stop-color="#311944"/>
<stop offset="1" stop-color="#893976"/>
</linearGradient>
</defs>
</svg>
