<svg width="628" height="632" viewBox="0 0 628 632" fill="none" xmlns="http://www.w3.org/2000/svg">
<path d="M626.83 378.759C626.109 399.127 623.607 419.675 618.355 439.794C618.22 440.335 618.084 440.876 617.927 441.417C617.341 443.602 616.777 445.788 616.146 447.973C614.726 452.659 613.148 457.323 611.39 461.942C604.042 481.431 593.719 500.289 579.474 517.908C548.843 555.85 500.113 588.068 424.087 608.594C379.075 620.76 326.648 626.731 279.969 623.036C254.612 621.031 228.782 615.533 203.425 607.648C160.081 594.152 118.067 573.604 81.9366 551.434C42.3121 527.101 26.5345 494.273 20.9672 457.143C20.9221 456.873 20.877 456.58 20.832 456.287C19.6148 447.86 18.8935 439.254 18.5329 430.444C17.9243 415.507 18.3526 400.073 19.0513 384.392C19.6148 371.707 19.2993 359.022 18.3075 346.338C18.1723 344.603 18.037 342.868 17.8567 341.156C16.279 324.167 13.5517 307.224 10.0355 290.484C8.70569 284.063 7.26316 277.664 5.70793 271.311C-8.04118 214.466 3.27366 154.85 37.2182 105.936C71.1402 57.0446 124.762 23.0234 185.889 11.5778C288.895 -7.68586 393.41 5.0214 393.41 5.0214C526.844 18.8777 596.446 147.685 616.056 256.823C616.664 260.271 617.25 263.673 617.769 267.075C622.93 300.645 628.227 339.353 626.83 378.759Z" fill="#F5F8FD"/>
<path d="M611.413 461.965C604.065 481.454 593.742 500.312 579.497 517.931C548.865 555.872 500.135 588.091 424.109 608.616C379.098 620.783 326.671 626.754 279.991 623.059C278.91 622.968 277.85 622.878 276.768 622.788C275.686 622.698 274.604 622.585 273.545 622.473C272.283 622.338 271.021 622.202 269.736 622.067C268.834 621.977 267.955 621.864 267.054 621.752C266.242 621.639 265.431 621.549 264.619 621.436C264.169 621.391 263.718 621.324 263.267 621.256C262.478 621.143 261.667 621.031 260.878 620.918C260.382 620.851 259.864 620.76 259.368 620.693C258.241 620.535 257.091 620.355 255.964 620.175C255.198 620.062 254.454 619.927 253.688 619.814C253.372 619.769 253.057 619.702 252.741 619.656C252.11 619.544 251.456 619.454 250.825 619.319C246.971 618.643 243.139 617.899 239.285 617.088C237.144 616.637 235.003 616.164 232.861 615.669C231.599 615.376 230.337 615.083 229.075 614.767C228.489 614.632 227.88 614.474 227.294 614.339C221.051 612.807 214.83 611.117 208.631 609.27C207.685 609 206.738 608.707 205.791 608.414C205.002 608.166 204.214 607.918 203.425 607.67C160.081 594.174 118.067 573.626 81.9366 551.456C42.3121 527.123 26.5344 494.296 20.9672 457.166C20.9221 456.895 20.877 456.602 20.8319 456.31C19.6148 447.883 18.8935 439.276 18.5329 430.467C17.9243 415.529 18.3526 400.096 19.0513 384.414C19.6148 371.73 19.2992 359.045 18.3075 346.36C18.1722 344.625 18.037 342.89 17.8567 341.178C78.4429 338.024 188.842 345.617 280.262 425.307C284.026 428.574 287.745 431.999 291.442 435.514C394.334 533.747 508.069 447.162 611.413 461.965Z" fill="#D8DEE8"/>
<path opacity="0.4" d="M611.413 461.965C604.065 481.454 593.742 500.312 579.497 517.931C548.866 555.872 500.135 588.091 424.109 608.616C379.098 620.783 326.671 626.754 279.992 623.059C278.91 622.968 277.85 622.878 276.768 622.788C275.687 622.698 274.605 622.585 273.545 622.473C272.283 622.338 271.021 622.202 269.736 622.067C268.835 621.977 267.955 621.864 267.054 621.752C266.242 621.639 265.431 621.549 264.62 621.436C264.169 621.391 263.718 621.324 263.267 621.256C262.478 621.143 261.667 621.031 260.878 620.918C260.382 620.851 259.864 620.76 259.368 620.693C258.241 620.535 257.091 620.355 255.964 620.175C255.198 620.062 254.454 619.927 253.688 619.814C253.372 619.769 253.057 619.701 252.741 619.656C252.11 619.544 251.457 619.454 250.825 619.318C246.971 618.643 243.139 617.899 239.285 617.088C237.144 616.637 235.003 616.164 232.861 615.668C231.599 615.376 230.337 615.083 229.075 614.767C228.489 614.632 227.88 614.474 227.294 614.339C221.051 612.807 214.83 611.117 208.631 609.27C207.685 608.999 206.738 608.707 205.791 608.414C205.003 608.166 204.214 607.918 203.425 607.67C208.97 600.843 224.454 594.828 252.786 590.096C414.598 563.15 338.346 536.18 265.679 501.01C209.217 473.726 210.051 457.729 280.307 425.307C284.071 428.574 287.79 431.999 291.487 435.514C394.335 533.747 508.069 447.162 611.413 461.965Z" fill="#D8DEE8"/>
<path d="M515.327 423.55C515.327 423.82 514.898 427.11 513.771 431.819C513.456 433.103 513.05 434.522 512.622 435.987C512.622 435.987 512.622 435.987 512.622 436.009C510.526 443.039 506.762 451.713 500.18 458.63C486.995 472.419 473.877 604.065 473.877 604.065H448.903C448.903 604.065 448.88 604.02 448.835 603.479C447.708 591.335 434.387 471.923 421.878 458.833C415.341 452.006 411.397 443.287 409.143 436.235C408.67 434.68 408.061 433.216 407.746 431.864C406.619 427.132 405.942 423.865 405.942 423.573V423.55L460.443 423.82L515.327 423.55Z" fill="#97A6B7"/>
<path d="M461.345 606.771C468.253 606.771 473.854 605.449 473.854 603.819C473.854 602.188 468.253 600.866 461.345 600.866C454.436 600.866 448.835 602.188 448.835 603.819C448.835 605.449 454.436 606.771 461.345 606.771Z" fill="#97A6B7"/>
<path d="M515.327 423.55C515.327 423.55 514.899 427.11 513.772 431.819C513.456 433.103 513.05 434.522 512.622 435.987C512.599 435.987 512.577 435.987 512.554 436.009C497.723 440.493 479.759 443.107 460.466 443.107C441.487 443.107 423.816 440.583 409.12 436.257C408.647 434.703 408.219 433.238 407.903 431.886C406.776 427.155 406.303 423.888 406.281 423.595L460.263 423.956L515.169 423.573H515.327V423.55Z" fill="#D8DEE8"/>
<path d="M460.601 434.905C540.693 434.905 605.62 370.004 605.62 289.943C605.62 209.883 540.693 144.981 460.601 144.981C380.509 144.981 315.581 209.883 315.581 289.943C315.581 370.004 380.509 434.905 460.601 434.905Z" fill="white"/>
<mask id="mask0_62_2677" style="mask-type:luminance" maskUnits="userSpaceOnUse" x="315" y="144" width="291" height="291">
<path d="M460.601 434.905C540.693 434.905 605.62 370.004 605.62 289.943C605.62 209.883 540.693 144.981 460.601 144.981C380.509 144.981 315.581 209.883 315.581 289.943C315.581 370.004 380.509 434.905 460.601 434.905Z" fill="white"/>
</mask>
<g mask="url(#mask0_62_2677)">
<path d="M330.209 170.554C327.685 176.299 321.126 182.247 315.288 184.005C309.473 185.739 306.949 182.923 309.946 177.561C312.944 172.221 319.954 166.003 325.296 163.862C330.638 161.722 332.734 164.808 330.209 170.554Z" fill="url(#paint0_linear_62_2677)"/>
<path d="M359.984 162.082C358.023 168.233 351.892 174.204 346.077 175.578C340.262 176.952 337.309 173.438 339.721 167.602C342.133 161.767 348.624 155.526 353.966 153.859C359.33 152.169 361.923 155.931 359.984 162.082Z" fill="url(#paint1_linear_62_2677)"/>
<path d="M389.759 155.751C388.384 162.195 382.681 168.121 376.866 169.134C371.051 170.126 367.67 166.025 369.518 159.807C371.344 153.588 377.317 147.415 382.659 146.176C388.001 144.959 391.134 149.307 389.759 155.751Z" fill="url(#paint2_linear_62_2677)"/>
<path d="M419.556 151.628C418.767 158.275 413.493 164.042 407.678 164.696C401.863 165.327 398.053 160.708 399.316 154.219C400.555 147.73 406.01 141.692 411.374 140.903C416.694 140.092 420.322 144.981 419.556 151.628Z" fill="url(#paint3_linear_62_2677)"/>
<path d="M449.331 149.646C449.128 156.382 444.259 161.925 438.444 162.195C432.629 162.466 428.414 157.396 429.068 150.75C429.744 144.081 434.68 138.268 440.022 137.93C445.364 137.592 449.533 142.932 449.331 149.646Z" fill="url(#paint4_linear_62_2677)"/>
<path d="M479.105 149.848C479.488 156.562 475.048 161.812 469.233 161.722C463.418 161.632 458.775 156.224 458.865 149.488C458.955 142.751 463.373 137.254 468.715 137.366C474.056 137.456 478.722 143.134 479.105 149.848Z" fill="url(#paint5_linear_62_2677)"/>
<path d="M508.88 152.215C509.849 158.793 505.815 163.66 500.022 163.209C494.207 162.759 489.136 157.059 488.64 150.367C488.144 143.675 492.043 138.561 497.385 139.124C502.727 139.687 507.933 145.613 508.88 152.215Z" fill="url(#paint6_linear_62_2677)"/>
<path d="M538.655 156.742C540.187 163.119 536.604 167.49 530.789 166.656C524.973 165.822 519.474 159.964 518.392 153.408C517.31 146.852 520.691 142.233 526.055 143.224C531.42 144.261 537.122 150.366 538.655 156.742Z" fill="url(#paint7_linear_62_2677)"/>
<path d="M568.452 163.434C570.571 169.472 567.415 173.28 561.6 172.108C555.785 170.914 549.857 164.966 548.189 158.635C546.544 152.326 549.406 148.248 554.748 149.713C560.09 151.177 566.333 157.396 568.452 163.434Z" fill="url(#paint8_linear_62_2677)"/>
<path d="M598.227 172.311C600.932 177.921 598.204 181.098 592.389 179.543C586.574 177.989 580.218 172.018 577.986 166.048C575.755 160.099 578.099 156.652 583.441 158.567C588.783 160.483 595.522 166.701 598.227 172.311Z" fill="url(#paint9_linear_62_2677)"/>
<path d="M334.717 197.027C333.027 202.998 326.783 208.653 320.517 209.78C314.274 210.906 310.622 207.346 312.651 201.736C314.68 196.126 321.329 190.291 327.234 188.804C333.139 187.317 336.385 191.057 334.717 197.027Z" fill="url(#paint10_linear_62_2677)"/>
<path d="M367.152 191.463C365.912 197.771 359.962 203.494 353.696 204.35C347.452 205.206 343.485 201.083 345.085 195.045C346.686 189.007 352.929 183.081 358.835 181.955C364.74 180.851 368.391 185.154 367.152 191.463Z" fill="url(#paint11_linear_62_2677)"/>
<path d="M399.586 187.542C398.775 194.099 393.14 199.799 386.874 200.407C380.63 200.993 376.37 196.397 377.52 190.043C378.669 183.69 384.53 177.787 390.435 176.998C396.34 176.209 400.375 181.008 399.586 187.542Z" fill="url(#paint12_linear_62_2677)"/>
<path d="M432.02 185.267C431.637 191.959 426.318 197.569 420.052 197.907C413.786 198.245 409.233 193.243 409.954 186.664C410.675 180.085 416.13 174.272 422.035 173.844C427.941 173.371 432.381 178.576 432.02 185.267Z" fill="url(#paint13_linear_62_2677)"/>
<path d="M464.455 184.591C464.522 191.327 459.496 196.735 453.23 196.825C446.987 196.892 442.095 191.575 442.388 184.884C442.681 178.169 447.73 172.559 453.636 172.469C459.541 172.357 464.387 177.854 464.455 184.591Z" fill="url(#paint14_linear_62_2677)"/>
<path d="M496.889 185.56C497.385 192.229 492.674 197.366 486.408 197.185C480.142 196.983 474.981 191.463 474.823 184.726C474.665 178.012 479.331 172.65 485.214 172.92C491.142 173.168 496.393 178.891 496.889 185.56Z" fill="url(#paint15_linear_62_2677)"/>
<path d="M529.323 188.128C530.27 194.617 525.852 199.416 519.586 198.965C513.32 198.492 507.843 192.837 507.257 186.19C506.671 179.544 510.931 174.565 516.814 175.173C522.742 175.781 528.377 181.639 529.323 188.128Z" fill="url(#paint16_linear_62_2677)"/>
<path d="M561.758 192.341C563.133 198.56 559.03 202.93 552.787 202.209C546.521 201.488 540.728 195.743 539.714 189.299C538.7 182.856 542.531 178.305 548.437 179.251C554.342 180.22 560.383 186.145 561.758 192.341Z" fill="url(#paint17_linear_62_2677)"/>
<path d="M594.192 198.199C595.995 204.034 592.209 207.887 585.965 206.896C579.699 205.904 573.614 200.204 572.149 194.053C570.683 187.902 574.132 183.87 580.037 185.176C585.943 186.461 592.389 192.364 594.192 198.199Z" fill="url(#paint18_linear_62_2677)"/>
<path d="M626.627 205.657C628.881 211.019 625.387 214.241 619.144 213.002C612.878 211.74 606.476 206.152 604.583 200.407C602.69 194.662 605.732 191.237 611.638 192.882C617.543 194.527 624.395 200.317 626.627 205.657Z" fill="url(#paint19_linear_62_2677)"/>
<path d="M344.454 226.002C343.485 232.152 337.535 237.582 330.976 238.191C324.417 238.799 319.909 234.608 321.103 228.773C322.298 222.937 328.609 217.395 334.92 216.471C341.254 215.547 345.424 219.851 344.454 226.002Z" fill="url(#paint20_linear_62_2677)"/>
<path d="M378.782 222.847C378.106 229.291 372.336 234.834 365.777 235.262C359.218 235.712 354.507 231.071 355.431 224.875C356.355 218.657 362.373 213.001 368.685 212.326C375.018 211.65 379.458 216.404 378.782 222.847Z" fill="url(#paint21_linear_62_2677)"/>
<path d="M413.132 220.775C412.749 227.422 407.159 232.964 400.623 233.257C394.064 233.527 389.173 228.548 389.781 222.059C390.413 215.571 396.138 209.893 402.449 209.465C408.76 209.037 413.516 214.151 413.132 220.775Z" fill="url(#paint22_linear_62_2677)"/>
<path d="M447.46 219.783C447.347 226.497 441.983 231.995 435.424 232.13C428.865 232.243 423.771 226.993 424.109 220.346C424.447 213.677 429.902 208.067 436.213 207.865C442.524 207.684 447.55 213.069 447.46 219.783Z" fill="url(#paint23_linear_62_2677)"/>
<path d="M481.788 219.896C481.968 226.61 476.784 231.95 470.225 231.927C463.666 231.882 458.392 226.452 458.437 219.715C458.482 212.979 463.643 207.504 469.977 207.571C476.288 207.616 481.607 213.182 481.788 219.896Z" fill="url(#paint24_linear_62_2677)"/>
<path d="M516.116 221.068C516.589 227.647 511.585 232.784 505.049 232.581C498.49 232.378 493.013 226.836 492.765 220.144C492.517 213.453 497.408 208.203 503.719 208.496C510.052 208.811 515.642 214.489 516.116 221.068Z" fill="url(#paint25_linear_62_2677)"/>
<path d="M550.466 223.343C551.232 229.697 546.431 234.518 539.872 234.158C533.313 233.797 527.656 228.232 527.115 221.676C526.574 215.119 531.172 210.185 537.505 210.726C543.817 211.289 549.699 216.967 550.466 223.343Z" fill="url(#paint26_linear_62_2677)"/>
<path d="M584.794 226.7C585.853 232.738 581.232 237.154 574.673 236.636C568.114 236.118 562.277 230.62 561.443 224.312C560.609 218.003 564.936 213.452 571.247 214.263C577.581 215.029 583.734 220.662 584.794 226.7Z" fill="url(#paint27_linear_62_2677)"/>
<path d="M619.121 231.116C620.474 236.726 616.033 240.646 609.497 239.971C602.938 239.272 596.897 233.932 595.77 227.984C594.666 222.036 598.701 217.958 605.012 218.995C611.345 220.053 617.769 225.528 619.121 231.116Z" fill="url(#paint28_linear_62_2677)"/>
<path d="M322.839 258.964C322.275 264.934 316.573 269.936 309.856 270.207C303.139 270.454 298.045 266.151 298.722 260.541C299.398 254.931 305.506 249.861 312.088 249.231C318.692 248.622 323.402 253.016 322.839 258.964Z" fill="url(#paint29_linear_62_2677)"/>
<path d="M358.316 257.116C357.888 263.425 352.253 268.674 345.559 268.877C338.842 269.08 333.681 264.349 334.199 258.31C334.74 252.272 340.668 246.955 347.272 246.482C353.853 246.031 358.722 250.808 358.316 257.116Z" fill="url(#paint30_linear_62_2677)"/>
<path d="M393.793 255.81C393.523 262.367 387.956 267.774 381.239 267.909C374.522 268.044 369.293 263.02 369.676 256.644C370.059 250.29 375.852 244.815 382.433 244.5C389.015 244.162 394.041 249.254 393.793 255.81Z" fill="url(#paint31_linear_62_2677)"/>
<path d="M429.248 255.044C429.113 261.735 423.613 267.21 416.919 267.278C410.202 267.345 404.883 262.096 405.131 255.494C405.379 248.915 410.991 243.373 417.573 243.193C424.177 243.035 429.383 248.352 429.248 255.044Z" fill="url(#paint32_linear_62_2677)"/>
<path d="M464.725 254.818C464.748 261.555 459.316 266.985 452.622 267.007C445.905 267.03 440.518 261.622 440.608 254.908C440.698 248.194 446.153 242.697 452.757 242.652C459.338 242.629 464.703 248.104 464.725 254.818Z" fill="url(#paint33_linear_62_2677)"/>
<path d="M500.203 255.156C500.36 261.825 495.018 267.165 488.302 267.12C481.585 267.075 476.13 261.6 476.085 254.886C476.04 248.172 481.337 242.765 487.918 242.855C494.5 242.945 500.022 248.487 500.203 255.156Z" fill="url(#paint34_linear_62_2677)"/>
<path d="M535.68 256.013C535.995 262.502 530.698 267.661 524.004 267.549C517.287 267.436 511.765 262.006 511.562 255.36C511.36 248.736 516.499 243.508 523.08 243.756C529.662 244.004 535.364 249.524 535.68 256.013Z" fill="url(#paint35_linear_62_2677)"/>
<path d="M571.134 257.409C571.585 263.628 566.379 268.517 559.662 268.337C552.945 268.179 547.355 262.839 546.995 256.395C546.656 249.952 551.615 244.995 558.197 245.4C564.823 245.806 570.684 251.191 571.134 257.409Z" fill="url(#paint36_linear_62_2677)"/>
<path d="M606.612 259.369C607.22 265.205 602.081 269.733 595.365 269.508C588.648 269.283 582.99 264.123 582.494 257.995C582.021 251.844 586.8 247.248 593.404 247.789C599.985 248.307 606.026 253.534 606.612 259.369Z" fill="url(#paint37_linear_62_2677)"/>
<path d="M339.27 289.945C339.27 296.095 333.973 300.962 327.257 300.804C320.54 300.647 314.905 295.78 314.905 289.945C314.905 284.109 320.54 279.242 327.257 279.085C333.996 278.927 339.27 283.794 339.27 289.945Z" fill="url(#paint38_linear_62_2677)"/>
<path d="M375.131 289.944C375.131 296.388 369.789 301.525 363.072 301.412C356.355 301.299 350.765 296.162 350.765 289.944C350.765 283.726 356.355 278.589 363.072 278.476C369.789 278.363 375.131 283.5 375.131 289.944Z" fill="url(#paint39_linear_62_2677)"/>
<path d="M410.991 289.944C410.991 296.568 405.604 301.908 398.887 301.84C392.17 301.772 386.626 296.433 386.626 289.944C386.626 283.455 392.17 278.115 398.887 278.048C405.604 277.98 410.991 283.32 410.991 289.944Z" fill="url(#paint40_linear_62_2677)"/>
<path d="M446.829 289.944C446.829 296.658 441.397 302.11 434.68 302.065C427.963 302.043 422.464 296.59 422.464 289.944C422.464 283.275 427.963 277.845 434.68 277.822C441.397 277.777 446.829 283.23 446.829 289.944Z" fill="url(#paint41_linear_62_2677)"/>
<path d="M482.689 289.944C482.689 296.658 477.212 302.11 470.495 302.133C463.779 302.133 458.324 296.681 458.324 289.944C458.324 283.207 463.779 277.755 470.495 277.755C477.212 277.777 482.689 283.23 482.689 289.944Z" fill="url(#paint42_linear_62_2677)"/>
<path d="M518.55 289.944C518.55 296.523 513.027 301.93 506.311 301.975C499.594 302.02 494.184 296.635 494.184 289.944C494.184 283.252 499.594 277.845 506.311 277.912C513.005 277.958 518.527 283.365 518.55 289.944Z" fill="url(#paint43_linear_62_2677)"/>
<path d="M554.388 289.944C554.388 296.298 548.82 301.547 542.104 301.66C535.387 301.75 530.022 296.501 530.022 289.944C530.022 283.388 535.387 278.138 542.104 278.228C548.82 278.341 554.388 283.59 554.388 289.944Z" fill="url(#paint44_linear_62_2677)"/>
<path d="M590.248 289.944C590.248 295.982 584.635 301.007 577.919 301.142C571.202 301.277 565.883 296.253 565.883 289.944C565.883 283.636 571.202 278.611 577.919 278.747C584.613 278.882 590.248 283.906 590.248 289.944Z" fill="url(#paint45_linear_62_2677)"/>
<path d="M626.086 289.944C626.086 295.555 620.428 300.241 613.711 300.421C606.995 300.601 601.72 295.892 601.72 289.944C601.72 283.974 606.995 279.287 613.711 279.468C620.428 279.648 626.086 284.334 626.086 289.944Z" fill="url(#paint46_linear_62_2677)"/>
<path d="M322.839 320.923C323.402 326.894 318.692 331.265 312.088 330.657C305.506 330.048 299.398 324.956 298.722 319.346C298.046 313.736 303.162 309.41 309.856 309.681C316.573 309.929 322.275 314.953 322.839 320.923Z" fill="url(#paint47_linear_62_2677)"/>
<path d="M358.316 322.771C358.722 329.079 353.853 333.856 347.249 333.405C340.668 332.932 334.717 327.615 334.176 321.576C333.636 315.538 338.82 310.829 345.536 311.01C352.253 311.212 357.888 316.462 358.316 322.771Z" fill="url(#paint48_linear_62_2677)"/>
<path d="M393.794 324.077C394.064 330.634 389.015 335.726 382.434 335.41C375.852 335.095 370.059 329.62 369.676 323.266C369.293 316.913 374.545 311.866 381.239 312.001C387.933 312.114 393.523 317.521 393.794 324.077Z" fill="url(#paint49_linear_62_2677)"/>
<path d="M429.248 324.843C429.361 331.535 424.154 336.852 417.573 336.672C410.991 336.492 405.356 330.949 405.131 324.37C404.883 317.791 410.202 312.519 416.919 312.587C423.636 312.677 429.135 318.152 429.248 324.843Z" fill="url(#paint50_linear_62_2677)"/>
<path d="M464.725 325.069C464.703 331.805 459.338 337.258 452.734 337.235C446.153 337.19 440.698 331.693 440.586 324.979C440.495 318.265 445.882 312.857 452.599 312.88C459.316 312.88 464.748 318.332 464.725 325.069Z" fill="url(#paint51_linear_62_2677)"/>
<path d="M500.203 324.753C500.045 331.422 494.5 336.942 487.919 337.055C481.337 337.168 476.04 331.76 476.085 325.024C476.131 318.31 481.608 312.835 488.302 312.79C495.019 312.745 500.361 318.084 500.203 324.753Z" fill="url(#paint52_linear_62_2677)"/>
<path d="M535.68 323.875C535.364 330.363 529.662 335.883 523.08 336.131C516.499 336.379 511.36 331.152 511.563 324.528C511.766 317.881 517.288 312.452 524.004 312.339C530.699 312.226 535.996 317.386 535.68 323.875Z" fill="url(#paint53_linear_62_2677)"/>
<path d="M571.135 322.478C570.684 328.696 564.823 334.103 558.219 334.486C551.638 334.892 546.679 329.935 547.017 323.491C547.355 317.048 552.968 311.708 559.684 311.55C566.379 311.37 571.608 316.259 571.135 322.478Z" fill="url(#paint54_linear_62_2677)"/>
<path d="M606.612 320.541C606.003 326.376 599.985 331.581 593.403 332.122C586.822 332.662 582.021 328.066 582.494 321.915C582.99 315.764 588.67 310.627 595.364 310.402C602.081 310.177 607.22 314.705 606.612 320.541Z" fill="url(#paint55_linear_62_2677)"/>
<path d="M344.454 353.885C345.424 360.036 341.254 364.34 334.92 363.438C328.609 362.515 322.298 356.972 321.103 351.137C319.886 345.301 324.417 341.11 330.976 341.719C337.535 342.305 343.485 347.734 344.454 353.885Z" fill="url(#paint56_linear_62_2677)"/>
<path d="M378.782 357.04C379.458 363.483 374.996 368.237 368.685 367.561C362.373 366.886 356.355 361.23 355.431 355.012C354.507 348.793 359.241 344.175 365.777 344.625C372.359 345.053 378.106 350.596 378.782 357.04Z" fill="url(#paint57_linear_62_2677)"/>
<path d="M413.133 359.112C413.516 365.736 408.782 370.851 402.471 370.423C396.16 369.995 390.435 364.294 389.804 357.828C389.173 351.339 394.087 346.36 400.646 346.63C407.16 346.901 412.727 352.466 413.133 359.112Z" fill="url(#paint58_linear_62_2677)"/>
<path d="M447.46 360.104C447.55 366.818 442.524 372.203 436.213 372.022C429.902 371.842 424.447 366.21 424.109 359.54C423.771 352.871 428.865 347.622 435.424 347.757C441.983 347.87 447.347 353.367 447.46 360.104Z" fill="url(#paint59_linear_62_2677)"/>
<path d="M481.788 359.991C481.607 366.705 476.288 372.27 469.977 372.315C463.666 372.383 458.482 366.885 458.437 360.171C458.392 353.435 463.689 348.005 470.225 347.96C476.784 347.937 481.991 353.3 481.788 359.991Z" fill="url(#paint60_linear_62_2677)"/>
<path d="M516.116 358.82C515.642 365.399 510.052 371.076 503.719 371.392C497.408 371.707 492.517 366.435 492.765 359.743C493.013 353.052 498.49 347.509 505.049 347.307C511.608 347.104 516.611 352.218 516.116 358.82Z" fill="url(#paint61_linear_62_2677)"/>
<path d="M550.466 356.544C549.699 362.898 543.817 368.598 537.506 369.139C531.194 369.702 526.596 364.745 527.115 358.189C527.656 351.632 533.313 346.09 539.872 345.707C546.409 345.369 551.232 350.19 550.466 356.544Z" fill="url(#paint62_linear_62_2677)"/>
<path d="M584.794 353.187C583.734 359.225 577.581 364.835 571.27 365.646C564.959 366.435 560.631 361.906 561.465 355.598C562.299 349.289 568.159 343.792 574.696 343.273C581.232 342.755 585.853 347.171 584.794 353.187Z" fill="url(#paint63_linear_62_2677)"/>
<path d="M619.121 348.771C617.769 354.381 611.323 359.833 605.012 360.892C598.701 361.929 594.666 357.873 595.77 351.903C596.897 345.932 602.938 340.592 609.497 339.916C616.056 339.218 620.474 343.161 619.121 348.771Z" fill="url(#paint64_linear_62_2677)"/>
<path d="M334.717 382.882C336.385 388.83 333.139 392.593 327.234 391.106C321.329 389.619 314.68 383.784 312.651 378.173C310.622 372.563 314.274 369.026 320.517 370.13C326.783 371.256 333.027 376.912 334.717 382.882Z" fill="url(#paint65_linear_62_2677)"/>
<path d="M367.151 388.425C368.391 394.733 364.74 399.037 358.834 397.91C352.929 396.784 346.686 390.858 345.085 384.82C343.485 378.782 347.429 374.659 353.695 375.515C359.961 376.393 365.889 382.116 367.151 388.425Z" fill="url(#paint66_linear_62_2677)"/>
<path d="M399.586 392.345C400.397 398.902 396.34 403.678 390.435 402.912C384.53 402.123 378.692 396.22 377.52 389.867C376.37 383.513 380.63 378.917 386.874 379.503C393.14 380.066 398.775 385.789 399.586 392.345Z" fill="url(#paint67_linear_62_2677)"/>
<path d="M432.02 394.643C432.381 401.335 427.941 406.517 422.035 406.089C416.13 405.661 410.675 399.848 409.954 393.269C409.233 386.69 413.786 381.688 420.052 382.026C426.318 382.342 431.637 387.952 432.02 394.643Z" fill="url(#paint68_linear_62_2677)"/>
<path d="M464.455 395.297C464.387 402.033 459.541 407.508 453.636 407.441C447.73 407.351 442.681 401.74 442.388 395.026C442.095 388.312 446.987 383.018 453.23 383.085C459.496 383.153 464.522 388.56 464.455 395.297Z" fill="url(#paint69_linear_62_2677)"/>
<path d="M496.889 394.351C496.393 401.02 491.142 406.742 485.236 406.99C479.331 407.261 474.688 401.898 474.845 395.184C475.003 388.47 480.165 382.928 486.431 382.725C492.674 382.522 497.385 387.682 496.889 394.351Z" fill="url(#paint70_linear_62_2677)"/>
<path d="M529.323 391.759C528.377 398.248 522.742 404.106 516.836 404.714C510.931 405.323 506.694 400.321 507.28 393.697C507.866 387.05 513.343 381.395 519.609 380.922C525.852 380.472 530.27 385.271 529.323 391.759Z" fill="url(#paint71_linear_62_2677)"/>
<path d="M561.758 387.546C560.383 393.764 554.342 399.69 548.437 400.636C542.531 401.583 538.677 397.031 539.714 390.588C540.751 384.144 546.521 378.421 552.787 377.678C559.03 376.957 563.133 381.328 561.758 387.546Z" fill="url(#paint72_linear_62_2677)"/>
<path d="M594.192 381.711C592.389 387.546 585.92 393.449 580.037 394.734C574.132 396.04 570.683 392.007 572.149 385.856C573.614 379.706 579.699 374.005 585.965 373.014C592.209 372.023 596.018 375.875 594.192 381.711Z" fill="url(#paint73_linear_62_2677)"/>
<path d="M626.627 374.231C624.373 379.57 617.521 385.361 611.638 387.005C605.732 388.65 602.69 385.226 604.583 379.48C606.476 373.735 612.878 368.147 619.144 366.886C625.387 365.646 628.881 368.891 626.627 374.231Z" fill="url(#paint74_linear_62_2677)"/>
<path d="M330.209 409.333C332.734 415.079 330.66 418.143 325.296 416.025C319.954 413.885 312.944 407.689 309.946 402.326C306.949 396.964 309.473 394.17 315.288 395.883C321.103 397.64 327.662 403.588 330.209 409.333Z" fill="url(#paint75_linear_62_2677)"/>
<path d="M359.984 417.827C361.922 423.978 359.33 427.741 353.989 426.051C348.647 424.361 342.155 418.12 339.744 412.307C337.332 406.472 340.284 402.98 346.1 404.332C351.892 405.683 358.023 411.677 359.984 417.827Z" fill="url(#paint76_linear_62_2677)"/>
<path d="M389.759 424.136C391.111 430.58 388.001 434.951 382.659 433.712C377.317 432.472 371.344 426.299 369.518 420.081C367.693 413.862 371.051 409.761 376.866 410.753C382.681 411.767 388.406 417.692 389.759 424.136Z" fill="url(#paint77_linear_62_2677)"/>
<path d="M419.556 428.282C420.345 434.906 416.693 439.795 411.352 439.006C406.01 438.218 400.555 432.179 399.293 425.691C398.031 419.202 401.84 414.583 407.655 415.214C413.47 415.845 418.767 421.635 419.556 428.282Z" fill="url(#paint78_linear_62_2677)"/>
<path d="M449.331 430.242C449.533 436.956 445.364 442.296 440.022 441.935C434.68 441.597 429.744 435.784 429.067 429.115C428.391 422.446 432.629 417.399 438.444 417.67C444.259 417.963 449.128 423.528 449.331 430.242Z" fill="url(#paint79_linear_62_2677)"/>
<path d="M479.105 430.062C478.722 436.776 474.056 442.431 468.715 442.543C463.373 442.656 458.955 437.159 458.865 430.422C458.775 423.685 463.418 418.278 469.233 418.188C475.048 418.098 479.488 423.347 479.105 430.062Z" fill="url(#paint80_linear_62_2677)"/>
<path d="M508.88 427.696C507.911 434.275 502.727 440.223 497.385 440.786C492.043 441.349 488.144 436.235 488.64 429.543C489.136 422.852 494.207 417.174 500.022 416.701C505.837 416.25 509.849 421.094 508.88 427.696Z" fill="url(#paint81_linear_62_2677)"/>
<path d="M538.677 423.145C537.122 429.498 531.42 435.627 526.078 436.64C520.736 437.654 517.355 433.013 518.414 426.457C519.496 419.9 524.996 414.042 530.811 413.209C536.626 412.42 540.21 416.791 538.677 423.145Z" fill="url(#paint82_linear_62_2677)"/>
<path d="M568.452 416.453C566.333 422.491 560.09 428.71 554.748 430.174C549.406 431.639 546.544 427.56 548.189 421.252C549.857 414.943 555.762 408.973 561.6 407.779C567.415 406.607 570.571 410.415 568.452 416.453Z" fill="url(#paint83_linear_62_2677)"/>
<path d="M598.227 407.576C595.522 413.186 588.76 419.405 583.441 421.32C578.099 423.235 575.755 419.81 577.986 413.84C580.218 407.869 586.574 401.898 592.389 400.344C598.204 398.812 600.932 401.966 598.227 407.576Z" fill="url(#paint84_linear_62_2677)"/>
</g>
<path opacity="0.3" d="M485.619 392.705C405.536 392.705 340.6 327.817 340.6 247.743C340.6 229.539 343.958 212.145 350.089 196.081C328.587 221.383 315.604 254.142 315.604 289.943C315.604 369.995 380.518 434.905 460.623 434.905C522.517 434.905 575.327 396.153 596.153 341.606C569.534 372.856 529.887 392.705 485.619 392.705Z" fill="#BFC8D6"/>
<path d="M202.388 595.977C202.388 595.977 198.533 615.961 205.002 617.133C211.449 618.304 241.539 629.637 236.084 621.233C230.607 612.83 216.745 605.417 217.512 598.973C218.278 592.529 202.388 595.977 202.388 595.977Z" fill="#22C55E"/>
<path d="M220.374 596.765C216.475 605.62 200.314 599.356 200.314 599.356C200.314 599.356 200.314 599.334 200.292 599.289C199.661 597.576 186.295 561.392 188.323 543.097C190.397 524.352 184.672 496.211 179.984 486.838C175.295 477.466 179.984 400.366 179.984 400.366C179.984 400.366 185.19 392.841 191.839 385.608C201.509 375.109 214.266 365.218 218.661 379.795C226.099 404.421 218.03 495.963 222.2 504.57C226.37 513.154 224.274 587.911 220.374 596.765Z" fill="#054468"/>
<path opacity="0.1" d="M204.168 569.683C201.509 581.016 200.517 591.178 200.292 599.311C199.661 597.599 186.295 561.415 188.323 543.12C190.397 524.374 184.672 496.234 179.984 486.861C175.295 477.488 179.984 400.388 179.984 400.388C179.984 400.388 185.19 392.863 191.839 385.631C195.874 386.262 200.382 387.884 205.453 390.745C209.736 396.063 211.832 404.196 210.592 410.82C209.398 417.309 205.386 422.063 202.005 427.47C198.556 432.945 197.384 438.713 197.226 445.112C197.023 452.412 198.105 459.576 199.39 466.741C202.455 483.977 209.33 500.109 212.846 517.165C216.52 535.189 208.203 552.515 204.168 569.683Z" fill="#03314B"/>
<path d="M45.9185 596.112C45.4677 596.224 31.5833 598.185 35.0995 602.105C38.6156 606.003 42.7855 628.421 54.3708 630.764C65.9561 633.107 61.9215 627.407 57.2333 623.802C52.5451 620.197 52.8381 607.49 54.3032 606.701C55.7908 605.913 51.8914 594.76 45.9185 596.112Z" fill="#22C55E"/>
<path d="M138.804 343.589C138.804 343.589 113.785 369.476 117.955 411.879C122.125 454.282 110.134 491.727 110.134 491.727C110.134 491.727 45.5128 559.454 41.8614 585.342C41.8614 585.342 41.5909 601.992 57.2333 599.514C72.8758 597.035 133.845 525.996 147.91 507.409C161.975 488.821 179.172 408.702 195.987 403.745C212.801 398.789 218.256 401.267 220.217 386.802C222.178 372.338 217.489 345.504 217.489 345.504L138.804 343.589Z" fill="#03314B"/>
<path d="M344.793 208.698C344.793 208.698 343.373 212.483 340.893 218.161C335.191 231.319 323.898 254.66 311.524 265.295C293.786 280.571 234.507 234.45 234.507 234.45L248.977 194.842C248.977 194.842 300.547 237.65 301.494 237.65C302.08 237.56 315.964 220.887 322.997 210.41C323.493 209.689 323.921 209.013 324.349 208.337C326.107 205.521 327.167 203.403 326.986 202.524C326.941 202.299 326.896 202.051 326.874 201.803C326.468 198.559 328.091 195.472 329.962 194.076C330.277 193.828 330.57 193.67 330.886 193.535C333.23 192.543 333.094 187.159 336.611 183.103C340.104 179.048 349.12 184.59 356.603 192.521C364.041 200.429 344.793 208.698 344.793 208.698Z" fill="#FFB8A9"/>
<path d="M344.793 208.698C344.793 208.698 343.373 212.483 340.893 218.161L323.47 210.658C323.47 210.658 323.29 210.568 322.997 210.41C323.493 209.689 323.921 209.013 324.349 208.337C326.107 205.521 327.167 203.403 326.986 202.524C326.941 202.299 326.896 202.051 326.874 201.803C326.468 198.559 328.091 195.472 329.962 194.076C330.277 193.828 330.57 193.67 330.886 193.535C333.23 192.543 333.095 187.159 336.611 183.103C340.104 179.048 349.12 184.59 356.603 192.521C364.041 200.429 344.793 208.698 344.793 208.698Z" fill="#D8DEE8"/>
<path d="M205.453 172.987C205.453 172.987 239.601 183.171 254.973 196.599L273.388 208.563C273.388 208.563 259.751 252.272 250.848 252.587C241.945 252.903 212.08 233.639 212.08 233.639L205.453 172.987Z" fill="#22C55E"/>
<path d="M330.322 183.103C330.322 183.103 327.933 191.304 334.627 197.388C341.321 203.493 344.319 202.524 347.182 199.956C350.067 197.388 336.205 182.315 330.322 183.103Z" fill="#D8DEE8"/>
<path d="M228.263 250.875C215.641 299.226 218.459 331.332 221.569 346.923C221.93 348.703 222.29 350.28 222.628 351.632C223.034 353.277 222.741 355.034 221.794 356.454C220.848 357.873 219.36 358.819 217.692 359.067C195.761 362.424 128.571 370.31 124.581 341.899C120.975 316.282 100.419 247.811 103.462 206.445C104.454 192.927 107.97 182.315 115.408 177.02C115.408 177.02 131.095 166.814 166.302 165.664C201.509 164.515 246.813 179.769 228.263 250.875Z" fill="#22C55E"/>
<path d="M153.793 167.58C156.813 162.781 161.749 154.782 160.938 150.637L173.199 144.035C173.199 145.184 173.267 146.311 173.379 147.46C173.92 152.304 174.687 157.463 177.121 161.767C179.443 165.867 183.049 168.346 187.196 169.945C187.129 171.883 184.491 168.684 184.491 172.153C184.491 177.268 184.875 181.909 180.863 182.562C177.504 183.103 173.898 174.767 167.812 172.401C166.415 172.018 156.948 177.741 155.911 176.84C155.844 176.75 153.094 168.706 153.793 167.58Z" fill="#FFCEC0"/>
<path d="M146.625 169.292C146.625 169.292 152.621 158.252 157.309 161.722C161.997 165.191 172.095 172.784 175.273 175.871C178.586 179.093 180.885 182.765 179.578 182.765C178.271 182.765 170.517 176.637 170.81 177.944C171.103 179.25 172.207 184.973 166.257 182.765C160.306 180.557 148.721 177.561 146.625 169.292Z" fill="#74C58F"/>
<path d="M179.601 182.765C179.601 182.765 182.891 168.008 181.426 166.746C179.961 165.462 178.564 164.11 178.519 163.749C178.474 163.411 181.268 160.64 183.635 162.105C186.002 163.546 191.163 170.779 190.465 170.982C189.766 171.184 187.377 170.103 187.715 172.153C188.053 174.203 182.125 185.221 179.601 182.765Z" fill="#74C58F"/>
<path d="M187.354 141.354C190.78 137.524 191.637 130.179 188.594 125.042C185.979 120.626 181.313 119.409 178.519 118.688C170.427 116.57 159.766 118.778 155.438 126.236C152.869 130.652 156.565 141.039 157.129 142.909C157.76 145.004 159.18 145.883 160.397 147.572C162.11 149.916 164.769 153.633 169.097 159.829C169.615 158.252 170.382 156.292 171.509 154.241C171.937 153.453 173.65 150.344 176.039 147.888C180.795 142.931 184.108 144.981 187.354 141.354Z" fill="url(#paint85_linear_62_2677)"/>
<path d="M162.606 154.196C162.606 154.196 167.113 164.222 177.91 164.943C187.557 165.597 191.073 143.134 185.393 137.479C183.5 135.586 179.465 134.369 176.039 134.91C174.011 135.225 173.267 135.992 169.953 136.442C166.911 136.848 166.099 136.397 165.107 137.073C163.89 137.907 162.831 140.25 164.093 147.122C162.448 144.914 160.329 143.877 158.684 144.44C158.413 144.531 157.714 144.914 157.286 145.567C155.754 147.955 157.692 151.583 162.606 154.196Z" fill="#FFC1B5"/>
<path d="M192.876 134.279C180.074 135.608 171.373 136.284 165.491 136.645C156.249 137.208 154.063 136.915 154.063 136.915C154.063 136.915 152.282 123.96 160.487 117.314C162.853 115.399 166.054 114.002 170.359 113.596C186.61 112.064 193.304 121.549 192.876 134.279Z" fill="#22C55E"/>
<path d="M166.279 136.6C166.46 135.631 183.387 126.799 192.898 131.891C202.41 136.983 199.187 138.875 192.898 138.402C186.61 137.929 166.279 136.6 166.279 136.6Z" fill="#22C55E"/>
<path d="M166.279 136.6C166.279 136.6 178.18 140.407 181.561 138.853C184.942 137.298 195.085 132.477 198.105 135.451C198.105 135.451 195.784 129.863 182.575 130.336C169.367 130.809 166.279 136.6 166.279 136.6Z" fill="#74C58F"/>
<path opacity="0.3" d="M165.491 136.645C156.249 137.208 154.063 136.915 154.063 136.915C154.063 136.915 152.282 123.96 160.487 117.313C159.495 122.743 159.337 130.426 164.499 135.473C164.905 135.901 165.243 136.284 165.491 136.645Z" fill="#E6F5EB"/>
<path d="M147.436 40.9123C146.355 40.0786 144.822 40.2814 143.988 41.3403C143.154 42.4218 143.357 43.9539 144.416 44.7875L358.181 210.613C359.263 211.446 360.796 211.244 361.63 210.185C362.464 209.103 362.261 207.571 361.201 206.738L147.436 40.9123Z" fill="#BFC8D6"/>
<path d="M365.732 210.252L362.711 214.128C362.148 214.849 361.134 214.984 360.412 214.421L311.186 176.254C310.465 175.69 310.33 174.677 310.893 173.956L313.913 170.08C314.477 169.359 315.491 169.224 316.212 169.787L365.439 207.977C366.16 208.518 366.295 209.554 365.732 210.252Z" fill="#03314B"/>
<path d="M158.436 49.4516L155.415 53.3269C154.852 54.0479 153.838 54.1831 153.116 53.6198L136.279 40.552C135.558 39.9888 135.423 38.9749 135.986 38.2539L139.007 34.3786C139.57 33.6577 140.584 33.5225 141.306 34.0858L158.143 47.1535C158.864 47.7168 158.999 48.7307 158.436 49.4516Z" fill="#03314B"/>
<path d="M122.418 65.133C119.578 67.4312 115.904 68.5802 112.433 68.2422C108.984 67.9043 106.121 66.1244 104.701 63.3982C104.589 63.1729 104.363 62.7673 104.251 62.5645C101.704 57.6754 104.228 51.0063 110.066 47.8746L135.197 34.3787C137.632 33.072 140.607 33.7704 141.847 35.708L142.545 36.8121C142.568 36.8121 140.314 50.6458 122.418 65.133Z" fill="#054468"/>
<path d="M143.289 36.6089L142.478 35.3247C141.035 33.0265 137.587 32.3731 134.905 33.7926L109.75 47.2884C103.687 50.5328 101.208 57.3596 104.003 62.5642L104.499 63.4654C106.054 66.3718 108.781 68.3996 112.455 68.7376C115.453 69.0305 118.496 68.332 121.246 66.6647C121.809 66.3268 122.327 65.9663 122.823 65.5382C129.72 59.9506 134.319 54.4757 137.361 49.8344C142.23 42.3993 143.131 37.082 143.199 36.7441L143.289 36.6089ZM141.734 36.8567C141.531 37.8255 140.494 42.3767 136.663 48.46C136.663 48.46 136.618 48.4149 136.64 48.4149C133.687 53.1464 129.022 58.7114 121.922 64.4567C121.494 64.7947 120.141 65.6959 119.893 65.8311C117.617 67.0478 115.318 67.7011 112.906 67.4758C109.638 67.1604 107.294 65.3354 105.919 62.7669L105.423 61.8432C102.943 57.2244 104.724 50.7356 110.089 47.8742L135.243 34.3784C137.249 33.2969 139.998 34.0629 141.103 35.8429L141.734 36.8567Z" fill="#03314B"/>
<path opacity="0.2" d="M221.794 356.454C220.848 357.873 219.36 358.819 217.692 359.067C195.761 362.424 128.571 370.31 124.581 341.899C120.975 316.282 100.419 247.811 103.462 206.445C112.388 207.143 153.116 212.032 150.682 242.674C147.955 277.056 142.568 288.389 173.402 288.389C204.236 288.389 200.314 309.477 203.042 333.315C204.507 346.044 212.531 345.954 221.569 346.923C221.93 348.703 222.29 350.28 222.628 351.632C223.034 353.277 222.741 355.034 221.794 356.454Z" fill="#E6F5EB"/>
<path d="M179.037 182.607C179.037 182.607 183.409 183.486 183.996 186.122C184.582 188.758 184.289 203.516 186.047 203.899C187.805 204.282 186.137 184.522 185.551 183.283C184.965 182.022 181.336 180.85 179.014 181.053C176.715 181.256 179.037 182.607 179.037 182.607Z" fill="#74C58F"/>
<path d="M356.896 197.613C356.896 197.613 351.938 205.949 345.176 201.511C338.391 197.072 336.701 191.732 339.563 189.389C342.448 187.069 354.687 192.138 356.896 197.613Z" fill="#D8DEE8"/>
<path d="M341.84 213.024C339 214.894 333.884 219.152 327.099 224.582C302.847 243.981 257.249 278.385 217.67 272.82C166.978 265.7 103.642 244.612 116.422 219.67C129.202 194.729 134.769 184.928 153.77 192.341C153.77 192.341 215.754 241.548 243.838 233.527C266.986 226.925 303.14 213.159 315.131 208.518C317.678 207.526 320.946 208.225 320.946 208.225C320.946 208.225 319.03 189.885 328.361 188.601C337.693 187.316 336.949 173.933 341.254 179.701C345.559 185.469 354.823 204.44 341.84 213.024Z" fill="#FFC1B5"/>
<path d="M178.699 200.767C178.699 200.767 149.059 160.077 122.801 182.337C96.5423 204.597 93.3867 234.473 121.358 251.641C149.352 268.81 159.766 269.441 159.766 269.441L189.225 209.351L178.699 200.767Z" fill="#22C55E"/>
<path d="M427.468 83.1126C427.468 83.1126 434.725 69.0535 447.19 74.5059C459.654 79.9583 458.482 77.097 467.137 78.1784C475.792 79.2599 486.499 85.253 479.534 86.4697C472.569 87.6864 418.024 89.0607 418.024 89.0607C418.024 89.0607 418.813 83.8561 427.468 83.1126Z" fill="white"/>
<path d="M259.21 59.9511C259.21 59.9511 268.992 40.9803 285.784 48.3478C302.576 55.7153 301.021 51.84 312.674 53.3045C324.327 54.769 338.752 62.8575 329.376 64.4797C319.977 66.1019 246.453 67.9719 246.453 67.9719C246.453 67.9719 247.557 60.9424 259.21 59.9511Z" fill="white"/>
<defs>
<linearGradient id="paint0_linear_62_2677" x1="308.684" y1="173.844" x2="331.27" y2="173.844" gradientUnits="userSpaceOnUse">
<stop stop-color="white"/>
<stop offset="1" stop-color="#D8DEE8"/>
</linearGradient>
<linearGradient id="paint1_linear_62_2677" x1="338.886" y1="164.657" x2="360.626" y2="164.657" gradientUnits="userSpaceOnUse">
<stop stop-color="white"/>
<stop offset="1" stop-color="#D8DEE8"/>
</linearGradient>
<linearGradient id="paint2_linear_62_2677" x1="369.013" y1="157.633" x2="390.082" y2="157.633" gradientUnits="userSpaceOnUse">
<stop stop-color="white"/>
<stop offset="1" stop-color="#D8DEE8"/>
</linearGradient>
<linearGradient id="paint3_linear_62_2677" x1="399.056" y1="152.77" x2="419.65" y2="152.77" gradientUnits="userSpaceOnUse">
<stop stop-color="white"/>
<stop offset="1" stop-color="#D8DEE8"/>
</linearGradient>
<linearGradient id="paint4_linear_62_2677" x1="429.005" y1="150.069" x2="449.332" y2="150.069" gradientUnits="userSpaceOnUse">
<stop stop-color="white"/>
<stop offset="1" stop-color="#D8DEE8"/>
</linearGradient>
<linearGradient id="paint5_linear_62_2677" x1="458.854" y1="149.528" x2="479.128" y2="149.528" gradientUnits="userSpaceOnUse">
<stop stop-color="white"/>
<stop offset="1" stop-color="#D8DEE8"/>
</linearGradient>
<linearGradient id="paint6_linear_62_2677" x1="488.594" y1="151.15" x2="509.028" y2="151.15" gradientUnits="userSpaceOnUse">
<stop stop-color="white"/>
<stop offset="1" stop-color="#D8DEE8"/>
</linearGradient>
<linearGradient id="paint7_linear_62_2677" x1="518.217" y1="154.931" x2="539.025" y2="154.931" gradientUnits="userSpaceOnUse">
<stop stop-color="white"/>
<stop offset="1" stop-color="#D8DEE8"/>
</linearGradient>
<linearGradient id="paint8_linear_62_2677" x1="547.73" y1="160.875" x2="569.111" y2="160.875" gradientUnits="userSpaceOnUse">
<stop stop-color="white"/>
<stop offset="1" stop-color="#D8DEE8"/>
</linearGradient>
<linearGradient id="paint9_linear_62_2677" x1="577.135" y1="168.98" x2="599.276" y2="168.98" gradientUnits="userSpaceOnUse">
<stop stop-color="white"/>
<stop offset="1" stop-color="#D8DEE8"/>
</linearGradient>
<linearGradient id="paint10_linear_62_2677" x1="312.087" y1="199.215" x2="335.146" y2="199.215" gradientUnits="userSpaceOnUse">
<stop stop-color="white"/>
<stop offset="1" stop-color="#D8DEE8"/>
</linearGradient>
<linearGradient id="paint11_linear_62_2677" x1="344.733" y1="193.139" x2="367.385" y2="193.139" gradientUnits="userSpaceOnUse">
<stop stop-color="white"/>
<stop offset="1" stop-color="#D8DEE8"/>
</linearGradient>
<linearGradient id="paint12_linear_62_2677" x1="377.335" y1="188.684" x2="399.682" y2="188.684" gradientUnits="userSpaceOnUse">
<stop stop-color="white"/>
<stop offset="1" stop-color="#D8DEE8"/>
</linearGradient>
<linearGradient id="paint13_linear_62_2677" x1="409.886" y1="185.848" x2="432.039" y2="185.848" gradientUnits="userSpaceOnUse">
<stop stop-color="white"/>
<stop offset="1" stop-color="#D8DEE8"/>
</linearGradient>
<linearGradient id="paint14_linear_62_2677" x1="442.386" y1="184.633" x2="464.455" y2="184.633" gradientUnits="userSpaceOnUse">
<stop stop-color="white"/>
<stop offset="1" stop-color="#D8DEE8"/>
</linearGradient>
<linearGradient id="paint15_linear_62_2677" x1="474.831" y1="185.038" x2="496.928" y2="185.038" gradientUnits="userSpaceOnUse">
<stop stop-color="white"/>
<stop offset="1" stop-color="#D8DEE8"/>
</linearGradient>
<linearGradient id="paint16_linear_62_2677" x1="507.217" y1="187.063" x2="529.454" y2="187.063" gradientUnits="userSpaceOnUse">
<stop stop-color="white"/>
<stop offset="1" stop-color="#D8DEE8"/>
</linearGradient>
<linearGradient id="paint17_linear_62_2677" x1="539.543" y1="190.709" x2="562.03" y2="190.709" gradientUnits="userSpaceOnUse">
<stop stop-color="white"/>
<stop offset="1" stop-color="#D8DEE8"/>
</linearGradient>
<linearGradient id="paint18_linear_62_2677" x1="571.811" y1="195.975" x2="594.654" y2="195.975" gradientUnits="userSpaceOnUse">
<stop stop-color="white"/>
<stop offset="1" stop-color="#D8DEE8"/>
</linearGradient>
<linearGradient id="paint19_linear_62_2677" x1="604.021" y1="202.86" x2="627.323" y2="202.86" gradientUnits="userSpaceOnUse">
<stop stop-color="white"/>
<stop offset="1" stop-color="#D8DEE8"/>
</linearGradient>
<linearGradient id="paint20_linear_62_2677" x1="320.914" y1="227.295" x2="344.596" y2="227.295" gradientUnits="userSpaceOnUse">
<stop stop-color="white"/>
<stop offset="1" stop-color="#D8DEE8"/>
</linearGradient>
<linearGradient id="paint21_linear_62_2677" x1="355.329" y1="223.786" x2="378.859" y2="223.786" gradientUnits="userSpaceOnUse">
<stop stop-color="white"/>
<stop offset="1" stop-color="#D8DEE8"/>
</linearGradient>
<linearGradient id="paint22_linear_62_2677" x1="389.724" y1="221.357" x2="413.147" y2="221.357" gradientUnits="userSpaceOnUse">
<stop stop-color="white"/>
<stop offset="1" stop-color="#D8DEE8"/>
</linearGradient>
<linearGradient id="paint23_linear_62_2677" x1="424.096" y1="220.006" x2="447.46" y2="220.006" gradientUnits="userSpaceOnUse">
<stop stop-color="white"/>
<stop offset="1" stop-color="#D8DEE8"/>
</linearGradient>
<linearGradient id="paint24_linear_62_2677" x1="458.445" y1="219.736" x2="481.797" y2="219.736" gradientUnits="userSpaceOnUse">
<stop stop-color="white"/>
<stop offset="1" stop-color="#D8DEE8"/>
</linearGradient>
<linearGradient id="paint25_linear_62_2677" x1="492.771" y1="220.547" x2="516.158" y2="220.547" gradientUnits="userSpaceOnUse">
<stop stop-color="white"/>
<stop offset="1" stop-color="#D8DEE8"/>
</linearGradient>
<linearGradient id="paint26_linear_62_2677" x1="527.071" y1="222.436" x2="550.541" y2="222.436" gradientUnits="userSpaceOnUse">
<stop stop-color="white"/>
<stop offset="1" stop-color="#D8DEE8"/>
</linearGradient>
<linearGradient id="paint27_linear_62_2677" x1="561.347" y1="225.406" x2="584.946" y2="225.406" gradientUnits="userSpaceOnUse">
<stop stop-color="white"/>
<stop offset="1" stop-color="#D8DEE8"/>
</linearGradient>
<linearGradient id="paint28_linear_62_2677" x1="595.596" y1="229.454" x2="619.372" y2="229.454" gradientUnits="userSpaceOnUse">
<stop stop-color="white"/>
<stop offset="1" stop-color="#D8DEE8"/>
</linearGradient>
<linearGradient id="paint29_linear_62_2677" x1="298.657" y1="259.698" x2="322.883" y2="259.698" gradientUnits="userSpaceOnUse">
<stop stop-color="white"/>
<stop offset="1" stop-color="#D8DEE8"/>
</linearGradient>
<linearGradient id="paint30_linear_62_2677" x1="334.152" y1="257.674" x2="358.335" y2="257.674" gradientUnits="userSpaceOnUse">
<stop stop-color="white"/>
<stop offset="1" stop-color="#D8DEE8"/>
</linearGradient>
<linearGradient id="paint31_linear_62_2677" x1="369.642" y1="256.191" x2="393.793" y2="256.191" gradientUnits="userSpaceOnUse">
<stop stop-color="white"/>
<stop offset="1" stop-color="#D8DEE8"/>
</linearGradient>
<linearGradient id="paint32_linear_62_2677" x1="405.126" y1="255.245" x2="429.258" y2="255.245" gradientUnits="userSpaceOnUse">
<stop stop-color="white"/>
<stop offset="1" stop-color="#D8DEE8"/>
</linearGradient>
<linearGradient id="paint33_linear_62_2677" x1="440.605" y1="254.84" x2="464.728" y2="254.84" gradientUnits="userSpaceOnUse">
<stop stop-color="white"/>
<stop offset="1" stop-color="#D8DEE8"/>
</linearGradient>
<linearGradient id="paint34_linear_62_2677" x1="476.078" y1="254.975" x2="500.204" y2="254.975" gradientUnits="userSpaceOnUse">
<stop stop-color="white"/>
<stop offset="1" stop-color="#D8DEE8"/>
</linearGradient>
<linearGradient id="paint35_linear_62_2677" x1="511.546" y1="255.651" x2="535.686" y2="255.651" gradientUnits="userSpaceOnUse">
<stop stop-color="white"/>
<stop offset="1" stop-color="#D8DEE8"/>
</linearGradient>
<linearGradient id="paint36_linear_62_2677" x1="547.007" y1="256.865" x2="571.173" y2="256.865" gradientUnits="userSpaceOnUse">
<stop stop-color="white"/>
<stop offset="1" stop-color="#D8DEE8"/>
</linearGradient>
<linearGradient id="paint37_linear_62_2677" x1="582.463" y1="258.618" x2="606.666" y2="258.618" gradientUnits="userSpaceOnUse">
<stop stop-color="white"/>
<stop offset="1" stop-color="#D8DEE8"/>
</linearGradient>
<linearGradient id="paint38_linear_62_2677" x1="314.901" y1="289.945" x2="339.281" y2="289.945" gradientUnits="userSpaceOnUse">
<stop stop-color="white"/>
<stop offset="1" stop-color="#D8DEE8"/>
</linearGradient>
<linearGradient id="paint39_linear_62_2677" x1="350.753" y1="289.945" x2="375.132" y2="289.945" gradientUnits="userSpaceOnUse">
<stop stop-color="white"/>
<stop offset="1" stop-color="#D8DEE8"/>
</linearGradient>
<linearGradient id="paint40_linear_62_2677" x1="386.605" y1="289.945" x2="410.984" y2="289.945" gradientUnits="userSpaceOnUse">
<stop stop-color="white"/>
<stop offset="1" stop-color="#D8DEE8"/>
</linearGradient>
<linearGradient id="paint41_linear_62_2677" x1="422.457" y1="289.945" x2="446.836" y2="289.945" gradientUnits="userSpaceOnUse">
<stop stop-color="white"/>
<stop offset="1" stop-color="#D8DEE8"/>
</linearGradient>
<linearGradient id="paint42_linear_62_2677" x1="458.308" y1="289.945" x2="482.688" y2="289.945" gradientUnits="userSpaceOnUse">
<stop stop-color="white"/>
<stop offset="1" stop-color="#D8DEE8"/>
</linearGradient>
<linearGradient id="paint43_linear_62_2677" x1="494.16" y1="289.945" x2="518.539" y2="289.945" gradientUnits="userSpaceOnUse">
<stop stop-color="white"/>
<stop offset="1" stop-color="#D8DEE8"/>
</linearGradient>
<linearGradient id="paint44_linear_62_2677" x1="530.012" y1="289.945" x2="554.392" y2="289.945" gradientUnits="userSpaceOnUse">
<stop stop-color="white"/>
<stop offset="1" stop-color="#D8DEE8"/>
</linearGradient>
<linearGradient id="paint45_linear_62_2677" x1="565.864" y1="289.945" x2="590.243" y2="289.945" gradientUnits="userSpaceOnUse">
<stop stop-color="white"/>
<stop offset="1" stop-color="#D8DEE8"/>
</linearGradient>
<linearGradient id="paint46_linear_62_2677" x1="601.716" y1="289.945" x2="626.095" y2="289.945" gradientUnits="userSpaceOnUse">
<stop stop-color="white"/>
<stop offset="1" stop-color="#D8DEE8"/>
</linearGradient>
<linearGradient id="paint47_linear_62_2677" x1="298.657" y1="320.192" x2="322.883" y2="320.192" gradientUnits="userSpaceOnUse">
<stop stop-color="white"/>
<stop offset="1" stop-color="#D8DEE8"/>
</linearGradient>
<linearGradient id="paint48_linear_62_2677" x1="334.152" y1="322.214" x2="358.335" y2="322.214" gradientUnits="userSpaceOnUse">
<stop stop-color="white"/>
<stop offset="1" stop-color="#D8DEE8"/>
</linearGradient>
<linearGradient id="paint49_linear_62_2677" x1="369.642" y1="323.699" x2="393.793" y2="323.699" gradientUnits="userSpaceOnUse">
<stop stop-color="white"/>
<stop offset="1" stop-color="#D8DEE8"/>
</linearGradient>
<linearGradient id="paint50_linear_62_2677" x1="405.126" y1="324.643" x2="429.258" y2="324.643" gradientUnits="userSpaceOnUse">
<stop stop-color="white"/>
<stop offset="1" stop-color="#D8DEE8"/>
</linearGradient>
<linearGradient id="paint51_linear_62_2677" x1="440.605" y1="325.048" x2="464.728" y2="325.048" gradientUnits="userSpaceOnUse">
<stop stop-color="white"/>
<stop offset="1" stop-color="#D8DEE8"/>
</linearGradient>
<linearGradient id="paint52_linear_62_2677" x1="476.079" y1="324.913" x2="500.204" y2="324.913" gradientUnits="userSpaceOnUse">
<stop stop-color="white"/>
<stop offset="1" stop-color="#D8DEE8"/>
</linearGradient>
<linearGradient id="paint53_linear_62_2677" x1="511.546" y1="324.238" x2="535.686" y2="324.238" gradientUnits="userSpaceOnUse">
<stop stop-color="white"/>
<stop offset="1" stop-color="#D8DEE8"/>
</linearGradient>
<linearGradient id="paint54_linear_62_2677" x1="547.007" y1="323.024" x2="571.173" y2="323.024" gradientUnits="userSpaceOnUse">
<stop stop-color="white"/>
<stop offset="1" stop-color="#D8DEE8"/>
</linearGradient>
<linearGradient id="paint55_linear_62_2677" x1="582.462" y1="321.271" x2="606.666" y2="321.271" gradientUnits="userSpaceOnUse">
<stop stop-color="white"/>
<stop offset="1" stop-color="#D8DEE8"/>
</linearGradient>
<linearGradient id="paint56_linear_62_2677" x1="320.914" y1="352.594" x2="344.596" y2="352.594" gradientUnits="userSpaceOnUse">
<stop stop-color="white"/>
<stop offset="1" stop-color="#D8DEE8"/>
</linearGradient>
<linearGradient id="paint57_linear_62_2677" x1="355.329" y1="356.103" x2="378.859" y2="356.103" gradientUnits="userSpaceOnUse">
<stop stop-color="white"/>
<stop offset="1" stop-color="#D8DEE8"/>
</linearGradient>
<linearGradient id="paint58_linear_62_2677" x1="389.724" y1="358.532" x2="413.147" y2="358.532" gradientUnits="userSpaceOnUse">
<stop stop-color="white"/>
<stop offset="1" stop-color="#D8DEE8"/>
</linearGradient>
<linearGradient id="paint59_linear_62_2677" x1="424.096" y1="359.882" x2="447.46" y2="359.882" gradientUnits="userSpaceOnUse">
<stop stop-color="white"/>
<stop offset="1" stop-color="#D8DEE8"/>
</linearGradient>
<linearGradient id="paint60_linear_62_2677" x1="458.445" y1="360.152" x2="481.797" y2="360.152" gradientUnits="userSpaceOnUse">
<stop stop-color="white"/>
<stop offset="1" stop-color="#D8DEE8"/>
</linearGradient>
<linearGradient id="paint61_linear_62_2677" x1="492.771" y1="359.343" x2="516.158" y2="359.343" gradientUnits="userSpaceOnUse">
<stop stop-color="white"/>
<stop offset="1" stop-color="#D8DEE8"/>
</linearGradient>
<linearGradient id="paint62_linear_62_2677" x1="527.071" y1="357.452" x2="550.541" y2="357.452" gradientUnits="userSpaceOnUse">
<stop stop-color="white"/>
<stop offset="1" stop-color="#D8DEE8"/>
</linearGradient>
<linearGradient id="paint63_linear_62_2677" x1="561.346" y1="354.483" x2="584.946" y2="354.483" gradientUnits="userSpaceOnUse">
<stop stop-color="white"/>
<stop offset="1" stop-color="#D8DEE8"/>
</linearGradient>
<linearGradient id="paint64_linear_62_2677" x1="595.596" y1="350.435" x2="619.373" y2="350.435" gradientUnits="userSpaceOnUse">
<stop stop-color="white"/>
<stop offset="1" stop-color="#D8DEE8"/>
</linearGradient>
<linearGradient id="paint65_linear_62_2677" x1="312.087" y1="380.674" x2="335.147" y2="380.674" gradientUnits="userSpaceOnUse">
<stop stop-color="white"/>
<stop offset="1" stop-color="#D8DEE8"/>
</linearGradient>
<linearGradient id="paint66_linear_62_2677" x1="344.733" y1="386.75" x2="367.385" y2="386.75" gradientUnits="userSpaceOnUse">
<stop stop-color="white"/>
<stop offset="1" stop-color="#D8DEE8"/>
</linearGradient>
<linearGradient id="paint67_linear_62_2677" x1="377.335" y1="391.206" x2="399.682" y2="391.206" gradientUnits="userSpaceOnUse">
<stop stop-color="white"/>
<stop offset="1" stop-color="#D8DEE8"/>
</linearGradient>
<linearGradient id="paint68_linear_62_2677" x1="409.886" y1="394.041" x2="432.039" y2="394.041" gradientUnits="userSpaceOnUse">
<stop stop-color="white"/>
<stop offset="1" stop-color="#D8DEE8"/>
</linearGradient>
<linearGradient id="paint69_linear_62_2677" x1="442.386" y1="395.256" x2="464.455" y2="395.256" gradientUnits="userSpaceOnUse">
<stop stop-color="white"/>
<stop offset="1" stop-color="#D8DEE8"/>
</linearGradient>
<linearGradient id="paint70_linear_62_2677" x1="474.831" y1="394.852" x2="496.928" y2="394.852" gradientUnits="userSpaceOnUse">
<stop stop-color="white"/>
<stop offset="1" stop-color="#D8DEE8"/>
</linearGradient>
<linearGradient id="paint71_linear_62_2677" x1="507.217" y1="392.826" x2="529.454" y2="392.826" gradientUnits="userSpaceOnUse">
<stop stop-color="white"/>
<stop offset="1" stop-color="#D8DEE8"/>
</linearGradient>
<linearGradient id="paint72_linear_62_2677" x1="539.544" y1="389.18" x2="562.03" y2="389.18" gradientUnits="userSpaceOnUse">
<stop stop-color="white"/>
<stop offset="1" stop-color="#D8DEE8"/>
</linearGradient>
<linearGradient id="paint73_linear_62_2677" x1="571.811" y1="383.915" x2="594.655" y2="383.915" gradientUnits="userSpaceOnUse">
<stop stop-color="white"/>
<stop offset="1" stop-color="#D8DEE8"/>
</linearGradient>
<linearGradient id="paint74_linear_62_2677" x1="604.021" y1="377.029" x2="627.323" y2="377.029" gradientUnits="userSpaceOnUse">
<stop stop-color="white"/>
<stop offset="1" stop-color="#D8DEE8"/>
</linearGradient>
<linearGradient id="paint75_linear_62_2677" x1="308.683" y1="406.044" x2="331.27" y2="406.044" gradientUnits="userSpaceOnUse">
<stop stop-color="white"/>
<stop offset="1" stop-color="#D8DEE8"/>
</linearGradient>
<linearGradient id="paint76_linear_62_2677" x1="338.886" y1="415.231" x2="360.626" y2="415.231" gradientUnits="userSpaceOnUse">
<stop stop-color="white"/>
<stop offset="1" stop-color="#D8DEE8"/>
</linearGradient>
<linearGradient id="paint77_linear_62_2677" x1="369.013" y1="422.256" x2="390.083" y2="422.256" gradientUnits="userSpaceOnUse">
<stop stop-color="white"/>
<stop offset="1" stop-color="#D8DEE8"/>
</linearGradient>
<linearGradient id="paint78_linear_62_2677" x1="399.055" y1="427.119" x2="419.65" y2="427.119" gradientUnits="userSpaceOnUse">
<stop stop-color="white"/>
<stop offset="1" stop-color="#D8DEE8"/>
</linearGradient>
<linearGradient id="paint79_linear_62_2677" x1="429.005" y1="429.821" x2="449.332" y2="429.821" gradientUnits="userSpaceOnUse">
<stop stop-color="white"/>
<stop offset="1" stop-color="#D8DEE8"/>
</linearGradient>
<linearGradient id="paint80_linear_62_2677" x1="458.854" y1="430.36" x2="479.128" y2="430.36" gradientUnits="userSpaceOnUse">
<stop stop-color="white"/>
<stop offset="1" stop-color="#D8DEE8"/>
</linearGradient>
<linearGradient id="paint81_linear_62_2677" x1="488.594" y1="428.74" x2="509.028" y2="428.74" gradientUnits="userSpaceOnUse">
<stop stop-color="white"/>
<stop offset="1" stop-color="#D8DEE8"/>
</linearGradient>
<linearGradient id="paint82_linear_62_2677" x1="518.218" y1="424.958" x2="539.025" y2="424.958" gradientUnits="userSpaceOnUse">
<stop stop-color="white"/>
<stop offset="1" stop-color="#D8DEE8"/>
</linearGradient>
<linearGradient id="paint83_linear_62_2677" x1="547.729" y1="419.014" x2="569.111" y2="419.014" gradientUnits="userSpaceOnUse">
<stop stop-color="white"/>
<stop offset="1" stop-color="#D8DEE8"/>
</linearGradient>
<linearGradient id="paint84_linear_62_2677" x1="577.135" y1="410.909" x2="599.277" y2="410.909" gradientUnits="userSpaceOnUse">
<stop stop-color="white"/>
<stop offset="1" stop-color="#D8DEE8"/>
</linearGradient>
<linearGradient id="paint85_linear_62_2677" x1="145.593" y1="183.072" x2="177.617" y2="122.22" gradientUnits="userSpaceOnUse">
<stop stop-color="#444B8C"/>
<stop offset="0.9964" stop-color="#26264F"/>
</linearGradient>
</defs>
</svg>
