<svg width="178" height="60" viewBox="0 0 178 60" fill="none" xmlns="http://www.w3.org/2000/svg">
<path d="M22.3759 60.0001C30.4725 60.0001 37.036 59.3929 37.036 58.644C37.036 57.895 30.4725 57.2878 22.3759 57.2878C14.2794 57.2878 7.71582 57.895 7.71582 58.644C7.71582 59.3929 14.2794 60.0001 22.3759 60.0001Z" fill="#E6F5EB"/>
<path d="M44.7519 23.7817C44.7519 25.0911 44.635 26.3537 44.4246 27.5929C44.4012 27.6864 44.4012 27.7799 44.3778 27.8734V27.8968C43.8634 31.5443 40.9174 42.4166 23.7554 54.0839V47.7476C23.7554 47.7476 27.59 46.1109 27.7536 42.1361C27.7536 42.1361 25.5558 43.2116 22.75 43.1181C22.4929 43.1181 22.259 43.1181 22.0018 43.1181C19.1961 43.2116 16.9982 42.1361 16.9982 42.1361C17.1619 46.1109 20.9964 47.7476 20.9964 47.7476V54.0839C3.83454 42.4166 0.888486 31.5443 0.374096 27.8968V27.8734C0.350715 27.7799 0.32733 27.6864 0.32733 27.5929C0.116898 26.3537 0 25.0677 0 23.7817C0 11.413 10.0072 1.40576 22.3759 1.40576C32.313 1.40576 40.7303 7.88239 43.653 16.8375L35.2824 18.6612L33.903 18.9652L32.3832 19.2925L30.9335 19.6198L29.7177 19.877L28.8993 20.0641L28.081 20.2511L27.3094 20.4148L22.7033 21.4202L21.9551 21.5839L22.1889 22.3321L23.3346 25.8393L23.545 26.5173L24.2231 26.3069L30.6296 24.2026L32.0091 23.7583L32.5936 23.5713L33.9263 23.127L34.9083 22.7997L36.2645 22.3554L44.4012 19.69C44.6116 20.9993 44.7519 22.3788 44.7519 23.7817Z" fill="#22C55E"/>
<path d="M44.2376 18.9652L36.0074 21.6541L34.6513 22.0983L33.6693 22.4257L32.3365 22.8699L31.752 23.057L30.3725 23.5012L23.966 25.6055L22.8203 22.0983L27.4264 21.0929L28.198 20.9292L29.0164 20.7422L29.8347 20.5551L31.0506 20.2979L32.5002 19.9706L34.02 19.6433L35.3995 19.3393L43.8402 17.4922C44.0038 17.9832 44.1207 18.4742 44.2376 18.9652Z" fill="black"/>
<path d="M22.3058 40.1253C31.5904 40.1253 39.117 32.5987 39.117 23.3141C39.117 14.0296 31.5904 6.50293 22.3058 6.50293C13.0212 6.50293 5.49463 14.0296 5.49463 23.3141C5.49463 32.5987 13.0212 40.1253 22.3058 40.1253Z" fill="white"/>
<path d="M22.259 26.8679C24.0798 26.8679 25.5558 25.3919 25.5558 23.5712C25.5558 21.7504 24.0798 20.2744 22.259 20.2744C20.4383 20.2744 18.9623 21.7504 18.9623 23.5712C18.9623 25.3919 20.4383 26.8679 22.259 26.8679Z" fill="#03314B"/>
<path d="M21.8848 20.4147L19.687 22.3319L18.401 17.5622L18.0269 16.1827L17.606 14.6161L17.2319 13.26L16.9046 12.0675L16.5305 10.7114L16.4136 10.2672C16.4136 10.2438 16.4136 10.2204 16.4136 10.1736C16.4136 10.0801 16.4603 9.9866 16.5539 9.91645C16.7175 9.79954 16.928 9.86969 17.0215 10.0334L17.2085 10.4542L17.8165 11.7402L18.4478 13.0729L19.0791 14.4291L19.687 15.715L19.874 16.1125L20.3884 17.2114L20.5521 17.5622L21.8848 20.4147Z" fill="#03314B"/>
<path d="M47.2069 18.0065L44.2375 18.9885L36.0073 21.6774L34.6511 22.1216L33.6691 22.449L32.3364 22.8932L31.7519 23.0803L30.3724 23.5245L23.9659 25.6288L22.8202 22.1216L27.4263 21.1162L28.1979 20.9526L29.0162 20.7655L29.8346 20.5785L31.0504 20.3213L32.5001 19.9939L34.0199 19.6666L35.3994 19.3626L43.84 17.5155L46.8796 16.8608C46.903 16.8608 46.9497 16.8608 46.9731 16.8608C47.2069 16.8608 47.4174 16.9777 47.5109 17.1648C47.7213 17.4454 47.581 17.8662 47.2069 18.0065Z" fill="#03314B"/>
<path d="M18.8453 10.6648C18.8453 10.6648 30.2788 7.36812 34.6511 18.7782" stroke="#2C3C55" stroke-width="1.43688" stroke-miterlimit="10"/>
<path d="M20.2483 13.9849C20.2483 13.9849 27.59 11.4598 31.1674 19.3626" stroke="#2C3C55" stroke-width="1.43688" stroke-miterlimit="10"/>
<path d="M21.7212 17.2351C21.7212 17.2351 26.0701 16.2531 27.8705 20.2747" stroke="#2C3C55" stroke-width="1.43688" stroke-miterlimit="10"/>
<path d="M7.15468 18.1232C6.99101 18.2401 6.82733 18.5674 6.71043 18.8948C6.52338 19.4326 6.49999 19.8768 6.59352 20.0405C6.31294 20.134 6.21943 19.5495 6.42986 18.8013C6.54677 18.3804 6.80396 17.9595 7.0144 18.0297C7.08454 18.0531 7.1313 18.0764 7.15468 18.1232Z" fill="#C3E5CD"/>
<path d="M6.64019 22.5891C6.4999 23.3373 6.71033 24.0154 7.06105 24.2492C6.57004 24.2726 6.17256 23.4309 6.33623 22.4488C6.42976 21.8877 6.7571 21.3499 7.20135 21.4668C7.29487 21.4902 7.36501 21.5603 7.43516 21.6071C7.03768 21.5603 6.73371 22.0747 6.64019 22.5891Z" fill="#C3E5CD"/>
<path d="M8.01974 28.4111C8.01974 28.5514 7.99636 28.6449 7.9496 28.7385C7.62226 29.3464 6.71039 28.4345 6.38305 27.4291C6.196 26.7978 6.31289 26.3769 6.71038 26.4237C6.89743 26.4705 7.0611 26.564 7.22477 26.7043C7.20139 26.6809 7.15463 26.6809 7.10786 26.6809C6.82729 26.6575 6.73376 26.9381 6.87405 27.4057C7.10786 28.0838 7.73917 28.7151 8.01974 28.4111Z" fill="#C3E5CD"/>
<path d="M10.7085 28.0136C10.0305 28.5981 9.142 28.1539 8.65099 27.2654C8.48732 26.9614 8.23011 26.1898 8.93155 25.5352C8.88479 26.8913 9.98372 28.0136 10.7085 28.0136Z" fill="#C3E5CD"/>
<path d="M8.37054 31.2636C8.32378 31.287 8.27702 31.3103 8.20687 31.2869C8.25363 31.1233 8.18349 30.8661 8.01982 30.6323C7.85615 30.3985 7.64573 30.2348 7.48206 30.2114C7.50544 30.1413 7.52881 30.0945 7.57557 30.0711C7.73924 29.9542 8.0432 30.1413 8.27701 30.4686C8.48745 30.7959 8.53421 31.1467 8.37054 31.2636Z" fill="#C3E5CD"/>
<path d="M10.3813 34.6539C10.4046 34.4434 10.5216 34.4668 10.1708 34.0226C9.74997 33.4848 9.39925 33.2744 9.3291 33.3445C9.3291 33.2744 9.98379 33.2042 10.4047 33.7186C10.7554 34.1628 10.5917 34.6071 10.3813 34.6539Z" fill="#C3E5CD"/>
<path d="M12.7662 32.1991C12.0414 32.7836 10.7087 32.5965 10.1943 31.521C9.98384 31.1235 9.93707 30.4454 10.4515 29.7908C10.4281 31.0534 11.7842 32.4329 12.7662 32.1991Z" fill="#C3E5CD"/>
<path d="M16.9047 30.7961C16.6008 31.8483 15.268 31.9184 14.6134 31.5911C14.3328 31.4274 13.5144 30.726 13.9353 29.5569C13.9353 30.0947 16.0162 31.4274 16.9047 30.7961Z" fill="#C3E5CD"/>
<path d="M15.2681 36.0101C15.1512 36.2673 14.8706 36.4076 14.4731 36.431C14.6835 36.3842 14.8472 36.2907 14.894 36.127C15.0109 35.7763 14.5199 35.332 13.795 35.0982C13.0702 34.8644 12.3922 34.9579 12.2753 35.3087C12.1584 35.0982 12.135 34.8878 12.2051 34.7241C12.3922 34.2565 13.2339 34.1864 14.0756 34.5371C14.9407 34.8878 15.4551 35.5425 15.2681 36.0101Z" fill="#C3E5CD"/>
<path d="M17.9568 38.582C17.9334 38.6755 17.8867 38.7456 17.7931 38.8158C17.6996 38.5586 17.3957 38.3248 17.0215 38.2312C16.6241 38.1377 16.2733 38.1845 16.0629 38.3481C16.0161 38.2546 16.0161 38.1611 16.0395 38.0676C16.1331 37.7168 16.6241 37.5766 17.1618 37.7168C17.6996 37.8338 18.0503 38.2312 17.9568 38.582Z" fill="#C3E5CD"/>
<path d="M19.2195 35.2853C18.822 35.5192 18.3544 35.5192 17.8867 35.4256C16.9982 35.262 16.25 34.5605 16.4838 33.5317C16.6943 34.2332 17.0918 34.467 18.0036 34.5839C19.0558 34.7242 19.8741 34.0695 19.8741 34.0695C19.8741 34.0695 19.9443 34.8879 19.2195 35.2853Z" fill="#C3E5CD"/>
<path d="M22.9371 37.2493C22.9371 37.6 22.6331 37.9507 22.4461 37.9975C22.4461 37.9975 23.1008 37.1791 21.277 37.0155C20.5288 36.9453 19.8274 37.5532 20.0612 37.8104C19.2195 37.2493 20.2482 36.3374 21.277 36.3608C22.3292 36.4076 22.9371 36.9921 22.9371 37.2493Z" fill="#C3E5CD"/>
<path d="M25.9767 38.4652C25.9767 38.5119 25.9767 38.5821 25.9299 38.6288C25.8364 38.4886 25.6026 38.4184 25.3688 38.4418C25.135 38.4652 24.9245 38.5587 24.831 38.699C24.7843 38.6522 24.7609 38.6055 24.7609 38.5353C24.7375 38.3249 24.9947 38.1144 25.322 38.0911C25.6728 38.0911 25.9533 38.2547 25.9767 38.4652Z" fill="#C3E5CD"/>
<path d="M22.6332 33.064C21.5109 33.1809 20.8562 32.3859 20.8094 31.6611C21.3005 32.3158 23.1008 32.7133 23.8023 31.5442C23.8724 32.2456 23.2411 32.9938 22.6332 33.064Z" fill="#C3E5CD"/>
<path d="M24.4569 36.01C23.9893 35.8464 23.7321 35.4723 23.5918 35.0748C24.3166 35.6827 26.8652 35.1917 27.0055 34.0928C27.3796 35.519 25.626 36.5478 24.4569 36.01Z" fill="#C3E5CD"/>
<path d="M29.5539 36.7347C29.5773 36.5944 29.6007 36.4541 29.5539 36.3606C29.4137 36.0099 28.8759 36.0567 28.3381 36.5009C27.8939 36.8516 27.5899 37.3426 27.5665 37.7167C27.5431 37.6933 27.5431 37.67 27.5198 37.6466C27.3795 37.2725 27.8471 36.5477 28.5485 35.9865C29.25 35.4254 29.9047 35.2851 30.045 35.6358C30.1151 35.893 29.9047 36.3139 29.5539 36.7347Z" fill="#C3E5CD"/>
<path d="M29.4372 31.521C29.4372 31.521 29.4372 31.5443 29.4138 31.5443C29.3904 31.5677 29.3904 31.6145 29.367 31.6379C28.7357 32.9472 27.3095 32.7134 26.912 31.3807C27.2861 32.3627 29.1332 31.9418 29.6242 30.4922C29.6476 30.8429 29.5541 31.1936 29.4372 31.521Z" fill="#C3E5CD"/>
<path d="M31.7985 33.4849C31.3309 34.1162 30.6295 34.2565 30.2554 34.0227C30.7464 33.8356 30.8633 33.8356 31.4478 33.2277C32.0324 32.6198 31.9856 31.8482 31.518 31.6611C32.3597 31.778 32.5234 32.5262 31.7985 33.4849Z" fill="#C3E5CD"/>
<path d="M33.9497 33.9758C33.9965 33.7654 33.9965 33.6251 33.9029 33.555C33.6925 33.3913 33.2015 33.7187 32.7806 34.2798C32.6871 34.4201 32.5936 34.537 32.5234 34.6773C32.5936 34.4435 32.7339 34.1161 32.9677 33.8122C33.3886 33.251 33.9029 32.9237 34.09 33.0874C34.2537 33.2043 34.1835 33.5784 33.9497 33.9758Z" fill="#C3E5CD"/>
<path d="M32.8506 30.0712C31.9855 30.913 31.4244 30.2817 31.1438 29.6504C31.892 30.3986 32.9442 29.5568 33.1312 28.6216C33.3183 28.9957 33.365 29.5802 32.8506 30.0712Z" fill="#C3E5CD"/>
<path d="M35.4928 29.6503V29.7438V29.7672C35.4928 29.7906 35.4928 29.814 35.4928 29.8373V29.8607C35.4928 29.8841 35.4928 29.9075 35.4928 29.9309C35.4694 30.0711 35.446 30.2114 35.3993 30.3517C35.3993 30.3751 35.3759 30.3985 35.3759 30.4219C35.3759 30.4453 35.3525 30.4686 35.3525 30.5154C35.2824 30.6557 35.2122 30.796 35.1187 30.9596V30.983C35.0953 31.0064 35.0953 31.0298 35.0719 31.0532L35.0486 31.0765C35.0252 31.0999 35.0252 31.1233 35.0018 31.1467L34.9784 31.1701C34.955 31.1934 34.955 31.2168 34.9317 31.2168L34.9083 31.2402C34.8849 31.2636 34.8849 31.287 34.8615 31.287C34.8615 31.287 34.8381 31.3104 34.8381 31.3337C34.8381 31.3571 34.8148 31.3571 34.7914 31.3805C34.768 31.4273 34.7212 31.4506 34.6978 31.474C34.6978 31.474 34.6978 31.474 34.6745 31.4974C34.6511 31.5208 34.6043 31.5442 34.5809 31.5676C34.5809 31.5676 34.5576 31.5676 34.5576 31.5909C34.5342 31.6143 34.4874 31.6377 34.464 31.6611C34.4406 31.6845 34.4173 31.6845 34.3705 31.7078H34.3471C34.3237 31.7312 34.3004 31.7312 34.2536 31.7546H34.2302C34.2068 31.7546 34.1835 31.778 34.1367 31.778C34.1367 31.778 34.1367 31.778 34.1133 31.778C34.0899 31.778 34.0665 31.778 34.0432 31.8014H34.0198C33.9964 31.8014 33.973 31.8014 33.9496 31.8014H33.9263C33.9029 31.8014 33.8795 31.8014 33.8561 31.8014C33.8327 31.8014 33.8094 31.778 33.786 31.778C33.786 31.778 33.786 31.778 33.7626 31.778C33.7392 31.778 33.7158 31.7546 33.6924 31.7546C33.6924 31.7546 33.6924 31.7546 33.6691 31.7546C33.6457 31.7312 33.6223 31.7312 33.5989 31.7078C33.5755 31.6845 33.5522 31.6845 33.5522 31.6611C33.5522 31.6611 33.5522 31.6611 33.5288 31.6377C33.5054 31.6143 33.5054 31.5909 33.482 31.5676V31.5442C33.4586 31.5208 33.4586 31.4974 33.4353 31.474V31.4506C33.4353 31.4273 33.4119 31.4039 33.4119 31.3805C33.4119 31.3805 33.4119 31.3805 33.4119 31.3571C33.6924 31.5442 34.1367 31.4273 34.5342 31.0298C35.0252 30.5154 35.2824 29.814 35.2824 29.2762C35.2824 29.1827 35.2824 29.0891 35.259 28.9956C35.259 28.9956 35.2824 28.9956 35.2824 29.019C35.2824 29.019 35.2824 29.019 35.3058 29.019C35.3291 29.019 35.3291 29.0424 35.3525 29.0657C35.3759 29.0891 35.3759 29.0891 35.3993 29.1125C35.3993 29.1125 35.3993 29.1359 35.4227 29.1359C35.4227 29.1359 35.446 29.1593 35.446 29.1827C35.446 29.1827 35.446 29.206 35.4694 29.206L35.4928 29.2294C35.4928 29.2294 35.4928 29.2528 35.5162 29.2528V29.2762C35.5162 29.2996 35.5162 29.2996 35.5162 29.2996C35.5162 29.2996 35.5162 29.3229 35.5396 29.3463V29.3697C35.5396 29.3931 35.5396 29.3931 35.5396 29.3931C35.5396 29.4165 35.5396 29.4165 35.5396 29.4398C35.5396 29.4866 35.5396 29.51 35.563 29.5568V29.5801C35.4928 29.6035 35.4928 29.6269 35.4928 29.6503Z" fill="#C3E5CD"/>
<path d="M36.9191 29.3931C36.7555 29.51 36.6853 29.3463 36.7555 29.019C36.7555 28.9956 36.7555 28.9722 36.7789 28.9722C36.8022 29.0891 36.849 29.1359 36.9659 29.0657C37.1296 28.9254 37.2933 28.5747 37.3634 28.2708C37.3868 28.5279 37.153 29.206 36.9191 29.3931Z" fill="#C3E5CD"/>
<path d="M36.5451 27.5694C36.0074 28.1773 35.5397 27.546 35.5865 27.3122C35.8904 27.6629 36.8023 26.4003 36.9894 25.769C37.1764 26.6342 36.7322 27.3122 36.5451 27.5694Z" fill="#C3E5CD"/>
<path d="M13.8651 25.1845C15.1277 25.7222 15.5251 26.8445 14.7536 27.6395C15.1043 26.8913 13.3507 25.769 12.0179 26.1665C12.205 25.5118 12.9766 24.9039 13.8651 25.1845Z" fill="#C3E5CD"/>
<path d="M10.7554 21.7006C11.9712 22.4254 11.5737 23.6413 10.8255 23.8517C11.3633 22.9632 10.1942 22.3787 9.18884 22.4722C9.63309 21.537 10.3112 21.4668 10.7554 21.7006Z" fill="#C3E5CD"/>
<path d="M9.49268 19.8535C9.56283 19.5963 9.53945 19.3625 9.37578 19.2222C9.37578 19.2222 9.35239 19.1988 9.32901 19.1988C9.0952 19.0819 8.69772 19.269 8.41715 19.6431C8.30024 19.7833 8.2301 19.947 8.18333 20.0873C7.94952 18.9884 9.18872 18.3571 9.51606 18.5208C9.53944 18.5208 9.53944 18.5441 9.56283 18.5441C9.91355 18.8013 9.82002 19.3859 9.49268 19.8535Z" fill="#C3E5CD"/>
<path d="M37.8311 23.3373C38.3455 23.1269 38.2753 23.8985 38.1818 24.2258C38.0649 23.5945 37.6206 23.8751 37.4336 23.992C37.5037 23.7816 37.5739 23.5945 37.6908 23.4542C37.7142 23.4309 37.7843 23.3607 37.8311 23.3373Z" fill="#C3E5CD"/>
<path d="M11.8077 16.0657C11.7609 16.0424 11.7141 16.019 11.6908 15.9956C11.3634 15.9021 10.9659 16.1593 10.7789 16.4398C10.6152 16.6737 10.5685 16.8841 10.6152 17.0711C10.358 16.8373 10.3346 16.3463 10.662 15.8553C10.9426 15.4578 11.4569 15.1305 11.9012 15.2474C11.948 15.2708 12.0181 15.2942 12.0649 15.3409C12.5091 15.6449 12.3688 16.3463 11.9246 16.8139C12.0415 16.5334 12.0415 16.2294 11.8077 16.0657Z" fill="#C3E5CD"/>
<path d="M9.04864 15.8553H9.02526C8.79145 15.8086 8.4875 16.1125 8.30045 16.4165C8.18354 16.6035 8.11339 16.7672 8.09001 16.9075C7.9731 16.7672 8.09001 16.3463 8.39396 15.9489C8.62778 15.6449 8.9785 15.3409 9.18894 15.4111C9.18894 15.4111 9.21231 15.4111 9.21231 15.4345C9.37598 15.528 9.32922 15.8086 9.18894 16.0891C9.16556 15.9722 9.11878 15.9021 9.04864 15.8553Z" fill="#C3E5CD"/>
<path d="M11.7374 12.9561C11.7608 12.9795 11.8076 12.9795 11.831 13.0262C12.0414 13.2133 11.8777 13.6342 11.5738 13.9615C11.6907 13.7744 11.7141 13.5874 11.6205 13.4705C11.5971 13.4471 11.5738 13.4471 11.5504 13.4237C11.3166 13.3536 11.0126 13.564 10.8022 13.7744C10.545 14.055 10.4748 14.3122 10.5684 14.4525C10.241 14.3824 10.2878 13.8913 10.732 13.4237C10.9892 13.1431 11.4335 12.8626 11.7374 12.9561Z" fill="#C3E5CD"/>
<path d="M14.8939 12.1144C14.6134 12.0442 14.1925 12.2079 13.9587 12.4183C13.7249 12.6054 13.6314 12.8158 13.6547 12.9795C13.2573 12.8859 13.304 12.4651 13.7483 12.091C14.0522 11.8572 14.5199 11.6467 14.8472 11.7403C14.894 11.7636 14.9641 11.787 15.0342 11.8572C15.1044 11.9507 15.1044 12.091 15.0342 12.2313C14.9875 12.1611 14.9407 12.1377 14.8939 12.1144Z" fill="#C3E5CD"/>
<path d="M11.714 11.5531C11.4568 11.6466 11.223 11.7869 11.1061 11.9038C11.1528 11.7635 11.3399 11.5531 11.5737 11.366C11.8309 11.1556 12.1582 10.9685 12.3219 11.0387C12.3219 11.0387 12.3453 11.0621 12.3687 11.0621C12.4388 11.1322 12.3687 11.2959 12.205 11.4829C12.0413 11.4595 11.8543 11.5063 11.714 11.5531Z" fill="#C3E5CD"/>
<path d="M15.0811 10.1502C15.0577 10.1268 15.0343 10.1034 15.0109 10.1034C14.8239 10.0567 14.4731 10.1268 14.1692 10.3139C14.0757 10.3606 13.9821 10.4308 13.912 10.5009C13.8886 10.384 14.0523 10.197 14.3562 10.0333C14.6602 9.84625 15.0109 9.7761 15.198 9.82287C15.2213 9.84625 15.2681 9.84625 15.2681 9.86963C15.3149 9.96316 15.2447 10.0801 15.1044 10.197C15.0811 10.1736 15.0811 10.1502 15.0811 10.1502Z" fill="#C3E5CD"/>
<path d="M17.1385 9.0046V8.98121C17.1385 8.95783 17.1151 8.93445 17.0917 8.91107C16.9748 8.81755 16.6708 8.81754 16.4136 8.86431C16.3201 8.88769 16.25 8.91107 16.1798 8.93445C16.2032 8.84093 16.3669 8.72402 16.6241 8.67726C16.9046 8.60712 17.1852 8.6305 17.3021 8.72402C17.3255 8.7474 17.3489 8.7474 17.3489 8.79417C17.3723 8.86431 17.2787 8.95783 17.1385 9.0046Z" fill="#C3E5CD"/>
<path d="M51.5131 11.6303V8.1306H61.8064V11.6303H58.7184V27.1586H54.6011V11.6303H51.5131Z" fill="#22C55E"/>
<path d="M70.5103 12.5126C72.9415 12.5126 74.1571 13.8067 74.1571 16.3947V21.0414H67.4811V24.0412C67.4811 24.198 67.5301 24.3353 67.6281 24.4529C67.7458 24.5706 67.883 24.6294 68.0399 24.6294H69.6574C69.8143 24.6294 69.9417 24.5706 70.0397 24.4529C70.1574 24.3353 70.2162 24.198 70.2162 24.0412V22.4531H74.1571V23.5706C74.1571 26.1587 72.9415 27.4527 70.5103 27.4527H67.187C64.7558 27.4527 63.5402 26.1587 63.5402 23.5706V16.3947C63.5402 13.8067 64.7558 12.5126 67.187 12.5126H70.5103ZM67.4811 18.4534H70.2162V15.8065C70.2162 15.6497 70.1574 15.5124 70.0397 15.3948C69.9417 15.2771 69.8143 15.2183 69.6574 15.2183H68.0399C67.883 15.2183 67.7458 15.2771 67.6281 15.3948C67.5301 15.5124 67.4811 15.6497 67.4811 15.8065V18.4534Z" fill="#22C55E"/>
<path d="M83.2908 12.5126C85.722 12.5126 86.9376 13.8067 86.9376 16.3947V21.0414H80.2616V24.0412C80.2616 24.198 80.3107 24.3353 80.4087 24.4529C80.5263 24.5706 80.6636 24.6294 80.8204 24.6294H82.438C82.5948 24.6294 82.7222 24.5706 82.8203 24.4529C82.9379 24.3353 82.9967 24.198 82.9967 24.0412V22.4531H86.9376V23.5706C86.9376 26.1587 85.722 27.4527 83.2908 27.4527H79.9675C77.5364 27.4527 76.3208 26.1587 76.3208 23.5706V16.3947C76.3208 13.8067 77.5364 12.5126 79.9675 12.5126H83.2908ZM80.2616 18.4534H82.9967V15.8065C82.9967 15.6497 82.9379 15.5124 82.8203 15.3948C82.7222 15.2771 82.5948 15.2183 82.438 15.2183H80.8204C80.6636 15.2183 80.5263 15.2771 80.4087 15.3948C80.3107 15.5124 80.2616 15.6497 80.2616 15.8065V18.4534Z" fill="#22C55E"/>
<path d="M88.1602 11.6303V8.1306H98.4535V11.6303H95.3655V27.1586H91.2482V11.6303H88.1602Z" fill="#22C55E"/>
<path d="M104.187 11.0127C103.775 11.4245 103.275 11.6303 102.687 11.6303C102.099 11.6303 101.589 11.4245 101.158 11.0127C100.727 10.5814 100.511 10.0716 100.511 9.48344C100.511 8.87564 100.727 8.36587 101.158 7.95414C101.589 7.5228 102.099 7.30713 102.687 7.30713C103.275 7.30713 103.775 7.5228 104.187 7.95414C104.618 8.36587 104.834 8.87564 104.834 9.48344C104.834 10.0912 104.618 10.601 104.187 11.0127ZM100.717 27.1586V12.8067H104.658V27.1586H100.717Z" fill="#22C55E"/>
<path d="M120.365 12.5126C122.796 12.5126 124.012 13.8067 124.012 16.3947V27.1586H120.071V15.9241C120.071 15.7673 120.012 15.63 119.895 15.5124C119.796 15.3948 119.669 15.336 119.512 15.336H118.248C118.091 15.336 117.953 15.3948 117.836 15.5124C117.738 15.63 117.689 15.7673 117.689 15.9241V27.1586H113.748V15.9241C113.748 15.7673 113.689 15.63 113.571 15.5124C113.473 15.3948 113.346 15.336 113.189 15.336H111.925C111.768 15.336 111.63 15.3948 111.513 15.5124C111.415 15.63 111.366 15.7673 111.366 15.9241V27.1586H107.425V12.8067H111.013V13.542C111.621 12.8557 112.542 12.5126 113.777 12.5126H114.042C115.493 12.5126 116.503 12.9636 117.071 13.8655C117.679 12.9636 118.689 12.5126 120.1 12.5126H120.365Z" fill="#22C55E"/>
<path d="M133.839 12.5126C136.27 12.5126 137.485 13.8067 137.485 16.3947V21.0414H130.809V24.0412C130.809 24.198 130.858 24.3353 130.956 24.4529C131.074 24.5706 131.211 24.6294 131.368 24.6294H132.986C133.143 24.6294 133.27 24.5706 133.368 24.4529C133.486 24.3353 133.544 24.198 133.544 24.0412V22.4531H137.485V23.5706C137.485 26.1587 136.27 27.4527 133.839 27.4527H130.515C128.084 27.4527 126.869 26.1587 126.869 23.5706V16.3947C126.869 13.8067 128.084 12.5126 130.515 12.5126H133.839ZM130.809 18.4534H133.544V15.8065C133.544 15.6497 133.486 15.5124 133.368 15.3948C133.27 15.2771 133.143 15.2183 132.986 15.2183H131.368C131.211 15.2183 131.074 15.2771 130.956 15.3948C130.858 15.5124 130.809 15.6497 130.809 15.8065V18.4534Z" fill="#22C55E"/>
<path d="M57.2273 37.1019H58.5532L61.8778 46.2461H60.7151L60.0359 44.3781H55.7446L55.0719 46.2461H53.9027L57.2273 37.1019ZM56.1496 43.2808H59.6309L57.887 38.5062L56.1496 43.2808Z" fill="#03314B"/>
<path d="M67.1179 46.2461V36.4487H68.2152V46.2461H67.1179Z" fill="#03314B"/>
<path d="M76.6438 46.4159C76.0429 46.4159 75.4942 46.2613 74.9978 45.9522C74.5058 45.643 74.1117 45.2293 73.8156 44.7112C73.5239 44.1886 73.378 43.6117 73.378 42.9803C73.378 42.5013 73.4629 42.055 73.6327 41.6413C73.8026 41.2233 74.0355 40.8575 74.3316 40.544C74.6321 40.2262 74.9804 39.978 75.3767 39.7994C75.7729 39.6209 76.1953 39.5316 76.6438 39.5316C77.1358 39.5316 77.5865 39.6318 77.9958 39.8321C78.4095 40.028 78.7622 40.3024 79.0539 40.6551C79.35 41.0078 79.5699 41.4171 79.7136 41.883C79.8617 42.3489 79.9161 42.8475 79.8769 43.3787H74.5472C74.5994 43.7488 74.7213 44.0798 74.9129 44.3715C75.1045 44.6589 75.3484 44.8875 75.6445 45.0573C75.9449 45.2272 76.278 45.3142 76.6438 45.3186C77.0357 45.3186 77.3906 45.2185 77.7084 45.0182C78.0263 44.8135 78.2832 44.5348 78.4792 44.1821L79.5961 44.4434C79.3348 45.0225 78.9407 45.4971 78.4139 45.8673C77.887 46.233 77.297 46.4159 76.6438 46.4159ZM74.5145 42.5166H78.7731C78.7383 42.1508 78.6207 41.8177 78.4204 41.5172C78.2201 41.2124 77.9654 40.9686 77.6562 40.7857C77.347 40.6028 77.0096 40.5114 76.6438 40.5114C76.278 40.5114 75.9427 40.6006 75.6379 40.7792C75.3331 40.9577 75.0806 41.1994 74.8803 41.5042C74.6843 41.8046 74.5624 42.1421 74.5145 42.5166Z" fill="#03314B"/>
<path d="M85.0272 46.2461V39.7145H86.1245V40.531C86.3553 40.2262 86.647 39.9845 86.9997 39.806C87.3524 39.6231 87.7356 39.5316 88.1493 39.5316C88.4018 39.5316 88.6457 39.5643 88.8808 39.6296L88.4366 40.7269C88.2581 40.6703 88.0839 40.642 87.9141 40.642C87.5875 40.642 87.2871 40.7226 87.0128 40.8837C86.7428 41.0404 86.5273 41.2538 86.3661 41.5238C86.205 41.7937 86.1245 42.0942 86.1245 42.4251V46.2461H85.0272Z" fill="#03314B"/>
<path d="M97.2312 40.8118H95.7485L95.742 46.2461H94.6447L94.6512 40.8118H93.5278V39.7145H94.6512L94.6447 37.6636H95.742L95.7485 39.7145H97.2312V40.8118Z" fill="#03314B"/>
<path d="M104.38 46.3702C104.027 46.3571 103.683 46.2918 103.348 46.1742C103.017 46.0523 102.725 45.889 102.473 45.6844C102.225 45.4754 102.044 45.2359 101.931 44.9659L102.871 44.5609C102.937 44.709 103.054 44.8483 103.224 44.979C103.394 45.1096 103.59 45.2141 103.812 45.2925C104.034 45.3709 104.258 45.41 104.485 45.41C104.724 45.41 104.948 45.373 105.157 45.299C105.366 45.225 105.536 45.1161 105.667 44.9724C105.802 44.8244 105.869 44.648 105.869 44.4434C105.869 44.2257 105.795 44.0558 105.647 43.9339C105.503 43.8076 105.321 43.7097 105.098 43.64C104.881 43.566 104.659 43.4963 104.432 43.431C103.984 43.3178 103.583 43.1828 103.23 43.026C102.878 42.8649 102.599 42.6624 102.394 42.4186C102.194 42.1704 102.094 41.8547 102.094 41.4715C102.094 41.0666 102.205 40.716 102.427 40.4199C102.653 40.1238 102.95 39.8952 103.315 39.7341C103.681 39.573 104.073 39.4924 104.491 39.4924C105.018 39.4924 105.499 39.6057 105.935 39.8321C106.37 40.0585 106.694 40.3655 106.908 40.753L106.026 41.269C105.952 41.1123 105.839 40.9751 105.686 40.8575C105.534 40.7356 105.36 40.6398 105.164 40.5702C104.968 40.5005 104.768 40.4635 104.563 40.4591C104.31 40.4504 104.073 40.4831 103.851 40.5571C103.633 40.6311 103.457 40.7443 103.322 40.8967C103.191 41.0448 103.126 41.2298 103.126 41.4519C103.126 41.6696 103.196 41.8351 103.335 41.9483C103.479 42.0615 103.664 42.153 103.89 42.2226C104.121 42.288 104.371 42.3642 104.641 42.4512C105.038 42.5775 105.408 42.7234 105.752 42.8889C106.096 43.0543 106.372 43.2612 106.581 43.5094C106.795 43.7576 106.899 44.0645 106.895 44.4303C106.895 44.8309 106.775 45.1814 106.535 45.4819C106.296 45.778 105.985 46.0044 105.601 46.1612C105.223 46.3179 104.815 46.3876 104.38 46.3702Z" fill="#03314B"/>
</svg>
