<svg width="1919" height="678" viewBox="0 0 1919 678" fill="none" xmlns="http://www.w3.org/2000/svg">
<rect width="1967" height="678" fill="#03314B"/>
<mask id="mask0_203_129" style="mask-type:alpha" maskUnits="userSpaceOnUse" x="0" y="0" width="1920" height="678">
<rect width="1920" height="678" fill="#03314B"/>
</mask>
<g mask="url(#mask0_203_129)">
<path d="M1441.11 89.0107L1438.95 91.7552L1435.95 92.8442L1438.48 94.9657L1439.78 98L1441.69 95.438L1444.94 94.1666L1442.16 92.2275L1441.11 89.0107Z" fill="#93D5F7"/>
<path d="M1241.22 264.048L1239.86 265.817L1237.78 266.604L1239.55 267.958L1240.34 270.043L1241.69 268.273L1243.77 267.486L1242 266.132L1241.22 264.048Z" fill="#93D5F7"/>
<path d="M1731.19 425.559L1730.05 427.36L1727.97 428.147L1729.74 429.501L1730.31 431.553L1731.67 429.784L1733.75 428.997L1731.98 427.643L1731.19 425.559Z" fill="#93D5F7"/>
<path opacity="0.29" d="M1780.77 80.3791L1779.42 82.1486L1777.33 82.9357L1779.1 84.2896L1779.89 86.374L1781.24 84.6045L1783.33 83.8174L1781.56 82.4635L1780.77 80.3791Z" fill="white"/>
<path opacity="0.29" d="M1833.43 495.263L1832.08 497.032L1830 497.819L1831.77 499.173L1832.55 501.257L1833.91 499.488L1835.99 498.701L1834.22 497.347L1833.43 495.263Z" fill="white"/>
<path opacity="0.29" d="M1872.03 133.599L1870.67 135.368L1868.59 136.155L1870.36 137.509L1871.14 139.594L1872.5 137.824L1874.58 137.037L1872.81 135.683L1872.03 133.599Z" fill="white"/>
<path opacity="0.29" d="M1621.63 130.746L1620.27 132.516L1618.4 133.334L1619.96 134.657L1620.74 136.741L1622.1 134.972L1624.18 134.184L1622.41 132.831L1621.63 130.746Z" fill="white"/>
<path opacity="0.29" d="M1860.61 53.6412L1858.12 57.2103L1853.98 58.5696L1857.52 61.2769L1858.88 65.4129L1861.59 61.8753L1865.75 60.3019L1862.18 57.8087L1860.61 53.6412Z" fill="white"/>
<path opacity="0.29" d="M1012.27 94.1454L1009.57 97.6831L1005.64 99.0741L1008.97 101.75L1010.54 105.917L1013.25 102.379L1017.2 100.774L1013.85 98.3128L1012.27 94.1454Z" fill="white"/>
<path opacity="0.29" d="M987.627 378.926L985.164 382.281L980.995 383.855L984.534 386.562L985.925 390.484L988.602 387.16L992.771 385.586L989.232 382.879L987.627 378.926Z" fill="white"/>
<path opacity="0.29" d="M1794.47 424.152L1793.33 425.953L1791.28 426.526L1793.04 427.88L1793.65 429.719L1794.97 428.164L1796.84 427.345L1795.26 426.237L1794.47 424.152Z" fill="white"/>
<path opacity="0.29" d="M1415.18 480.579L1414.07 482.165L1411.98 482.953L1413.78 484.092L1414.36 486.145L1415.71 484.376L1417.55 483.771L1415.99 482.449L1415.18 480.579Z" fill="#FEA7AF"/>
<path opacity="0.29" d="M1343.73 419.068L1342.38 420.838L1340.54 421.442L1342.1 422.765L1342.91 424.635L1344.02 423.048L1346.11 422.261L1344.31 421.121L1343.73 419.068Z" fill="#FEA7AF"/>
<path opacity="0.29" d="M1175.6 82.7505L1174.28 84.306L1172.41 85.1246L1173.99 86.2328L1174.78 88.3172L1175.92 86.5162L1177.97 85.9433L1176.21 84.5894L1175.6 82.7505Z" fill="#FEA7AF"/>
<path opacity="0.29" d="M1037.99 237.431L1036.67 238.986L1034.8 239.805L1036.38 240.913L1037.2 242.783L1038.31 241.196L1040.36 240.623L1038.59 239.269L1037.99 237.431Z" fill="white"/>
<path opacity="0.29" d="M1141.95 6.73731L1140.81 8.53826L1138.76 9.11132L1140.53 10.4652L1141.13 12.304L1142.45 10.7486L1144.32 9.93003L1142.74 8.82165L1141.95 6.73731Z" fill="white"/>
<path opacity="0.29" d="M1353.87 120.438L1351.66 123.611L1348.19 124.851L1351.15 127.035L1352.36 130.712L1354.79 127.571L1358.26 126.33L1355.3 124.146L1353.87 120.438Z" fill="#FEA7AF"/>
<path d="M1657.65 517.274L1654.42 521.391L1649.58 523.084L1653.69 526.313L1655.6 531.186L1658.62 527.038L1663.49 525.13L1659.34 522.115L1657.65 517.274Z" fill="#5485BA"/>
<path d="M1130.27 322.288L1129.2 323.661L1127.57 324.297L1128.94 325.374L1129.55 327.212L1130.66 325.626L1132.28 324.99L1130.91 323.913L1130.27 322.288Z" fill="white"/>
<path d="M1110.8 142.532L1109.69 144.118L1108.07 144.754L1109.44 145.831L1110.08 147.456L1111.15 146.083L1112.99 145.479L1111.41 144.37L1110.8 142.532Z" fill="white"/>
<path opacity="0.33" d="M1226.5 343.222L1225.15 344.992L1222.85 345.747L1224.8 347.347L1225.58 349.431L1226.94 347.662L1229.27 346.692L1227.29 345.307L1226.5 343.222Z" fill="#FEA7AF"/>
<path opacity="0.33" d="M1165.33 397.634L1163.98 399.404L1161.86 400.405L1163.63 401.759L1164.42 403.843L1165.99 402.105L1168.07 401.318L1166.33 399.75L1165.33 397.634Z" fill="#FEA7AF"/>
<path opacity="0.33" d="M1205.31 170.648L1203.96 172.418L1201.63 173.387L1203.61 174.773L1204.4 176.857L1205.75 175.088L1207.84 174.3L1206.1 172.732L1205.31 170.648Z" fill="#FEA7AF"/>
<path opacity="0.33" d="M1369.67 242.93L1368.28 244.913L1365.98 245.669L1367.97 247.054L1368.72 249.353L1370.11 247.369L1372.19 246.582L1370.42 245.228L1369.67 242.93Z" fill="#FEA7AF"/>
<path opacity="0.33" d="M916.656 204.275L915.27 206.259L913.185 207.046L914.955 208.4L915.71 210.699L917.31 208.746L919.395 207.959L917.625 206.605L916.656 204.275Z" fill="#FEA7AF"/>
<path opacity="0.29" d="M1009.68 314.279L1006.97 317.816L1003.05 319.207L1006.37 321.883L1007.95 326.05L1010.66 322.513L1014.61 320.908L1011.25 318.446L1009.68 314.279Z" fill="white"/>
<path opacity="0.29" d="M985.034 599.059L982.571 602.415L978.402 603.988L981.941 606.695L983.332 610.617L986.009 607.293L990.178 605.72L986.639 603.013L985.034 599.059Z" fill="white"/>
<path opacity="0.29" d="M1791.88 644.286L1790.74 646.087L1788.68 646.66L1790.45 648.014L1791.06 649.852L1792.38 648.297L1794.25 647.478L1792.66 646.37L1791.88 644.286Z" fill="white"/>
<path opacity="0.29" d="M1376.09 560.816L1374.98 562.403L1372.89 563.19L1374.69 564.33L1375.27 566.383L1376.62 564.614L1378.46 564.009L1376.91 562.687L1376.09 560.816Z" fill="#FEA7AF"/>
<path opacity="0.29" d="M1341.14 619.21L1339.79 620.979L1337.95 621.584L1339.5 622.906L1340.32 624.776L1341.43 623.19L1343.52 622.402L1341.71 621.263L1341.14 619.21Z" fill="#FEA7AF"/>
<path opacity="0.29" d="M1173.01 302.884L1171.69 304.439L1169.81 305.258L1171.4 306.366L1172.19 308.451L1173.33 306.65L1175.38 306.077L1173.61 304.723L1173.01 302.884Z" fill="#FEA7AF"/>
<path opacity="0.29" d="M1035.4 457.564L1034.07 459.119L1032.2 459.938L1033.79 461.046L1034.61 462.917L1035.72 461.33L1037.77 460.757L1036 459.403L1035.4 457.564Z" fill="white"/>
<path opacity="0.29" d="M1139.36 226.871L1138.22 228.672L1136.16 229.245L1137.93 230.599L1138.54 232.437L1139.86 230.882L1141.73 230.064L1140.14 228.955L1139.36 226.871Z" fill="white"/>
<path opacity="0.29" d="M1351.28 390.552L1349.06 393.724L1345.6 394.964L1348.56 397.149L1349.77 400.825L1352.2 397.684L1355.66 396.444L1352.7 394.26L1351.28 390.552Z" fill="#FEA7AF"/>
<path d="M1461.08 567.478L1460.01 568.851L1458.38 569.487L1459.75 570.564L1460.36 572.402L1461.47 570.816L1463.09 570.18L1461.72 569.103L1461.08 567.478Z" fill="white"/>
<path d="M1108.21 362.665L1107.1 364.252L1105.48 364.888L1106.85 365.965L1107.48 367.589L1108.56 366.217L1110.4 365.612L1108.81 364.504L1108.21 362.665Z" fill="white"/>
<path opacity="0.33" d="M1471.85 397.169L1469.94 399.731L1466.73 400.788L1469.47 402.941L1470.56 405.944L1472.47 403.382L1475.5 402.079L1472.94 400.171L1471.85 397.169Z" fill="#FEA7AF"/>
<path opacity="0.33" d="M1557.31 588.412L1555.96 590.182L1553.66 590.937L1555.61 592.537L1556.4 594.621L1557.75 592.852L1560.08 591.882L1558.1 590.496L1557.31 588.412Z" fill="#FEA7AF"/>
<path opacity="0.33" d="M1496.15 622.832L1494.79 624.602L1492.68 625.603L1494.44 626.957L1495.23 629.041L1496.8 627.303L1498.88 626.516L1497.15 624.948L1496.15 622.832Z" fill="#FEA7AF"/>
<path opacity="0.33" d="M1202.72 390.781L1201.37 392.551L1199.04 393.521L1201.02 394.906L1201.81 396.99L1203.16 395.221L1205.25 394.434L1203.51 392.866L1202.72 390.781Z" fill="#FEA7AF"/>
<path opacity="0.33" d="M1367.07 463.063L1365.69 465.047L1363.39 465.803L1365.37 467.188L1366.13 469.486L1367.51 467.503L1369.6 466.716L1367.83 465.362L1367.07 463.063Z" fill="#FEA7AF"/>
<path opacity="0.33" d="M914.063 424.409L912.677 426.392L910.593 427.179L912.362 428.533L913.117 430.832L914.717 428.88L916.802 428.093L915.032 426.739L914.063 424.409Z" fill="#FEA7AF"/>
<g opacity="0.22">
<path opacity="0.22" d="M1735.98 155.788C1737.1 166.011 1746.31 173.27 1756.54 172.15C1766.77 171.03 1774.03 161.82 1772.91 151.597C1771.79 141.373 1762.58 134.114 1752.35 135.234C1742.13 136.354 1734.87 145.564 1735.98 155.788Z" fill="url(#paint0_linear_203_129)"/>
<path opacity="0.22" d="M1735.46 150.462C1735.46 150.462 1733.43 150.821 1730.06 151.419C1728.47 151.841 1726.45 152.199 1723.94 152.923C1721.64 153.679 1718.91 154.371 1716.46 156.197C1715.93 156.776 1714.98 157.293 1714.79 158.577C1714.76 158.791 1714.76 158.791 1714.73 159.005L1714.7 159.219C1714.88 159.465 1715.03 159.924 1715.25 159.956C1715.61 160.447 1716.01 160.724 1716.44 160.787C1718.05 161.681 1719.77 161.933 1721.45 162.399C1724.84 163.116 1728.51 163.438 1732.25 163.331C1739.65 163.545 1747.61 162.966 1755.39 162.141C1763.2 161.102 1771.04 159.85 1778.3 158.074C1781.95 157.08 1785.38 156.053 1788.63 154.782C1790.25 154.146 1791.69 153.264 1793.17 152.169C1793.45 151.772 1793.91 151.621 1794 150.979C1794.28 150.582 1794.37 149.94 1794.25 149.267C1794.28 149.052 1793.55 148.07 1793.34 148.039C1792.94 147.762 1792.55 147.485 1792.12 147.422C1789.22 146.339 1786.4 146.144 1784.01 146.011C1781.63 145.879 1779.45 145.778 1777.68 145.955C1774.16 146.093 1772.17 146.238 1772.17 146.238C1772.17 146.238 1774.13 146.307 1777.58 146.597C1779.33 146.635 1781.47 146.949 1783.86 147.082C1786.21 147.428 1788.99 147.837 1791.47 148.857C1791.65 149.103 1792.08 149.166 1792.26 149.411C1792.48 149.443 1792.44 149.657 1792.44 149.657C1792.44 149.657 1792.41 149.871 1792.63 149.902C1792.81 150.148 1792.5 150.759 1792.01 151.124C1791 152.068 1789.37 152.704 1787.96 153.371C1784.96 154.461 1781.52 155.487 1777.91 156.267C1770.89 157.86 1763.05 159.113 1755.28 159.938C1747.5 160.762 1739.75 161.373 1732.32 161.373C1728.61 161.265 1725.13 161.19 1721.91 160.718C1718.92 160.277 1714.48 159.188 1717.4 157.211C1719.61 155.568 1722.15 154.629 1724.48 153.66C1726.78 152.904 1728.62 152.3 1730.46 151.696C1733.65 150.852 1735.46 150.462 1735.46 150.462Z" fill="url(#paint1_linear_203_129)"/>
</g>
<g opacity="0.33">
<path opacity="0.33" d="M1221.97 90.2244L1176.3 121.121C1176.05 121.304 1175.99 121.732 1176.17 121.977C1176.35 122.223 1176.78 122.286 1177.03 122.103L1223.58 92.6482C1224.32 92.1005 1224.44 91.2443 1224.11 90.5392C1223.53 90.0167 1222.7 89.6768 1221.97 90.2244Z" fill="url(#paint2_linear_203_129)"/>
<path opacity="0.33" d="M1204.9 102.146L1176.94 121.214C1176.69 121.397 1176.66 121.611 1176.88 121.642C1177.06 121.888 1177.27 121.919 1177.3 121.705L1205.78 103.588C1206.27 103.223 1206.34 102.795 1205.97 102.304C1205.82 101.844 1205.39 101.781 1204.9 102.146Z" fill="url(#paint3_linear_203_129)"/>
</g>
<g opacity="0.35">
<g opacity="0.35">
<path opacity="0.35" d="M1828.78 241.583L1702.66 327.133C1701.93 327.681 1701.8 328.537 1702.14 329.242C1702.68 329.979 1703.54 330.105 1704.24 329.771L1833.22 248.577C1835.15 247.33 1835.75 244.793 1834.5 242.861C1833.29 240.714 1830.75 240.122 1828.78 241.583Z" fill="url(#paint4_linear_203_129)"/>
<path opacity="0.35" d="M1781.51 274.428L1704.23 326.921C1703.74 327.286 1703.67 327.714 1704.04 328.205C1704.4 328.696 1704.83 328.759 1705.32 328.394L1784.4 278.571C1785.6 277.872 1786.06 276.191 1785.15 274.963C1784.21 273.95 1782.74 273.515 1781.51 274.428Z" fill="url(#paint5_linear_203_129)"/>
</g>
<g opacity="0.35">
<path opacity="0.35" d="M1865.07 258.079L1807.25 297.25C1807 297.433 1806.94 297.861 1807.09 298.32C1807.27 298.566 1807.7 298.629 1808.16 298.478L1867.23 261.239C1868.18 260.723 1868.37 259.439 1867.86 258.488C1867.09 257.72 1866.02 257.563 1865.07 258.079Z" fill="url(#paint6_linear_203_129)"/>
<path opacity="0.35" d="M1843.37 273.255L1807.89 297.342C1807.64 297.525 1807.61 297.739 1807.79 297.984C1807.98 298.23 1808.19 298.261 1808.44 298.079L1844.62 275.188C1845.11 274.823 1845.42 274.212 1845.08 273.507C1844.72 273.016 1843.86 272.89 1843.37 273.255Z" fill="url(#paint7_linear_203_129)"/>
</g>
</g>
<path d="M309.587 118.999L311.741 121.744L314.745 122.833L312.214 124.954L310.911 127.989L309.003 125.427L305.753 124.155L308.53 122.216L309.587 118.999Z" fill="#93D5F7"/>
<path d="M509.476 294.036L510.83 295.806L512.915 296.593L511.145 297.947L510.359 300.031L509.004 298.262L506.92 297.475L508.689 296.121L509.476 294.036Z" fill="#93D5F7"/>
<path d="M19.4991 455.547L20.6393 457.348L22.7239 458.135L20.9546 459.489L20.382 461.542L19.0277 459.772L16.943 458.985L18.7124 457.631L19.4991 455.547Z" fill="#93D5F7"/>
<path opacity="0.29" d="M129.066 160.735L130.42 162.504L132.29 163.323L130.735 164.645L129.948 166.729L128.594 164.96L126.509 164.173L128.279 162.819L129.066 160.735Z" fill="white"/>
<path opacity="0.29" d="M738.419 124.134L741.127 127.671L745.05 129.062L741.726 131.738L740.152 135.905L737.444 132.368L733.489 130.763L736.845 128.301L738.419 124.134Z" fill="white"/>
<path opacity="0.29" d="M763.066 408.914L765.529 412.269L769.698 413.843L766.16 416.55L764.769 420.472L762.092 417.148L757.923 415.575L761.461 412.868L763.066 408.914Z" fill="white"/>
<path opacity="0.29" d="M335.515 510.567L336.624 512.154L338.709 512.941L336.908 514.081L336.335 516.134L334.981 514.364L333.142 513.76L334.697 512.437L335.515 510.567Z" fill="#FEA7AF"/>
<path opacity="0.29" d="M406.959 449.057L408.313 450.826L410.152 451.431L408.597 452.753L407.779 454.623L406.67 453.037L404.585 452.249L406.386 451.11L406.959 449.057Z" fill="#FEA7AF"/>
<path opacity="0.29" d="M575.092 112.739L576.414 114.294L578.285 115.113L576.698 116.221L575.911 118.305L574.771 116.504L572.718 115.931L574.488 114.578L575.092 112.739Z" fill="#FEA7AF"/>
<path opacity="0.29" d="M712.705 267.419L714.028 268.974L715.898 269.793L714.311 270.901L713.493 272.771L712.384 271.184L710.331 270.611L712.101 269.258L712.705 267.419Z" fill="white"/>
<path opacity="0.29" d="M608.744 36.7258L609.884 38.5268L611.937 39.0999L610.168 40.4538L609.564 42.2925L608.241 40.7371L606.371 39.9186L607.957 38.8102L608.744 36.7258Z" fill="white"/>
<path opacity="0.29" d="M396.818 150.426L399.035 153.599L402.498 154.839L399.539 157.024L398.33 160.7L395.899 157.559L392.436 156.319L395.395 154.134L396.818 150.426Z" fill="#FEA7AF"/>
<path d="M413.618 601.062L416.849 605.179L421.692 606.872L417.574 610.102L415.667 614.974L412.65 610.826L407.776 608.919L411.925 605.903L413.618 601.062Z" fill="white"/>
<path d="M620.421 352.276L621.498 353.649L623.123 354.285L621.751 355.362L621.146 357.2L620.038 355.614L618.413 354.978L619.785 353.901L620.421 352.276Z" fill="white"/>
<path d="M639.891 172.52L641 174.107L642.625 174.743L641.252 175.82L640.616 177.444L639.539 176.072L637.7 175.467L639.287 174.359L639.891 172.52Z" fill="white"/>
<path opacity="0.33" d="M524.194 373.211L525.548 374.98L527.847 375.736L525.895 377.335L525.108 379.42L523.754 377.65L521.423 376.68L523.407 375.295L524.194 373.211Z" fill="#FEA7AF"/>
<path opacity="0.33" d="M585.36 427.623L586.714 429.392L588.83 430.394L587.061 431.747L586.274 433.832L584.706 432.094L582.621 431.307L584.359 429.739L585.36 427.623Z" fill="#FEA7AF"/>
<path opacity="0.33" d="M545.378 200.636L546.732 202.406L549.063 203.376L547.079 204.761L546.292 206.845L544.938 205.076L542.854 204.289L544.591 202.721L545.378 200.636Z" fill="#FEA7AF"/>
<path opacity="0.33" d="M381.026 272.918L382.412 274.902L384.711 275.657L382.728 277.043L381.972 279.341L380.586 277.358L378.502 276.571L380.271 275.217L381.026 272.918Z" fill="#FEA7AF"/>
<path opacity="0.33" d="M834.037 234.264L835.423 236.247L837.508 237.034L835.739 238.388L834.983 240.687L833.383 238.735L831.299 237.948L833.068 236.594L834.037 234.264Z" fill="#FEA7AF"/>
<path opacity="0.29" d="M741.015 344.267L743.723 347.805L747.646 349.196L744.322 351.872L742.748 356.039L740.04 352.501L736.085 350.896L739.441 348.435L741.015 344.267Z" fill="white"/>
<path opacity="0.29" d="M765.66 629.048L768.123 632.403L772.292 633.976L768.753 636.684L767.362 640.605L764.686 637.282L760.517 635.708L764.055 633.001L765.66 629.048Z" fill="white"/>
<path opacity="0.29" d="M374.609 590.805L375.718 592.392L377.802 593.179L376.002 594.319L375.429 596.371L374.075 594.602L372.236 593.998L373.791 592.675L374.609 590.805Z" fill="#FEA7AF"/>
<path opacity="0.29" d="M409.553 649.198L410.907 650.967L412.746 651.572L411.191 652.894L410.372 654.765L409.264 653.178L407.179 652.391L408.98 651.251L409.553 649.198Z" fill="#FEA7AF"/>
<path opacity="0.29" d="M577.687 332.872L579.01 334.428L580.881 335.246L579.294 336.355L578.507 338.439L577.367 336.638L575.314 336.065L577.083 334.711L577.687 332.872Z" fill="#FEA7AF"/>
<path opacity="0.29" d="M715.299 487.552L716.621 489.108L718.492 489.926L716.905 491.035L716.087 492.905L714.978 491.318L712.925 490.745L714.695 489.391L715.299 487.552Z" fill="white"/>
<path opacity="0.29" d="M611.338 256.859L612.478 258.66L614.531 259.233L612.762 260.587L612.157 262.426L610.835 260.87L608.964 260.052L610.551 258.943L611.338 256.859Z" fill="white"/>
<path opacity="0.29" d="M399.413 420.54L401.63 423.713L405.094 424.953L402.135 427.137L400.926 430.814L398.495 427.673L395.031 426.433L397.991 424.248L399.413 420.54Z" fill="#FEA7AF"/>
<path d="M623.015 572.41L624.092 573.783L625.717 574.419L624.344 575.496L623.74 577.334L622.632 575.747L621.007 575.111L622.379 574.035L623.015 572.41Z" fill="white"/>
<path d="M642.485 392.653L643.594 394.24L645.218 394.876L643.846 395.953L643.21 397.577L642.133 396.205L640.294 395.6L641.881 394.492L642.485 392.653Z" fill="white"/>
<path opacity="0.33" d="M278.842 427.157L280.751 429.719L283.969 430.776L281.223 432.929L280.134 435.932L278.226 433.37L275.191 432.067L277.753 430.16L278.842 427.157Z" fill="#FEA7AF"/>
<path opacity="0.33" d="M526.787 593.344L528.142 595.113L530.44 595.869L528.488 597.468L527.702 599.553L526.347 597.783L524.017 596.814L526.001 595.428L526.787 593.344Z" fill="#FEA7AF"/>
<path opacity="0.33" d="M587.953 627.764L589.308 629.533L591.424 630.534L589.655 631.888L588.868 633.973L587.299 632.235L585.215 631.448L586.953 629.88L587.953 627.764Z" fill="#FEA7AF"/>
<path opacity="0.33" d="M547.972 420.77L549.326 422.539L551.656 423.509L549.673 424.895L548.886 426.979L547.532 425.209L545.447 424.422L547.185 422.854L547.972 420.77Z" fill="#FEA7AF"/>
<path opacity="0.33" d="M383.62 493.052L385.006 495.035L387.305 495.791L385.321 497.176L384.566 499.475L383.18 497.491L381.096 496.704L382.865 495.35L383.62 493.052Z" fill="#FEA7AF"/>
<path opacity="0.33" d="M836.631 454.397L838.017 456.381L840.102 457.168L838.332 458.522L837.577 460.82L835.977 458.868L833.892 458.081L835.662 456.727L836.631 454.397Z" fill="#FEA7AF"/>
<g opacity="0.22">
<path opacity="0.22" d="M14.7087 185.776C13.5896 196 4.37857 203.259 -5.84765 202.138C-16.0739 201.018 -23.3357 191.809 -22.2166 181.585C-21.0975 171.362 -11.8865 164.103 -1.66026 165.223C8.56595 166.343 15.8278 175.552 14.7087 185.776Z" fill="url(#paint8_linear_203_129)"/>
<path opacity="0.22" d="M15.2382 180.45C15.2382 180.45 17.2596 180.809 20.6288 181.407C22.222 181.829 24.2435 182.188 26.7562 182.912C29.0548 183.667 31.7816 184.36 34.2379 186.186C34.7607 186.765 35.7117 187.281 35.9009 188.565C35.9324 188.78 35.9324 188.78 35.9639 188.994L35.9954 189.208C35.8129 189.453 35.6618 189.913 35.4477 189.944C35.0826 190.435 34.6859 190.712 34.2577 190.775C32.6396 191.669 30.9267 191.921 29.2455 192.387C25.8514 193.105 22.1802 193.426 18.446 193.319C11.0405 193.533 3.08076 192.954 -4.69644 192.13C-12.5052 191.091 -20.3454 189.838 -27.6064 188.063C-31.2527 187.068 -34.6849 186.042 -37.9345 184.77C-39.5593 184.134 -41.0015 183.253 -42.4753 182.157C-42.7524 181.761 -43.2121 181.61 -43.3067 180.968C-43.5839 180.571 -43.6785 179.929 -43.559 179.255C-43.5905 179.041 -42.8602 178.059 -42.6461 178.027C-42.2494 177.75 -41.8528 177.473 -41.4246 177.41C-38.5218 176.327 -35.707 176.132 -33.3204 176C-30.9338 175.868 -28.7612 175.767 -26.9854 175.943C-23.4652 176.082 -21.4753 176.226 -21.4753 176.226C-21.4753 176.226 -23.4337 176.296 -26.8908 176.585C-28.6351 176.623 -30.7761 176.938 -33.1628 177.07C-35.5178 177.416 -38.3011 177.826 -40.7757 178.846C-40.9582 179.091 -41.3865 179.154 -41.569 179.4C-41.7831 179.431 -41.7516 179.645 -41.7516 179.645C-41.7516 179.645 -41.7201 179.859 -41.9342 179.891C-42.1167 180.136 -41.8081 180.747 -41.3168 181.112C-40.3028 182.057 -38.678 182.693 -37.2673 183.36C-34.2633 184.449 -30.8311 185.475 -27.2164 186.256C-20.201 187.849 -12.3607 189.101 -4.58353 189.926C3.19367 190.751 10.9393 191.361 18.3763 191.361C22.0791 191.254 25.5677 191.178 28.7792 190.706C31.7765 190.265 36.2095 189.176 33.2935 187.199C31.0829 185.556 28.5386 184.618 26.2085 183.648C23.9099 182.893 22.071 182.289 20.2321 181.684C17.0455 180.841 15.2382 180.45 15.2382 180.45Z" fill="url(#paint9_linear_203_129)"/>
</g>
<g opacity="0.33">
<path opacity="0.33" d="M528.725 120.213L574.396 151.109C574.642 151.292 574.705 151.72 574.523 151.965C574.34 152.211 573.912 152.274 573.666 152.091L527.114 122.636C526.377 122.089 526.251 121.232 526.584 120.527C527.163 120.005 527.988 119.665 528.725 120.213Z" fill="url(#paint10_linear_203_129)"/>
<path opacity="0.33" d="M545.792 132.134L573.754 151.202C574 151.385 574.031 151.599 573.817 151.63C573.635 151.876 573.421 151.907 573.389 151.693L544.911 133.576C544.419 133.211 544.356 132.783 544.722 132.292C544.873 131.832 545.301 131.769 545.792 132.134Z" fill="url(#paint11_linear_203_129)"/>
</g>
<g opacity="0.35">
<g opacity="0.35">
<path opacity="0.35" d="M-78.0925 271.571L48.0265 357.121C48.7634 357.669 48.8895 358.525 48.556 359.23C48.0083 359.967 47.152 360.093 46.4467 359.759L-82.5301 278.565C-84.4635 277.319 -85.056 274.781 -83.8097 272.849C-82.5949 270.702 -80.0574 270.11 -78.0925 271.571Z" fill="url(#paint12_linear_203_129)"/>
<path opacity="0.35" d="M-30.8227 304.416L46.4635 356.909C46.9548 357.274 47.0178 357.702 46.6527 358.193C46.2876 358.684 45.8594 358.747 45.3682 358.382L-33.7119 308.559C-34.9085 307.86 -35.3748 306.179 -34.4621 304.951C-33.5178 303.938 -32.0508 303.504 -30.8227 304.416Z" fill="url(#paint13_linear_203_129)"/>
</g>
</g>
</g>
<defs>
<linearGradient id="paint0_linear_203_129" x1="1770.85" y1="162.467" x2="1738.18" y2="144.78" gradientUnits="userSpaceOnUse">
<stop offset="0.00537634" stop-color="#FEA7AF"/>
<stop offset="0.9731" stop-color="#EA47AC"/>
</linearGradient>
<linearGradient id="paint1_linear_203_129" x1="1794.38" y1="150.974" x2="1715.05" y2="159.919" gradientUnits="userSpaceOnUse">
<stop offset="0.00537634" stop-color="#FEA7AF"/>
<stop offset="0.9731" stop-color="#EA47AC"/>
</linearGradient>
<linearGradient id="paint2_linear_203_129" x1="1176.25" y1="121.992" x2="1224.07" y2="90.642" gradientUnits="userSpaceOnUse">
<stop offset="0.00537634" stop-color="#FEA7AF"/>
<stop offset="0.9946" stop-color="#EA47AC" stop-opacity="0"/>
</linearGradient>
<linearGradient id="paint3_linear_203_129" x1="1176.86" y1="121.587" x2="1206.17" y2="102.375" gradientUnits="userSpaceOnUse">
<stop offset="0.00537634" stop-color="#FEA7AF"/>
<stop offset="0.9946" stop-color="#EA47AC" stop-opacity="0"/>
</linearGradient>
<linearGradient id="paint4_linear_203_129" x1="1702.34" y1="329.321" x2="1834.59" y2="242.627" gradientUnits="userSpaceOnUse">
<stop offset="0.00537634" stop-color="#FEA7AF"/>
<stop offset="0.9946" stop-color="#EA47AC" stop-opacity="0"/>
</linearGradient>
<linearGradient id="paint5_linear_203_129" x1="1704.04" y1="328.199" x2="1785.08" y2="275.072" gradientUnits="userSpaceOnUse">
<stop offset="0.00537634" stop-color="#FEA7AF"/>
<stop offset="0.9946" stop-color="#EA47AC" stop-opacity="0"/>
</linearGradient>
<linearGradient id="paint6_linear_203_129" x1="1807.06" y1="298.413" x2="1867.74" y2="258.635" gradientUnits="userSpaceOnUse">
<stop offset="0.00537634" stop-color="#FEA7AF"/>
<stop offset="0.9946" stop-color="#EA47AC" stop-opacity="0"/>
</linearGradient>
<linearGradient id="paint7_linear_203_129" x1="1807.84" y1="297.898" x2="1845.02" y2="273.522" gradientUnits="userSpaceOnUse">
<stop offset="0.00537634" stop-color="#FEA7AF"/>
<stop offset="0.9946" stop-color="#EA47AC" stop-opacity="0"/>
</linearGradient>
<linearGradient id="paint8_linear_203_129" x1="-20.1533" y1="192.455" x2="12.5135" y2="174.768" gradientUnits="userSpaceOnUse">
<stop offset="0.00537634" stop-color="#FEA7AF"/>
<stop offset="0.9731" stop-color="#EA47AC"/>
</linearGradient>
<linearGradient id="paint9_linear_203_129" x1="-43.691" y1="180.963" x2="35.6424" y2="189.908" gradientUnits="userSpaceOnUse">
<stop offset="0.00537634" stop-color="#FEA7AF"/>
<stop offset="0.9731" stop-color="#EA47AC"/>
</linearGradient>
<linearGradient id="paint10_linear_203_129" x1="574.446" y1="151.98" x2="526.625" y2="120.63" gradientUnits="userSpaceOnUse">
<stop offset="0.00537634" stop-color="#FEA7AF"/>
<stop offset="0.9946" stop-color="#EA47AC" stop-opacity="0"/>
</linearGradient>
<linearGradient id="paint11_linear_203_129" x1="573.83" y1="151.575" x2="544.525" y2="132.363" gradientUnits="userSpaceOnUse">
<stop offset="0.00537634" stop-color="#FEA7AF"/>
<stop offset="0.9946" stop-color="#EA47AC" stop-opacity="0"/>
</linearGradient>
<linearGradient id="paint12_linear_203_129" x1="48.356" y1="359.309" x2="-83.8958" y2="272.615" gradientUnits="userSpaceOnUse">
<stop offset="0.00537634" stop-color="#FEA7AF"/>
<stop offset="0.9946" stop-color="#EA47AC" stop-opacity="0"/>
</linearGradient>
<linearGradient id="paint13_linear_203_129" x1="46.6517" y1="358.187" x2="-34.3924" y2="305.06" gradientUnits="userSpaceOnUse">
<stop offset="0.00537634" stop-color="#FEA7AF"/>
<stop offset="0.9946" stop-color="#EA47AC" stop-opacity="0"/>
</linearGradient>
</defs>
</svg>
