<svg width="76" height="62" viewBox="0 0 76 62" fill="none" xmlns="http://www.w3.org/2000/svg">
<path d="M70.6362 36.8491H63.2341L54.4664 47.4164H70.6164C73.5852 47.4164 75.98 45.0572 75.98 42.1327C75.9997 39.2082 73.605 36.8491 70.6362 36.8491Z" fill="#FFDDCE"/>
<path d="M76.0002 42.1326C76.0002 45.0572 73.6054 47.4163 70.6367 47.4163H54.4867L57.5346 43.7509H70.6565C72.9721 43.7509 74.9315 42.3081 75.6836 40.2999C75.8815 40.8653 76.0002 41.4892 76.0002 42.1326Z" fill="#FFCBBE"/>
<path d="M69.8646 26.2621H62.4625L53.6948 36.8489H69.8646C72.8334 36.8489 75.2282 34.4898 75.2282 31.5653C75.2282 28.6408 72.8136 26.2621 69.8646 26.2621Z" fill="#FFDDCE"/>
<path d="M75.2279 31.5459C75.2279 34.4704 72.8331 36.8295 69.8644 36.8295H53.7144L56.7623 33.1641H69.8644C72.18 33.1641 74.1394 31.7214 74.8914 29.7132C75.1091 30.2981 75.2279 30.9025 75.2279 31.5459Z" fill="#FFCBBE"/>
<path d="M65.9852 15.6949H58.5831L49.8154 26.2622H65.9654C68.9342 26.2622 71.329 23.9031 71.329 20.9786C71.3488 18.0541 68.954 15.6949 65.9852 15.6949Z" fill="#FFDDCE"/>
<path d="M71.349 20.9785C71.349 23.903 68.9542 26.2622 65.9854 26.2622H49.8354L52.8834 22.5968H66.0052C68.3209 22.5968 70.2802 21.154 71.0323 19.1458C71.2302 19.7112 71.349 20.3351 71.349 20.9785Z" fill="#FFCBBE"/>
<path d="M46.7481 57.9641H21.8304L10.9054 48.6251L8.37207 37.9409L13.0033 25.3459L18.1096 13.5308C19.5742 10.1189 22.2658 7.3503 25.67 5.75156L35.0314 1.38427C37.3669 0.292441 40.1575 0.760366 41.9981 2.57357C42.6908 3.25596 43.1856 4.07483 43.4825 4.95219C43.6804 5.55659 43.7794 6.19999 43.7794 6.84338C43.7794 7.9547 43.4627 9.06602 42.8294 10.0604L38.9898 16.0654L44.7096 46.9484L46.6294 57.3402L46.7481 57.9641Z" fill="#FFDDCE"/>
<path d="M46.6291 57.3401C46.5104 57.5546 46.3916 57.7496 46.2927 57.964H21.8301L18.1885 44.4722C23.1364 46.6559 35.2885 51.0622 44.7093 46.9483C45.402 46.6364 46.0947 46.2854 46.7479 45.8955C54.6843 41.0798 50.5281 50.3018 46.6291 57.3401Z" fill="#FFCBBE"/>
<path d="M43.4821 4.95219C41.9977 2.57357 35.5456 5.22514 31.3498 7.42829C27.4904 9.43647 17.179 22.3629 16.0113 36.4591L13.0029 25.3654L18.1092 13.5503C19.5738 10.1384 22.2654 7.3698 25.6696 5.77106L35.0311 1.38427C37.3665 0.292441 40.1571 0.760366 41.9977 2.57357C42.6904 3.25596 43.1852 4.07483 43.4821 4.95219Z" fill="#FFCBBE"/>
<path d="M52.3688 4.97162L60.4636 7.5452L57.5938 16.2603L49.499 13.6867L52.3688 4.97162Z" fill="#22C55E"/>
<path d="M62.0072 10.6443C57.6926 9.39648 53.4374 8.03171 49.202 6.56944C47.4801 5.96504 46.5301 4.15183 47.0843 2.43611C47.0843 2.41661 47.1041 2.39711 47.1041 2.37762C47.6781 0.681391 49.5385 -0.254458 51.2801 0.25246C55.5947 1.50026 59.8499 2.86504 64.0854 4.3273C65.8072 4.93171 66.7572 6.74491 66.2031 8.46064C66.2031 8.48013 66.1833 8.49963 66.1833 8.51913C65.6291 10.2154 63.7687 11.1512 62.0072 10.6443Z" fill="#74C58F"/>
<path d="M54.9022 8.46158C53.0022 7.85718 51.1022 7.21378 49.222 6.55089C47.5002 5.94649 46.5502 4.13328 47.1043 2.41755L47.1241 2.35906C47.6981 0.662837 49.5585 -0.273013 51.3002 0.233906C53.22 0.799315 55.1397 1.36472 57.0397 1.96913C55.3575 1.67667 53.6554 2.63202 53.121 4.26976L53.1012 4.32825C52.547 5.98548 53.3585 7.7207 54.9022 8.46158Z" fill="#22C55E"/>
<path d="M62.9175 47.3968H55.5154L46.7477 57.9641H62.8977C65.8664 57.9641 68.2612 55.605 68.2612 52.6804C68.281 49.7559 65.8664 47.3968 62.9175 47.3968Z" fill="#FFDDCE"/>
<path d="M70.5969 34.4704C70.5969 47.4553 59.9291 57.9641 46.7479 57.9641C33.5666 57.9641 22.8989 47.4553 22.8989 34.4704C22.8989 21.505 33.5666 10.9767 46.7479 10.9767C53.0812 10.9767 59.1375 13.4528 63.6104 17.8591C68.0833 22.2654 70.5969 28.2509 70.5969 34.4704Z" fill="#4B6182"/>
<path d="M64.9763 34.4704C64.9763 44.3943 56.8221 52.427 46.7481 52.427C36.6742 52.427 28.52 44.3943 28.52 34.4704C28.52 24.5465 36.6742 16.5138 46.7481 16.5138C56.8221 16.5138 64.9763 24.566 64.9763 34.4704Z" fill="#E6F1FF"/>
<path d="M46.7478 36.771C45.4613 36.771 44.4321 35.7377 44.4321 34.4899V28.6408C44.4321 27.3735 45.4811 26.3597 46.7478 26.3597C48.0342 26.3597 49.0634 27.393 49.0634 28.6408V34.4899C49.0634 35.7377 48.0342 36.771 46.7478 36.771Z" fill="#36B2F7"/>
<path d="M46.748 21.8755C46.1147 21.8755 45.6001 21.3685 45.6001 20.7446V17.1377C45.6001 16.5138 46.1147 16.0069 46.748 16.0069C47.3813 16.0069 47.8959 16.5138 47.8959 17.1377V20.7446C47.8959 21.3685 47.3813 21.8755 46.748 21.8755Z" fill="#03314B"/>
<path d="M46.748 52.9534C46.1147 52.9534 45.6001 52.4465 45.6001 51.8226V48.2157C45.6001 47.5918 46.1147 47.0848 46.748 47.0848C47.3813 47.0848 47.8959 47.5918 47.8959 48.2157V51.8226C47.8959 52.4465 47.3813 52.9534 46.748 52.9534Z" fill="#03314B"/>
<path d="M64.3626 35.6012H60.7011C60.0678 35.6012 59.5532 35.0943 59.5532 34.4704C59.5532 33.8465 60.0678 33.3396 60.7011 33.3396H64.3626C64.9959 33.3396 65.5105 33.8465 65.5105 34.4704C65.4907 35.0943 64.9959 35.6012 64.3626 35.6012Z" fill="#03314B"/>
<path d="M32.8147 35.6012H29.1533C28.52 35.6012 28.0054 35.0943 28.0054 34.4704C28.0054 33.8465 28.52 33.3396 29.1533 33.3396H32.8147C33.4481 33.3396 33.9627 33.8465 33.9627 34.4704C33.9627 35.0943 33.4481 35.6012 32.8147 35.6012Z" fill="#03314B"/>
<path d="M60.1273 27.9974C59.7315 27.9974 59.3356 27.8025 59.1377 27.432C58.821 26.8861 58.9992 26.2037 59.5533 25.8918L61.4335 24.8195C61.9877 24.5075 62.6804 24.683 62.9971 25.2289C63.3138 25.7748 63.1356 26.4572 62.5815 26.7691L60.7013 27.8415C60.5231 27.9585 60.3252 27.9974 60.1273 27.9974Z" fill="#03314B"/>
<path d="M31.5089 44.2774C31.1131 44.2774 30.7371 44.0824 30.5194 43.7119C30.2027 43.166 30.4006 42.4836 30.935 42.1717L32.8152 41.0994C33.3694 40.7874 34.0621 40.9824 34.3787 41.5088C34.6954 42.0547 34.4975 42.7371 33.9631 43.0491L32.0829 44.1214C31.9048 44.2189 31.7069 44.2774 31.5089 44.2774Z" fill="#03314B"/>
<path d="M54.4666 22.4408C54.2687 22.4408 54.0708 22.3823 53.8927 22.2849C53.3385 21.9729 53.1604 21.2905 53.4771 20.7446L54.5656 18.8924C54.8823 18.3465 55.575 18.171 56.1291 18.483C56.6833 18.7949 56.8614 19.4773 56.5448 20.0232L55.4562 21.8754C55.2583 22.2264 54.8625 22.4408 54.4666 22.4408Z" fill="#03314B"/>
<path d="M37.9406 50.6333C37.7427 50.6333 37.5448 50.5748 37.3667 50.4774C36.8125 50.1654 36.6344 49.483 36.9511 48.9371L38.0396 47.0849C38.3563 46.539 39.049 46.3635 39.6031 46.6755C40.1573 46.9874 40.3354 47.6698 40.0188 48.2157L38.9302 50.0679C38.7323 50.4189 38.3365 50.6333 37.9406 50.6333Z" fill="#03314B"/>
<path d="M39.0295 22.4408C38.6337 22.4408 38.2576 22.2459 38.0399 21.8754L36.9514 20.0232C36.6347 19.4773 36.8326 18.7949 37.367 18.483C37.9212 18.171 38.6139 18.3465 38.9305 18.8924L40.0191 20.7446C40.3357 21.2905 40.1378 21.9729 39.6034 22.2849C39.4253 22.3823 39.2274 22.4408 39.0295 22.4408Z" fill="#03314B"/>
<path d="M55.5552 50.6333C55.1593 50.6333 54.7635 50.4384 54.5656 50.0679L53.4771 48.2157C53.1604 47.6698 53.3385 46.9874 53.8927 46.6755C54.4468 46.3635 55.1396 46.539 55.4562 47.0849L56.5448 48.9371C56.8614 49.483 56.6833 50.1654 56.1291 50.4774C55.951 50.5748 55.7531 50.6333 55.5552 50.6333Z" fill="#03314B"/>
<path d="M33.3688 27.9974C33.1709 27.9974 32.973 27.939 32.7949 27.8415L30.9147 26.7691C30.3605 26.4572 30.1824 25.7748 30.499 25.2289C30.8157 24.683 31.5084 24.5075 32.0626 24.8195L33.9428 25.8918C34.4969 26.2037 34.6751 26.8861 34.3584 27.432C34.1605 27.8025 33.7646 27.9974 33.3688 27.9974Z" fill="#03314B"/>
<path d="M61.9875 44.2773C61.7896 44.2773 61.5916 44.2188 61.4135 44.1213L59.5333 43.049C58.9791 42.737 58.801 42.0546 59.1177 41.5087C59.4344 40.9628 60.1271 40.7874 60.6812 41.0993L62.5614 42.1716C63.1156 42.4836 63.2937 43.166 62.9771 43.7119C62.7792 44.0823 62.3833 44.2773 61.9875 44.2773Z" fill="#03314B"/>
<path d="M46.7481 53.5578C36.0606 53.5578 27.3721 44.9987 27.3721 34.4704C27.3721 23.9421 36.0606 15.3829 46.7481 15.3829C57.4356 15.3829 66.1242 23.9421 66.1242 34.4704C66.1242 44.9987 57.4356 53.5578 46.7481 53.5578ZM46.7481 17.6446C37.3273 17.6446 29.6679 25.1899 29.6679 34.4704C29.6679 43.7509 37.3273 51.2962 46.7481 51.2962C56.169 51.2962 63.8283 43.7509 63.8283 34.4704C63.8283 25.1899 56.169 17.6446 46.7481 17.6446Z" fill="#7183A5"/>
<path d="M21.8302 57.9641L8.80729 61.9025L3.20625 41.1383L0 29.3037L13.0229 25.3654L16.2292 37.1999L21.8302 57.9641Z" fill="#22C55E"/>
<path d="M16.2292 37.1999L3.20625 41.1383L0 29.3037L13.0229 25.3654L16.2292 37.1999Z" fill="#74C58F"/>
</svg>
