<svg width="68" height="67" viewBox="0 0 68 67" fill="none" xmlns="http://www.w3.org/2000/svg">
<path d="M23.7114 15.7031L41.3135 10.6083L40.2156 50.8781L30.4406 47.2839L23.7114 37.1466V15.7031Z" fill="#E6F1FF"/>
<path d="M45.3334 12.8068V49.4648H39.6667V12.7893L42.6949 9.78827L45.3334 12.8068Z" fill="#22C55E"/>
<path d="M56.6666 30.7083C56.6666 38.4203 50.327 44.6667 42.4999 44.6667C34.6728 44.6667 28.3333 38.4203 28.3333 30.7083C28.3333 22.9964 34.6728 16.75 42.4999 16.75C50.327 16.75 56.6666 22.9964 56.6666 30.7083Z" fill="#E6F1FF"/>
<path d="M42.4999 44.6667C34.6905 44.6667 28.3333 38.4029 28.3333 30.7083C28.3333 23.0138 34.6905 16.75 42.4999 16.75C50.3093 16.75 56.6666 23.0138 56.6666 30.7083C56.6666 38.4029 50.3093 44.6667 42.4999 44.6667ZM42.4999 20.9375C37.028 20.9375 32.5833 25.3169 32.5833 30.7083C32.5833 36.0997 37.028 40.4792 42.4999 40.4792C47.9718 40.4792 52.4166 36.0997 52.4166 30.7083C52.4166 25.3169 47.9718 20.9375 42.4999 20.9375Z" fill="#03314B"/>
<path d="M47.4584 30.7084C47.4584 33.4128 45.2449 35.5938 42.5001 35.5938C39.7553 35.5938 37.5417 33.4128 37.5417 30.7084C37.5417 28.0039 39.7553 25.8229 42.5001 25.8229C45.2449 25.8229 47.4584 28.0039 47.4584 30.7084Z" fill="#03314B"/>
<path d="M42.5 32.802C41.9511 32.802 41.4198 32.5927 40.9948 32.1914C40.1625 31.3713 40.1625 30.0453 40.9948 29.2252L49.4948 20.8502C50.3271 20.0302 51.673 20.0302 52.5053 20.8502C53.3376 21.6703 53.3376 22.9963 52.5053 23.8164L44.0052 32.1914C43.5802 32.5927 43.049 32.802 42.5 32.802Z" fill="#FED64E"/>
<path d="M58.7916 23.7291H51.7083C50.5395 23.7291 49.5833 22.7869 49.5833 21.6354V14.6562C49.5833 14.0979 49.8135 13.5744 50.203 13.1731L57.2864 6.19396C57.8885 5.60073 58.8093 5.42625 59.6062 5.74031C60.403 6.07182 60.9166 6.82208 60.9166 7.67703V12.5624H65.8749C66.7249 12.5624 67.5041 13.0684 67.8405 13.8536C68.177 14.6387 67.9822 15.5286 67.3801 16.1393L60.2968 23.1184C59.8895 23.5023 59.3582 23.7291 58.7916 23.7291Z" fill="#36B2F7"/>
<path d="M39.6667 12.7893V8.375C39.6667 6.83958 38.3917 5.58333 36.8333 5.58333H35.4167C33.8583 5.58333 32.5833 6.83958 32.5833 8.375C32.5833 9.91042 31.3083 11.1667 29.75 11.1667H15.5833C14.025 11.1667 12.75 9.91042 12.75 8.375C12.75 6.83958 11.475 5.58333 9.91667 5.58333H8.5C6.94167 5.58333 5.66667 6.83958 5.66667 8.375V58.625C5.66667 60.1604 6.94167 61.4167 8.5 61.4167H36.8333C38.3917 61.4167 39.6667 60.1604 39.6667 58.625V48.6273C40.5698 48.7669 41.5438 48.8542 42.5 48.8542C43.4563 48.8542 44.4302 48.7669 45.3333 48.6273V58.625C45.3333 63.2313 41.5083 67 36.8333 67H8.5C3.825 67 0 63.2313 0 58.625V8.375C0 3.76875 3.825 0 8.5 0H36.8333C41.5083 0 45.3333 3.76875 45.3333 8.375V12.8068C44.4302 12.6323 43.4563 12.5625 42.5 12.5625C41.5438 12.5625 40.5698 12.6497 39.6667 12.7893Z" fill="#22C55E"/>
<path d="M24.0834 30.7083C24.0834 39.7463 30.848 47.2838 39.6667 48.6273V58.625C39.6667 60.1604 38.3917 61.4167 36.8334 61.4167H8.50008C6.94175 61.4167 5.66675 60.1604 5.66675 58.625V8.37498C5.66675 6.83956 6.94175 5.58331 8.50008 5.58331H9.91675C11.4751 5.58331 12.7501 6.83956 12.7501 8.37498C12.7501 9.9104 14.0251 11.1666 15.5834 11.1666H29.7501C31.3084 11.1666 32.5834 9.9104 32.5834 8.37498C32.5834 6.83956 33.8584 5.58331 35.4167 5.58331H36.8334C38.3917 5.58331 39.6667 6.83956 39.6667 8.37498V12.7893C30.848 14.1328 24.0834 21.6703 24.0834 30.7083Z" fill="#E6F1FF"/>
<path d="M22.6667 0H8.5C3.825 0 0 3.76875 0 8.375V58.625C0 63.2313 3.825 67 8.5 67H22.6667V61.4167H8.5C6.94167 61.4167 5.66667 60.1604 5.66667 58.625V8.375C5.66667 6.83958 6.94167 5.58333 8.5 5.58333H9.91667C11.475 5.58333 12.75 6.83958 12.75 8.375C12.75 9.91042 14.025 11.1667 15.5833 11.1667H22.6667V0Z" fill="#74C58F"/>
<path d="M9.91675 5.58331H8.50008C6.94175 5.58331 5.66675 6.83956 5.66675 8.37498V58.625C5.66675 60.1604 6.94175 61.4167 8.50008 61.4167H22.6667V11.1666H15.5834C14.0251 11.1666 12.7501 9.9104 12.7501 8.37498C12.7501 6.83956 11.4751 5.58331 9.91675 5.58331Z" fill="#CCE2FF"/>
<path d="M42.4999 20.9375C37.028 20.9375 32.5833 25.3169 32.5833 30.7083C32.5833 33.3953 33.6989 35.838 35.4874 37.6177L38.9937 34.163C38.0905 33.2732 37.5416 32.0518 37.5416 30.7083C37.5416 28.0039 39.7551 25.8229 42.4999 25.8229C43.0843 25.8229 43.651 25.9276 44.1645 26.1021L47.8478 22.4729C46.3072 21.4958 44.4655 20.9375 42.4999 20.9375Z" fill="#CCE2FF"/>
<path d="M42.4999 16.75C34.6905 16.75 28.3333 23.0138 28.3333 30.7083C28.3333 34.5469 29.927 38.0365 32.4947 40.5664L35.5051 37.6003C33.6989 35.838 32.5833 33.3953 32.5833 30.7083C32.5833 25.3169 37.028 20.9375 42.4999 20.9375C44.4655 20.9375 46.3072 21.4958 47.8478 22.4729L49.4947 20.8503C49.5301 20.8154 49.5478 20.7979 49.5833 20.763V18.6169C47.4937 17.4305 45.0853 16.75 42.4999 16.75Z" fill="#03314B"/>
<path d="M42.5001 25.8229C39.7553 25.8229 37.5417 28.0039 37.5417 30.7084C37.5417 32.0518 38.0907 33.2732 38.9938 34.163L40.9949 32.1914C40.1626 31.3714 40.1626 30.0453 40.9949 29.2253L44.1647 26.1021C43.6511 25.9276 43.0845 25.8229 42.5001 25.8229Z" fill="#03314B"/>
<path d="M49.5834 20.7805C49.548 20.7979 49.5302 20.8328 49.4948 20.8677L47.848 22.4904L44.1646 26.1195L40.9948 29.2427C40.1625 30.0627 40.1625 31.3888 40.9948 32.2088L50.2032 23.1359C49.8136 22.7521 49.5834 22.2286 49.5834 21.6529V20.7805Z" fill="#FEE97D"/>
<path d="M58.7916 5.58331C58.2426 5.58331 57.6937 5.79269 57.2864 6.19399L50.203 13.1732C49.7958 13.557 49.5833 14.0979 49.5833 14.6562V21.6354C49.5833 22.2112 49.8135 22.7346 50.203 23.1185L60.9166 12.5625V7.67706C60.9166 6.83956 60.403 6.07185 59.6062 5.74034C59.3405 5.63566 59.0749 5.58331 58.7916 5.58331Z" fill="#36B2F7"/>
</svg>
