<svg width="70" height="66" viewBox="0 0 70 66" fill="none" xmlns="http://www.w3.org/2000/svg">
<path d="M35.0002 0C45.172 0 53.4663 8.32333 53.4663 18.5717V36.1717H16.5522V18.5717C16.534 8.32333 24.8283 0 35.0002 0Z" fill="#03314B"/>
<path d="M16.5339 18.5717C16.5339 8.32333 24.8281 0 35 0V36.1717H16.5339V18.5717Z" fill="#054468"/>
<path d="M22.6955 33H24.7554L28.8569 35.0533H41.1616L45.245 33H47.3048C52.9559 33 57.5679 37.62 57.5679 43.3033V51.5533H12.4507V43.3033C12.4324 37.62 17.0444 33 22.6955 33Z" fill="#22C55E"/>
<path d="M12.4323 43.3217C12.4323 37.6384 17.026 33.0184 22.6953 33.0184H24.7552L28.8568 35.0717H35V51.5717H12.4323V43.3217Z" fill="#22C55E"/>
<path d="M28.8566 33L32.9582 35.0533H37.0597L41.1431 33H45.2446V35.0533C45.2446 40.7367 40.6509 45.375 34.9816 45.375C29.3123 45.375 24.7186 40.755 24.7186 35.0533V33H28.8566Z" fill="#00BFA5"/>
<path d="M24.737 35.0717V33H28.8386L32.9401 35.0533H35V45.375C29.349 45.375 24.737 40.755 24.737 35.0717Z" fill="#00BFA5"/>
<path d="M30.8986 30.9467V28.875H39.1017V30.9467C39.1017 32.0833 40.0132 33.0183 41.1616 33.0183V35.0717C41.1616 38.4817 38.409 41.2683 35.0002 41.2683C31.5913 41.2683 28.8569 38.5 28.8569 35.0717V33C29.9871 33 30.8986 32.0833 30.8986 30.9467Z" fill="#FFCAD0"/>
<path d="M28.8568 35.0716V33C29.987 33 30.9167 32.0833 30.9167 30.9283V28.8566H35V41.25C31.6094 41.25 28.8568 38.4816 28.8568 35.0716Z" fill="#FFCAD0"/>
<path d="M26.797 12.375H35.0002C36.5679 12.375 37.9897 11.7517 39.1017 10.7983C40.2137 11.7517 41.6356 12.375 43.2033 12.375C44.3517 12.375 45.2632 13.2733 45.2632 14.4467V22.6967C45.2632 28.3983 40.6694 33.0183 35.0002 33.0183C29.3309 33.0183 24.7371 28.3983 24.7371 22.6967V14.4467C24.7371 13.2733 25.6486 12.375 26.797 12.375Z" fill="#FFBAC1"/>
<path d="M24.737 22.6967V14.4467C24.737 13.2917 25.6302 12.375 26.7969 12.375H35V33C29.3307 33 24.737 28.38 24.737 22.6967Z" fill="#FFBAC1"/>
<path d="M61.651 53.625C66.1719 53.625 70 57.3283 70 61.875V63.9467C70 65.0833 69.0885 66 67.9401 66H57.1849L54.1224 60.7567L59.5911 53.9183C60.2656 53.7533 60.9583 53.625 61.651 53.625Z" fill="#FFCAD0"/>
<path d="M8.33082 53.625C9.04175 53.625 9.73446 53.7533 10.4089 53.9183L15.823 60.5L12.8152 66H2.05998C0.92977 66 8.4877e-05 65.0833 8.4877e-05 63.9283V61.8567C8.4877e-05 57.3283 3.80998 53.625 8.33082 53.625Z" fill="#FFCAD0"/>
<path d="M8.80441 42.0017C9.18723 41.525 9.77056 41.25 10.3904 41.25H59.6091C60.2289 41.25 60.8122 41.525 61.195 42.0017C61.5779 42.4783 61.7419 43.1017 61.6143 43.7067L57.1846 66H12.8148L8.38515 43.725C8.25754 43.12 8.4216 42.4783 8.80441 42.0017Z" fill="#CCE2FF"/>
<path d="M10.4088 53.9183L8.3854 43.7067C8.2578 43.1017 8.42186 42.4783 8.80467 42.0017C9.18748 41.525 9.77082 41.25 10.3906 41.25H35V66H12.8151L10.4088 53.9183Z" fill="#E6F1FF"/>
<path d="M32.9585 55.6967C32.9585 56.8333 33.87 57.7683 35.0002 57.7683C36.1304 57.7683 37.0601 56.8517 37.0601 55.6967C37.0601 54.56 36.1486 53.625 35.0002 53.625C33.87 53.625 32.9585 54.5417 32.9585 55.6967Z" fill="#FEE97D"/>
<path d="M32.9583 55.6967C32.9583 54.56 33.8698 53.625 35 53.625V57.75C33.8698 57.75 32.9583 56.8333 32.9583 55.6967Z" fill="#FEE97D"/>
</svg>
